<svg xmlns="http://www.w3.org/2000/svg" viewBox="0 0 1920 1080" width="1920" height="1080" fill="none"><path d="M -267.9 -124.1 C -229.3 -123.0 -114.4 -113.9 -36.2 -117.1 C 42.0 -120.3 126.9 -123.3 201.2 -143.2 C 275.6 -163.1 350.7 -217.0 410.1 -236.6 C 469.4 -256.2 500.9 -238.7 557.5 -260.8 C 614.0 -283.0 703.6 -335.2 749.5 -369.3 C 795.3 -403.4 788.9 -435.0 832.4 -465.4 C 876.0 -495.9 956.0 -518.9 1010.8 -551.8 C 1065.6 -584.8 1113.1 -617.5 1161.4 -663.0 C 1209.7 -708.6 1263.1 -782.5 1300.7 -825.4 C 1338.4 -868.3 1358.7 -877.5 1387.2 -920.2 C 1415.7 -962.9 1443.4 -1018.6 1471.8 -1081.6 C 1500.3 -1144.6 1533.5 -1224.0 1557.8 -1298.4 C 1582.0 -1372.8 1605.2 -1451.2 1617.3 -1528.1 C 1629.4 -1605.1 1619.5 -1693.9 1630.4 -1760.1 C 1641.4 -1826.3 1670.4 -1874.6 1683.1 -1925.4 C 1695.7 -1976.2 1704.1 -2017.6 1706.3 -2065.0 C 1708.6 -2112.5 1710.2 -2157.4 1696.5 -2210.3 C 1682.8 -2263.2 1642.4 -2315.1 1624.1 -2382.4 C 1605.8 -2449.7 1593.1 -2575.4 1586.9 -2614.0" stroke="#07231A" stroke-width="63" stroke-linecap="round" stroke-linejoin="round"></path><path d="M -267.9 -124.1 C -229.3 -123.0 -114.4 -113.9 -36.2 -117.1 C 42.0 -120.3 126.9 -123.3 201.2 -143.2 C 275.6 -163.1 350.7 -217.0 410.1 -236.6 C 469.4 -256.2 500.9 -238.7 557.5 -260.8 C 614.0 -283.0 703.6 -335.2 749.5 -369.3 C 795.3 -403.4 788.9 -435.0 832.4 -465.4 C 876.0 -495.9 956.0 -518.9 1010.8 -551.8 C 1065.6 -584.8 1113.1 -617.5 1161.4 -663.0 C 1209.7 -708.6 1263.1 -782.5 1300.7 -825.4 C 1338.4 -868.3 1358.7 -877.5 1387.2 -920.2 C 1415.7 -962.9 1443.4 -1018.6 1471.8 -1081.6 C 1500.3 -1144.6 1533.5 -1224.0 1557.8 -1298.4 C 1582.0 -1372.8 1605.2 -1451.2 1617.3 -1528.1 C 1629.4 -1605.1 1619.5 -1693.9 1630.4 -1760.1 C 1641.4 -1826.3 1670.4 -1874.6 1683.1 -1925.4 C 1695.7 -1976.2 1704.1 -2017.6 1706.3 -2065.0 C 1708.6 -2112.5 1710.2 -2157.4 1696.5 -2210.3 C 1682.8 -2263.2 1642.4 -2315.1 1624.1 -2382.4 C 1605.8 -2449.7 1593.1 -2575.4 1586.9 -2614.0" stroke="#C6F66E" stroke-width="49" stroke-linecap="round" stroke-linejoin="round" opacity="0.8632902669487521"></path><path d="M 757.6 1191.5 C 765.5 1159.9 781.8 1068.9 804.7 1001.6 C 827.6 934.4 861.8 844.2 895.0 788.1 C 928.2 731.9 986.7 697.5 1004.1 664.7 C 1021.6 631.9 1009.5 611.7 999.6 591.3 C 989.7 571.0 966.0 550.0 944.6 542.7 C 923.2 535.3 891.5 537.2 871.2 547.2 C 850.9 557.1 829.9 580.8 822.5 602.2 C 815.1 623.6 817.1 655.2 827.0 675.6 C 836.9 695.9 860.7 716.9 882.1 724.3 C 903.5 731.6 935.1 729.7 955.4 719.8 C 975.8 709.8 963.4 697.0 1004.1 664.7 C 1044.8 632.4 1153.2 567.6 1199.5 526.2 C 1245.8 484.7 1242.9 458.7 1281.9 415.8 C 1320.9 372.9 1393.2 310.7 1433.4 268.8 C 1473.7 226.9 1479.8 200.5 1523.5 164.7 C 1567.1 128.8 1654.8 69.7 1695.4 53.8 C 1736.0 37.9 1748.6 56.4 1767.2 69.3 C 1785.8 82.2 1803.0 108.8 1807.1 131.1 C 1811.1 153.3 1804.4 184.3 1791.6 202.9 C 1778.7 221.5 1752.1 238.7 1729.8 242.8 C 1707.5 246.8 1676.6 240.1 1657.9 227.2 C 1639.3 214.4 1622.2 187.7 1618.1 165.5 C 1614.1 143.2 1620.7 112.2 1633.6 93.6 C 1646.5 75.0 1646.5 68.3 1695.4 53.8 C 1744.2 39.3 1867.5 17.1 1926.7 6.4 C 1985.9 -4.2 2004.6 -7.8 2050.8 -9.9 C 2097.0 -12.1 2140.7 -1.9 2204.0 -6.4 C 2267.3 -10.8 2359.2 -23.0 2430.7 -36.7 C 2502.2 -50.3 2564.9 -75.2 2633.1 -88.2 C 2701.3 -101.2 2769.8 -109.8 2839.9 -114.6 C 2910.0 -119.4 3009.6 -107.8 3053.8 -117.0 C 3098.0 -126.1 3096.8 -148.5 3105.2 -169.5 C 3113.6 -190.5 3113.3 -222.2 3104.4 -243.0 C 3095.5 -263.8 3072.8 -286.0 3051.8 -294.4 C 3030.8 -302.8 2999.1 -302.5 2978.3 -293.6 C 2957.5 -284.7 2935.4 -262.0 2926.9 -241.0 C 2918.5 -220.0 2918.9 -188.3 2927.8 -167.5 C 2936.7 -146.7 2959.3 -124.6 2980.3 -116.1 C 3001.3 -107.7 3017.6 -116.1 3053.8 -117.0 C 3090.1 -117.8 3141.3 -128.8 3197.8 -121.2 C 3254.4 -113.7 3333.1 -95.2 3393.1 -71.7 C 3453.1 -48.2 3530.3 4.5 3557.7 19.7" stroke="#07231A" stroke-width="65" stroke-linecap="round" stroke-linejoin="round"></path><path d="M 757.6 1191.5 C 765.5 1159.9 781.8 1068.9 804.7 1001.6 C 827.6 934.4 861.8 844.2 895.0 788.1 C 928.2 731.9 986.7 697.5 1004.1 664.7 C 1021.6 631.9 1009.5 611.7 999.6 591.3 C 989.7 571.0 966.0 550.0 944.6 542.7 C 923.2 535.3 891.5 537.2 871.2 547.2 C 850.9 557.1 829.9 580.8 822.5 602.2 C 815.1 623.6 817.1 655.2 827.0 675.6 C 836.9 695.9 860.7 716.9 882.1 724.3 C 903.5 731.6 935.1 729.7 955.4 719.8 C 975.8 709.8 963.4 697.0 1004.1 664.7 C 1044.8 632.4 1153.2 567.6 1199.5 526.2 C 1245.8 484.7 1242.9 458.7 1281.9 415.8 C 1320.9 372.9 1393.2 310.7 1433.4 268.8 C 1473.7 226.9 1479.8 200.5 1523.5 164.7 C 1567.1 128.8 1654.8 69.7 1695.4 53.8 C 1736.0 37.9 1748.6 56.4 1767.2 69.3 C 1785.8 82.2 1803.0 108.8 1807.1 131.1 C 1811.1 153.3 1804.4 184.3 1791.6 202.9 C 1778.7 221.5 1752.1 238.7 1729.8 242.8 C 1707.5 246.8 1676.6 240.1 1657.9 227.2 C 1639.3 214.4 1622.2 187.7 1618.1 165.5 C 1614.1 143.2 1620.7 112.2 1633.6 93.6 C 1646.5 75.0 1646.5 68.3 1695.4 53.8 C 1744.2 39.3 1867.5 17.1 1926.7 6.4 C 1985.9 -4.2 2004.6 -7.8 2050.8 -9.9 C 2097.0 -12.1 2140.7 -1.9 2204.0 -6.4 C 2267.3 -10.8 2359.2 -23.0 2430.7 -36.7 C 2502.2 -50.3 2564.9 -75.2 2633.1 -88.2 C 2701.3 -101.2 2769.8 -109.8 2839.9 -114.6 C 2910.0 -119.4 3009.6 -107.8 3053.8 -117.0 C 3098.0 -126.1 3096.8 -148.5 3105.2 -169.5 C 3113.6 -190.5 3113.3 -222.2 3104.4 -243.0 C 3095.5 -263.8 3072.8 -286.0 3051.8 -294.4 C 3030.8 -302.8 2999.1 -302.5 2978.3 -293.6 C 2957.5 -284.7 2935.4 -262.0 2926.9 -241.0 C 2918.5 -220.0 2918.9 -188.3 2927.8 -167.5 C 2936.7 -146.7 2959.3 -124.6 2980.3 -116.1 C 3001.3 -107.7 3017.6 -116.1 3053.8 -117.0 C 3090.1 -117.8 3141.3 -128.8 3197.8 -121.2 C 3254.4 -113.7 3333.1 -95.2 3393.1 -71.7 C 3453.1 -48.2 3530.3 4.5 3557.7 19.7" stroke="#A3E635" stroke-width="51" stroke-linecap="round" stroke-linejoin="round" opacity="0.7423195357900112"></path><path d="M 871.7 -156.9 C 870.7 -126.0 858.4 -29.4 865.9 28.6 C 873.4 86.7 892.9 140.7 916.6 191.4 C 940.2 242.0 977.0 307.5 1007.6 332.6 C 1038.2 357.7 1073.7 351.4 1099.9 341.9 C 1126.1 332.4 1155.9 301.9 1164.8 275.5 C 1173.7 249.1 1168.5 206.9 1153.4 183.4 C 1138.3 160.0 1101.9 137.8 1074.2 135.0 C 1046.5 132.2 1006.4 146.7 986.9 166.6 C 967.5 186.6 953.9 226.9 957.3 254.6 C 960.7 282.2 983.8 293.3 1007.6 332.6 C 1031.4 371.9 1072.4 424.0 1099.9 490.6 C 1127.5 557.1 1143.1 657.3 1172.8 732.0 C 1202.5 806.6 1251.0 871.9 1278.1 938.6 C 1305.3 1005.3 1317.1 1071.9 1335.8 1132.1 C 1354.4 1192.2 1370.9 1234.4 1390.3 1299.5 C 1409.7 1364.5 1444.8 1445.4 1452.2 1522.4 C 1459.6 1599.4 1445.6 1687.5 1434.5 1761.5 C 1423.4 1835.5 1395.9 1886.2 1385.8 1966.5 C 1375.7 2046.9 1375.0 2161.6 1373.8 2243.4 C 1372.6 2325.2 1377.1 2383.9 1378.8 2457.3 C 1380.4 2530.6 1394.7 2635.9 1383.6 2683.5 C 1372.5 2731.1 1339.3 2736.1 1312.3 2742.9 C 1285.2 2749.7 1243.5 2741.1 1221.3 2724.2 C 1199.2 2707.3 1179.9 2669.3 1179.3 2641.4 C 1178.7 2613.6 1196.4 2574.8 1217.8 2557.0 C 1239.2 2539.1 1280.5 2528.8 1307.8 2534.4 C 1335.1 2540.0 1369.0 2565.9 1381.6 2590.7 C 1394.2 2615.6 1382.4 2639.1 1383.6 2683.5 C 1384.7 2727.9 1396.8 2778.4 1388.5 2857.0 C 1380.2 2935.6 1337.0 3064.8 1333.7 3155.1 C 1330.4 3245.5 1361.4 3317.2 1368.8 3399.2 C 1376.1 3481.1 1378.7 3571.5 1377.8 3646.8 C 1376.9 3722.1 1378.4 3808.0 1363.2 3850.8 C 1348.0 3893.5 1314.2 3899.1 1286.6 3903.3 C 1259.1 3907.5 1218.3 3895.1 1197.9 3876.2 C 1177.4 3857.3 1161.7 3817.7 1163.7 3789.9 C 1165.7 3762.1 1186.8 3725.2 1209.8 3709.4 C 1232.8 3693.6 1274.9 3687.1 1301.6 3695.3 C 1328.2 3703.4 1359.5 3732.3 1369.8 3758.2 C 1380.1 3784.1 1377.5 3801.8 1363.2 3850.8 C 1348.8 3899.8 1308.1 3994.8 1283.8 4052.1 C 1259.5 4109.4 1221.5 4157.0 1217.3 4194.6 C 1213.1 4232.1 1236.6 4260.6 1258.6 4277.7 C 1280.6 4294.8 1322.2 4303.8 1349.3 4297.3 C 1376.4 4290.8 1409.4 4263.8 1421.2 4238.6 C 1433.0 4213.3 1432.5 4170.7 1420.1 4145.7 C 1407.7 4120.8 1374.1 4094.6 1346.8 4088.7 C 1319.6 4082.9 1278.2 4092.8 1256.6 4110.5 C 1235.0 4128.1 1245.0 4137.7 1217.3 4194.6 C 1189.6 4251.4 1120.5 4359.6 1090.5 4451.5 C 1060.5 4543.5 1046.1 4697.0 1037.2 4746.1" stroke="#07231A" stroke-width="58" stroke-linecap="round" stroke-linejoin="round"></path><path d="M 871.7 -156.9 C 870.7 -126.0 858.4 -29.4 865.9 28.6 C 873.4 86.7 892.9 140.7 916.6 191.4 C 940.2 242.0 977.0 307.5 1007.6 332.6 C 1038.2 357.7 1073.7 351.4 1099.9 341.9 C 1126.1 332.4 1155.9 301.9 1164.8 275.5 C 1173.7 249.1 1168.5 206.9 1153.4 183.4 C 1138.3 160.0 1101.9 137.8 1074.2 135.0 C 1046.5 132.2 1006.4 146.7 986.9 166.6 C 967.5 186.6 953.9 226.9 957.3 254.6 C 960.7 282.2 983.8 293.3 1007.6 332.6 C 1031.4 371.9 1072.4 424.0 1099.9 490.6 C 1127.5 557.1 1143.1 657.3 1172.8 732.0 C 1202.5 806.6 1251.0 871.9 1278.1 938.6 C 1305.3 1005.3 1317.1 1071.9 1335.8 1132.1 C 1354.4 1192.2 1370.9 1234.4 1390.3 1299.5 C 1409.7 1364.5 1444.8 1445.4 1452.2 1522.4 C 1459.6 1599.4 1445.6 1687.5 1434.5 1761.5 C 1423.4 1835.5 1395.9 1886.2 1385.8 1966.5 C 1375.7 2046.9 1375.0 2161.6 1373.8 2243.4 C 1372.6 2325.2 1377.1 2383.9 1378.8 2457.3 C 1380.4 2530.6 1394.7 2635.9 1383.6 2683.5 C 1372.5 2731.1 1339.3 2736.1 1312.3 2742.9 C 1285.2 2749.7 1243.5 2741.1 1221.3 2724.2 C 1199.2 2707.3 1179.9 2669.3 1179.3 2641.4 C 1178.7 2613.6 1196.4 2574.8 1217.8 2557.0 C 1239.2 2539.1 1280.5 2528.8 1307.8 2534.4 C 1335.1 2540.0 1369.0 2565.9 1381.6 2590.7 C 1394.2 2615.6 1382.4 2639.1 1383.6 2683.5 C 1384.7 2727.9 1396.8 2778.4 1388.5 2857.0 C 1380.2 2935.6 1337.0 3064.8 1333.7 3155.1 C 1330.4 3245.5 1361.4 3317.2 1368.8 3399.2 C 1376.1 3481.1 1378.7 3571.5 1377.8 3646.8 C 1376.9 3722.1 1378.4 3808.0 1363.2 3850.8 C 1348.0 3893.5 1314.2 3899.1 1286.6 3903.3 C 1259.1 3907.5 1218.3 3895.1 1197.9 3876.2 C 1177.4 3857.3 1161.7 3817.7 1163.7 3789.9 C 1165.7 3762.1 1186.8 3725.2 1209.8 3709.4 C 1232.8 3693.6 1274.9 3687.1 1301.6 3695.3 C 1328.2 3703.4 1359.5 3732.3 1369.8 3758.2 C 1380.1 3784.1 1377.5 3801.8 1363.2 3850.8 C 1348.8 3899.8 1308.1 3994.8 1283.8 4052.1 C 1259.5 4109.4 1221.5 4157.0 1217.3 4194.6 C 1213.1 4232.1 1236.6 4260.6 1258.6 4277.7 C 1280.6 4294.8 1322.2 4303.8 1349.3 4297.3 C 1376.4 4290.8 1409.4 4263.8 1421.2 4238.6 C 1433.0 4213.3 1432.5 4170.7 1420.1 4145.7 C 1407.7 4120.8 1374.1 4094.6 1346.8 4088.7 C 1319.6 4082.9 1278.2 4092.8 1256.6 4110.5 C 1235.0 4128.1 1245.0 4137.7 1217.3 4194.6 C 1189.6 4251.4 1120.5 4359.6 1090.5 4451.5 C 1060.5 4543.5 1046.1 4697.0 1037.2 4746.1" stroke="#2E9C82" stroke-width="44" stroke-linecap="round" stroke-linejoin="round" opacity="0.8281553160632029"></path><path d="M 1514.0 -62.4 C 1488.6 -34.0 1384.3 63.9 1361.6 108.1 C 1338.9 152.3 1361.0 179.1 1377.6 202.5 C 1394.3 226.0 1432.7 247.2 1461.4 248.8 C 1490.2 250.5 1530.8 233.6 1549.9 212.2 C 1569.1 190.8 1581.3 148.5 1576.4 120.2 C 1571.6 91.8 1546.2 56.0 1521.0 42.1 C 1495.9 28.2 1452.0 25.7 1425.4 36.7 C 1398.9 47.7 1397.7 67.9 1361.6 108.1 C 1325.6 148.3 1245.6 222.0 1209.2 277.9 C 1172.7 333.8 1155.7 376.0 1143.1 443.7 C 1130.5 511.4 1147.0 616.5 1133.6 684.1 C 1120.1 751.6 1089.1 788.1 1062.2 848.9 C 1035.2 909.7 1011.9 980.8 971.9 1048.8 C 931.8 1116.9 870.7 1191.8 821.8 1257.3 C 772.9 1322.8 718.0 1384.7 678.5 1442.0 C 639.0 1499.3 616.4 1572.5 585.0 1601.3 C 553.7 1630.1 517.7 1623.5 490.2 1614.9 C 462.8 1606.2 430.8 1576.1 420.5 1549.2 C 410.2 1522.4 413.8 1478.6 428.3 1453.8 C 442.9 1429.0 479.4 1404.5 507.8 1400.4 C 536.3 1396.3 578.2 1409.6 599.1 1429.3 C 620.1 1449.0 635.8 1490.0 633.5 1518.7 C 631.1 1547.3 598.7 1553.8 585.0 1601.3 C 571.4 1648.7 560.8 1732.2 551.8 1803.5 C 542.7 1874.9 522.6 1956.0 530.7 2029.4 C 538.9 2102.9 586.9 2162.1 600.4 2244.3 C 614.0 2326.5 593.1 2439.7 612.0 2522.8 C 630.8 2605.8 685.4 2664.7 713.7 2742.6 C 741.9 2820.5 763.4 2898.2 781.6 2990.4 C 799.8 3082.6 802.3 3236.6 822.8 3295.6 C 843.4 3354.7 876.4 3342.2 905.0 3344.8 C 933.7 3347.4 974.8 3331.9 994.7 3311.2 C 1014.6 3290.4 1028.2 3248.6 1024.3 3220.1 C 1020.5 3191.6 996.3 3154.9 971.6 3140.2 C 946.9 3125.4 903.2 3121.4 876.2 3131.5 C 849.3 3141.6 818.9 3173.4 810.0 3200.7 C 801.1 3228.1 817.1 3251.7 822.8 3295.6 C 828.6 3339.5 839.6 3393.7 844.5 3464.2 C 849.3 3534.6 839.8 3627.3 852.1 3718.3 C 864.4 3809.2 904.1 3925.4 918.3 4010.0 C 932.5 4094.6 934.2 4189.8 937.3 4225.8" stroke="#07231A" stroke-width="60" stroke-linecap="round" stroke-linejoin="round"></path><path d="M 1514.0 -62.4 C 1488.6 -34.0 1384.3 63.9 1361.6 108.1 C 1338.9 152.3 1361.0 179.1 1377.6 202.5 C 1394.3 226.0 1432.7 247.2 1461.4 248.8 C 1490.2 250.5 1530.8 233.6 1549.9 212.2 C 1569.1 190.8 1581.3 148.5 1576.4 120.2 C 1571.6 91.8 1546.2 56.0 1521.0 42.1 C 1495.9 28.2 1452.0 25.7 1425.4 36.7 C 1398.9 47.7 1397.7 67.9 1361.6 108.1 C 1325.6 148.3 1245.6 222.0 1209.2 277.9 C 1172.7 333.8 1155.7 376.0 1143.1 443.7 C 1130.5 511.4 1147.0 616.5 1133.6 684.1 C 1120.1 751.6 1089.1 788.1 1062.2 848.9 C 1035.2 909.7 1011.9 980.8 971.9 1048.8 C 931.8 1116.9 870.7 1191.8 821.8 1257.3 C 772.9 1322.8 718.0 1384.7 678.5 1442.0 C 639.0 1499.3 616.4 1572.5 585.0 1601.3 C 553.7 1630.1 517.7 1623.5 490.2 1614.9 C 462.8 1606.2 430.8 1576.1 420.5 1549.2 C 410.2 1522.4 413.8 1478.6 428.3 1453.8 C 442.9 1429.0 479.4 1404.5 507.8 1400.4 C 536.3 1396.3 578.2 1409.6 599.1 1429.3 C 620.1 1449.0 635.8 1490.0 633.5 1518.7 C 631.1 1547.3 598.7 1553.8 585.0 1601.3 C 571.4 1648.7 560.8 1732.2 551.8 1803.5 C 542.7 1874.9 522.6 1956.0 530.7 2029.4 C 538.9 2102.9 586.9 2162.1 600.4 2244.3 C 614.0 2326.5 593.1 2439.7 612.0 2522.8 C 630.8 2605.8 685.4 2664.7 713.7 2742.6 C 741.9 2820.5 763.4 2898.2 781.6 2990.4 C 799.8 3082.6 802.3 3236.6 822.8 3295.6 C 843.4 3354.7 876.4 3342.2 905.0 3344.8 C 933.7 3347.4 974.8 3331.9 994.7 3311.2 C 1014.6 3290.4 1028.2 3248.6 1024.3 3220.1 C 1020.5 3191.6 996.3 3154.9 971.6 3140.2 C 946.9 3125.4 903.2 3121.4 876.2 3131.5 C 849.3 3141.6 818.9 3173.4 810.0 3200.7 C 801.1 3228.1 817.1 3251.7 822.8 3295.6 C 828.6 3339.5 839.6 3393.7 844.5 3464.2 C 849.3 3534.6 839.8 3627.3 852.1 3718.3 C 864.4 3809.2 904.1 3925.4 918.3 4010.0 C 932.5 4094.6 934.2 4189.8 937.3 4225.8" stroke="#C6F66E" stroke-width="46" stroke-linecap="round" stroke-linejoin="round" opacity="0.8212638022378087"></path><path d="M 2150.5 447.7 C 2105.8 429.5 1959.3 384.2 1882.4 338.4 C 1805.6 292.7 1755.2 212.3 1689.6 173.4 C 1624.0 134.5 1556.1 113.8 1488.9 105.1 C 1421.7 96.4 1352.9 102.0 1286.3 121.0 C 1219.6 140.0 1157.0 191.6 1089.0 219.0 C 1021.0 246.4 951.0 254.1 878.1 285.7 C 805.2 317.3 723.9 366.2 651.7 408.4 C 579.4 450.6 508.6 492.6 444.8 538.9 C 381.1 585.2 314.6 633.5 269.3 686.0 C 224.0 738.6 198.0 795.2 173.1 854.3 C 148.1 913.4 145.6 967.9 119.5 1040.9 C 93.3 1113.8 47.6 1244.3 16.4 1292.0 C -14.8 1339.7 -39.7 1327.1 -67.7 1327.2 C -95.8 1327.2 -132.1 1312.3 -152.1 1292.5 C -172.0 1272.8 -187.1 1236.5 -187.2 1208.4 C -187.3 1180.4 -172.4 1144.0 -152.6 1124.1 C -132.8 1104.2 -96.6 1089.1 -68.5 1089.0 C -40.4 1088.9 -4.1 1103.8 15.8 1123.6 C 35.7 1143.4 50.9 1179.6 51.0 1207.7 C 51.1 1235.8 22.5 1244.2 16.4 1292.0 C 10.2 1339.8 6.9 1423.6 14.2 1494.4 C 21.5 1565.3 47.6 1641.4 60.1 1717.0 C 72.6 1792.6 80.5 1864.6 89.3 1948.3 C 98.1 2031.9 110.9 2144.3 112.9 2218.8 C 115.0 2293.3 103.5 2365.9 101.6 2395.4" stroke="#07231A" stroke-width="71" stroke-linecap="round" stroke-linejoin="round"></path><path d="M 2150.5 447.7 C 2105.8 429.5 1959.3 384.2 1882.4 338.4 C 1805.6 292.7 1755.2 212.3 1689.6 173.4 C 1624.0 134.5 1556.1 113.8 1488.9 105.1 C 1421.7 96.4 1352.9 102.0 1286.3 121.0 C 1219.6 140.0 1157.0 191.6 1089.0 219.0 C 1021.0 246.4 951.0 254.1 878.1 285.7 C 805.2 317.3 723.9 366.2 651.7 408.4 C 579.4 450.6 508.6 492.6 444.8 538.9 C 381.1 585.2 314.6 633.5 269.3 686.0 C 224.0 738.6 198.0 795.2 173.1 854.3 C 148.1 913.4 145.6 967.9 119.5 1040.9 C 93.3 1113.8 47.6 1244.3 16.4 1292.0 C -14.8 1339.7 -39.7 1327.1 -67.7 1327.2 C -95.8 1327.2 -132.1 1312.3 -152.1 1292.5 C -172.0 1272.8 -187.1 1236.5 -187.2 1208.4 C -187.3 1180.4 -172.4 1144.0 -152.6 1124.1 C -132.8 1104.2 -96.6 1089.1 -68.5 1089.0 C -40.4 1088.9 -4.1 1103.8 15.8 1123.6 C 35.7 1143.4 50.9 1179.6 51.0 1207.7 C 51.1 1235.8 22.5 1244.2 16.4 1292.0 C 10.2 1339.8 6.9 1423.6 14.2 1494.4 C 21.5 1565.3 47.6 1641.4 60.1 1717.0 C 72.6 1792.6 80.5 1864.6 89.3 1948.3 C 98.1 2031.9 110.9 2144.3 112.9 2218.8 C 115.0 2293.3 103.5 2365.9 101.6 2395.4" stroke="#A3E635" stroke-width="57" stroke-linecap="round" stroke-linejoin="round" opacity="0.9935391270555556"></path><path d="M -176.1 -48.1 C -138.0 -41.5 -28.7 -32.9 52.2 -8.6 C 133.0 15.8 232.7 72.5 308.9 97.8 C 385.1 123.2 464.6 145.0 509.4 143.5 C 554.3 142.0 566.6 112.5 578.0 88.7 C 589.5 65.0 589.4 24.7 578.0 1.0 C 566.6 -22.8 535.1 -47.9 509.3 -53.7 C 483.6 -59.6 444.4 -50.6 423.8 -34.2 C 403.2 -17.7 385.7 18.6 385.7 44.9 C 385.7 71.3 403.2 107.6 423.8 124.0 C 444.5 140.4 457.8 137.9 509.4 143.5 C 561.1 149.1 654.5 146.7 733.9 157.7 C 813.2 168.8 932.3 210.5 985.5 209.9 C 1038.7 209.2 1042.1 177.7 1053.0 153.8 C 1064.0 129.8 1063.2 89.5 1051.3 66.0 C 1039.3 42.5 1007.4 18.0 981.5 12.7 C 955.7 7.3 916.6 17.1 896.4 33.9 C 876.1 50.8 859.4 87.4 859.9 113.7 C 860.4 140.1 878.6 176.0 899.5 192.1 C 920.5 208.1 939.2 189.8 985.5 209.9 C 1031.8 229.9 1107.7 278.7 1177.4 312.3 C 1247.0 346.0 1341.9 380.9 1403.5 411.8 C 1465.0 442.7 1480.8 462.3 1546.6 497.8 C 1612.3 533.3 1724.5 577.7 1798.2 624.7 C 1871.9 671.8 1957.1 739.5 1988.7 780.1 C 2020.3 820.6 1999.4 844.2 1987.7 867.8 C 1976.0 891.5 1944.3 916.2 1918.5 921.8 C 1892.7 927.4 1853.6 918.0 1833.1 901.3 C 1812.7 884.7 1795.6 848.2 1795.9 821.8 C 1796.2 795.5 1814.1 759.4 1834.9 743.2 C 1855.6 727.0 1895.0 718.4 1920.6 724.6 C 1946.3 730.7 1942.6 753.6 1988.7 780.1 C 2034.8 806.5 2119.8 854.3 2197.2 883.1 C 2274.5 911.9 2369.4 945.9 2452.8 952.7 C 2536.1 959.6 2625.0 931.5 2697.5 924.2 C 2769.9 916.9 2827.4 925.7 2887.2 908.8 C 2947.1 891.9 3005.0 852.0 3056.6 822.9 C 3108.1 793.8 3140.1 764.6 3196.8 734.2 C 3253.5 703.7 3337.5 657.1 3396.5 640.3 C 3455.5 623.5 3479.0 627.6 3550.7 633.3 C 3622.5 638.9 3773.5 654.8 3826.8 674.2 C 3880.2 693.7 3868.8 723.9 3870.9 750.2 C 3872.9 776.4 3858.3 814.0 3839.0 831.9 C 3819.7 849.9 3781.2 861.9 3755.2 858.0 C 3729.1 854.1 3695.8 831.5 3682.5 808.7 C 3669.3 785.9 3666.2 745.8 3675.8 721.2 C 3685.4 696.6 3714.8 669.2 3740.0 661.4 C 3765.2 653.5 3766.7 678.7 3826.8 674.2 C 3887.0 669.8 4055.1 641.1 4100.8 634.5" stroke="#07231A" stroke-width="61" stroke-linecap="round" stroke-linejoin="round"></path><path d="M -176.1 -48.1 C -138.0 -41.5 -28.7 -32.9 52.2 -8.6 C 133.0 15.8 232.7 72.5 308.9 97.8 C 385.1 123.2 464.6 145.0 509.4 143.5 C 554.3 142.0 566.6 112.5 578.0 88.7 C 589.5 65.0 589.4 24.7 578.0 1.0 C 566.6 -22.8 535.1 -47.9 509.3 -53.7 C 483.6 -59.6 444.4 -50.6 423.8 -34.2 C 403.2 -17.7 385.7 18.6 385.7 44.9 C 385.7 71.3 403.2 107.6 423.8 124.0 C 444.5 140.4 457.8 137.9 509.4 143.5 C 561.1 149.1 654.5 146.7 733.9 157.7 C 813.2 168.8 932.3 210.5 985.5 209.9 C 1038.7 209.2 1042.1 177.7 1053.0 153.8 C 1064.0 129.8 1063.2 89.5 1051.3 66.0 C 1039.3 42.5 1007.4 18.0 981.5 12.7 C 955.7 7.3 916.6 17.1 896.4 33.9 C 876.1 50.8 859.4 87.4 859.9 113.7 C 860.4 140.1 878.6 176.0 899.5 192.1 C 920.5 208.1 939.2 189.8 985.5 209.9 C 1031.8 229.9 1107.7 278.7 1177.4 312.3 C 1247.0 346.0 1341.9 380.9 1403.5 411.8 C 1465.0 442.7 1480.8 462.3 1546.6 497.8 C 1612.3 533.3 1724.5 577.7 1798.2 624.7 C 1871.9 671.8 1957.1 739.5 1988.7 780.1 C 2020.3 820.6 1999.4 844.2 1987.7 867.8 C 1976.0 891.5 1944.3 916.2 1918.5 921.8 C 1892.7 927.4 1853.6 918.0 1833.1 901.3 C 1812.7 884.7 1795.6 848.2 1795.9 821.8 C 1796.2 795.5 1814.1 759.4 1834.9 743.2 C 1855.6 727.0 1895.0 718.4 1920.6 724.6 C 1946.3 730.7 1942.6 753.6 1988.7 780.1 C 2034.8 806.5 2119.8 854.3 2197.2 883.1 C 2274.5 911.9 2369.4 945.9 2452.8 952.7 C 2536.1 959.6 2625.0 931.5 2697.5 924.2 C 2769.9 916.9 2827.4 925.7 2887.2 908.8 C 2947.1 891.9 3005.0 852.0 3056.6 822.9 C 3108.1 793.8 3140.1 764.6 3196.8 734.2 C 3253.5 703.7 3337.5 657.1 3396.5 640.3 C 3455.5 623.5 3479.0 627.6 3550.7 633.3 C 3622.5 638.9 3773.5 654.8 3826.8 674.2 C 3880.2 693.7 3868.8 723.9 3870.9 750.2 C 3872.9 776.4 3858.3 814.0 3839.0 831.9 C 3819.7 849.9 3781.2 861.9 3755.2 858.0 C 3729.1 854.1 3695.8 831.5 3682.5 808.7 C 3669.3 785.9 3666.2 745.8 3675.8 721.2 C 3685.4 696.6 3714.8 669.2 3740.0 661.4 C 3765.2 653.5 3766.7 678.7 3826.8 674.2 C 3887.0 669.8 4055.1 641.1 4100.8 634.5" stroke="#2E9C82" stroke-width="47" stroke-linecap="round" stroke-linejoin="round" opacity="0.907864919072017"></path></svg>