<svg xmlns="http://www.w3.org/2000/svg" viewBox="0 0 1920 1080" width="1920" height="1080" fill="none"><path d="M -200.7 241.6 C -170.7 244.7 -73.9 248.9 -20.4 260.3 C 33.2 271.7 67.0 283.9 120.8 310.1 C 174.5 336.3 230.2 389.2 302.0 417.4 C 373.9 445.6 481.3 460.9 551.9 479.3 C 622.5 497.7 669.2 513.9 725.8 527.8 C 782.3 541.6 855.6 544.5 891.1 562.3 C 926.5 580.2 933.5 608.6 938.4 634.7 C 943.4 660.9 935.7 697.4 920.7 719.4 C 905.7 741.4 874.5 761.9 848.3 766.8 C 822.1 771.7 785.6 764.1 763.6 749.1 C 741.6 734.1 721.2 702.9 716.3 676.7 C 711.3 650.5 718.9 614.0 734.0 592.0 C 749.0 570.0 780.2 549.6 806.4 544.6 C 832.6 539.7 848.0 551.8 891.1 562.3 C 934.1 572.8 994.1 587.1 1064.9 607.7 C 1135.7 628.2 1227.8 661.0 1316.0 685.7 C 1404.3 710.4 1506.2 737.1 1594.3 755.8 C 1682.5 774.4 1772.2 782.2 1845.2 797.5 C 1918.1 812.9 1963.8 818.6 2032.2 847.7 C 2100.6 876.8 2179.0 939.8 2255.5 972.1 C 2332.1 1004.4 2407.2 1024.5 2491.5 1041.5 C 2575.8 1058.4 2686.6 1068.1 2761.4 1073.6 C 2836.3 1079.1 2900.7 1064.1 2940.7 1074.5 C 2980.7 1084.9 2991.5 1111.3 3001.5 1136.0 C 3011.6 1160.7 3011.4 1198.0 3001.1 1222.5 C 2990.8 1247.1 2964.3 1273.3 2939.6 1283.4 C 2914.9 1293.5 2877.6 1293.3 2853.1 1283.0 C 2828.5 1272.6 2802.3 1246.1 2792.2 1221.5 C 2782.1 1196.8 2782.3 1159.5 2792.7 1134.9 C 2803.0 1110.4 2829.5 1084.2 2854.1 1074.1 C 2878.8 1064.0 2895.7 1075.5 2940.7 1074.5 C 2985.7 1073.5 3050.0 1069.7 3124.1 1068.2 C 3198.2 1066.7 3341.7 1065.9 3385.2 1065.4" stroke="#8FD11E" stroke-width="60" stroke-linecap="round" stroke-linejoin="round" opacity="0.8820883661857807"></path><path d="M -126.0 193.7 C -82.7 180.7 64.0 141.2 133.4 115.6 C 202.7 90.0 238.9 61.9 290.2 40.1 C 341.5 18.3 391.5 -3.4 441.1 -15.2 C 490.6 -27.0 539.2 -22.9 587.4 -30.7 C 635.6 -38.4 668.5 -56.5 730.2 -61.8 C 791.9 -67.0 892.8 -65.9 957.7 -62.1 C 1022.7 -58.4 1054.4 -50.8 1120.0 -39.2 C 1185.7 -27.6 1286.0 -6.1 1351.5 7.4 C 1417.1 20.8 1455.1 38.6 1513.2 41.5 C 1571.3 44.3 1626.0 43.0 1700.1 24.4 C 1774.2 5.7 1871.6 -43.4 1957.7 -70.5 C 2043.7 -97.5 2139.5 -112.6 2216.3 -138.0 C 2293.1 -163.4 2354.1 -193.1 2418.5 -222.7 C 2482.8 -252.4 2571.7 -300.5 2602.4 -316.0" stroke="#A3E635" stroke-width="49" stroke-linecap="round" stroke-linejoin="round" opacity="0.9488231284543873"></path><path d="M 368.0 1288.0 C 375.5 1242.4 403.5 1100.8 413.1 1014.3 C 422.8 927.9 427.0 841.6 426.0 769.5 C 424.9 697.3 413.2 645.8 407.0 581.5 C 400.8 517.2 381.9 465.8 388.9 383.6 C 395.8 301.5 436.9 170.1 448.9 88.6 C 460.9 7.1 463.9 -34.3 461.0 -105.5 C 458.2 -176.6 440.1 -261.3 431.9 -338.2 C 423.7 -415.1 411.1 -501.6 411.8 -567.0 C 412.5 -632.3 421.9 -674.6 436.1 -730.1 C 450.4 -785.6 470.2 -834.1 497.3 -900.0 C 524.4 -965.8 556.4 -1057.0 598.7 -1125.4 C 641.1 -1193.8 704.8 -1240.2 751.5 -1310.3 C 798.2 -1380.5 850.0 -1475.5 878.9 -1546.2 C 907.8 -1616.8 918.6 -1674.5 925.0 -1734.2 C 931.4 -1793.9 921.8 -1845.5 917.6 -1904.4 C 913.4 -1963.3 902.8 -2057.0 899.8 -2087.5" stroke="#FFFFFF" stroke-width="39" stroke-linecap="round" stroke-linejoin="round" opacity="0.8479316093144007"></path><path d="M 1758.0 1310.3 C 1745.6 1274.7 1713.6 1171.2 1683.7 1096.7 C 1653.8 1022.3 1609.3 931.8 1578.7 863.7 C 1548.1 795.6 1530.6 741.4 1500.1 688.1 C 1469.5 634.8 1445.7 599.4 1395.3 544.1 C 1345.0 488.9 1250.1 405.1 1198.0 356.8 C 1145.9 308.6 1116.0 270.7 1082.6 254.5 C 1049.3 238.3 1021.4 248.2 997.9 259.6 C 974.4 271.0 950.2 298.4 941.6 323.1 C 933.1 347.8 935.3 384.3 946.7 407.8 C 958.2 431.3 985.5 455.5 1010.2 464.1 C 1034.9 472.6 1071.4 470.4 1094.9 459.0 C 1118.4 447.6 1142.6 420.2 1151.2 395.5 C 1159.7 370.8 1157.5 334.3 1146.1 310.8 C 1134.7 287.3 1107.8 286.8 1082.6 254.5 C 1057.4 222.3 1040.5 168.1 994.9 117.4 C 949.3 66.6 840.6 -7.9 808.9 -49.9 C 777.1 -91.9 795.7 -110.0 804.4 -134.6 C 813.1 -159.3 837.6 -186.5 861.1 -197.7 C 884.7 -209.0 921.2 -210.9 945.9 -202.2 C 970.5 -193.5 997.7 -169.1 1008.9 -145.5 C 1020.2 -121.9 1022.1 -85.4 1013.4 -60.8 C 1004.7 -36.1 980.3 -8.9 956.7 2.3 C 933.1 13.6 896.6 15.5 872.0 6.8 C 847.3 -1.9 837.5 -15.1 808.9 -49.9 C 780.3 -84.7 747.5 -150.3 700.6 -202.1 C 653.6 -253.9 573.0 -312.3 527.2 -360.6 C 481.4 -408.9 476.3 -445.8 425.7 -492.1 C 375.0 -538.3 294.6 -593.4 223.3 -637.9 C 152.1 -682.4 59.9 -717.6 -2.1 -759.0 C -64.1 -800.4 -93.0 -843.3 -148.8 -886.3 C -204.5 -929.2 -272.3 -982.6 -336.4 -1017.0 C -400.5 -1051.4 -464.8 -1063.6 -533.4 -1092.6 C -602.1 -1121.6 -712.6 -1174.6 -748.5 -1191.0" stroke="#C6F66E" stroke-width="60" stroke-linecap="round" stroke-linejoin="round" opacity="0.9176060636527836"></path></svg>