<svg xmlns="http://www.w3.org/2000/svg" viewBox="0 0 1920 1080" width="1920" height="1080" fill="none"><path d="M 956.1 -130.0 C 947.8 -120.0 927.7 -81.3 906.5 -70.1 C 885.4 -58.9 852.0 -55.8 829.2 -62.9 C 806.3 -69.9 780.5 -91.3 769.3 -112.4 C 758.2 -133.6 755.0 -166.9 762.1 -189.8 C 769.1 -212.7 790.5 -238.5 811.7 -249.6 C 832.8 -260.8 866.2 -263.9 889.0 -256.9 C 911.9 -249.8 937.7 -228.5 948.9 -207.3 C 960.0 -186.2 957.4 -184.7 956.1 -130.0 C 954.8 -75.2 953.1 43.6 940.9 121.2 C 928.7 198.8 902.2 279.4 883.0 335.7 C 863.8 392.0 840.5 413.3 825.8 459.1 C 811.0 504.8 814.5 556.5 794.3 610.1 C 774.2 663.8 736.7 729.1 704.9 780.9 C 673.0 832.7 633.0 895.6 603.2 921.0 C 573.5 946.4 549.8 938.8 526.5 933.3 C 503.2 927.7 476.1 908.1 463.6 887.7 C 451.1 867.3 445.8 834.2 451.4 810.9 C 456.9 787.7 476.6 760.6 497.0 748.0 C 517.4 735.5 550.4 730.2 573.7 735.8 C 597.0 741.4 624.1 761.0 636.6 781.4 C 649.1 801.8 654.4 834.9 648.8 858.1 C 643.3 881.4 624.6 869.9 603.2 921.0 C 581.9 972.2 539.9 1101.6 520.8 1165.0 C 501.6 1228.4 504.7 1271.9 488.3 1301.5 C 471.8 1331.0 445.7 1338.4 422.1 1342.2 C 398.5 1346.0 365.9 1338.3 346.5 1324.3 C 327.1 1310.2 309.6 1281.7 305.8 1258.1 C 302.0 1234.5 309.7 1201.9 323.8 1182.5 C 337.8 1163.1 366.3 1145.6 389.9 1141.8 C 413.6 1138.0 446.1 1145.7 465.5 1159.7 C 484.9 1173.8 502.5 1202.3 506.3 1225.9 C 510.1 1249.5 504.5 1260.7 488.3 1301.5 C 472.1 1342.2 437.7 1414.9 409.0 1470.4 C 380.4 1525.8 343.1 1586.7 316.4 1634.3 C 289.7 1682.0 256.6 1723.5 248.9 1756.3 C 241.2 1789.1 255.4 1812.3 270.3 1831.0 C 285.2 1849.7 314.5 1865.9 338.3 1868.6 C 362.1 1871.3 394.3 1862.0 413.0 1847.1 C 431.7 1832.2 447.9 1802.9 450.6 1779.2 C 453.3 1755.4 444.1 1723.2 429.2 1704.5 C 414.3 1685.8 385.0 1669.5 361.2 1666.9 C 337.4 1664.2 305.2 1673.4 286.5 1688.3 C 267.8 1703.2 274.0 1709.1 248.9 1756.3 C 223.7 1803.5 177.0 1903.8 135.6 1971.6 C 94.3 2039.4 23.4 2131.3 1.0 2163.2" stroke="#3FB89A" stroke-width="43" stroke-linecap="round" stroke-linejoin="round" opacity="0.7780191855155864"></path><path d="M 2061.0 581.3 C 2013.3 585.5 1860.5 596.0 1774.9 606.6 C 1689.2 617.2 1636.2 634.9 1547.2 644.7 C 1458.1 654.5 1302.2 673.3 1240.7 665.4 C 1179.3 657.5 1186.4 623.8 1178.4 597.2 C 1170.4 570.7 1177.0 528.8 1192.8 506.0 C 1208.6 483.2 1245.5 462.2 1273.2 460.4 C 1300.9 458.5 1340.2 474.3 1358.9 494.7 C 1377.7 515.2 1389.9 555.8 1385.5 583.2 C 1381.2 610.6 1357.0 645.5 1332.9 659.2 C 1308.8 672.9 1300.6 658.7 1240.7 665.4 C 1180.9 672.1 1026.3 680.7 973.8 699.5 C 921.3 718.3 928.5 750.8 925.8 778.5 C 923.1 806.1 937.7 845.9 957.6 865.2 C 977.5 884.5 1017.8 897.9 1045.3 894.4 C 1072.8 890.9 1108.4 867.8 1122.8 844.1 C 1137.2 820.4 1141.3 778.2 1131.8 752.2 C 1122.2 726.1 1091.8 696.6 1065.5 687.8 C 1039.2 679.0 1037.5 702.9 973.8 699.5 C 910.2 696.1 761.4 683.9 683.4 667.6 C 605.4 651.3 570.3 622.7 506.0 601.8 C 441.7 580.9 360.1 566.4 297.7 542.0 C 235.2 517.6 192.0 486.9 131.4 455.1 C 70.8 423.4 -10.5 389.0 -65.8 351.5 C -121.1 314.0 -147.7 280.2 -200.6 230.2 C -253.5 180.1 -320.7 104.0 -383.2 51.3 C -445.7 -1.5 -512.5 -46.4 -575.6 -86.3 C -638.7 -126.2 -693.6 -142.8 -761.7 -188.3 C -829.9 -233.7 -947.3 -330.5 -984.4 -358.9" stroke="#1F8A5B" stroke-width="49" stroke-linecap="round" stroke-linejoin="round" opacity="0.5790046783280559"></path><path d="M 2174.0 458.3 C 2145.4 454.9 2059.8 443.6 2002.5 437.5 C 1945.2 431.5 1896.6 428.4 1830.2 422.0 C 1763.7 415.6 1666.3 406.5 1604.0 399.4 C 1541.6 392.3 1512.6 396.4 1456.1 379.5 C 1399.6 362.5 1318.7 321.9 1264.7 297.8 C 1210.7 273.7 1174.7 252.6 1132.0 234.8 C 1089.4 217.0 1033.5 210.3 1008.8 190.9 C 984.1 171.4 981.2 141.1 983.9 118.2 C 986.6 95.2 1005.6 65.5 1025.2 53.3 C 1044.8 41.2 1079.9 37.4 1101.6 45.2 C 1123.3 53.0 1148.1 78.0 1155.6 99.9 C 1163.1 121.7 1158.9 156.7 1146.5 176.2 C 1134.1 195.7 1104.2 214.3 1081.2 216.7 C 1058.3 219.1 1048.2 210.5 1008.8 190.9 C 969.4 171.2 894.3 125.1 844.8 98.7 C 795.2 72.4 764.3 72.6 711.5 32.7 C 658.8 -7.1 583.1 -80.4 528.4 -140.2 C 473.7 -200.1 430.0 -277.6 383.3 -326.4 C 336.6 -375.3 283.3 -418.4 248.3 -433.3 C 213.3 -448.2 191.4 -430.4 173.4 -416.0 C 155.4 -401.5 140.2 -369.7 140.3 -346.6 C 140.4 -323.5 155.8 -291.8 173.9 -277.5 C 192.0 -263.1 226.4 -255.4 248.9 -260.6 C 271.4 -265.8 298.9 -287.9 308.8 -308.7 C 318.7 -329.6 318.6 -364.8 308.5 -385.6 C 298.5 -406.4 289.0 -413.8 248.3 -433.3 C 207.6 -452.8 122.6 -483.0 64.3 -502.8 C 6.1 -522.5 -36.6 -535.6 -101.1 -552.0 C -165.7 -568.3 -276.2 -600.8 -323.1 -600.9 C -370.1 -601.0 -373.0 -573.5 -382.9 -552.6 C -392.7 -531.7 -392.5 -496.5 -382.3 -475.7 C -372.1 -455.0 -344.4 -433.2 -321.9 -428.2 C -299.3 -423.3 -265.0 -431.4 -247.1 -445.9 C -229.1 -460.4 -214.0 -492.3 -214.2 -515.4 C -214.4 -538.5 -229.9 -570.1 -248.1 -584.4 C -266.2 -598.6 -288.6 -588.2 -323.1 -600.9 C -357.7 -613.7 -402.4 -631.5 -455.4 -660.8 C -508.4 -690.0 -585.5 -737.9 -641.2 -776.5 C -697.0 -815.2 -765.0 -873.3 -789.8 -892.7" stroke="#8FD11E" stroke-width="55" stroke-linecap="round" stroke-linejoin="round" opacity="0.7666292528272607"></path><path d="M 940.5 -255.4 C 949.5 -209.1 988.1 -48.5 994.3 22.0 C 1000.4 92.5 980.1 110.5 977.5 167.7 C 974.9 224.9 988.7 322.0 978.6 365.3 C 968.5 408.6 941.8 417.2 916.9 427.7 C 891.9 438.2 854.1 438.4 829.1 428.2 C 804.0 418.0 777.1 391.4 766.7 366.4 C 756.2 341.5 756.0 303.7 766.2 278.7 C 776.4 253.6 803.0 226.7 827.9 216.3 C 852.8 205.8 890.7 205.6 915.7 215.8 C 940.7 226.0 967.6 252.6 978.1 277.5 C 988.6 302.4 985.6 310.1 978.6 365.3 C 971.6 420.5 959.3 533.5 936.0 608.7 C 912.7 683.9 876.8 757.5 838.9 816.4 C 801.1 875.4 747.8 899.5 709.0 962.1 C 670.3 1024.8 651.3 1118.4 606.4 1192.6 C 561.4 1266.8 465.2 1357.0 439.2 1407.3 C 413.1 1457.6 436.6 1470.9 450.0 1494.4 C 463.3 1517.9 493.2 1541.1 519.2 1548.3 C 545.3 1555.5 582.8 1550.8 606.3 1537.5 C 629.8 1524.2 653.1 1494.3 660.3 1468.3 C 667.5 1442.2 662.8 1404.6 649.5 1381.1 C 636.1 1357.6 606.3 1334.4 580.2 1327.2 C 554.1 1320.0 516.6 1324.7 493.1 1338.0 C 469.6 1351.4 465.3 1351.1 439.2 1407.3 C 413.0 1463.5 364.6 1608.2 336.3 1675.3 C 308.1 1742.4 302.1 1757.6 269.5 1810.0 C 236.9 1862.5 159.8 1945.7 140.8 1990.1 C 121.7 2034.5 140.8 2053.7 155.1 2076.7 C 169.4 2099.6 200.2 2121.6 226.5 2127.8 C 252.9 2133.9 290.2 2127.7 313.1 2113.4 C 336.1 2099.1 358.1 2068.3 364.2 2042.0 C 370.3 2015.6 364.1 1978.3 349.8 1955.4 C 335.5 1932.4 304.8 1910.4 278.4 1904.3 C 252.1 1898.2 214.8 1904.4 191.8 1918.7 C 168.9 1933.0 180.4 1953.2 140.8 1990.1 C 101.1 2027.0 12.9 2094.9 -46.1 2140.4 C -105.1 2185.8 -156.4 2230.3 -213.5 2262.7 C -270.6 2295.2 -328.1 2318.4 -388.5 2335.0 C -448.8 2351.6 -518.7 2355.6 -575.7 2362.4 C -632.7 2369.1 -672.2 2373.0 -730.6 2375.6 C -789.0 2378.1 -869.9 2369.5 -926.3 2377.5 C -982.7 2385.5 -1045.1 2416.1 -1068.9 2423.8" stroke="#3FB89A" stroke-width="43" stroke-linecap="round" stroke-linejoin="round" opacity="0.8727573961485178"></path></svg>