<svg xmlns="http://www.w3.org/2000/svg" viewBox="0 0 1920 1080" width="1920" height="1080" fill="none"><path d="M 1711.2 1194.8 C 1684.5 1161.7 1613.3 1049.0 1550.8 996.6 C 1488.3 944.1 1374.6 913.3 1336.4 880.2 C 1298.2 847.2 1315.1 822.4 1321.8 798.4 C 1328.6 774.3 1353.8 745.7 1376.8 735.9 C 1399.8 726.2 1437.9 728.0 1459.8 739.9 C 1481.8 751.8 1504.1 782.8 1508.5 807.4 C 1512.9 832.0 1502.6 868.7 1486.1 887.5 C 1469.6 906.2 1434.5 921.1 1409.5 919.9 C 1384.6 918.7 1363.3 905.6 1336.4 880.2 C 1309.5 854.9 1282.9 815.4 1247.9 767.8 C 1212.9 720.2 1157.6 648.9 1126.6 594.8 C 1095.6 540.7 1080.0 506.4 1061.8 443.3 C 1043.7 380.1 1031.0 279.9 1017.7 215.9 C 1004.5 151.9 994.1 107.8 982.3 59.1 C 970.5 10.4 956.0 -10.8 947.0 -76.2 C 937.9 -141.7 942.5 -282.9 927.9 -333.6 C 913.2 -384.3 883.9 -376.8 859.2 -380.5 C 834.5 -384.3 798.0 -373.0 779.7 -356.1 C 761.4 -339.1 747.4 -303.6 749.3 -278.7 C 751.1 -253.8 770.2 -220.7 790.8 -206.6 C 811.4 -192.5 849.1 -186.8 873.0 -194.2 C 896.9 -201.5 924.9 -227.5 934.0 -250.7 C 943.2 -273.9 931.0 -274.8 927.9 -333.6 C 924.7 -392.5 906.8 -549.7 915.1 -603.9 C 923.4 -658.1 953.5 -652.0 977.6 -658.7 C 1001.6 -665.4 1039.2 -658.7 1059.4 -644.1 C 1079.7 -629.5 1097.8 -595.9 1099.0 -570.9 C 1100.2 -546.0 1085.3 -510.9 1066.5 -494.4 C 1047.7 -477.9 1011.0 -467.7 986.4 -472.1 C 961.8 -476.5 930.9 -498.8 919.0 -520.8 C 907.1 -542.8 920.0 -566.5 915.1 -603.9 C 910.2 -641.2 892.1 -682.6 889.7 -745.0 C 887.3 -807.4 892.8 -907.8 900.5 -978.2 C 908.2 -1048.6 939.1 -1125.4 936.0 -1167.4 C 932.8 -1209.4 904.5 -1220.4 881.6 -1230.4 C 858.7 -1240.3 820.6 -1238.8 798.5 -1227.1 C 776.5 -1215.4 753.8 -1184.7 749.2 -1160.1 C 744.6 -1135.6 754.6 -1098.7 770.9 -1079.8 C 787.2 -1060.9 822.2 -1045.7 847.2 -1046.7 C 872.1 -1047.7 905.8 -1065.6 920.6 -1085.7 C 935.4 -1105.8 918.2 -1119.9 936.0 -1167.4 C 953.7 -1215.0 996.2 -1312.9 1027.1 -1371.1 C 1058.1 -1429.2 1096.8 -1462.4 1121.6 -1516.2 C 1146.3 -1569.9 1151.3 -1640.1 1175.6 -1693.7 C 1199.8 -1747.4 1237.9 -1812.7 1266.9 -1838.3 C 1295.9 -1863.9 1326.0 -1855.7 1349.6 -1847.4 C 1373.1 -1839.1 1400.1 -1812.0 1408.2 -1788.4 C 1416.4 -1764.8 1412.1 -1726.9 1398.7 -1705.8 C 1385.4 -1684.7 1353.0 -1664.5 1328.2 -1661.8 C 1303.4 -1659.0 1267.4 -1671.7 1249.8 -1689.4 C 1232.1 -1707.1 1219.6 -1743.2 1222.5 -1768.0 C 1225.4 -1792.8 1236.6 -1794.0 1266.9 -1838.3 C 1297.3 -1882.6 1361.7 -1976.0 1404.6 -2033.6 C 1447.4 -2091.2 1496.8 -2131.1 1523.8 -2183.7 C 1550.7 -2236.4 1546.6 -2316.2 1566.3 -2349.5 C 1586.0 -2382.9 1617.2 -2384.3 1642.2 -2383.6 C 1667.1 -2382.9 1701.1 -2365.5 1716.1 -2345.5 C 1731.2 -2325.6 1738.6 -2288.2 1732.4 -2264.0 C 1726.2 -2239.8 1701.7 -2210.6 1678.9 -2200.4 C 1656.1 -2190.2 1618.0 -2191.2 1595.7 -2202.6 C 1573.5 -2214.0 1550.6 -2244.5 1545.7 -2269.0 C 1540.7 -2293.5 1544.7 -2301.3 1566.3 -2349.5 C 1587.9 -2397.8 1653.5 -2480.5 1675.2 -2558.6 C 1696.9 -2636.7 1679.2 -2743.2 1696.6 -2818.0 C 1714.0 -2892.9 1765.8 -2976.0 1779.7 -3007.6" stroke="#07231A" stroke-width="72" stroke-linecap="round" stroke-linejoin="round"></path><path d="M 1711.2 1194.8 C 1684.5 1161.7 1613.3 1049.0 1550.8 996.6 C 1488.3 944.1 1374.6 913.3 1336.4 880.2 C 1298.2 847.2 1315.1 822.4 1321.8 798.4 C 1328.6 774.3 1353.8 745.7 1376.8 735.9 C 1399.8 726.2 1437.9 728.0 1459.8 739.9 C 1481.8 751.8 1504.1 782.8 1508.5 807.4 C 1512.9 832.0 1502.6 868.7 1486.1 887.5 C 1469.6 906.2 1434.5 921.1 1409.5 919.9 C 1384.6 918.7 1363.3 905.6 1336.4 880.2 C 1309.5 854.9 1282.9 815.4 1247.9 767.8 C 1212.9 720.2 1157.6 648.9 1126.6 594.8 C 1095.6 540.7 1080.0 506.4 1061.8 443.3 C 1043.7 380.1 1031.0 279.9 1017.7 215.9 C 1004.5 151.9 994.1 107.8 982.3 59.1 C 970.5 10.4 956.0 -10.8 947.0 -76.2 C 937.9 -141.7 942.5 -282.9 927.9 -333.6 C 913.2 -384.3 883.9 -376.8 859.2 -380.5 C 834.5 -384.3 798.0 -373.0 779.7 -356.1 C 761.4 -339.1 747.4 -303.6 749.3 -278.7 C 751.1 -253.8 770.2 -220.7 790.8 -206.6 C 811.4 -192.5 849.1 -186.8 873.0 -194.2 C 896.9 -201.5 924.9 -227.5 934.0 -250.7 C 943.2 -273.9 931.0 -274.8 927.9 -333.6 C 924.7 -392.5 906.8 -549.7 915.1 -603.9 C 923.4 -658.1 953.5 -652.0 977.6 -658.7 C 1001.6 -665.4 1039.2 -658.7 1059.4 -644.1 C 1079.7 -629.5 1097.8 -595.9 1099.0 -570.9 C 1100.2 -546.0 1085.3 -510.9 1066.5 -494.4 C 1047.7 -477.9 1011.0 -467.7 986.4 -472.1 C 961.8 -476.5 930.9 -498.8 919.0 -520.8 C 907.1 -542.8 920.0 -566.5 915.1 -603.9 C 910.2 -641.2 892.1 -682.6 889.7 -745.0 C 887.3 -807.4 892.8 -907.8 900.5 -978.2 C 908.2 -1048.6 939.1 -1125.4 936.0 -1167.4 C 932.8 -1209.4 904.5 -1220.4 881.6 -1230.4 C 858.7 -1240.3 820.6 -1238.8 798.5 -1227.1 C 776.5 -1215.4 753.8 -1184.7 749.2 -1160.1 C 744.6 -1135.6 754.6 -1098.7 770.9 -1079.8 C 787.2 -1060.9 822.2 -1045.7 847.2 -1046.7 C 872.1 -1047.7 905.8 -1065.6 920.6 -1085.7 C 935.4 -1105.8 918.2 -1119.9 936.0 -1167.4 C 953.7 -1215.0 996.2 -1312.9 1027.1 -1371.1 C 1058.1 -1429.2 1096.8 -1462.4 1121.6 -1516.2 C 1146.3 -1569.9 1151.3 -1640.1 1175.6 -1693.7 C 1199.8 -1747.4 1237.9 -1812.7 1266.9 -1838.3 C 1295.9 -1863.9 1326.0 -1855.7 1349.6 -1847.4 C 1373.1 -1839.1 1400.1 -1812.0 1408.2 -1788.4 C 1416.4 -1764.8 1412.1 -1726.9 1398.7 -1705.8 C 1385.4 -1684.7 1353.0 -1664.5 1328.2 -1661.8 C 1303.4 -1659.0 1267.4 -1671.7 1249.8 -1689.4 C 1232.1 -1707.1 1219.6 -1743.2 1222.5 -1768.0 C 1225.4 -1792.8 1236.6 -1794.0 1266.9 -1838.3 C 1297.3 -1882.6 1361.7 -1976.0 1404.6 -2033.6 C 1447.4 -2091.2 1496.8 -2131.1 1523.8 -2183.7 C 1550.7 -2236.4 1546.6 -2316.2 1566.3 -2349.5 C 1586.0 -2382.9 1617.2 -2384.3 1642.2 -2383.6 C 1667.1 -2382.9 1701.1 -2365.5 1716.1 -2345.5 C 1731.2 -2325.6 1738.6 -2288.2 1732.4 -2264.0 C 1726.2 -2239.8 1701.7 -2210.6 1678.9 -2200.4 C 1656.1 -2190.2 1618.0 -2191.2 1595.7 -2202.6 C 1573.5 -2214.0 1550.6 -2244.5 1545.7 -2269.0 C 1540.7 -2293.5 1544.7 -2301.3 1566.3 -2349.5 C 1587.9 -2397.8 1653.5 -2480.5 1675.2 -2558.6 C 1696.9 -2636.7 1679.2 -2743.2 1696.6 -2818.0 C 1714.0 -2892.9 1765.8 -2976.0 1779.7 -3007.6" stroke="#3FB89A" stroke-width="58" stroke-linecap="round" stroke-linejoin="round" opacity="0.7604191517224534"></path><path d="M -90.7 718.0 C -56.6 693.2 61.6 622.7 113.9 569.3 C 166.1 515.8 184.6 449.7 222.8 397.4 C 261.0 345.1 301.4 313.0 343.3 255.3 C 385.1 197.7 437.8 129.8 473.8 51.6 C 509.8 -26.6 531.3 -123.8 559.3 -213.7 C 587.4 -303.7 637.4 -429.4 642.2 -488.1 C 647.0 -546.9 613.0 -552.1 588.2 -566.2 C 563.5 -580.3 520.0 -583.3 493.5 -572.8 C 467.1 -562.2 437.6 -530.1 429.4 -502.8 C 421.2 -475.5 427.9 -432.5 444.1 -409.0 C 460.3 -385.6 498.2 -364.0 526.6 -362.0 C 555.0 -360.1 595.5 -376.2 614.7 -397.3 C 634.0 -418.3 617.1 -442.1 642.2 -488.1 C 667.2 -534.2 731.0 -593.0 765.0 -673.6 C 799.0 -754.2 842.0 -909.4 846.1 -971.8 C 850.3 -1034.3 815.2 -1035.0 790.1 -1048.4 C 764.9 -1061.8 721.4 -1063.6 695.2 -1052.3 C 669.0 -1041.0 640.5 -1008.1 633.0 -980.6 C 625.6 -953.1 633.5 -910.3 650.3 -887.3 C 667.2 -864.3 705.6 -843.8 734.1 -842.6 C 762.6 -841.4 802.5 -858.7 821.2 -880.2 C 839.9 -901.8 822.9 -930.5 846.1 -971.8 C 869.4 -1013.1 921.1 -1074.0 960.6 -1128.0 C 1000.1 -1182.0 1051.2 -1219.7 1083.0 -1295.9 C 1114.9 -1372.0 1139.7 -1505.4 1151.7 -1585.0 C 1163.6 -1664.7 1167.9 -1692.5 1154.8 -1773.9 C 1141.8 -1855.3 1090.8 -1975.9 1073.4 -2073.2 C 1055.9 -2170.5 1061.1 -2261.1 1050.2 -2357.7 C 1039.3 -2454.2 1010.5 -2575.1 1008.1 -2652.5 C 1005.7 -2729.9 1039.7 -2750.0 1035.9 -2822.1 C 1032.1 -2894.1 1012.6 -3014.3 985.3 -3084.8 C 958.0 -3155.4 905.4 -3171.3 872.2 -3245.4 C 839.0 -3319.5 800.5 -3482.1 786.2 -3529.4" stroke="#07231A" stroke-width="64" stroke-linecap="round" stroke-linejoin="round"></path><path d="M -90.7 718.0 C -56.6 693.2 61.6 622.7 113.9 569.3 C 166.1 515.8 184.6 449.7 222.8 397.4 C 261.0 345.1 301.4 313.0 343.3 255.3 C 385.1 197.7 437.8 129.8 473.8 51.6 C 509.8 -26.6 531.3 -123.8 559.3 -213.7 C 587.4 -303.7 637.4 -429.4 642.2 -488.1 C 647.0 -546.9 613.0 -552.1 588.2 -566.2 C 563.5 -580.3 520.0 -583.3 493.5 -572.8 C 467.1 -562.2 437.6 -530.1 429.4 -502.8 C 421.2 -475.5 427.9 -432.5 444.1 -409.0 C 460.3 -385.6 498.2 -364.0 526.6 -362.0 C 555.0 -360.1 595.5 -376.2 614.7 -397.3 C 634.0 -418.3 617.1 -442.1 642.2 -488.1 C 667.2 -534.2 731.0 -593.0 765.0 -673.6 C 799.0 -754.2 842.0 -909.4 846.1 -971.8 C 850.3 -1034.3 815.2 -1035.0 790.1 -1048.4 C 764.9 -1061.8 721.4 -1063.6 695.2 -1052.3 C 669.0 -1041.0 640.5 -1008.1 633.0 -980.6 C 625.6 -953.1 633.5 -910.3 650.3 -887.3 C 667.2 -864.3 705.6 -843.8 734.1 -842.6 C 762.6 -841.4 802.5 -858.7 821.2 -880.2 C 839.9 -901.8 822.9 -930.5 846.1 -971.8 C 869.4 -1013.1 921.1 -1074.0 960.6 -1128.0 C 1000.1 -1182.0 1051.2 -1219.7 1083.0 -1295.9 C 1114.9 -1372.0 1139.7 -1505.4 1151.7 -1585.0 C 1163.6 -1664.7 1167.9 -1692.5 1154.8 -1773.9 C 1141.8 -1855.3 1090.8 -1975.9 1073.4 -2073.2 C 1055.9 -2170.5 1061.1 -2261.1 1050.2 -2357.7 C 1039.3 -2454.2 1010.5 -2575.1 1008.1 -2652.5 C 1005.7 -2729.9 1039.7 -2750.0 1035.9 -2822.1 C 1032.1 -2894.1 1012.6 -3014.3 985.3 -3084.8 C 958.0 -3155.4 905.4 -3171.3 872.2 -3245.4 C 839.0 -3319.5 800.5 -3482.1 786.2 -3529.4" stroke="#2E9C82" stroke-width="50" stroke-linecap="round" stroke-linejoin="round" opacity="0.9884598928736522"></path><path d="M 1667.0 1314.4 C 1650.5 1269.7 1598.4 1097.0 1568.3 1045.9 C 1538.1 994.8 1513.8 1008.9 1485.9 1007.8 C 1458.0 1006.7 1421.3 1020.2 1400.8 1039.1 C 1380.2 1058.1 1363.8 1093.5 1362.7 1121.5 C 1361.6 1149.4 1375.1 1186.1 1394.0 1206.6 C 1413.0 1227.1 1448.4 1243.6 1476.4 1244.7 C 1504.3 1245.8 1541.0 1232.3 1561.5 1213.4 C 1582.0 1194.4 1598.4 1158.9 1599.6 1131.0 C 1600.7 1103.1 1589.7 1090.5 1568.3 1045.9 C 1546.9 1001.3 1493.5 926.2 1471.3 863.2 C 1449.0 800.3 1464.6 734.8 1434.6 668.4 C 1404.7 601.9 1356.4 523.5 1291.8 464.6 C 1227.3 405.7 1111.3 355.4 1047.3 315.1 C 983.3 274.8 971.9 249.1 908.0 222.6 C 844.0 196.1 711.7 180.2 663.5 156.0 C 615.2 131.8 622.0 104.9 618.4 77.2 C 614.9 49.5 625.2 11.8 642.3 -10.3 C 659.4 -32.4 693.3 -51.8 721.0 -55.3 C 748.8 -58.9 786.5 -48.6 808.6 -31.5 C 830.7 -14.4 850.1 19.6 853.6 47.3 C 857.1 75.0 846.8 112.7 829.7 134.8 C 812.6 156.9 778.7 176.3 751.0 179.8 C 723.3 183.4 715.4 172.8 663.5 156.0 C 611.6 139.2 510.5 92.1 439.7 79.1 C 368.8 66.0 282.5 67.3 238.1 77.6 C 193.8 88.0 184.4 115.6 173.5 141.3 C 162.7 167.1 162.4 206.2 172.9 232.0 C 183.4 257.9 210.8 285.8 236.6 296.6 C 262.3 307.5 301.4 307.8 327.3 297.3 C 353.2 286.8 381.0 259.3 391.9 233.6 C 402.8 207.9 403.1 168.8 392.5 142.9 C 382.0 117.0 354.6 89.2 328.9 78.3 C 303.1 67.4 280.6 89.0 238.1 77.6 C 195.7 66.3 139.8 27.3 74.2 10.3 C 8.5 -6.7 -84.9 -21.3 -155.7 -24.3 C -226.4 -27.3 -289.9 -24.3 -350.3 -7.7 C -410.8 8.9 -456.2 40.2 -518.2 75.3 C -580.3 110.5 -685.3 167.1 -722.8 203.1 C -760.2 239.1 -747.8 263.9 -743.2 291.5 C -738.6 319.1 -717.9 352.2 -695.1 368.4 C -672.4 384.7 -634.3 393.5 -606.7 388.9 C -579.2 384.2 -546.0 363.5 -529.8 340.8 C -513.6 318.0 -504.8 280.0 -509.4 252.4 C -514.0 224.8 -534.7 191.7 -557.4 175.5 C -580.2 159.2 -618.3 150.4 -645.8 155.0 C -673.4 159.6 -679.1 187.7 -722.8 203.1 C -766.4 218.5 -842.0 225.0 -907.7 247.7 C -973.4 270.3 -1068.2 329.2 -1117.2 338.9 C -1166.2 348.5 -1181.5 325.0 -1201.6 305.6 C -1221.7 286.2 -1237.3 250.4 -1237.8 222.5 C -1238.3 194.5 -1224.0 158.1 -1204.6 138.0 C -1185.2 117.9 -1149.4 102.3 -1121.4 101.8 C -1093.5 101.3 -1057.1 115.6 -1037.0 135.0 C -1016.9 154.4 -1001.3 190.3 -1000.8 218.2 C -1000.3 246.2 -1014.6 282.5 -1034.0 302.6 C -1053.4 322.8 -1062.4 304.3 -1117.2 338.9 C -1172.0 373.4 -1307.2 484.3 -1363.1 510.1 C -1418.9 536.0 -1428.8 509.2 -1452.4 494.2 C -1475.9 479.1 -1498.2 447.0 -1504.2 419.7 C -1510.2 392.4 -1503.3 354.0 -1488.3 330.4 C -1473.2 306.9 -1441.1 284.6 -1413.8 278.6 C -1386.5 272.6 -1348.0 279.5 -1324.5 294.5 C -1301.0 309.6 -1278.6 341.7 -1272.7 369.0 C -1266.7 396.3 -1273.6 434.8 -1288.6 458.3 C -1303.7 481.8 -1319.0 470.9 -1363.1 510.1 C -1407.1 549.3 -1521.4 662.9 -1553.0 693.5" stroke="#07231A" stroke-width="67" stroke-linecap="round" stroke-linejoin="round"></path><path d="M 1667.0 1314.4 C 1650.5 1269.7 1598.4 1097.0 1568.3 1045.9 C 1538.1 994.8 1513.8 1008.9 1485.9 1007.8 C 1458.0 1006.7 1421.3 1020.2 1400.8 1039.1 C 1380.2 1058.1 1363.8 1093.5 1362.7 1121.5 C 1361.6 1149.4 1375.1 1186.1 1394.0 1206.6 C 1413.0 1227.1 1448.4 1243.6 1476.4 1244.7 C 1504.3 1245.8 1541.0 1232.3 1561.5 1213.4 C 1582.0 1194.4 1598.4 1158.9 1599.6 1131.0 C 1600.7 1103.1 1589.7 1090.5 1568.3 1045.9 C 1546.9 1001.3 1493.5 926.2 1471.3 863.2 C 1449.0 800.3 1464.6 734.8 1434.6 668.4 C 1404.7 601.9 1356.4 523.5 1291.8 464.6 C 1227.3 405.7 1111.3 355.4 1047.3 315.1 C 983.3 274.8 971.9 249.1 908.0 222.6 C 844.0 196.1 711.7 180.2 663.5 156.0 C 615.2 131.8 622.0 104.9 618.4 77.2 C 614.9 49.5 625.2 11.8 642.3 -10.3 C 659.4 -32.4 693.3 -51.8 721.0 -55.3 C 748.8 -58.9 786.5 -48.6 808.6 -31.5 C 830.7 -14.4 850.1 19.6 853.6 47.3 C 857.1 75.0 846.8 112.7 829.7 134.8 C 812.6 156.9 778.7 176.3 751.0 179.8 C 723.3 183.4 715.4 172.8 663.5 156.0 C 611.6 139.2 510.5 92.1 439.7 79.1 C 368.8 66.0 282.5 67.3 238.1 77.6 C 193.8 88.0 184.4 115.6 173.5 141.3 C 162.7 167.1 162.4 206.2 172.9 232.0 C 183.4 257.9 210.8 285.8 236.6 296.6 C 262.3 307.5 301.4 307.8 327.3 297.3 C 353.2 286.8 381.0 259.3 391.9 233.6 C 402.8 207.9 403.1 168.8 392.5 142.9 C 382.0 117.0 354.6 89.2 328.9 78.3 C 303.1 67.4 280.6 89.0 238.1 77.6 C 195.7 66.3 139.8 27.3 74.2 10.3 C 8.5 -6.7 -84.9 -21.3 -155.7 -24.3 C -226.4 -27.3 -289.9 -24.3 -350.3 -7.7 C -410.8 8.9 -456.2 40.2 -518.2 75.3 C -580.3 110.5 -685.3 167.1 -722.8 203.1 C -760.2 239.1 -747.8 263.9 -743.2 291.5 C -738.6 319.1 -717.9 352.2 -695.1 368.4 C -672.4 384.7 -634.3 393.5 -606.7 388.9 C -579.2 384.2 -546.0 363.5 -529.8 340.8 C -513.6 318.0 -504.8 280.0 -509.4 252.4 C -514.0 224.8 -534.7 191.7 -557.4 175.5 C -580.2 159.2 -618.3 150.4 -645.8 155.0 C -673.4 159.6 -679.1 187.7 -722.8 203.1 C -766.4 218.5 -842.0 225.0 -907.7 247.7 C -973.4 270.3 -1068.2 329.2 -1117.2 338.9 C -1166.2 348.5 -1181.5 325.0 -1201.6 305.6 C -1221.7 286.2 -1237.3 250.4 -1237.8 222.5 C -1238.3 194.5 -1224.0 158.1 -1204.6 138.0 C -1185.2 117.9 -1149.4 102.3 -1121.4 101.8 C -1093.5 101.3 -1057.1 115.6 -1037.0 135.0 C -1016.9 154.4 -1001.3 190.3 -1000.8 218.2 C -1000.3 246.2 -1014.6 282.5 -1034.0 302.6 C -1053.4 322.8 -1062.4 304.3 -1117.2 338.9 C -1172.0 373.4 -1307.2 484.3 -1363.1 510.1 C -1418.9 536.0 -1428.8 509.2 -1452.4 494.2 C -1475.9 479.1 -1498.2 447.0 -1504.2 419.7 C -1510.2 392.4 -1503.3 354.0 -1488.3 330.4 C -1473.2 306.9 -1441.1 284.6 -1413.8 278.6 C -1386.5 272.6 -1348.0 279.5 -1324.5 294.5 C -1301.0 309.6 -1278.6 341.7 -1272.7 369.0 C -1266.7 396.3 -1273.6 434.8 -1288.6 458.3 C -1303.7 481.8 -1319.0 470.9 -1363.1 510.1 C -1407.1 549.3 -1521.4 662.9 -1553.0 693.5" stroke="#C6F66E" stroke-width="53" stroke-linecap="round" stroke-linejoin="round" opacity="0.8880418509244918"></path><path d="M 2210.2 901.3 C 2192.2 879.4 2116.9 807.0 2102.1 770.1 C 2087.3 733.3 2104.3 702.0 2121.1 680.2 C 2138.0 658.3 2175.7 639.4 2203.3 638.9 C 2231.0 638.5 2269.3 656.2 2286.8 677.5 C 2304.4 698.8 2314.5 739.8 2308.8 766.8 C 2303.0 793.8 2277.3 827.3 2252.6 839.6 C 2227.9 852.0 2185.7 852.7 2160.6 841.1 C 2135.5 829.5 2128.9 805.0 2102.1 770.1 C 2075.3 735.3 2012.8 669.9 1999.7 632.1 C 1986.5 594.3 2005.3 564.2 2023.2 543.2 C 2041.2 522.2 2079.8 505.2 2107.5 506.2 C 2135.1 507.2 2172.4 526.8 2188.9 549.0 C 2205.3 571.1 2213.3 612.6 2206.2 639.3 C 2199.1 666.0 2171.7 698.1 2146.4 709.2 C 2121.1 720.3 2078.9 718.8 2054.5 706.0 C 2030.0 693.1 2019.4 691.3 1999.7 632.1 C 1980.0 572.9 1946.8 446.4 1936.2 351.0 C 1925.7 255.7 1931.9 150.3 1936.5 59.9 C 1941.2 -30.6 1970.3 -138.9 1964.0 -191.6 C 1957.7 -244.3 1924.9 -247.4 1898.8 -256.4 C 1872.6 -265.4 1830.7 -260.6 1807.4 -245.8 C 1784.0 -231.0 1761.7 -195.2 1758.7 -167.7 C 1755.7 -140.3 1769.8 -100.5 1789.4 -81.0 C 1809.0 -61.6 1848.9 -47.8 1876.3 -50.9 C 1903.7 -54.1 1939.4 -76.7 1954.0 -100.1 C 1968.6 -123.6 1965.8 -141.5 1964.0 -191.6 C 1962.2 -241.7 1966.7 -326.1 1943.2 -400.9 C 1919.8 -475.6 1858.7 -560.9 1823.5 -640.3 C 1788.3 -719.6 1764.5 -810.4 1731.9 -877.1 C 1699.3 -943.8 1650.0 -982.1 1627.8 -1040.6 C 1605.7 -1099.1 1617.2 -1189.1 1599.1 -1228.0 C 1581.0 -1266.9 1546.9 -1271.8 1519.4 -1273.8 C 1491.8 -1275.8 1452.6 -1260.3 1433.8 -1240.0 C 1415.1 -1219.7 1402.7 -1179.3 1406.9 -1152.0 C 1411.1 -1124.7 1435.0 -1089.9 1458.9 -1076.2 C 1482.9 -1062.4 1525.0 -1059.4 1550.6 -1069.5 C 1576.3 -1079.7 1605.0 -1110.7 1613.0 -1137.1 C 1621.1 -1163.5 1608.8 -1170.6 1599.1 -1228.0 C 1589.4 -1285.4 1552.2 -1427.6 1555.0 -1481.3 C 1557.8 -1535.0 1590.5 -1539.5 1616.0 -1550.2 C 1641.4 -1560.9 1683.6 -1558.7 1707.8 -1545.4 C 1732.1 -1532.2 1756.6 -1497.8 1761.4 -1470.6 C 1766.1 -1443.4 1754.6 -1402.8 1736.3 -1382.1 C 1718.0 -1361.5 1679.0 -1345.1 1651.5 -1346.6 C 1623.9 -1348.0 1586.8 -1368.3 1570.8 -1390.7 C 1554.7 -1413.2 1567.7 -1440.2 1555.0 -1481.3 C 1542.3 -1522.4 1510.0 -1573.1 1494.6 -1637.3 C 1479.3 -1701.5 1475.6 -1803.5 1462.9 -1866.5 C 1450.2 -1929.5 1438.2 -1955.1 1418.5 -2015.6 C 1398.8 -2076.0 1363.5 -2148.1 1344.6 -2229.4 C 1325.7 -2310.8 1324.8 -2450.3 1305.0 -2503.8 C 1285.2 -2557.3 1253.1 -2548.1 1225.6 -2550.3 C 1198.1 -2552.5 1158.7 -2537.3 1139.8 -2517.2 C 1120.9 -2497.1 1108.2 -2456.8 1112.1 -2429.5 C 1116.1 -2402.2 1139.6 -2367.1 1163.5 -2353.2 C 1187.3 -2339.2 1229.4 -2335.8 1255.1 -2345.7 C 1280.9 -2355.7 1309.8 -2386.4 1318.1 -2412.8 C 1326.4 -2439.1 1310.0 -2454.5 1305.0 -2503.8 C 1300.0 -2553.1 1279.7 -2663.8 1288.0 -2708.4 C 1296.3 -2753.0 1328.6 -2763.1 1354.9 -2771.5 C 1381.2 -2779.8 1423.0 -2773.9 1446.0 -2758.5 C 1468.9 -2743.1 1490.3 -2706.7 1492.6 -2679.2 C 1494.9 -2651.7 1479.8 -2612.3 1459.7 -2593.3 C 1439.6 -2574.4 1399.4 -2561.6 1372.0 -2565.5 C 1344.7 -2569.4 1309.6 -2592.9 1295.6 -2616.7 C 1281.6 -2640.5 1299.1 -2646.1 1288.0 -2708.4 C 1276.9 -2770.7 1240.6 -2896.0 1229.2 -2990.5 C 1217.7 -3084.9 1232.0 -3203.7 1219.3 -3275.2 C 1206.5 -3346.8 1156.9 -3381.9 1152.7 -3419.7 C 1148.5 -3457.5 1172.2 -3485.0 1194.1 -3501.9 C 1216.0 -3518.7 1257.3 -3527.4 1284.1 -3520.8 C 1310.9 -3514.2 1343.5 -3487.3 1355.0 -3462.2 C 1366.6 -3437.1 1365.8 -3394.9 1353.4 -3370.2 C 1341.0 -3345.6 1307.6 -3319.8 1280.5 -3314.2 C 1253.5 -3308.5 1212.5 -3318.6 1191.2 -3336.2 C 1169.9 -3353.8 1188.7 -3375.7 1152.7 -3419.7 C 1116.8 -3463.8 1005.1 -3570.3 975.6 -3600.4" stroke="#07231A" stroke-width="71" stroke-linecap="round" stroke-linejoin="round"></path><path d="M 2210.2 901.3 C 2192.2 879.4 2116.9 807.0 2102.1 770.1 C 2087.3 733.3 2104.3 702.0 2121.1 680.2 C 2138.0 658.3 2175.7 639.4 2203.3 638.9 C 2231.0 638.5 2269.3 656.2 2286.8 677.5 C 2304.4 698.8 2314.5 739.8 2308.8 766.8 C 2303.0 793.8 2277.3 827.3 2252.6 839.6 C 2227.9 852.0 2185.7 852.7 2160.6 841.1 C 2135.5 829.5 2128.9 805.0 2102.1 770.1 C 2075.3 735.3 2012.8 669.9 1999.7 632.1 C 1986.5 594.3 2005.3 564.2 2023.2 543.2 C 2041.2 522.2 2079.8 505.2 2107.5 506.2 C 2135.1 507.2 2172.4 526.8 2188.9 549.0 C 2205.3 571.1 2213.3 612.6 2206.2 639.3 C 2199.1 666.0 2171.7 698.1 2146.4 709.2 C 2121.1 720.3 2078.9 718.8 2054.5 706.0 C 2030.0 693.1 2019.4 691.3 1999.7 632.1 C 1980.0 572.9 1946.8 446.4 1936.2 351.0 C 1925.7 255.7 1931.9 150.3 1936.5 59.9 C 1941.2 -30.6 1970.3 -138.9 1964.0 -191.6 C 1957.7 -244.3 1924.9 -247.4 1898.8 -256.4 C 1872.6 -265.4 1830.7 -260.6 1807.4 -245.8 C 1784.0 -231.0 1761.7 -195.2 1758.7 -167.7 C 1755.7 -140.3 1769.8 -100.5 1789.4 -81.0 C 1809.0 -61.6 1848.9 -47.8 1876.3 -50.9 C 1903.7 -54.1 1939.4 -76.7 1954.0 -100.1 C 1968.6 -123.6 1965.8 -141.5 1964.0 -191.6 C 1962.2 -241.7 1966.7 -326.1 1943.2 -400.9 C 1919.8 -475.6 1858.7 -560.9 1823.5 -640.3 C 1788.3 -719.6 1764.5 -810.4 1731.9 -877.1 C 1699.3 -943.8 1650.0 -982.1 1627.8 -1040.6 C 1605.7 -1099.1 1617.2 -1189.1 1599.1 -1228.0 C 1581.0 -1266.9 1546.9 -1271.8 1519.4 -1273.8 C 1491.8 -1275.8 1452.6 -1260.3 1433.8 -1240.0 C 1415.1 -1219.7 1402.7 -1179.3 1406.9 -1152.0 C 1411.1 -1124.7 1435.0 -1089.9 1458.9 -1076.2 C 1482.9 -1062.4 1525.0 -1059.4 1550.6 -1069.5 C 1576.3 -1079.7 1605.0 -1110.7 1613.0 -1137.1 C 1621.1 -1163.5 1608.8 -1170.6 1599.1 -1228.0 C 1589.4 -1285.4 1552.2 -1427.6 1555.0 -1481.3 C 1557.8 -1535.0 1590.5 -1539.5 1616.0 -1550.2 C 1641.4 -1560.9 1683.6 -1558.7 1707.8 -1545.4 C 1732.1 -1532.2 1756.6 -1497.8 1761.4 -1470.6 C 1766.1 -1443.4 1754.6 -1402.8 1736.3 -1382.1 C 1718.0 -1361.5 1679.0 -1345.1 1651.5 -1346.6 C 1623.9 -1348.0 1586.8 -1368.3 1570.8 -1390.7 C 1554.7 -1413.2 1567.7 -1440.2 1555.0 -1481.3 C 1542.3 -1522.4 1510.0 -1573.1 1494.6 -1637.3 C 1479.3 -1701.5 1475.6 -1803.5 1462.9 -1866.5 C 1450.2 -1929.5 1438.2 -1955.1 1418.5 -2015.6 C 1398.8 -2076.0 1363.5 -2148.1 1344.6 -2229.4 C 1325.7 -2310.8 1324.8 -2450.3 1305.0 -2503.8 C 1285.2 -2557.3 1253.1 -2548.1 1225.6 -2550.3 C 1198.1 -2552.5 1158.7 -2537.3 1139.8 -2517.2 C 1120.9 -2497.1 1108.2 -2456.8 1112.1 -2429.5 C 1116.1 -2402.2 1139.6 -2367.1 1163.5 -2353.2 C 1187.3 -2339.2 1229.4 -2335.8 1255.1 -2345.7 C 1280.9 -2355.7 1309.8 -2386.4 1318.1 -2412.8 C 1326.4 -2439.1 1310.0 -2454.5 1305.0 -2503.8 C 1300.0 -2553.1 1279.7 -2663.8 1288.0 -2708.4 C 1296.3 -2753.0 1328.6 -2763.1 1354.9 -2771.5 C 1381.2 -2779.8 1423.0 -2773.9 1446.0 -2758.5 C 1468.9 -2743.1 1490.3 -2706.7 1492.6 -2679.2 C 1494.9 -2651.7 1479.8 -2612.3 1459.7 -2593.3 C 1439.6 -2574.4 1399.4 -2561.6 1372.0 -2565.5 C 1344.7 -2569.4 1309.6 -2592.9 1295.6 -2616.7 C 1281.6 -2640.5 1299.1 -2646.1 1288.0 -2708.4 C 1276.9 -2770.7 1240.6 -2896.0 1229.2 -2990.5 C 1217.7 -3084.9 1232.0 -3203.7 1219.3 -3275.2 C 1206.5 -3346.8 1156.9 -3381.9 1152.7 -3419.7 C 1148.5 -3457.5 1172.2 -3485.0 1194.1 -3501.9 C 1216.0 -3518.7 1257.3 -3527.4 1284.1 -3520.8 C 1310.9 -3514.2 1343.5 -3487.3 1355.0 -3462.2 C 1366.6 -3437.1 1365.8 -3394.9 1353.4 -3370.2 C 1341.0 -3345.6 1307.6 -3319.8 1280.5 -3314.2 C 1253.5 -3308.5 1212.5 -3318.6 1191.2 -3336.2 C 1169.9 -3353.8 1188.7 -3375.7 1152.7 -3419.7 C 1116.8 -3463.8 1005.1 -3570.3 975.6 -3600.4" stroke="#A3E635" stroke-width="57" stroke-linecap="round" stroke-linejoin="round" opacity="0.9768287169281393"></path><path d="M 1632.0 1337.6 C 1629.0 1313.7 1628.6 1236.9 1614.0 1194.5 C 1599.4 1152.2 1578.2 1129.7 1544.6 1083.3 C 1511.0 1036.9 1449.3 982.7 1412.2 916.4 C 1375.0 850.0 1350.9 744.3 1321.7 685.4 C 1292.4 626.5 1248.6 595.9 1236.7 563.0 C 1224.8 530.2 1237.6 507.9 1250.2 488.2 C 1262.9 468.5 1289.8 449.8 1312.7 444.9 C 1335.5 439.9 1367.8 445.7 1387.5 458.4 C 1407.2 471.0 1425.8 497.9 1430.8 520.8 C 1435.8 543.7 1430.0 575.9 1417.3 595.6 C 1404.7 615.3 1377.8 634.0 1354.9 639.0 C 1332.0 643.9 1299.8 638.1 1280.1 625.5 C 1260.4 612.8 1262.8 585.1 1236.7 563.0 C 1210.6 540.9 1154.5 501.6 1123.3 492.8 C 1092.1 484.0 1068.3 496.6 1049.3 510.2 C 1030.3 523.9 1013.1 551.8 1009.3 574.9 C 1005.5 598.0 1013.0 629.9 1026.7 648.9 C 1040.4 667.9 1068.2 685.1 1091.3 688.9 C 1114.4 692.7 1146.3 685.1 1165.3 671.5 C 1184.3 657.8 1201.6 629.9 1205.4 606.8 C 1209.1 583.7 1201.6 551.8 1188.0 532.8 C 1174.3 513.8 1151.2 511.9 1123.3 492.8 C 1095.4 473.7 1063.4 439.0 1020.7 418.1 C 978.0 397.2 920.3 375.3 867.1 367.5 C 814.0 359.8 738.4 379.6 701.6 371.5 C 664.9 363.4 656.1 340.5 646.6 319.0 C 637.1 297.6 636.3 264.9 644.8 243.0 C 653.2 221.2 675.8 197.5 697.2 188.0 C 718.7 178.6 751.4 177.8 773.2 186.2 C 795.1 194.7 818.8 217.3 828.3 238.7 C 837.7 260.1 838.5 292.8 830.1 314.7 C 821.6 336.5 799.0 360.2 777.6 369.7 C 756.2 379.2 738.8 361.0 701.6 371.5 C 664.5 382.0 607.0 394.6 554.6 432.5 C 502.2 470.4 444.6 552.3 387.4 598.8 C 330.2 645.4 262.1 661.2 211.3 711.8 C 160.5 762.4 127.7 847.4 82.6 902.5 C 37.5 957.5 -35.5 1006.2 -59.2 1042.2 C -82.9 1078.1 -68.6 1096.5 -59.8 1118.2 C -51.0 1139.9 -28.0 1163.2 -6.4 1172.3 C 15.1 1181.5 47.9 1181.7 69.6 1172.9 C 91.3 1164.1 114.6 1141.1 123.8 1119.6 C 132.9 1098.0 133.1 1065.2 124.3 1043.5 C 115.5 1021.8 92.5 998.5 71.0 989.4 C 49.4 980.3 16.7 980.0 -5.0 988.8 C -26.7 997.6 -30.5 1022.3 -59.2 1042.2 C -87.9 1062.0 -120.3 1083.7 -177.3 1107.7 C -234.2 1131.6 -336.1 1155.1 -400.9 1185.8 C -465.8 1216.5 -512.7 1241.9 -566.2 1291.9 C -619.7 1341.9 -672.0 1434.2 -722.1 1485.7 C -772.1 1537.1 -819.2 1552.1 -866.5 1600.7 C -913.8 1649.2 -984.2 1734.9 -1006.0 1776.9 C -1027.8 1818.8 -1008.6 1831.9 -997.2 1852.4 C -985.8 1872.8 -960.1 1893.2 -937.6 1899.6 C -915.1 1906.0 -882.6 1902.2 -862.1 1890.8 C -841.7 1879.4 -821.3 1853.7 -814.9 1831.2 C -808.5 1808.7 -812.3 1776.1 -823.7 1755.7 C -835.1 1735.2 -860.8 1714.9 -883.3 1708.5 C -905.8 1702.1 -938.4 1705.9 -958.8 1717.3 C -979.3 1728.7 -987.5 1734.0 -1006.0 1776.9 C -1024.5 1819.7 -1048.3 1918.4 -1069.9 1974.4 C -1091.5 2030.4 -1112.8 2085.6 -1135.7 2113.0 C -1158.6 2140.3 -1183.9 2139.6 -1207.3 2138.5 C -1230.7 2137.3 -1260.3 2123.2 -1276.0 2105.9 C -1291.7 2088.5 -1302.7 2057.6 -1301.5 2034.2 C -1300.3 2010.9 -1286.3 1981.3 -1268.9 1965.6 C -1251.5 1949.9 -1220.6 1938.9 -1197.3 1940.1 C -1173.9 1941.2 -1144.3 1955.3 -1128.6 1972.7 C -1112.9 1990.0 -1101.9 2020.9 -1103.1 2044.3 C -1104.3 2067.7 -1124.4 2059.9 -1135.7 2113.0 C -1147.0 2166.0 -1143.6 2284.9 -1170.8 2362.8 C -1198.1 2440.7 -1277.7 2544.3 -1299.1 2580.6" stroke="#07231A" stroke-width="56" stroke-linecap="round" stroke-linejoin="round"></path><path d="M 1632.0 1337.6 C 1629.0 1313.7 1628.6 1236.9 1614.0 1194.5 C 1599.4 1152.2 1578.2 1129.7 1544.6 1083.3 C 1511.0 1036.9 1449.3 982.7 1412.2 916.4 C 1375.0 850.0 1350.9 744.3 1321.7 685.4 C 1292.4 626.5 1248.6 595.9 1236.7 563.0 C 1224.8 530.2 1237.6 507.9 1250.2 488.2 C 1262.9 468.5 1289.8 449.8 1312.7 444.9 C 1335.5 439.9 1367.8 445.7 1387.5 458.4 C 1407.2 471.0 1425.8 497.9 1430.8 520.8 C 1435.8 543.7 1430.0 575.9 1417.3 595.6 C 1404.7 615.3 1377.8 634.0 1354.9 639.0 C 1332.0 643.9 1299.8 638.1 1280.1 625.5 C 1260.4 612.8 1262.8 585.1 1236.7 563.0 C 1210.6 540.9 1154.5 501.6 1123.3 492.8 C 1092.1 484.0 1068.3 496.6 1049.3 510.2 C 1030.3 523.9 1013.1 551.8 1009.3 574.9 C 1005.5 598.0 1013.0 629.9 1026.7 648.9 C 1040.4 667.9 1068.2 685.1 1091.3 688.9 C 1114.4 692.7 1146.3 685.1 1165.3 671.5 C 1184.3 657.8 1201.6 629.9 1205.4 606.8 C 1209.1 583.7 1201.6 551.8 1188.0 532.8 C 1174.3 513.8 1151.2 511.9 1123.3 492.8 C 1095.4 473.7 1063.4 439.0 1020.7 418.1 C 978.0 397.2 920.3 375.3 867.1 367.5 C 814.0 359.8 738.4 379.6 701.6 371.5 C 664.9 363.4 656.1 340.5 646.6 319.0 C 637.1 297.6 636.3 264.9 644.8 243.0 C 653.2 221.2 675.8 197.5 697.2 188.0 C 718.7 178.6 751.4 177.8 773.2 186.2 C 795.1 194.7 818.8 217.3 828.3 238.7 C 837.7 260.1 838.5 292.8 830.1 314.7 C 821.6 336.5 799.0 360.2 777.6 369.7 C 756.2 379.2 738.8 361.0 701.6 371.5 C 664.5 382.0 607.0 394.6 554.6 432.5 C 502.2 470.4 444.6 552.3 387.4 598.8 C 330.2 645.4 262.1 661.2 211.3 711.8 C 160.5 762.4 127.7 847.4 82.6 902.5 C 37.5 957.5 -35.5 1006.2 -59.2 1042.2 C -82.9 1078.1 -68.6 1096.5 -59.8 1118.2 C -51.0 1139.9 -28.0 1163.2 -6.4 1172.3 C 15.1 1181.5 47.9 1181.7 69.6 1172.9 C 91.3 1164.1 114.6 1141.1 123.8 1119.6 C 132.9 1098.0 133.1 1065.2 124.3 1043.5 C 115.5 1021.8 92.5 998.5 71.0 989.4 C 49.4 980.3 16.7 980.0 -5.0 988.8 C -26.7 997.6 -30.5 1022.3 -59.2 1042.2 C -87.9 1062.0 -120.3 1083.7 -177.3 1107.7 C -234.2 1131.6 -336.1 1155.1 -400.9 1185.8 C -465.8 1216.5 -512.7 1241.9 -566.2 1291.9 C -619.7 1341.9 -672.0 1434.2 -722.1 1485.7 C -772.1 1537.1 -819.2 1552.1 -866.5 1600.7 C -913.8 1649.2 -984.2 1734.9 -1006.0 1776.9 C -1027.8 1818.8 -1008.6 1831.9 -997.2 1852.4 C -985.8 1872.8 -960.1 1893.2 -937.6 1899.6 C -915.1 1906.0 -882.6 1902.2 -862.1 1890.8 C -841.7 1879.4 -821.3 1853.7 -814.9 1831.2 C -808.5 1808.7 -812.3 1776.1 -823.7 1755.7 C -835.1 1735.2 -860.8 1714.9 -883.3 1708.5 C -905.8 1702.1 -938.4 1705.9 -958.8 1717.3 C -979.3 1728.7 -987.5 1734.0 -1006.0 1776.9 C -1024.5 1819.7 -1048.3 1918.4 -1069.9 1974.4 C -1091.5 2030.4 -1112.8 2085.6 -1135.7 2113.0 C -1158.6 2140.3 -1183.9 2139.6 -1207.3 2138.5 C -1230.7 2137.3 -1260.3 2123.2 -1276.0 2105.9 C -1291.7 2088.5 -1302.7 2057.6 -1301.5 2034.2 C -1300.3 2010.9 -1286.3 1981.3 -1268.9 1965.6 C -1251.5 1949.9 -1220.6 1938.9 -1197.3 1940.1 C -1173.9 1941.2 -1144.3 1955.3 -1128.6 1972.7 C -1112.9 1990.0 -1101.9 2020.9 -1103.1 2044.3 C -1104.3 2067.7 -1124.4 2059.9 -1135.7 2113.0 C -1147.0 2166.0 -1143.6 2284.9 -1170.8 2362.8 C -1198.1 2440.7 -1277.7 2544.3 -1299.1 2580.6" stroke="#3FB89A" stroke-width="42" stroke-linecap="round" stroke-linejoin="round" opacity="0.7130139330634847"></path><path d="M -193.8 -118.4 C -159.2 -86.3 -41.2 8.0 13.7 74.0 C 68.7 139.9 84.0 215.6 135.7 277.3 C 187.5 339.0 260.5 389.3 324.1 444.2 C 387.8 499.0 470.9 582.2 517.6 606.3 C 564.4 630.4 583.3 604.8 604.5 588.7 C 625.7 572.6 644.2 536.4 644.9 509.8 C 645.5 483.2 628.8 446.1 608.4 429.0 C 588.0 411.9 548.5 401.9 522.5 407.2 C 496.4 412.5 464.0 437.1 451.9 460.8 C 439.7 484.5 438.7 525.1 449.7 549.4 C 460.7 573.6 479.0 581.9 517.6 606.3 C 556.3 630.7 628.5 672.6 681.4 696.0 C 734.3 719.4 770.7 720.6 834.9 746.6 C 899.1 772.6 997.7 805.5 1066.6 852.2 C 1135.5 898.8 1184.9 972.4 1248.2 1026.3 C 1311.6 1080.3 1375.4 1141.3 1446.7 1175.8 C 1518.1 1210.3 1600.2 1220.5 1676.4 1233.5 C 1752.5 1246.4 1839.3 1237.7 1903.7 1253.7 C 1968.1 1269.6 2005.3 1290.9 2062.8 1329.1 C 2120.2 1367.2 2179.6 1440.0 2248.4 1482.6 C 2317.2 1525.2 2434.2 1553.2 2475.8 1584.6 C 2517.4 1615.9 2503.1 1644.3 2497.9 1670.4 C 2492.7 1696.5 2468.2 1728.9 2444.5 1741.1 C 2420.9 1753.3 2380.2 1754.4 2355.9 1743.6 C 2331.7 1732.7 2305.5 1701.6 2298.8 1675.8 C 2292.2 1650.0 2300.2 1610.2 2316.2 1588.9 C 2332.2 1567.6 2368.3 1549.0 2394.9 1548.3 C 2421.6 1547.6 2439.1 1561.5 2475.8 1584.6 C 2512.5 1607.6 2558.7 1643.6 2615.2 1686.6 C 2671.7 1729.5 2751.9 1805.3 2814.7 1842.3 C 2877.6 1879.3 2924.5 1875.1 2992.6 1908.7 C 3060.6 1942.3 3159.2 1990.8 3223.1 2043.9 C 3287.1 2097.0 3338.6 2171.5 3376.5 2227.3 C 3414.3 2283.2 3407.5 2320.6 3450.0 2379.0 C 3492.4 2437.4 3570.2 2512.5 3631.2 2577.8 C 3692.2 2643.1 3766.3 2712.6 3815.9 2770.6 C 3865.5 2828.6 3890.6 2859.9 3928.6 2925.9 C 3966.6 2991.9 4024.6 3126.6 4043.8 3166.8" stroke="#07231A" stroke-width="55" stroke-linecap="round" stroke-linejoin="round"></path><path d="M -193.8 -118.4 C -159.2 -86.3 -41.2 8.0 13.7 74.0 C 68.7 139.9 84.0 215.6 135.7 277.3 C 187.5 339.0 260.5 389.3 324.1 444.2 C 387.8 499.0 470.9 582.2 517.6 606.3 C 564.4 630.4 583.3 604.8 604.5 588.7 C 625.7 572.6 644.2 536.4 644.9 509.8 C 645.5 483.2 628.8 446.1 608.4 429.0 C 588.0 411.9 548.5 401.9 522.5 407.2 C 496.4 412.5 464.0 437.1 451.9 460.8 C 439.7 484.5 438.7 525.1 449.7 549.4 C 460.7 573.6 479.0 581.9 517.6 606.3 C 556.3 630.7 628.5 672.6 681.4 696.0 C 734.3 719.4 770.7 720.6 834.9 746.6 C 899.1 772.6 997.7 805.5 1066.6 852.2 C 1135.5 898.8 1184.9 972.4 1248.2 1026.3 C 1311.6 1080.3 1375.4 1141.3 1446.7 1175.8 C 1518.1 1210.3 1600.2 1220.5 1676.4 1233.5 C 1752.5 1246.4 1839.3 1237.7 1903.7 1253.7 C 1968.1 1269.6 2005.3 1290.9 2062.8 1329.1 C 2120.2 1367.2 2179.6 1440.0 2248.4 1482.6 C 2317.2 1525.2 2434.2 1553.2 2475.8 1584.6 C 2517.4 1615.9 2503.1 1644.3 2497.9 1670.4 C 2492.7 1696.5 2468.2 1728.9 2444.5 1741.1 C 2420.9 1753.3 2380.2 1754.4 2355.9 1743.6 C 2331.7 1732.7 2305.5 1701.6 2298.8 1675.8 C 2292.2 1650.0 2300.2 1610.2 2316.2 1588.9 C 2332.2 1567.6 2368.3 1549.0 2394.9 1548.3 C 2421.6 1547.6 2439.1 1561.5 2475.8 1584.6 C 2512.5 1607.6 2558.7 1643.6 2615.2 1686.6 C 2671.7 1729.5 2751.9 1805.3 2814.7 1842.3 C 2877.6 1879.3 2924.5 1875.1 2992.6 1908.7 C 3060.6 1942.3 3159.2 1990.8 3223.1 2043.9 C 3287.1 2097.0 3338.6 2171.5 3376.5 2227.3 C 3414.3 2283.2 3407.5 2320.6 3450.0 2379.0 C 3492.4 2437.4 3570.2 2512.5 3631.2 2577.8 C 3692.2 2643.1 3766.3 2712.6 3815.9 2770.6 C 3865.5 2828.6 3890.6 2859.9 3928.6 2925.9 C 3966.6 2991.9 4024.6 3126.6 4043.8 3166.8" stroke="#2E9C82" stroke-width="41" stroke-linecap="round" stroke-linejoin="round" opacity="0.7203493302688002"></path></svg>