<svg xmlns="http://www.w3.org/2000/svg" viewBox="0 0 1920 1080" width="1920" height="1080" fill="none"><path d="M 1436.8 -157.1 C 1422.4 -131.9 1387.1 -51.2 1350.3 -5.8 C 1313.5 39.5 1251.7 70.0 1216.0 115.2 C 1180.2 160.4 1163.4 237.7 1135.7 265.4 C 1107.9 293.0 1074.8 288.2 1049.4 281.3 C 1023.9 274.3 993.5 247.9 983.1 223.7 C 972.7 199.5 974.4 159.3 986.8 136.0 C 999.2 112.8 1031.7 89.0 1057.7 84.2 C 1083.6 79.4 1122.4 90.0 1142.3 107.3 C 1162.2 124.6 1178.2 161.6 1177.1 188.0 C 1176.0 214.3 1148.9 211.5 1135.7 265.4 C 1122.4 319.2 1094.1 459.4 1097.7 511.2 C 1101.2 562.9 1132.6 566.0 1157.1 575.8 C 1181.6 585.5 1221.8 582.6 1244.7 569.5 C 1267.5 556.4 1290.4 523.3 1294.4 497.2 C 1298.4 471.1 1286.7 432.6 1268.8 413.2 C 1251.0 393.8 1213.6 379.0 1187.3 380.8 C 1161.0 382.7 1126.0 402.7 1111.1 424.4 C 1096.1 446.1 1113.8 463.8 1097.7 511.2 C 1081.5 558.6 1030.3 629.7 1014.3 708.8 C 998.4 787.9 1015.7 931.0 1001.8 985.8 C 987.9 1040.5 956.7 1032.7 930.8 1037.4 C 904.8 1042.1 866.0 1031.3 846.2 1014.0 C 826.3 996.6 810.5 959.6 811.7 933.2 C 812.9 906.9 832.0 871.4 853.3 856.0 C 874.6 840.5 914.3 833.3 939.7 840.3 C 965.1 847.3 995.4 873.9 1005.8 898.1 C 1016.1 922.3 994.2 944.3 1001.8 985.8 C 1009.4 1027.3 1030.4 1080.8 1051.3 1147.0 C 1072.1 1213.2 1113.1 1312.0 1126.9 1382.9 C 1140.6 1453.8 1129.1 1495.2 1133.8 1572.5 C 1138.4 1649.7 1148.1 1773.3 1155.0 1846.2 C 1161.8 1919.2 1155.8 1949.5 1174.8 2010.2 C 1193.8 2070.9 1226.1 2150.0 1268.8 2210.2 C 1311.6 2270.4 1386.7 2310.5 1431.5 2371.3 C 1476.4 2432.1 1502.2 2507.8 1538.0 2575.1 C 1573.9 2642.5 1614.2 2739.3 1646.7 2775.2 C 1679.3 2811.1 1707.8 2797.7 1733.2 2790.6 C 1758.6 2783.4 1788.8 2756.8 1799.0 2732.5 C 1809.3 2708.3 1807.3 2668.0 1794.8 2644.9 C 1782.2 2621.7 1749.5 2598.2 1723.5 2593.6 C 1697.6 2588.9 1658.8 2599.8 1639.0 2617.2 C 1619.2 2634.7 1603.5 2671.8 1604.8 2698.1 C 1606.1 2724.4 1610.4 2725.7 1646.7 2775.2 C 1683.1 2824.8 1772.2 2944.9 1822.9 2995.5 C 1873.7 3046.1 1891.2 3054.1 1951.4 3079.1 C 2011.7 3104.0 2145.7 3134.3 2184.5 3145.3" stroke="#C6F66E" stroke-width="51" stroke-linecap="round" stroke-linejoin="round" opacity="0.8090259825577959"></path><path d="M -124.5 -161.3 C -100.4 -159.6 -33.5 -165.9 19.9 -151.1 C 73.2 -136.3 163.6 -96.4 195.7 -72.3 C 227.8 -48.2 216.6 -26.4 212.6 -6.4 C 208.6 13.7 189.9 38.6 171.7 48.0 C 153.5 57.3 122.3 58.2 103.7 49.8 C 85.0 41.5 64.9 17.6 59.8 -2.2 C 54.7 -22.0 60.8 -52.6 73.1 -68.9 C 85.4 -85.2 113.2 -99.5 133.6 -100.1 C 154.0 -100.7 154.9 -92.5 195.7 -72.3 C 236.5 -52.1 337.8 10.3 378.6 21.3 C 419.4 32.2 427.5 8.9 440.6 -6.8 C 453.7 -22.5 461.4 -52.7 457.3 -72.7 C 453.3 -92.8 434.4 -117.6 416.2 -126.9 C 398.0 -136.2 366.8 -137.0 348.2 -128.6 C 329.5 -120.1 309.5 -96.2 304.5 -76.4 C 299.5 -56.6 305.7 -26.0 318.0 -9.7 C 330.4 6.6 346.8 2.0 378.6 21.3 C 410.4 40.5 485.9 80.2 508.7 105.6 C 531.5 130.9 522.4 154.1 515.4 173.3 C 508.4 192.5 486.0 214.2 466.6 220.7 C 447.2 227.2 416.3 223.3 399.1 212.2 C 382.0 201.0 365.7 174.4 363.7 154.0 C 361.7 133.7 372.4 104.4 387.1 90.1 C 401.7 75.9 431.4 66.0 451.6 68.6 C 471.9 71.1 476.3 84.5 508.7 105.6 C 541.2 126.6 612.7 183.7 646.4 195.0 C 680.1 206.3 696.2 187.7 710.9 173.5 C 725.6 159.3 736.3 130.0 734.4 109.6 C 732.4 89.3 716.2 62.6 699.0 51.5 C 681.9 40.3 650.9 36.4 631.5 42.8 C 612.2 49.3 589.7 71.0 582.7 90.2 C 575.7 109.4 578.7 140.5 589.3 157.9 C 599.9 175.4 604.6 181.8 646.4 195.0 C 688.1 208.2 786.6 219.3 839.9 237.2 C 893.3 255.2 913.1 285.9 966.6 302.6 C 1020.0 319.3 1102.8 325.3 1160.6 337.3 C 1218.4 349.4 1266.5 366.6 1313.2 374.9 C 1360.0 383.3 1413.6 375.9 1441.1 387.5 C 1468.6 399.1 1475.5 424.3 1478.1 444.5 C 1480.7 464.8 1470.8 494.4 1456.6 509.1 C 1442.3 523.7 1413.0 534.5 1392.7 532.5 C 1372.4 530.5 1345.7 514.3 1334.6 497.1 C 1323.4 480.0 1319.5 449.0 1326.0 429.6 C 1332.4 410.2 1354.2 387.9 1373.4 380.8 C 1392.6 373.8 1408.7 377.2 1441.1 387.5 C 1473.5 397.7 1528.6 417.0 1568.0 442.5 C 1607.3 468.0 1637.1 510.8 1677.0 540.6 C 1716.9 570.4 1751.9 593.3 1807.6 621.3 C 1863.2 649.4 1951.2 687.7 2010.7 708.9 C 2070.2 730.0 2111.7 736.3 2164.4 748.1 C 2217.2 759.9 2274.0 767.3 2327.2 779.7 C 2380.3 792.1 2457.3 815.5 2483.4 822.7" stroke="#1F8A5B" stroke-width="56" stroke-linecap="round" stroke-linejoin="round" opacity="0.7522054570028558"></path><path d="M 1746.9 1159.4 C 1734.6 1138.4 1692.6 1083.3 1673.1 1033.0 C 1653.6 982.6 1649.2 913.4 1629.9 857.2 C 1610.6 801.0 1583.5 750.9 1557.3 695.7 C 1531.1 640.6 1520.4 587.8 1472.6 526.1 C 1424.8 464.5 1317.1 385.3 1270.4 325.8 C 1223.7 266.4 1219.4 200.2 1192.5 169.5 C 1165.7 138.8 1136.3 139.7 1109.3 141.6 C 1082.3 143.5 1048.5 160.4 1030.7 180.8 C 1013.0 201.2 1001.0 237.0 1002.8 264.0 C 1004.7 291.0 1021.6 324.8 1042.0 342.6 C 1062.4 360.3 1098.3 372.3 1125.2 370.5 C 1152.2 368.6 1186.1 351.7 1203.8 331.3 C 1221.5 310.9 1233.5 275.0 1231.7 248.1 C 1229.8 221.1 1221.1 213.7 1192.5 169.5 C 1163.9 125.3 1111.6 39.3 1060.0 -17.3 C 1008.5 -74.0 954.0 -126.4 883.2 -170.3 C 812.5 -214.3 719.8 -257.1 635.8 -281.0 C 551.7 -304.8 430.7 -296.4 378.9 -313.4 C 327.1 -330.3 332.2 -356.7 325.1 -382.7 C 317.9 -408.8 322.7 -446.3 336.1 -469.8 C 349.4 -493.3 379.3 -516.5 405.4 -523.6 C 431.5 -530.8 469.0 -526.0 492.5 -512.6 C 516.0 -499.3 539.2 -469.4 546.3 -443.3 C 553.5 -417.2 548.7 -379.7 535.3 -356.2 C 521.9 -332.7 492.1 -309.5 466.0 -302.4 C 439.9 -295.3 418.9 -314.9 378.9 -313.4 C 338.8 -311.9 295.7 -315.6 225.7 -293.5 C 155.7 -271.4 40.3 -219.8 -41.2 -180.8 C -122.7 -141.7 -205.6 -93.9 -263.3 -59.3 C -320.9 -24.6 -333.8 -11.4 -387.3 27.2 C -440.7 65.8 -536.5 150.4 -583.7 172.5 C -631.0 194.5 -647.4 173.4 -670.6 159.5 C -693.7 145.5 -716.2 115.1 -722.7 88.9 C -729.3 62.7 -723.7 25.2 -709.7 2.1 C -695.8 -21.1 -665.4 -43.6 -639.2 -50.1 C -612.9 -56.6 -575.5 -51.0 -552.3 -37.1 C -529.2 -23.2 -506.7 7.2 -500.2 33.5 C -493.6 59.7 -499.2 97.1 -513.2 120.3 C -527.1 143.5 -540.6 149.2 -583.7 172.5 C -626.9 195.7 -697.1 240.1 -772.0 259.7 C -846.9 279.3 -989.7 285.1 -1033.3 290.2" stroke="#FFFFFF" stroke-width="36" stroke-linecap="round" stroke-linejoin="round" opacity="0.9866609204793348"></path><path d="M 2227.7 869.4 C 2180.0 867.0 2016.4 864.5 1941.2 855.3 C 1866.0 846.2 1840.4 836.7 1776.8 814.5 C 1713.2 792.3 1627.5 758.6 1559.5 722.3 C 1491.5 686.0 1432.2 629.4 1368.7 596.9 C 1305.2 564.4 1214.9 553.0 1178.5 527.2 C 1142.0 501.5 1146.7 469.0 1150.1 442.4 C 1153.5 415.7 1175.9 381.3 1198.8 367.3 C 1221.8 353.3 1262.6 349.3 1287.9 358.6 C 1313.1 367.8 1341.7 397.3 1350.2 422.7 C 1358.7 448.2 1353.5 488.9 1338.9 511.5 C 1324.3 534.0 1289.2 555.4 1262.5 558.0 C 1235.7 560.6 1231.3 538.5 1178.5 527.2 C 1125.6 515.9 1018.8 510.2 945.5 490.3 C 872.2 470.3 801.4 424.7 738.8 407.6 C 676.3 390.4 631.2 402.7 570.4 387.4 C 509.5 372.0 442.8 335.5 373.7 315.3 C 304.5 295.0 223.7 282.5 155.5 265.8 C 87.3 249.2 41.5 241.5 -35.5 215.4 C -112.4 189.2 -225.9 127.8 -306.3 109.0 C -386.8 90.2 -458.8 110.8 -518.2 102.6 C -577.6 94.4 -614.0 72.8 -662.7 60.0 C -711.4 47.2 -758.6 32.2 -810.5 25.8 C -862.4 19.4 -915.7 23.7 -974.1 21.6 C -1032.5 19.5 -1129.7 14.4 -1160.9 13.0" stroke="#3FB89A" stroke-width="44" stroke-linecap="round" stroke-linejoin="round" opacity="0.8542615948943421"></path><path d="M 2183.4 399.6 C 2147.3 403.8 2031.3 414.2 1967.0 424.3 C 1902.8 434.5 1846.5 447.4 1797.7 460.5 C 1748.9 473.6 1717.9 486.2 1674.2 503.1 C 1630.5 520.0 1595.3 543.6 1535.5 561.9 C 1475.7 580.3 1372.7 595.1 1315.4 613.1 C 1258.2 631.2 1241.1 640.4 1191.9 670.2 C 1142.6 700.0 1049.3 760.3 1020.0 792.0 C 990.7 823.6 1008.2 841.3 1016.1 860.3 C 1023.9 879.3 1047.3 900.3 1067.1 906.0 C 1086.8 911.7 1117.8 906.5 1134.6 894.6 C 1151.4 882.7 1166.6 855.2 1167.7 834.7 C 1168.9 814.2 1156.9 785.1 1141.6 771.4 C 1126.3 757.7 1096.1 749.0 1075.8 752.4 C 1055.6 755.8 1051.3 764.8 1020.0 792.0 C 988.6 819.1 931.8 873.1 887.8 915.2 C 843.8 957.3 787.4 1002.5 755.9 1044.5 C 724.5 1086.5 725.3 1116.2 699.2 1167.1 C 673.2 1217.9 632.3 1296.5 599.8 1349.7 C 567.3 1402.8 517.0 1452.4 504.3 1486.0 C 491.6 1519.7 509.9 1536.4 523.7 1551.7 C 537.5 1566.9 566.5 1578.8 587.1 1577.5 C 607.6 1576.2 635.0 1560.9 646.8 1544.0 C 658.6 1527.2 663.6 1496.2 657.8 1476.5 C 652.0 1456.7 630.9 1433.4 611.9 1425.7 C 592.9 1417.9 561.5 1419.9 543.6 1429.9 C 525.6 1440.0 527.2 1452.7 504.3 1486.0 C 481.4 1519.3 440.3 1588.1 406.2 1629.8 C 372.1 1671.4 316.2 1707.0 299.7 1736.1 C 283.3 1765.2 296.4 1786.7 307.4 1804.1 C 318.3 1821.6 344.9 1838.3 365.3 1840.6 C 385.7 1842.9 415.4 1832.5 429.9 1818.0 C 444.5 1803.5 454.9 1773.8 452.6 1753.4 C 450.3 1733.0 433.6 1706.4 416.2 1695.4 C 398.8 1684.5 367.6 1680.9 348.2 1687.7 C 328.8 1694.5 320.4 1705.1 299.7 1736.1 C 279.1 1767.1 237.1 1850.6 224.5 1873.4" stroke="#C6F66E" stroke-width="57" stroke-linecap="round" stroke-linejoin="round" opacity="0.9067284601274878"></path></svg>