<svg xmlns="http://www.w3.org/2000/svg" viewBox="0 0 1920 1080" width="1920" height="1080" fill="none"><path d="M 2047.9 524.6 C 2010.2 546.6 1892.7 610.1 1821.9 656.9 C 1751.1 703.6 1680.3 746.6 1623.0 805.3 C 1565.7 863.9 1514.7 948.9 1478.3 1008.8 C 1441.9 1068.7 1439.5 1113.1 1404.4 1164.7 C 1369.3 1216.3 1304.8 1261.1 1267.7 1318.4 C 1230.7 1375.7 1189.7 1463.5 1182.2 1508.3 C 1174.7 1553.1 1201.5 1571.1 1222.7 1587.2 C 1244.0 1603.2 1283.8 1611.2 1309.6 1604.7 C 1335.4 1598.1 1366.5 1571.9 1377.4 1547.6 C 1388.4 1523.4 1387.3 1482.7 1375.1 1459.0 C 1363.0 1435.4 1330.6 1410.8 1304.5 1405.6 C 1278.4 1400.3 1239.0 1410.4 1218.6 1427.5 C 1198.2 1444.7 1212.3 1469.4 1182.2 1508.3 C 1152.1 1547.3 1076.8 1637.2 1038.0 1661.5 C 999.2 1685.8 972.6 1667.7 949.7 1654.2 C 926.7 1640.8 904.1 1607.0 900.3 1580.6 C 896.5 1554.3 908.8 1515.5 927.0 1496.2 C 945.3 1476.8 983.3 1462.2 1009.8 1464.4 C 1036.3 1466.6 1071.4 1487.2 1086.2 1509.3 C 1101.0 1531.4 1106.8 1571.6 1098.8 1597.0 C 1090.7 1622.4 1060.4 1628.6 1038.0 1661.5 C 1015.6 1694.4 986.2 1741.9 964.6 1794.4 C 942.9 1846.8 909.2 1933.7 908.1 1976.3 C 907.0 2018.8 934.8 2036.2 957.9 2049.6 C 980.9 2063.0 1021.4 2066.1 1046.2 2056.4 C 1071.0 2046.7 1098.7 2017.0 1106.6 1991.6 C 1114.5 1966.1 1108.5 1925.9 1093.6 1903.9 C 1078.6 1881.9 1043.5 1861.5 1016.9 1859.4 C 990.4 1857.4 952.5 1872.2 934.4 1891.7 C 916.2 1911.1 907.7 1913.6 908.1 1976.3 C 908.5 2039.0 939.0 2194.9 936.7 2268.0 C 934.4 2341.2 906.2 2353.8 894.2 2415.1 C 882.2 2476.5 884.2 2567.5 864.7 2636.2 C 845.1 2704.9 821.5 2756.7 777.0 2827.3 C 732.6 2897.9 652.2 2992.8 598.0 3059.8 C 543.8 3126.7 492.4 3161.8 451.9 3228.9 C 411.4 3295.9 395.7 3398.0 355.1 3462.1 C 314.5 3526.3 260.9 3558.1 208.1 3613.8 C 155.4 3669.6 82.3 3736.7 38.6 3796.6 C -5.1 3856.6 -19.4 3925.0 -54.2 3973.5 C -89.0 4022.1 -150.8 4069.0 -170.1 4088.1" stroke="#07231A" stroke-width="64" stroke-linecap="round" stroke-linejoin="round"></path><path d="M 2047.9 524.6 C 2010.2 546.6 1892.7 610.1 1821.9 656.9 C 1751.1 703.6 1680.3 746.6 1623.0 805.3 C 1565.7 863.9 1514.7 948.9 1478.3 1008.8 C 1441.9 1068.7 1439.5 1113.1 1404.4 1164.7 C 1369.3 1216.3 1304.8 1261.1 1267.7 1318.4 C 1230.7 1375.7 1189.7 1463.5 1182.2 1508.3 C 1174.7 1553.1 1201.5 1571.1 1222.7 1587.2 C 1244.0 1603.2 1283.8 1611.2 1309.6 1604.7 C 1335.4 1598.1 1366.5 1571.9 1377.4 1547.6 C 1388.4 1523.4 1387.3 1482.7 1375.1 1459.0 C 1363.0 1435.4 1330.6 1410.8 1304.5 1405.6 C 1278.4 1400.3 1239.0 1410.4 1218.6 1427.5 C 1198.2 1444.7 1212.3 1469.4 1182.2 1508.3 C 1152.1 1547.3 1076.8 1637.2 1038.0 1661.5 C 999.2 1685.8 972.6 1667.7 949.7 1654.2 C 926.7 1640.8 904.1 1607.0 900.3 1580.6 C 896.5 1554.3 908.8 1515.5 927.0 1496.2 C 945.3 1476.8 983.3 1462.2 1009.8 1464.4 C 1036.3 1466.6 1071.4 1487.2 1086.2 1509.3 C 1101.0 1531.4 1106.8 1571.6 1098.8 1597.0 C 1090.7 1622.4 1060.4 1628.6 1038.0 1661.5 C 1015.6 1694.4 986.2 1741.9 964.6 1794.4 C 942.9 1846.8 909.2 1933.7 908.1 1976.3 C 907.0 2018.8 934.8 2036.2 957.9 2049.6 C 980.9 2063.0 1021.4 2066.1 1046.2 2056.4 C 1071.0 2046.7 1098.7 2017.0 1106.6 1991.6 C 1114.5 1966.1 1108.5 1925.9 1093.6 1903.9 C 1078.6 1881.9 1043.5 1861.5 1016.9 1859.4 C 990.4 1857.4 952.5 1872.2 934.4 1891.7 C 916.2 1911.1 907.7 1913.6 908.1 1976.3 C 908.5 2039.0 939.0 2194.9 936.7 2268.0 C 934.4 2341.2 906.2 2353.8 894.2 2415.1 C 882.2 2476.5 884.2 2567.5 864.7 2636.2 C 845.1 2704.9 821.5 2756.7 777.0 2827.3 C 732.6 2897.9 652.2 2992.8 598.0 3059.8 C 543.8 3126.7 492.4 3161.8 451.9 3228.9 C 411.4 3295.9 395.7 3398.0 355.1 3462.1 C 314.5 3526.3 260.9 3558.1 208.1 3613.8 C 155.4 3669.6 82.3 3736.7 38.6 3796.6 C -5.1 3856.6 -19.4 3925.0 -54.2 3973.5 C -89.0 4022.1 -150.8 4069.0 -170.1 4088.1" stroke="#8FD11E" stroke-width="50" stroke-linecap="round" stroke-linejoin="round" opacity="0.8282890119589865"></path><path d="M -193.2 250.7 C -166.4 254.3 -96.7 278.4 -32.6 272.1 C 31.4 265.8 144.2 215.8 191.0 212.9 C 237.7 210.1 237.8 236.2 247.6 255.0 C 257.4 273.8 258.6 306.1 250.0 325.5 C 241.5 344.9 216.9 366.0 196.4 371.4 C 175.9 376.8 144.1 370.7 127.1 358.1 C 110.1 345.4 95.1 316.7 94.3 295.6 C 93.6 274.4 106.6 244.8 122.7 231.0 C 138.8 217.2 149.5 236.5 191.0 212.9 C 232.4 189.3 310.8 127.2 371.2 89.5 C 431.5 51.8 504.0 16.1 553.1 -13.2 C 602.1 -42.6 621.3 -59.1 665.7 -86.8 C 710.2 -114.5 773.2 -156.5 819.8 -179.3 C 866.5 -202.1 899.2 -203.1 945.7 -223.4 C 992.2 -243.7 1045.2 -279.6 1098.9 -301.1 C 1152.5 -322.6 1235.0 -333.1 1267.4 -352.6 C 1299.9 -372.1 1294.9 -397.1 1293.4 -418.2 C 1291.9 -439.3 1275.8 -467.4 1258.3 -479.4 C 1240.8 -491.4 1208.8 -496.3 1188.5 -490.1 C 1168.3 -483.9 1144.5 -462.0 1136.7 -442.3 C 1128.9 -422.6 1131.2 -390.3 1141.8 -371.9 C 1152.3 -353.5 1179.0 -335.2 1200.0 -332.0 C 1220.9 -328.8 1238.1 -336.5 1267.4 -352.6 C 1296.8 -368.7 1357.3 -404.3 1376.1 -428.7 C 1395.0 -453.2 1388.5 -479.5 1380.5 -499.2 C 1372.5 -518.8 1348.5 -540.5 1328.2 -546.5 C 1307.9 -552.5 1275.9 -547.3 1258.5 -535.1 C 1241.2 -522.9 1225.4 -494.7 1224.0 -473.5 C 1222.7 -452.4 1234.9 -422.4 1250.7 -408.2 C 1266.4 -394.0 1297.4 -384.8 1318.3 -388.3 C 1339.3 -391.7 1340.9 -402.7 1376.1 -428.7 C 1411.3 -454.8 1481.5 -508.4 1529.6 -544.6 C 1577.6 -580.7 1625.3 -612.0 1664.4 -645.8 C 1703.6 -679.6 1720.4 -717.0 1764.5 -747.5 C 1808.6 -778.1 1870.0 -792.6 1929.0 -829.1 C 1988.1 -865.5 2060.8 -933.4 2118.6 -966.2 C 2176.4 -999.0 2218.1 -1000.6 2275.6 -1026.0 C 2333.1 -1051.4 2432.3 -1103.0 2463.6 -1118.5" stroke="#07231A" stroke-width="56" stroke-linecap="round" stroke-linejoin="round"></path><path d="M -193.2 250.7 C -166.4 254.3 -96.7 278.4 -32.6 272.1 C 31.4 265.8 144.2 215.8 191.0 212.9 C 237.7 210.1 237.8 236.2 247.6 255.0 C 257.4 273.8 258.6 306.1 250.0 325.5 C 241.5 344.9 216.9 366.0 196.4 371.4 C 175.9 376.8 144.1 370.7 127.1 358.1 C 110.1 345.4 95.1 316.7 94.3 295.6 C 93.6 274.4 106.6 244.8 122.7 231.0 C 138.8 217.2 149.5 236.5 191.0 212.9 C 232.4 189.3 310.8 127.2 371.2 89.5 C 431.5 51.8 504.0 16.1 553.1 -13.2 C 602.1 -42.6 621.3 -59.1 665.7 -86.8 C 710.2 -114.5 773.2 -156.5 819.8 -179.3 C 866.5 -202.1 899.2 -203.1 945.7 -223.4 C 992.2 -243.7 1045.2 -279.6 1098.9 -301.1 C 1152.5 -322.6 1235.0 -333.1 1267.4 -352.6 C 1299.9 -372.1 1294.9 -397.1 1293.4 -418.2 C 1291.9 -439.3 1275.8 -467.4 1258.3 -479.4 C 1240.8 -491.4 1208.8 -496.3 1188.5 -490.1 C 1168.3 -483.9 1144.5 -462.0 1136.7 -442.3 C 1128.9 -422.6 1131.2 -390.3 1141.8 -371.9 C 1152.3 -353.5 1179.0 -335.2 1200.0 -332.0 C 1220.9 -328.8 1238.1 -336.5 1267.4 -352.6 C 1296.8 -368.7 1357.3 -404.3 1376.1 -428.7 C 1395.0 -453.2 1388.5 -479.5 1380.5 -499.2 C 1372.5 -518.8 1348.5 -540.5 1328.2 -546.5 C 1307.9 -552.5 1275.9 -547.3 1258.5 -535.1 C 1241.2 -522.9 1225.4 -494.7 1224.0 -473.5 C 1222.7 -452.4 1234.9 -422.4 1250.7 -408.2 C 1266.4 -394.0 1297.4 -384.8 1318.3 -388.3 C 1339.3 -391.7 1340.9 -402.7 1376.1 -428.7 C 1411.3 -454.8 1481.5 -508.4 1529.6 -544.6 C 1577.6 -580.7 1625.3 -612.0 1664.4 -645.8 C 1703.6 -679.6 1720.4 -717.0 1764.5 -747.5 C 1808.6 -778.1 1870.0 -792.6 1929.0 -829.1 C 1988.1 -865.5 2060.8 -933.4 2118.6 -966.2 C 2176.4 -999.0 2218.1 -1000.6 2275.6 -1026.0 C 2333.1 -1051.4 2432.3 -1103.0 2463.6 -1118.5" stroke="#3FB89A" stroke-width="42" stroke-linecap="round" stroke-linejoin="round" opacity="0.7600738374283537"></path><path d="M 1044.0 -184.2 C 1055.7 -145.4 1109.0 -2.2 1114.5 48.2 C 1120.1 98.5 1096.1 102.4 1077.3 117.8 C 1058.5 133.2 1025.9 143.1 1001.7 140.8 C 977.5 138.4 947.5 122.3 932.1 103.6 C 916.7 84.8 906.8 52.2 909.2 28.0 C 911.5 3.8 927.6 -26.2 946.4 -41.6 C 965.2 -57.1 997.7 -67.0 1021.9 -64.6 C 1046.1 -62.2 1076.1 -46.2 1091.6 -27.4 C 1107.0 -8.6 1114.0 0.6 1114.5 48.2 C 1115.0 95.8 1089.5 213.0 1094.6 258.2 C 1099.6 303.3 1123.4 307.7 1144.9 319.0 C 1166.4 330.4 1200.3 333.6 1223.5 326.5 C 1246.7 319.4 1273.0 297.7 1284.4 276.2 C 1295.7 254.7 1299.0 220.8 1291.8 197.6 C 1284.7 174.3 1263.0 148.1 1241.5 136.7 C 1220.0 125.3 1186.1 122.1 1162.9 129.3 C 1139.7 136.4 1113.4 158.1 1102.0 179.6 C 1090.7 201.1 1088.0 207.3 1094.6 258.2 C 1101.1 309.1 1132.6 410.6 1141.3 485.0 C 1150.0 559.4 1132.2 637.6 1146.9 704.6 C 1161.6 771.7 1203.5 852.3 1229.6 887.4 C 1255.7 922.5 1279.2 916.1 1303.5 915.3 C 1327.8 914.5 1358.8 900.5 1375.4 882.8 C 1392.0 865.0 1404.1 833.2 1403.3 808.9 C 1402.5 784.6 1388.5 753.6 1370.8 736.9 C 1353.0 720.3 1321.2 708.3 1296.9 709.1 C 1272.6 709.8 1241.6 723.9 1224.9 741.6 C 1208.3 759.3 1196.3 791.2 1197.1 815.5 C 1197.8 839.8 1203.2 853.9 1229.6 887.4 C 1256.0 921.0 1322.4 969.3 1355.4 1016.8 C 1388.4 1064.4 1398.2 1122.3 1427.5 1172.7 C 1456.8 1223.1 1503.6 1265.6 1531.1 1319.0 C 1558.6 1372.3 1573.3 1441.9 1592.5 1492.7 C 1611.6 1543.4 1625.0 1596.7 1646.1 1623.6 C 1667.2 1650.5 1694.6 1654.0 1718.9 1654.1 C 1743.2 1654.1 1774.7 1641.2 1792.0 1624.1 C 1809.3 1607.0 1822.4 1575.6 1822.5 1551.3 C 1822.6 1527.0 1809.7 1495.5 1792.6 1478.2 C 1775.4 1461.0 1744.0 1447.8 1719.7 1447.7 C 1695.4 1447.6 1663.9 1460.5 1646.7 1477.7 C 1629.4 1494.8 1616.3 1526.2 1616.2 1550.5 C 1616.1 1574.8 1614.1 1582.8 1646.1 1623.6 C 1678.1 1664.3 1747.5 1749.1 1808.0 1794.9 C 1868.5 1840.7 1971.6 1868.6 2009.1 1898.4 C 2046.6 1928.2 2035.2 1949.4 2033.2 1973.6 C 2031.1 1997.9 2015.6 2028.1 1997.0 2043.8 C 1978.5 2059.5 1946.0 2069.9 1921.8 2067.9 C 1897.6 2065.9 1867.3 2050.3 1851.6 2031.8 C 1835.9 2013.2 1825.5 1980.8 1827.5 1956.6 C 1829.6 1932.3 1845.1 1902.1 1863.7 1886.4 C 1882.3 1870.6 1914.7 1860.3 1938.9 1862.3 C 1963.1 1864.3 1973.1 1872.7 2009.1 1898.4 C 2045.1 1924.2 2105.8 1981.8 2154.8 2017.0 C 2203.8 2052.2 2245.0 2078.8 2303.0 2109.6 C 2361.1 2140.5 2465.2 2174.5 2503.0 2202.3 C 2540.9 2230.1 2531.2 2252.1 2530.2 2276.4 C 2529.2 2300.7 2514.9 2331.6 2497.0 2348.1 C 2479.1 2364.5 2447.2 2376.3 2422.9 2375.3 C 2398.6 2374.3 2367.7 2359.9 2351.3 2342.1 C 2334.8 2324.2 2323.1 2292.2 2324.1 2267.9 C 2325.1 2243.6 2339.4 2212.8 2357.3 2196.3 C 2375.1 2179.8 2407.1 2168.1 2431.4 2169.1 C 2455.7 2170.1 2464.8 2193.7 2503.0 2202.3 C 2541.3 2210.8 2634.4 2217.4 2660.7 2220.4" stroke="#07231A" stroke-width="74" stroke-linecap="round" stroke-linejoin="round"></path><path d="M 1044.0 -184.2 C 1055.7 -145.4 1109.0 -2.2 1114.5 48.2 C 1120.1 98.5 1096.1 102.4 1077.3 117.8 C 1058.5 133.2 1025.9 143.1 1001.7 140.8 C 977.5 138.4 947.5 122.3 932.1 103.6 C 916.7 84.8 906.8 52.2 909.2 28.0 C 911.5 3.8 927.6 -26.2 946.4 -41.6 C 965.2 -57.1 997.7 -67.0 1021.9 -64.6 C 1046.1 -62.2 1076.1 -46.2 1091.6 -27.4 C 1107.0 -8.6 1114.0 0.6 1114.5 48.2 C 1115.0 95.8 1089.5 213.0 1094.6 258.2 C 1099.6 303.3 1123.4 307.7 1144.9 319.0 C 1166.4 330.4 1200.3 333.6 1223.5 326.5 C 1246.7 319.4 1273.0 297.7 1284.4 276.2 C 1295.7 254.7 1299.0 220.8 1291.8 197.6 C 1284.7 174.3 1263.0 148.1 1241.5 136.7 C 1220.0 125.3 1186.1 122.1 1162.9 129.3 C 1139.7 136.4 1113.4 158.1 1102.0 179.6 C 1090.7 201.1 1088.0 207.3 1094.6 258.2 C 1101.1 309.1 1132.6 410.6 1141.3 485.0 C 1150.0 559.4 1132.2 637.6 1146.9 704.6 C 1161.6 771.7 1203.5 852.3 1229.6 887.4 C 1255.7 922.5 1279.2 916.1 1303.5 915.3 C 1327.8 914.5 1358.8 900.5 1375.4 882.8 C 1392.0 865.0 1404.1 833.2 1403.3 808.9 C 1402.5 784.6 1388.5 753.6 1370.8 736.9 C 1353.0 720.3 1321.2 708.3 1296.9 709.1 C 1272.6 709.8 1241.6 723.9 1224.9 741.6 C 1208.3 759.3 1196.3 791.2 1197.1 815.5 C 1197.8 839.8 1203.2 853.9 1229.6 887.4 C 1256.0 921.0 1322.4 969.3 1355.4 1016.8 C 1388.4 1064.4 1398.2 1122.3 1427.5 1172.7 C 1456.8 1223.1 1503.6 1265.6 1531.1 1319.0 C 1558.6 1372.3 1573.3 1441.9 1592.5 1492.7 C 1611.6 1543.4 1625.0 1596.7 1646.1 1623.6 C 1667.2 1650.5 1694.6 1654.0 1718.9 1654.1 C 1743.2 1654.1 1774.7 1641.2 1792.0 1624.1 C 1809.3 1607.0 1822.4 1575.6 1822.5 1551.3 C 1822.6 1527.0 1809.7 1495.5 1792.6 1478.2 C 1775.4 1461.0 1744.0 1447.8 1719.7 1447.7 C 1695.4 1447.6 1663.9 1460.5 1646.7 1477.7 C 1629.4 1494.8 1616.3 1526.2 1616.2 1550.5 C 1616.1 1574.8 1614.1 1582.8 1646.1 1623.6 C 1678.1 1664.3 1747.5 1749.1 1808.0 1794.9 C 1868.5 1840.7 1971.6 1868.6 2009.1 1898.4 C 2046.6 1928.2 2035.2 1949.4 2033.2 1973.6 C 2031.1 1997.9 2015.6 2028.1 1997.0 2043.8 C 1978.5 2059.5 1946.0 2069.9 1921.8 2067.9 C 1897.6 2065.9 1867.3 2050.3 1851.6 2031.8 C 1835.9 2013.2 1825.5 1980.8 1827.5 1956.6 C 1829.6 1932.3 1845.1 1902.1 1863.7 1886.4 C 1882.3 1870.6 1914.7 1860.3 1938.9 1862.3 C 1963.1 1864.3 1973.1 1872.7 2009.1 1898.4 C 2045.1 1924.2 2105.8 1981.8 2154.8 2017.0 C 2203.8 2052.2 2245.0 2078.8 2303.0 2109.6 C 2361.1 2140.5 2465.2 2174.5 2503.0 2202.3 C 2540.9 2230.1 2531.2 2252.1 2530.2 2276.4 C 2529.2 2300.7 2514.9 2331.6 2497.0 2348.1 C 2479.1 2364.5 2447.2 2376.3 2422.9 2375.3 C 2398.6 2374.3 2367.7 2359.9 2351.3 2342.1 C 2334.8 2324.2 2323.1 2292.2 2324.1 2267.9 C 2325.1 2243.6 2339.4 2212.8 2357.3 2196.3 C 2375.1 2179.8 2407.1 2168.1 2431.4 2169.1 C 2455.7 2170.1 2464.8 2193.7 2503.0 2202.3 C 2541.3 2210.8 2634.4 2217.4 2660.7 2220.4" stroke="#C6F66E" stroke-width="60" stroke-linecap="round" stroke-linejoin="round" opacity="0.9771305942442268"></path><path d="M 960.7 -111.8 C 953.2 -89.2 934.1 -31.7 915.7 23.8 C 897.4 79.4 869.6 169.5 850.8 221.3 C 832.1 273.1 821.1 293.3 803.2 334.7 C 785.2 376.0 761.3 425.5 743.2 469.6 C 725.0 513.6 719.2 555.9 694.3 598.8 C 669.3 641.8 627.1 679.5 593.5 727.2 C 560.0 774.9 507.1 846.8 493.0 884.9 C 478.8 923.0 495.8 937.5 508.7 955.9 C 521.5 974.2 547.9 991.0 569.9 994.9 C 592.0 998.8 622.5 992.1 640.9 979.2 C 659.2 966.4 676.0 940.0 679.9 918.0 C 683.8 895.9 677.1 865.4 664.2 847.0 C 651.4 828.7 625.0 811.9 603.0 808.0 C 580.9 804.1 550.4 810.8 532.0 823.7 C 513.7 836.5 518.8 855.1 493.0 884.9 C 467.2 914.7 424.6 971.3 377.3 1002.5 C 330.0 1033.6 259.2 1041.7 209.3 1072.0 C 159.3 1102.4 117.9 1135.4 77.6 1184.6 C 37.3 1233.9 -2.3 1334.2 -32.4 1367.6 C -62.5 1401.0 -80.8 1388.5 -102.9 1385.1 C -125.0 1381.8 -151.9 1365.7 -165.2 1347.7 C -178.5 1329.7 -186.1 1299.3 -182.7 1277.2 C -179.4 1255.1 -163.3 1228.2 -145.3 1214.9 C -127.3 1201.6 -96.9 1194.1 -74.8 1197.4 C -52.7 1200.7 -25.8 1216.8 -12.5 1234.8 C 0.8 1252.8 8.3 1283.2 5.0 1305.3 C 1.7 1327.4 -15.0 1322.6 -32.4 1367.6 C -49.8 1412.6 -82.3 1507.9 -99.7 1575.4 C -117.1 1642.9 -136.3 1700.3 -136.8 1772.6 C -137.3 1844.9 -103.1 1940.6 -102.7 2009.1 C -102.4 2077.6 -127.3 2114.6 -134.8 2183.7 C -142.2 2252.9 -145.3 2383.9 -147.4 2423.9" stroke="#07231A" stroke-width="65" stroke-linecap="round" stroke-linejoin="round"></path><path d="M 960.7 -111.8 C 953.2 -89.2 934.1 -31.7 915.7 23.8 C 897.4 79.4 869.6 169.5 850.8 221.3 C 832.1 273.1 821.1 293.3 803.2 334.7 C 785.2 376.0 761.3 425.5 743.2 469.6 C 725.0 513.6 719.2 555.9 694.3 598.8 C 669.3 641.8 627.1 679.5 593.5 727.2 C 560.0 774.9 507.1 846.8 493.0 884.9 C 478.8 923.0 495.8 937.5 508.7 955.9 C 521.5 974.2 547.9 991.0 569.9 994.9 C 592.0 998.8 622.5 992.1 640.9 979.2 C 659.2 966.4 676.0 940.0 679.9 918.0 C 683.8 895.9 677.1 865.4 664.2 847.0 C 651.4 828.7 625.0 811.9 603.0 808.0 C 580.9 804.1 550.4 810.8 532.0 823.7 C 513.7 836.5 518.8 855.1 493.0 884.9 C 467.2 914.7 424.6 971.3 377.3 1002.5 C 330.0 1033.6 259.2 1041.7 209.3 1072.0 C 159.3 1102.4 117.9 1135.4 77.6 1184.6 C 37.3 1233.9 -2.3 1334.2 -32.4 1367.6 C -62.5 1401.0 -80.8 1388.5 -102.9 1385.1 C -125.0 1381.8 -151.9 1365.7 -165.2 1347.7 C -178.5 1329.7 -186.1 1299.3 -182.7 1277.2 C -179.4 1255.1 -163.3 1228.2 -145.3 1214.9 C -127.3 1201.6 -96.9 1194.1 -74.8 1197.4 C -52.7 1200.7 -25.8 1216.8 -12.5 1234.8 C 0.8 1252.8 8.3 1283.2 5.0 1305.3 C 1.7 1327.4 -15.0 1322.6 -32.4 1367.6 C -49.8 1412.6 -82.3 1507.9 -99.7 1575.4 C -117.1 1642.9 -136.3 1700.3 -136.8 1772.6 C -137.3 1844.9 -103.1 1940.6 -102.7 2009.1 C -102.4 2077.6 -127.3 2114.6 -134.8 2183.7 C -142.2 2252.9 -145.3 2383.9 -147.4 2423.9" stroke="#1F8A5B" stroke-width="51" stroke-linecap="round" stroke-linejoin="round" opacity="0.807231451314874"></path><path d="M 314.3 1180.9 C 334.2 1145.5 404.9 1043.4 433.7 968.6 C 462.5 893.8 461.8 808.8 487.3 732.3 C 512.7 655.7 561.6 580.4 586.3 509.4 C 611.1 438.4 625.1 373.3 635.8 306.2 C 646.5 239.1 643.4 163.3 650.3 106.8 C 657.3 50.2 661.5 12.5 677.5 -33.2 C 693.5 -78.9 721.6 -140.7 746.4 -167.4 C 771.3 -194.1 800.9 -195.4 826.8 -193.2 C 852.7 -191.1 885.1 -174.5 901.9 -154.7 C 918.7 -134.8 929.9 -100.2 927.7 -74.3 C 925.6 -48.4 909.0 -16.0 889.2 0.8 C 869.3 17.6 834.7 28.8 808.8 26.6 C 782.9 24.5 750.5 7.9 733.7 -11.9 C 716.9 -31.8 705.7 -66.4 707.9 -92.3 C 710.0 -118.2 731.5 -126.2 746.4 -167.4 C 761.4 -208.6 787.3 -277.3 797.4 -339.5 C 807.5 -401.8 795.7 -470.3 806.9 -541.1 C 818.0 -611.9 842.6 -720.2 864.3 -764.6 C 886.0 -809.0 911.3 -803.9 937.0 -807.5 C 962.7 -811.2 998.0 -802.1 1018.8 -786.5 C 1039.5 -770.9 1058.1 -739.6 1061.7 -713.8 C 1065.4 -688.1 1056.3 -652.9 1040.7 -632.1 C 1025.1 -611.3 993.8 -592.8 968.0 -589.1 C 942.3 -585.5 907.0 -594.5 886.3 -610.1 C 865.5 -625.7 847.0 -657.1 843.3 -682.8 C 839.6 -708.5 845.9 -731.4 864.3 -764.6 C 882.7 -797.7 902.1 -838.2 953.8 -881.9 C 1005.6 -925.5 1105.4 -996.4 1174.8 -1026.5 C 1244.3 -1056.5 1301.1 -1045.2 1370.4 -1062.2 C 1439.7 -1079.2 1529.3 -1104.1 1590.5 -1128.7 C 1651.7 -1153.4 1682.3 -1182.3 1737.6 -1210.2 C 1792.8 -1238.1 1891.2 -1281.8 1922.0 -1296.2" stroke="#07231A" stroke-width="61" stroke-linecap="round" stroke-linejoin="round"></path><path d="M 314.3 1180.9 C 334.2 1145.5 404.9 1043.4 433.7 968.6 C 462.5 893.8 461.8 808.8 487.3 732.3 C 512.7 655.7 561.6 580.4 586.3 509.4 C 611.1 438.4 625.1 373.3 635.8 306.2 C 646.5 239.1 643.4 163.3 650.3 106.8 C 657.3 50.2 661.5 12.5 677.5 -33.2 C 693.5 -78.9 721.6 -140.7 746.4 -167.4 C 771.3 -194.1 800.9 -195.4 826.8 -193.2 C 852.7 -191.1 885.1 -174.5 901.9 -154.7 C 918.7 -134.8 929.9 -100.2 927.7 -74.3 C 925.6 -48.4 909.0 -16.0 889.2 0.8 C 869.3 17.6 834.7 28.8 808.8 26.6 C 782.9 24.5 750.5 7.9 733.7 -11.9 C 716.9 -31.8 705.7 -66.4 707.9 -92.3 C 710.0 -118.2 731.5 -126.2 746.4 -167.4 C 761.4 -208.6 787.3 -277.3 797.4 -339.5 C 807.5 -401.8 795.7 -470.3 806.9 -541.1 C 818.0 -611.9 842.6 -720.2 864.3 -764.6 C 886.0 -809.0 911.3 -803.9 937.0 -807.5 C 962.7 -811.2 998.0 -802.1 1018.8 -786.5 C 1039.5 -770.9 1058.1 -739.6 1061.7 -713.8 C 1065.4 -688.1 1056.3 -652.9 1040.7 -632.1 C 1025.1 -611.3 993.8 -592.8 968.0 -589.1 C 942.3 -585.5 907.0 -594.5 886.3 -610.1 C 865.5 -625.7 847.0 -657.1 843.3 -682.8 C 839.6 -708.5 845.9 -731.4 864.3 -764.6 C 882.7 -797.7 902.1 -838.2 953.8 -881.9 C 1005.6 -925.5 1105.4 -996.4 1174.8 -1026.5 C 1244.3 -1056.5 1301.1 -1045.2 1370.4 -1062.2 C 1439.7 -1079.2 1529.3 -1104.1 1590.5 -1128.7 C 1651.7 -1153.4 1682.3 -1182.3 1737.6 -1210.2 C 1792.8 -1238.1 1891.2 -1281.8 1922.0 -1296.2" stroke="#8FD11E" stroke-width="47" stroke-linecap="round" stroke-linejoin="round" opacity="0.8770475017372519"></path><path d="M 1584.4 -227.1 C 1571.7 -206.0 1532.7 -149.6 1508.5 -100.8 C 1484.3 -51.9 1463.5 32.9 1439.1 66.0 C 1414.7 99.0 1387.8 97.7 1362.2 97.6 C 1336.6 97.6 1303.5 83.8 1285.4 65.7 C 1267.3 47.5 1253.7 14.4 1253.7 -11.2 C 1253.8 -36.8 1267.6 -69.9 1285.7 -88.0 C 1303.8 -106.1 1337.0 -119.7 1362.6 -119.7 C 1388.2 -119.6 1421.3 -105.9 1439.4 -87.7 C 1457.4 -69.6 1471.1 -36.4 1471.0 -10.8 C 1471.0 14.8 1462.6 15.8 1439.1 66.0 C 1415.5 116.1 1355.5 208.5 1329.8 290.0 C 1304.2 371.5 1295.1 481.2 1285.1 555.1 C 1275.1 629.1 1275.0 679.7 1270.0 733.6 C 1264.9 787.4 1267.9 845.5 1254.6 878.3 C 1241.3 911.1 1214.5 923.3 1189.9 930.6 C 1165.4 937.8 1129.7 934.1 1107.2 921.8 C 1084.8 909.6 1062.2 881.7 1055.0 857.1 C 1047.7 832.6 1051.5 796.9 1063.7 774.5 C 1076.0 752.0 1103.8 729.4 1128.4 722.2 C 1153.0 714.9 1188.6 718.7 1211.1 730.9 C 1233.6 743.2 1256.1 771.0 1263.4 795.6 C 1270.6 820.2 1262.9 835.0 1254.6 878.3 C 1246.3 921.6 1223.2 982.4 1213.5 1055.2 C 1203.7 1128.0 1209.4 1262.7 1196.0 1315.1 C 1182.7 1367.6 1157.7 1361.7 1133.4 1369.8 C 1109.1 1378.0 1073.4 1375.6 1050.4 1364.3 C 1027.5 1352.9 1003.9 1325.9 995.7 1301.7 C 987.5 1277.4 989.9 1241.6 1001.3 1218.7 C 1012.6 1195.7 1039.6 1172.1 1063.9 1164.0 C 1088.2 1155.8 1123.9 1158.2 1146.9 1169.5 C 1169.8 1180.9 1193.4 1207.9 1201.6 1232.1 C 1209.8 1256.4 1194.8 1276.6 1196.0 1315.1 C 1197.3 1353.6 1192.5 1402.0 1209.1 1463.1 C 1225.6 1524.2 1274.0 1615.3 1295.2 1681.8 C 1316.4 1748.3 1318.4 1794.8 1336.3 1862.2 C 1354.2 1929.7 1385.9 2010.5 1402.6 2086.5 C 1419.3 2162.4 1433.7 2233.4 1436.5 2317.9 C 1439.2 2402.4 1420.4 2512.3 1419.2 2593.7 C 1418.1 2675.1 1437.4 2760.5 1429.8 2806.2 C 1422.3 2851.8 1397.1 2856.8 1374.0 2867.8 C 1350.9 2878.8 1315.1 2880.6 1290.9 2871.9 C 1266.8 2863.3 1240.3 2839.3 1229.3 2816.1 C 1218.3 2793.0 1216.5 2757.2 1225.2 2733.1 C 1233.8 2709.0 1257.8 2682.4 1281.0 2671.4 C 1304.1 2660.5 1339.9 2658.7 1364.0 2667.3 C 1388.1 2675.9 1414.7 2700.0 1425.7 2723.1 C 1436.6 2746.2 1423.1 2753.1 1429.8 2806.2 C 1436.5 2859.2 1440.8 2961.5 1465.8 3041.6 C 1490.8 3121.7 1561.0 3245.9 1580.1 3286.8" stroke="#07231A" stroke-width="63" stroke-linecap="round" stroke-linejoin="round"></path><path d="M 1584.4 -227.1 C 1571.7 -206.0 1532.7 -149.6 1508.5 -100.8 C 1484.3 -51.9 1463.5 32.9 1439.1 66.0 C 1414.7 99.0 1387.8 97.7 1362.2 97.6 C 1336.6 97.6 1303.5 83.8 1285.4 65.7 C 1267.3 47.5 1253.7 14.4 1253.7 -11.2 C 1253.8 -36.8 1267.6 -69.9 1285.7 -88.0 C 1303.8 -106.1 1337.0 -119.7 1362.6 -119.7 C 1388.2 -119.6 1421.3 -105.9 1439.4 -87.7 C 1457.4 -69.6 1471.1 -36.4 1471.0 -10.8 C 1471.0 14.8 1462.6 15.8 1439.1 66.0 C 1415.5 116.1 1355.5 208.5 1329.8 290.0 C 1304.2 371.5 1295.1 481.2 1285.1 555.1 C 1275.1 629.1 1275.0 679.7 1270.0 733.6 C 1264.9 787.4 1267.9 845.5 1254.6 878.3 C 1241.3 911.1 1214.5 923.3 1189.9 930.6 C 1165.4 937.8 1129.7 934.1 1107.2 921.8 C 1084.8 909.6 1062.2 881.7 1055.0 857.1 C 1047.7 832.6 1051.5 796.9 1063.7 774.5 C 1076.0 752.0 1103.8 729.4 1128.4 722.2 C 1153.0 714.9 1188.6 718.7 1211.1 730.9 C 1233.6 743.2 1256.1 771.0 1263.4 795.6 C 1270.6 820.2 1262.9 835.0 1254.6 878.3 C 1246.3 921.6 1223.2 982.4 1213.5 1055.2 C 1203.7 1128.0 1209.4 1262.7 1196.0 1315.1 C 1182.7 1367.6 1157.7 1361.7 1133.4 1369.8 C 1109.1 1378.0 1073.4 1375.6 1050.4 1364.3 C 1027.5 1352.9 1003.9 1325.9 995.7 1301.7 C 987.5 1277.4 989.9 1241.6 1001.3 1218.7 C 1012.6 1195.7 1039.6 1172.1 1063.9 1164.0 C 1088.2 1155.8 1123.9 1158.2 1146.9 1169.5 C 1169.8 1180.9 1193.4 1207.9 1201.6 1232.1 C 1209.8 1256.4 1194.8 1276.6 1196.0 1315.1 C 1197.3 1353.6 1192.5 1402.0 1209.1 1463.1 C 1225.6 1524.2 1274.0 1615.3 1295.2 1681.8 C 1316.4 1748.3 1318.4 1794.8 1336.3 1862.2 C 1354.2 1929.7 1385.9 2010.5 1402.6 2086.5 C 1419.3 2162.4 1433.7 2233.4 1436.5 2317.9 C 1439.2 2402.4 1420.4 2512.3 1419.2 2593.7 C 1418.1 2675.1 1437.4 2760.5 1429.8 2806.2 C 1422.3 2851.8 1397.1 2856.8 1374.0 2867.8 C 1350.9 2878.8 1315.1 2880.6 1290.9 2871.9 C 1266.8 2863.3 1240.3 2839.3 1229.3 2816.1 C 1218.3 2793.0 1216.5 2757.2 1225.2 2733.1 C 1233.8 2709.0 1257.8 2682.4 1281.0 2671.4 C 1304.1 2660.5 1339.9 2658.7 1364.0 2667.3 C 1388.1 2675.9 1414.7 2700.0 1425.7 2723.1 C 1436.6 2746.2 1423.1 2753.1 1429.8 2806.2 C 1436.5 2859.2 1440.8 2961.5 1465.8 3041.6 C 1490.8 3121.7 1561.0 3245.9 1580.1 3286.8" stroke="#3FB89A" stroke-width="49" stroke-linecap="round" stroke-linejoin="round" opacity="0.8948607354890554"></path></svg>