<svg xmlns="http://www.w3.org/2000/svg" viewBox="0 0 1920 1080" width="1920" height="1080" fill="none"><path d="M 2192.3 994.0 C 2169.2 990.4 2111.1 984.1 2054.1 972.0 C 1997.2 959.9 1909.2 937.4 1850.7 921.5 C 1792.1 905.7 1767.4 888.1 1702.8 877.0 C 1638.2 866.0 1535.1 867.7 1463.2 855.3 C 1391.3 842.8 1331.5 820.6 1271.4 802.3 C 1211.4 784.0 1160.8 775.9 1102.6 745.3 C 1044.5 714.7 993.9 651.2 922.5 619.0 C 851.2 586.8 754.2 561.0 674.4 552.1 C 594.5 543.2 514.4 571.8 443.5 565.5 C 372.6 559.2 320.2 543.3 248.9 514.4 C 177.6 485.5 79.3 422.9 15.7 392.3 C -48.0 361.6 -68.7 351.2 -132.8 330.8 C -196.8 310.4 -292.3 292.5 -368.9 269.8 C -445.4 247.0 -550.4 219.7 -592.3 194.1 C -634.3 168.6 -623.0 141.0 -620.4 116.3 C -617.9 91.6 -598.0 59.2 -577.1 45.8 C -556.2 32.4 -518.6 27.7 -495.0 35.7 C -471.5 43.7 -444.4 70.2 -435.9 93.6 C -427.5 117.0 -431.3 154.7 -444.3 175.9 C -457.3 197.1 -489.3 217.6 -513.9 220.7 C -538.6 223.7 -536.5 196.0 -592.3 194.1 C -648.1 192.3 -798.0 195.7 -848.6 209.6 C -899.3 223.4 -892.2 252.8 -896.2 277.3 C -900.3 301.8 -889.6 338.2 -873.0 356.7 C -856.4 375.1 -821.2 389.5 -796.4 388.0 C -771.6 386.5 -738.5 368.0 -724.2 347.7 C -709.9 327.4 -703.7 289.9 -710.7 266.1 C -717.6 242.2 -743.1 214.0 -766.1 204.6 C -789.1 195.2 -791.1 211.8 -848.6 209.6 C -906.2 207.4 -1067.5 194.4 -1111.3 191.4" stroke="#07231A" stroke-width="58" stroke-linecap="round" stroke-linejoin="round"></path><path d="M 2192.3 994.0 C 2169.2 990.4 2111.1 984.1 2054.1 972.0 C 1997.2 959.9 1909.2 937.4 1850.7 921.5 C 1792.1 905.7 1767.4 888.1 1702.8 877.0 C 1638.2 866.0 1535.1 867.7 1463.2 855.3 C 1391.3 842.8 1331.5 820.6 1271.4 802.3 C 1211.4 784.0 1160.8 775.9 1102.6 745.3 C 1044.5 714.7 993.9 651.2 922.5 619.0 C 851.2 586.8 754.2 561.0 674.4 552.1 C 594.5 543.2 514.4 571.8 443.5 565.5 C 372.6 559.2 320.2 543.3 248.9 514.4 C 177.6 485.5 79.3 422.9 15.7 392.3 C -48.0 361.6 -68.7 351.2 -132.8 330.8 C -196.8 310.4 -292.3 292.5 -368.9 269.8 C -445.4 247.0 -550.4 219.7 -592.3 194.1 C -634.3 168.6 -623.0 141.0 -620.4 116.3 C -617.9 91.6 -598.0 59.2 -577.1 45.8 C -556.2 32.4 -518.6 27.7 -495.0 35.7 C -471.5 43.7 -444.4 70.2 -435.9 93.6 C -427.5 117.0 -431.3 154.7 -444.3 175.9 C -457.3 197.1 -489.3 217.6 -513.9 220.7 C -538.6 223.7 -536.5 196.0 -592.3 194.1 C -648.1 192.3 -798.0 195.7 -848.6 209.6 C -899.3 223.4 -892.2 252.8 -896.2 277.3 C -900.3 301.8 -889.6 338.2 -873.0 356.7 C -856.4 375.1 -821.2 389.5 -796.4 388.0 C -771.6 386.5 -738.5 368.0 -724.2 347.7 C -709.9 327.4 -703.7 289.9 -710.7 266.1 C -717.6 242.2 -743.1 214.0 -766.1 204.6 C -789.1 195.2 -791.1 211.8 -848.6 209.6 C -906.2 207.4 -1067.5 194.4 -1111.3 191.4" stroke="#3FB89A" stroke-width="44" stroke-linecap="round" stroke-linejoin="round" opacity="0.7488889418076723"></path><path d="M 923.3 -82.7 C 917.2 -72.1 905.0 -31.4 886.9 -18.8 C 868.7 -6.3 835.4 -1.1 814.2 -7.5 C 793.1 -13.9 768.3 -36.7 760.1 -57.2 C 751.9 -77.7 754.2 -111.3 765.2 -130.5 C 776.1 -149.7 803.9 -168.8 825.7 -172.2 C 847.5 -175.7 879.8 -165.9 896.0 -151.0 C 912.3 -136.0 915.9 -127.1 923.3 -82.7 C 930.6 -38.3 933.9 49.7 940.2 115.4 C 946.6 181.0 950.1 255.6 961.3 311.1 C 972.5 366.7 981.0 401.6 1007.3 448.6 C 1033.6 495.5 1103.2 556.8 1118.9 592.8 C 1134.5 628.7 1115.5 647.1 1101.4 664.2 C 1087.4 681.2 1056.8 695.4 1034.8 695.1 C 1012.7 694.8 982.5 679.7 969.0 662.2 C 955.5 644.8 948.5 611.8 953.7 590.3 C 958.9 568.9 980.4 542.8 1000.4 533.6 C 1020.4 524.3 1054.1 524.8 1073.9 534.6 C 1093.6 544.5 1100.9 550.4 1118.9 592.8 C 1136.8 635.2 1155.8 722.6 1181.5 789.1 C 1207.3 855.6 1256.3 921.6 1273.2 991.9 C 1290.2 1062.2 1272.3 1135.8 1283.5 1210.8 C 1294.7 1285.8 1327.7 1376.3 1340.3 1442.1 C 1352.9 1507.9 1355.5 1548.2 1359.1 1605.5 C 1362.8 1662.9 1366.6 1733.0 1362.3 1786.2 C 1358.1 1839.5 1334.6 1870.5 1333.6 1924.9 C 1332.6 1979.3 1338.8 2055.8 1356.4 2112.7 C 1374.0 2169.7 1413.3 2238.8 1439.2 2266.7 C 1465.0 2294.5 1490.2 2285.7 1511.5 2279.8 C 1532.8 2274.0 1558.2 2251.8 1566.9 2231.5 C 1575.5 2211.2 1574.0 2177.5 1563.6 2158.1 C 1553.1 2138.6 1525.9 2118.8 1504.2 2114.9 C 1482.4 2110.9 1449.9 2119.9 1433.3 2134.4 C 1416.7 2148.9 1403.4 2179.9 1404.4 2201.9 C 1405.3 2224.0 1416.6 2240.1 1439.2 2266.7 C 1461.7 2293.3 1506.9 2327.0 1539.7 2361.6 C 1572.5 2396.2 1605.5 2429.3 1636.2 2474.3 C 1667.0 2519.4 1698.2 2570.5 1724.0 2631.9 C 1749.7 2693.4 1779.7 2807.7 1790.9 2842.8" stroke="#07231A" stroke-width="59" stroke-linecap="round" stroke-linejoin="round"></path><path d="M 923.3 -82.7 C 917.2 -72.1 905.0 -31.4 886.9 -18.8 C 868.7 -6.3 835.4 -1.1 814.2 -7.5 C 793.1 -13.9 768.3 -36.7 760.1 -57.2 C 751.9 -77.7 754.2 -111.3 765.2 -130.5 C 776.1 -149.7 803.9 -168.8 825.7 -172.2 C 847.5 -175.7 879.8 -165.9 896.0 -151.0 C 912.3 -136.0 915.9 -127.1 923.3 -82.7 C 930.6 -38.3 933.9 49.7 940.2 115.4 C 946.6 181.0 950.1 255.6 961.3 311.1 C 972.5 366.7 981.0 401.6 1007.3 448.6 C 1033.6 495.5 1103.2 556.8 1118.9 592.8 C 1134.5 628.7 1115.5 647.1 1101.4 664.2 C 1087.4 681.2 1056.8 695.4 1034.8 695.1 C 1012.7 694.8 982.5 679.7 969.0 662.2 C 955.5 644.8 948.5 611.8 953.7 590.3 C 958.9 568.9 980.4 542.8 1000.4 533.6 C 1020.4 524.3 1054.1 524.8 1073.9 534.6 C 1093.6 544.5 1100.9 550.4 1118.9 592.8 C 1136.8 635.2 1155.8 722.6 1181.5 789.1 C 1207.3 855.6 1256.3 921.6 1273.2 991.9 C 1290.2 1062.2 1272.3 1135.8 1283.5 1210.8 C 1294.7 1285.8 1327.7 1376.3 1340.3 1442.1 C 1352.9 1507.9 1355.5 1548.2 1359.1 1605.5 C 1362.8 1662.9 1366.6 1733.0 1362.3 1786.2 C 1358.1 1839.5 1334.6 1870.5 1333.6 1924.9 C 1332.6 1979.3 1338.8 2055.8 1356.4 2112.7 C 1374.0 2169.7 1413.3 2238.8 1439.2 2266.7 C 1465.0 2294.5 1490.2 2285.7 1511.5 2279.8 C 1532.8 2274.0 1558.2 2251.8 1566.9 2231.5 C 1575.5 2211.2 1574.0 2177.5 1563.6 2158.1 C 1553.1 2138.6 1525.9 2118.8 1504.2 2114.9 C 1482.4 2110.9 1449.9 2119.9 1433.3 2134.4 C 1416.7 2148.9 1403.4 2179.9 1404.4 2201.9 C 1405.3 2224.0 1416.6 2240.1 1439.2 2266.7 C 1461.7 2293.3 1506.9 2327.0 1539.7 2361.6 C 1572.5 2396.2 1605.5 2429.3 1636.2 2474.3 C 1667.0 2519.4 1698.2 2570.5 1724.0 2631.9 C 1749.7 2693.4 1779.7 2807.7 1790.9 2842.8" stroke="#1F8A5B" stroke-width="45" stroke-linecap="round" stroke-linejoin="round" opacity="0.86159771210514"></path><path d="M -144.2 -38.9 C -117.2 -16.8 -38.7 60.2 18.2 93.7 C 75.0 127.1 134.6 127.2 197.0 161.8 C 259.5 196.4 348.5 281.4 392.9 301.3 C 437.2 321.2 446.8 295.8 463.1 281.2 C 479.5 266.6 492.4 235.6 491.2 213.7 C 490.0 191.8 473.9 162.4 456.0 149.7 C 438.1 137.0 405.1 131.3 384.0 137.3 C 362.9 143.4 337.8 165.7 329.4 185.9 C 321.0 206.2 322.8 239.7 333.4 258.9 C 343.9 278.1 356.0 286.6 392.9 301.3 C 429.8 316.0 490.4 335.9 554.7 347.1 C 619.0 358.3 702.0 360.0 778.8 368.4 C 855.7 376.8 939.8 400.9 1015.8 397.4 C 1091.7 393.9 1172.2 355.5 1234.5 347.5 C 1296.7 339.5 1327.9 352.6 1389.3 349.3 C 1450.7 346.0 1558.7 322.7 1602.8 327.9 C 1646.9 333.0 1646.8 359.4 1653.8 380.2 C 1660.8 401.0 1656.7 434.2 1644.8 452.7 C 1632.9 471.1 1604.3 488.6 1582.4 490.8 C 1560.6 493.0 1529.1 481.5 1513.8 465.8 C 1498.4 450.1 1487.7 418.4 1490.5 396.6 C 1493.2 374.8 1511.4 346.6 1530.1 335.2 C 1548.8 323.7 1552.8 318.8 1602.8 327.9 C 1652.8 337.0 1763.1 370.8 1830.2 389.8 C 1897.2 408.8 1965.9 440.0 2005.0 441.7 C 2044.1 443.4 2054.2 419.0 2064.9 399.9 C 2075.7 380.8 2077.9 347.3 2069.6 327.0 C 2061.4 306.6 2036.6 284.1 2015.5 277.8 C 1994.5 271.6 1961.4 276.9 1943.4 289.5 C 1925.4 302.1 1908.9 331.3 1907.5 353.2 C 1906.1 375.1 1918.7 406.2 1934.9 420.9 C 1951.2 435.7 1975.0 425.0 2005.0 441.7 C 2035.0 458.5 2096.1 495.9 2115.0 521.4 C 2133.9 546.8 2127.0 574.2 2118.4 594.4 C 2109.8 614.6 2084.6 636.7 2063.4 642.6 C 2042.3 648.4 2009.3 642.5 1991.5 629.6 C 1973.7 616.7 1957.8 587.2 1956.8 565.3 C 1955.8 543.4 1968.9 512.5 1985.4 498.1 C 2001.9 483.6 2034.2 474.6 2055.8 478.5 C 2077.4 482.4 2072.8 502.2 2115.0 521.4 C 2157.2 540.5 2272.8 569.9 2308.9 593.4 C 2345.0 617.0 2334.6 641.1 2331.7 662.9 C 2328.8 684.6 2310.5 712.7 2291.6 724.0 C 2272.8 735.3 2239.5 738.4 2218.9 730.8 C 2198.3 723.1 2175.1 699.0 2168.2 678.1 C 2161.4 657.3 2165.7 624.0 2177.8 605.7 C 2189.8 587.3 2218.5 570.0 2240.4 568.0 C 2262.2 565.9 2273.2 577.4 2308.9 593.4 C 2344.6 609.4 2419.4 657.5 2454.7 664.0 C 2490.0 670.4 2506.9 649.5 2520.6 632.4 C 2534.3 615.2 2541.8 582.5 2537.0 561.1 C 2532.1 539.7 2511.3 513.5 2491.5 503.9 C 2471.8 494.4 2438.2 494.3 2418.4 503.8 C 2398.6 513.3 2377.7 539.5 2372.8 560.9 C 2367.9 582.2 2375.3 615.0 2388.9 632.1 C 2402.6 649.3 2411.4 655.0 2454.7 664.0 C 2498.0 672.9 2577.1 681.1 2648.8 685.9 C 2720.5 690.7 2805.3 695.1 2884.8 692.7 C 2964.3 690.3 3049.5 684.9 3126.0 671.7 C 3202.6 658.4 3286.9 633.3 3343.9 613.2 C 3401.0 593.1 3436.4 556.3 3468.2 551.1 C 3499.9 545.8 3520.5 564.8 3534.5 581.8 C 3548.4 598.7 3556.4 631.3 3551.8 652.8 C 3547.2 674.2 3526.7 700.8 3507.1 710.6 C 3487.5 720.4 3454.0 720.9 3434.0 711.7 C 3414.1 702.5 3392.8 676.6 3387.6 655.3 C 3382.4 633.9 3389.4 601.1 3402.8 583.8 C 3416.2 566.4 3430.3 577.7 3468.2 551.1 C 3506.0 524.5 3603.1 445.3 3630.1 424.1" stroke="#07231A" stroke-width="67" stroke-linecap="round" stroke-linejoin="round"></path><path d="M -144.2 -38.9 C -117.2 -16.8 -38.7 60.2 18.2 93.7 C 75.0 127.1 134.6 127.2 197.0 161.8 C 259.5 196.4 348.5 281.4 392.9 301.3 C 437.2 321.2 446.8 295.8 463.1 281.2 C 479.5 266.6 492.4 235.6 491.2 213.7 C 490.0 191.8 473.9 162.4 456.0 149.7 C 438.1 137.0 405.1 131.3 384.0 137.3 C 362.9 143.4 337.8 165.7 329.4 185.9 C 321.0 206.2 322.8 239.7 333.4 258.9 C 343.9 278.1 356.0 286.6 392.9 301.3 C 429.8 316.0 490.4 335.9 554.7 347.1 C 619.0 358.3 702.0 360.0 778.8 368.4 C 855.7 376.8 939.8 400.9 1015.8 397.4 C 1091.7 393.9 1172.2 355.5 1234.5 347.5 C 1296.7 339.5 1327.9 352.6 1389.3 349.3 C 1450.7 346.0 1558.7 322.7 1602.8 327.9 C 1646.9 333.0 1646.8 359.4 1653.8 380.2 C 1660.8 401.0 1656.7 434.2 1644.8 452.7 C 1632.9 471.1 1604.3 488.6 1582.4 490.8 C 1560.6 493.0 1529.1 481.5 1513.8 465.8 C 1498.4 450.1 1487.7 418.4 1490.5 396.6 C 1493.2 374.8 1511.4 346.6 1530.1 335.2 C 1548.8 323.7 1552.8 318.8 1602.8 327.9 C 1652.8 337.0 1763.1 370.8 1830.2 389.8 C 1897.2 408.8 1965.9 440.0 2005.0 441.7 C 2044.1 443.4 2054.2 419.0 2064.9 399.9 C 2075.7 380.8 2077.9 347.3 2069.6 327.0 C 2061.4 306.6 2036.6 284.1 2015.5 277.8 C 1994.5 271.6 1961.4 276.9 1943.4 289.5 C 1925.4 302.1 1908.9 331.3 1907.5 353.2 C 1906.1 375.1 1918.7 406.2 1934.9 420.9 C 1951.2 435.7 1975.0 425.0 2005.0 441.7 C 2035.0 458.5 2096.1 495.9 2115.0 521.4 C 2133.9 546.8 2127.0 574.2 2118.4 594.4 C 2109.8 614.6 2084.6 636.7 2063.4 642.6 C 2042.3 648.4 2009.3 642.5 1991.5 629.6 C 1973.7 616.7 1957.8 587.2 1956.8 565.3 C 1955.8 543.4 1968.9 512.5 1985.4 498.1 C 2001.9 483.6 2034.2 474.6 2055.8 478.5 C 2077.4 482.4 2072.8 502.2 2115.0 521.4 C 2157.2 540.5 2272.8 569.9 2308.9 593.4 C 2345.0 617.0 2334.6 641.1 2331.7 662.9 C 2328.8 684.6 2310.5 712.7 2291.6 724.0 C 2272.8 735.3 2239.5 738.4 2218.9 730.8 C 2198.3 723.1 2175.1 699.0 2168.2 678.1 C 2161.4 657.3 2165.7 624.0 2177.8 605.7 C 2189.8 587.3 2218.5 570.0 2240.4 568.0 C 2262.2 565.9 2273.2 577.4 2308.9 593.4 C 2344.6 609.4 2419.4 657.5 2454.7 664.0 C 2490.0 670.4 2506.9 649.5 2520.6 632.4 C 2534.3 615.2 2541.8 582.5 2537.0 561.1 C 2532.1 539.7 2511.3 513.5 2491.5 503.9 C 2471.8 494.4 2438.2 494.3 2418.4 503.8 C 2398.6 513.3 2377.7 539.5 2372.8 560.9 C 2367.9 582.2 2375.3 615.0 2388.9 632.1 C 2402.6 649.3 2411.4 655.0 2454.7 664.0 C 2498.0 672.9 2577.1 681.1 2648.8 685.9 C 2720.5 690.7 2805.3 695.1 2884.8 692.7 C 2964.3 690.3 3049.5 684.9 3126.0 671.7 C 3202.6 658.4 3286.9 633.3 3343.9 613.2 C 3401.0 593.1 3436.4 556.3 3468.2 551.1 C 3499.9 545.8 3520.5 564.8 3534.5 581.8 C 3548.4 598.7 3556.4 631.3 3551.8 652.8 C 3547.2 674.2 3526.7 700.8 3507.1 710.6 C 3487.5 720.4 3454.0 720.9 3434.0 711.7 C 3414.1 702.5 3392.8 676.6 3387.6 655.3 C 3382.4 633.9 3389.4 601.1 3402.8 583.8 C 3416.2 566.4 3430.3 577.7 3468.2 551.1 C 3506.0 524.5 3603.1 445.3 3630.1 424.1" stroke="#8FD11E" stroke-width="53" stroke-linecap="round" stroke-linejoin="round" opacity="0.8915442447410896"></path><path d="M 2127.2 576.4 C 2103.2 579.3 2041.3 587.1 1983.0 593.7 C 1924.7 600.3 1839.6 619.0 1777.6 616.0 C 1715.6 613.1 1684.8 588.3 1610.9 575.9 C 1537.0 563.5 1391.4 538.7 1334.3 541.6 C 1277.1 544.5 1280.8 570.8 1268.0 593.3 C 1255.3 615.8 1250.8 651.7 1257.7 676.6 C 1264.6 701.6 1286.8 730.1 1309.3 742.9 C 1331.8 755.7 1367.8 760.1 1392.7 753.2 C 1417.6 746.3 1446.2 724.1 1459.0 701.6 C 1471.7 679.1 1476.2 643.1 1469.3 618.2 C 1462.4 593.3 1440.1 564.7 1417.6 552.0 C 1395.1 539.2 1372.6 541.5 1334.3 541.6 C 1295.9 541.8 1235.2 558.4 1187.4 552.9 C 1139.7 547.4 1094.5 522.6 1047.7 508.8 C 1000.9 494.9 969.0 472.4 906.8 469.7 C 844.7 467.1 742.5 486.0 674.7 492.7 C 606.9 499.3 567.0 489.6 499.9 509.8 C 432.8 529.9 335.6 587.0 272.1 613.6 C 208.6 640.2 167.9 648.0 118.9 669.3 C 69.9 690.5 14.7 733.3 -22.1 740.9 C -58.9 748.5 -82.3 731.7 -102.0 714.8 C -121.6 698.0 -138.0 665.7 -140.0 639.9 C -142.0 614.2 -130.8 579.7 -114.0 560.1 C -97.1 540.4 -64.9 524.0 -39.1 522.0 C -13.3 520.0 21.1 531.3 40.8 548.1 C 60.4 564.9 76.8 597.2 78.8 623.0 C 80.8 648.8 69.6 683.2 52.8 702.8 C 35.9 722.5 18.7 704.9 -22.1 740.9 C -63.0 776.9 -138.4 872.9 -192.3 918.6 C -246.3 964.3 -288.4 972.8 -345.7 1015.2 C -403.0 1057.5 -470.6 1115.1 -536.2 1172.9 C -601.8 1230.7 -672.4 1316.2 -739.2 1361.8 C -806.1 1407.4 -869.7 1406.4 -937.4 1446.5 C -1005.0 1486.5 -1069.4 1562.8 -1145.3 1602.3 C -1221.2 1641.9 -1326.6 1665.7 -1392.7 1683.9 C -1458.9 1702.1 -1491.1 1701.9 -1542.1 1711.7 C -1593.2 1721.5 -1644.1 1739.5 -1699.0 1742.6 C -1753.8 1745.7 -1842.5 1732.3 -1871.2 1730.2" stroke="#07231A" stroke-width="47" stroke-linecap="round" stroke-linejoin="round"></path><path d="M 2127.2 576.4 C 2103.2 579.3 2041.3 587.1 1983.0 593.7 C 1924.7 600.3 1839.6 619.0 1777.6 616.0 C 1715.6 613.1 1684.8 588.3 1610.9 575.9 C 1537.0 563.5 1391.4 538.7 1334.3 541.6 C 1277.1 544.5 1280.8 570.8 1268.0 593.3 C 1255.3 615.8 1250.8 651.7 1257.7 676.6 C 1264.6 701.6 1286.8 730.1 1309.3 742.9 C 1331.8 755.7 1367.8 760.1 1392.7 753.2 C 1417.6 746.3 1446.2 724.1 1459.0 701.6 C 1471.7 679.1 1476.2 643.1 1469.3 618.2 C 1462.4 593.3 1440.1 564.7 1417.6 552.0 C 1395.1 539.2 1372.6 541.5 1334.3 541.6 C 1295.9 541.8 1235.2 558.4 1187.4 552.9 C 1139.7 547.4 1094.5 522.6 1047.7 508.8 C 1000.9 494.9 969.0 472.4 906.8 469.7 C 844.7 467.1 742.5 486.0 674.7 492.7 C 606.9 499.3 567.0 489.6 499.9 509.8 C 432.8 529.9 335.6 587.0 272.1 613.6 C 208.6 640.2 167.9 648.0 118.9 669.3 C 69.9 690.5 14.7 733.3 -22.1 740.9 C -58.9 748.5 -82.3 731.7 -102.0 714.8 C -121.6 698.0 -138.0 665.7 -140.0 639.9 C -142.0 614.2 -130.8 579.7 -114.0 560.1 C -97.1 540.4 -64.9 524.0 -39.1 522.0 C -13.3 520.0 21.1 531.3 40.8 548.1 C 60.4 564.9 76.8 597.2 78.8 623.0 C 80.8 648.8 69.6 683.2 52.8 702.8 C 35.9 722.5 18.7 704.9 -22.1 740.9 C -63.0 776.9 -138.4 872.9 -192.3 918.6 C -246.3 964.3 -288.4 972.8 -345.7 1015.2 C -403.0 1057.5 -470.6 1115.1 -536.2 1172.9 C -601.8 1230.7 -672.4 1316.2 -739.2 1361.8 C -806.1 1407.4 -869.7 1406.4 -937.4 1446.5 C -1005.0 1486.5 -1069.4 1562.8 -1145.3 1602.3 C -1221.2 1641.9 -1326.6 1665.7 -1392.7 1683.9 C -1458.9 1702.1 -1491.1 1701.9 -1542.1 1711.7 C -1593.2 1721.5 -1644.1 1739.5 -1699.0 1742.6 C -1753.8 1745.7 -1842.5 1732.3 -1871.2 1730.2" stroke="#FFFFFF" stroke-width="33" stroke-linecap="round" stroke-linejoin="round" opacity="0.8971134360879659"></path><path d="M 1010.0 -241.2 C 1000.9 -213.9 981.6 -142.7 955.1 -77.4 C 928.6 -12.1 871.7 84.5 851.0 150.6 C 830.4 216.7 846.3 283.8 831.2 319.2 C 816.0 354.7 785.2 360.7 760.2 363.4 C 735.2 366.1 699.1 353.2 681.4 335.4 C 663.8 317.5 651.3 281.3 654.2 256.4 C 657.2 231.4 677.7 199.1 699.0 185.8 C 720.4 172.5 758.5 168.4 782.1 176.8 C 805.8 185.3 832.8 212.5 840.9 236.2 C 849.1 260.0 843.8 280.8 831.2 319.2 C 818.5 357.6 800.7 414.6 765.0 466.7 C 729.3 518.7 639.2 590.4 616.8 631.6 C 594.5 672.9 616.2 693.5 630.6 714.1 C 645.1 734.6 678.6 753.2 703.7 754.7 C 728.8 756.1 764.2 741.5 781.0 722.9 C 797.8 704.2 808.5 667.4 804.3 642.6 C 800.2 617.9 778.1 586.5 756.1 574.3 C 734.2 562.1 695.9 559.9 672.7 569.4 C 649.5 579.0 648.2 606.4 616.8 631.6 C 585.5 656.9 549.1 696.8 484.5 720.9 C 419.9 745.1 306.8 761.0 229.2 776.5 C 151.5 792.0 91.4 795.0 18.6 814.0 C -54.2 833.0 -137.2 853.9 -207.5 890.7 C -277.7 927.5 -333.5 1001.2 -402.9 1034.6 C -472.4 1068.1 -542.2 1073.3 -624.0 1091.4 C -705.8 1109.6 -815.3 1114.2 -893.7 1143.4 C -972.1 1172.6 -1034.2 1227.3 -1094.4 1266.9 C -1154.5 1306.5 -1210.2 1342.8 -1254.8 1380.9 C -1299.4 1419.0 -1330.1 1477.6 -1361.9 1495.7 C -1393.6 1513.7 -1423.5 1501.8 -1445.2 1489.2 C -1466.9 1476.5 -1488.4 1444.8 -1492.1 1420.0 C -1495.7 1395.1 -1484.3 1358.5 -1467.2 1340.2 C -1450.1 1321.8 -1414.3 1307.9 -1389.3 1309.9 C -1364.3 1311.8 -1331.1 1331.1 -1317.1 1351.9 C -1303.0 1372.7 -1297.4 1410.6 -1304.8 1434.6 C -1312.3 1458.5 -1324.0 1471.6 -1361.9 1495.7 C -1399.8 1519.8 -1503.9 1565.3 -1532.3 1579.2" stroke="#07231A" stroke-width="56" stroke-linecap="round" stroke-linejoin="round"></path><path d="M 1010.0 -241.2 C 1000.9 -213.9 981.6 -142.7 955.1 -77.4 C 928.6 -12.1 871.7 84.5 851.0 150.6 C 830.4 216.7 846.3 283.8 831.2 319.2 C 816.0 354.7 785.2 360.7 760.2 363.4 C 735.2 366.1 699.1 353.2 681.4 335.4 C 663.8 317.5 651.3 281.3 654.2 256.4 C 657.2 231.4 677.7 199.1 699.0 185.8 C 720.4 172.5 758.5 168.4 782.1 176.8 C 805.8 185.3 832.8 212.5 840.9 236.2 C 849.1 260.0 843.8 280.8 831.2 319.2 C 818.5 357.6 800.7 414.6 765.0 466.7 C 729.3 518.7 639.2 590.4 616.8 631.6 C 594.5 672.9 616.2 693.5 630.6 714.1 C 645.1 734.6 678.6 753.2 703.7 754.7 C 728.8 756.1 764.2 741.5 781.0 722.9 C 797.8 704.2 808.5 667.4 804.3 642.6 C 800.2 617.9 778.1 586.5 756.1 574.3 C 734.2 562.1 695.9 559.9 672.7 569.4 C 649.5 579.0 648.2 606.4 616.8 631.6 C 585.5 656.9 549.1 696.8 484.5 720.9 C 419.9 745.1 306.8 761.0 229.2 776.5 C 151.5 792.0 91.4 795.0 18.6 814.0 C -54.2 833.0 -137.2 853.9 -207.5 890.7 C -277.7 927.5 -333.5 1001.2 -402.9 1034.6 C -472.4 1068.1 -542.2 1073.3 -624.0 1091.4 C -705.8 1109.6 -815.3 1114.2 -893.7 1143.4 C -972.1 1172.6 -1034.2 1227.3 -1094.4 1266.9 C -1154.5 1306.5 -1210.2 1342.8 -1254.8 1380.9 C -1299.4 1419.0 -1330.1 1477.6 -1361.9 1495.7 C -1393.6 1513.7 -1423.5 1501.8 -1445.2 1489.2 C -1466.9 1476.5 -1488.4 1444.8 -1492.1 1420.0 C -1495.7 1395.1 -1484.3 1358.5 -1467.2 1340.2 C -1450.1 1321.8 -1414.3 1307.9 -1389.3 1309.9 C -1364.3 1311.8 -1331.1 1331.1 -1317.1 1351.9 C -1303.0 1372.7 -1297.4 1410.6 -1304.8 1434.6 C -1312.3 1458.5 -1324.0 1471.6 -1361.9 1495.7 C -1399.8 1519.8 -1503.9 1565.3 -1532.3 1579.2" stroke="#3FB89A" stroke-width="42" stroke-linecap="round" stroke-linejoin="round" opacity="0.8749524551676586"></path><path d="M 1792.3 1268.8 C 1779.1 1248.7 1735.2 1191.4 1713.2 1148.1 C 1691.2 1104.9 1674.2 1055.3 1660.4 1009.4 C 1646.6 963.5 1646.9 916.1 1630.6 872.8 C 1614.4 829.6 1593.3 794.0 1562.8 749.7 C 1532.3 705.4 1486.8 642.0 1447.7 607.0 C 1408.7 572.1 1377.8 558.0 1328.5 540.1 C 1279.1 522.2 1206.1 511.9 1151.7 499.9 C 1097.3 487.9 1050.9 480.4 1002.2 468.1 C 953.5 455.9 904.0 450.1 859.5 426.3 C 814.9 402.6 770.8 367.8 734.9 325.9 C 699.0 283.9 671.3 202.9 644.0 174.7 C 616.6 146.4 593.9 153.1 571.0 156.5 C 548.1 159.9 520.3 176.6 506.6 195.2 C 492.8 213.8 485.0 245.3 488.4 268.2 C 491.8 291.1 508.5 318.8 527.1 332.6 C 545.8 346.4 577.2 354.2 600.1 350.8 C 623.0 347.4 650.8 330.7 664.5 312.0 C 678.3 293.4 686.1 262.0 682.7 239.1 C 679.3 216.2 672.5 214.9 644.0 174.7 C 615.5 134.5 553.6 60.9 511.6 -2.1 C 469.6 -65.2 408.8 -157.7 392.0 -203.4 C 375.1 -249.1 396.6 -257.7 410.5 -276.3 C 424.3 -294.8 452.2 -311.4 475.1 -314.7 C 498.0 -318.0 529.4 -310.0 548.0 -296.2 C 566.5 -282.3 583.1 -254.5 586.4 -231.6 C 589.7 -208.7 581.7 -177.3 567.9 -158.7 C 554.0 -140.2 526.2 -123.6 503.2 -120.3 C 480.3 -117.0 448.9 -125.0 430.4 -138.8 C 411.8 -152.7 419.2 -167.6 392.0 -203.4 C 364.7 -239.2 320.0 -309.1 266.7 -353.6 C 213.4 -398.1 143.3 -438.2 72.2 -470.6 C 1.1 -503.0 -80.0 -537.3 -159.9 -547.9 C -239.9 -558.5 -345.9 -529.4 -407.6 -534.2 C -469.2 -539.0 -474.7 -559.1 -529.9 -576.8 C -585.1 -594.5 -681.5 -611.4 -738.8 -640.4 C -796.1 -669.4 -850.0 -719.8 -873.7 -750.6 C -897.4 -781.4 -887.9 -803.2 -881.2 -825.4 C -874.6 -847.6 -854.1 -872.6 -833.7 -883.6 C -813.3 -894.6 -781.1 -897.8 -758.9 -891.2 C -736.7 -884.5 -711.6 -864.0 -700.7 -843.6 C -689.7 -823.2 -686.5 -791.0 -693.1 -768.8 C -699.8 -746.6 -720.3 -721.5 -740.7 -710.6 C -761.1 -699.6 -793.3 -696.4 -815.5 -703.0 C -837.6 -709.7 -832.2 -731.0 -873.7 -750.6 C -915.2 -770.2 -994.8 -800.3 -1064.3 -820.7 C -1133.9 -841.2 -1234.0 -855.2 -1291.1 -873.2 C -1348.1 -891.3 -1387.3 -919.7 -1406.5 -929.0" stroke="#07231A" stroke-width="72" stroke-linecap="round" stroke-linejoin="round"></path><path d="M 1792.3 1268.8 C 1779.1 1248.7 1735.2 1191.4 1713.2 1148.1 C 1691.2 1104.9 1674.2 1055.3 1660.4 1009.4 C 1646.6 963.5 1646.9 916.1 1630.6 872.8 C 1614.4 829.6 1593.3 794.0 1562.8 749.7 C 1532.3 705.4 1486.8 642.0 1447.7 607.0 C 1408.7 572.1 1377.8 558.0 1328.5 540.1 C 1279.1 522.2 1206.1 511.9 1151.7 499.9 C 1097.3 487.9 1050.9 480.4 1002.2 468.1 C 953.5 455.9 904.0 450.1 859.5 426.3 C 814.9 402.6 770.8 367.8 734.9 325.9 C 699.0 283.9 671.3 202.9 644.0 174.7 C 616.6 146.4 593.9 153.1 571.0 156.5 C 548.1 159.9 520.3 176.6 506.6 195.2 C 492.8 213.8 485.0 245.3 488.4 268.2 C 491.8 291.1 508.5 318.8 527.1 332.6 C 545.8 346.4 577.2 354.2 600.1 350.8 C 623.0 347.4 650.8 330.7 664.5 312.0 C 678.3 293.4 686.1 262.0 682.7 239.1 C 679.3 216.2 672.5 214.9 644.0 174.7 C 615.5 134.5 553.6 60.9 511.6 -2.1 C 469.6 -65.2 408.8 -157.7 392.0 -203.4 C 375.1 -249.1 396.6 -257.7 410.5 -276.3 C 424.3 -294.8 452.2 -311.4 475.1 -314.7 C 498.0 -318.0 529.4 -310.0 548.0 -296.2 C 566.5 -282.3 583.1 -254.5 586.4 -231.6 C 589.7 -208.7 581.7 -177.3 567.9 -158.7 C 554.0 -140.2 526.2 -123.6 503.2 -120.3 C 480.3 -117.0 448.9 -125.0 430.4 -138.8 C 411.8 -152.7 419.2 -167.6 392.0 -203.4 C 364.7 -239.2 320.0 -309.1 266.7 -353.6 C 213.4 -398.1 143.3 -438.2 72.2 -470.6 C 1.1 -503.0 -80.0 -537.3 -159.9 -547.9 C -239.9 -558.5 -345.9 -529.4 -407.6 -534.2 C -469.2 -539.0 -474.7 -559.1 -529.9 -576.8 C -585.1 -594.5 -681.5 -611.4 -738.8 -640.4 C -796.1 -669.4 -850.0 -719.8 -873.7 -750.6 C -897.4 -781.4 -887.9 -803.2 -881.2 -825.4 C -874.6 -847.6 -854.1 -872.6 -833.7 -883.6 C -813.3 -894.6 -781.1 -897.8 -758.9 -891.2 C -736.7 -884.5 -711.6 -864.0 -700.7 -843.6 C -689.7 -823.2 -686.5 -791.0 -693.1 -768.8 C -699.8 -746.6 -720.3 -721.5 -740.7 -710.6 C -761.1 -699.6 -793.3 -696.4 -815.5 -703.0 C -837.6 -709.7 -832.2 -731.0 -873.7 -750.6 C -915.2 -770.2 -994.8 -800.3 -1064.3 -820.7 C -1133.9 -841.2 -1234.0 -855.2 -1291.1 -873.2 C -1348.1 -891.3 -1387.3 -919.7 -1406.5 -929.0" stroke="#1F8A5B" stroke-width="58" stroke-linecap="round" stroke-linejoin="round" opacity="0.8940295894630252"></path></svg>