<svg xmlns="http://www.w3.org/2000/svg" viewBox="0 0 1920 1080" width="1920" height="1080" fill="none"><path d="M 2227.9 466.3 C 2198.9 455.7 2108.3 429.9 2053.6 402.2 C 1998.9 374.5 1963.3 331.4 1899.5 300.4 C 1835.6 269.3 1736.4 242.1 1670.4 215.8 C 1604.5 189.5 1561.4 178.4 1503.9 142.7 C 1446.3 106.9 1377.3 46.2 1325.2 1.4 C 1273.2 -43.4 1247.3 -82.3 1191.4 -125.9 C 1135.5 -169.5 1045.4 -226.7 989.7 -260.1 C 934.0 -293.6 902.6 -297.9 857.3 -326.5 C 811.9 -355.2 759.7 -396.6 717.4 -432.0 C 675.0 -467.4 644.8 -507.0 603.2 -538.7 C 561.7 -570.5 511.8 -595.7 468.1 -622.5 C 424.4 -649.3 387.7 -659.4 341.2 -699.4 C 294.6 -739.4 235.8 -812.8 188.8 -862.6 C 141.8 -912.5 110.1 -954.0 59.0 -998.6 C 8.0 -1043.3 -61.0 -1079.5 -117.6 -1130.4 C -174.3 -1181.2 -232.4 -1249.0 -280.9 -1303.8 C -329.3 -1358.6 -366.3 -1402.6 -408.4 -1459.2 C -450.4 -1515.7 -497.1 -1594.7 -533.1 -1643.2 C -569.1 -1691.6 -609.1 -1731.9 -624.3 -1749.6" stroke="#FFFFFF" stroke-width="33" stroke-linecap="round" stroke-linejoin="round" opacity="0.6542588923708537"></path><path d="M 1773.7 1286.4 C 1757.3 1252.7 1698.9 1144.3 1675.3 1083.9 C 1651.6 1023.5 1630.2 962.5 1631.7 923.9 C 1633.2 885.4 1660.6 864.9 1684.0 852.4 C 1707.5 839.9 1748.1 838.2 1772.6 848.7 C 1797.0 859.3 1823.7 890.0 1830.7 915.7 C 1837.7 941.3 1830.3 981.3 1814.5 1002.8 C 1798.8 1024.3 1763.0 1043.4 1736.4 1044.5 C 1709.8 1045.6 1672.4 1029.5 1655.0 1009.4 C 1637.6 989.3 1649.6 959.8 1631.7 923.9 C 1613.8 888.1 1574.4 859.9 1547.4 794.2 C 1520.5 728.5 1499.0 598.3 1470.1 529.9 C 1441.1 461.5 1413.9 428.2 1373.9 383.6 C 1333.9 339.1 1295.8 302.8 1230.1 262.5 C 1164.4 222.3 1058.5 176.8 979.7 142.0 C 901.0 107.2 832.4 99.0 757.5 53.6 C 682.6 8.3 582.5 -102.8 530.2 -130.3 C 477.9 -157.7 464.6 -127.6 443.7 -111.2 C 422.8 -94.7 404.9 -58.2 404.7 -31.6 C 404.5 -5.0 421.9 31.8 442.6 48.5 C 463.3 65.2 502.8 74.6 528.8 68.8 C 554.8 63.1 586.8 38.0 598.5 14.1 C 610.2 -9.8 610.5 -50.5 599.1 -74.5 C 587.8 -98.6 565.0 -94.5 530.2 -130.3 C 495.4 -166.1 443.3 -241.0 390.4 -289.4 C 337.4 -337.9 267.0 -370.9 212.7 -421.1 C 158.4 -471.4 114.1 -522.7 64.7 -591.2 C 15.2 -659.6 -38.0 -751.2 -83.9 -831.6 C -129.9 -912.0 -181.4 -998.5 -211.0 -1073.6 C -240.6 -1148.7 -234.2 -1208.9 -261.7 -1282.1 C -289.2 -1355.3 -330.3 -1436.2 -376.1 -1512.7 C -421.9 -1589.2 -494.9 -1702.1 -536.4 -1741.0 C -577.8 -1780.0 -600.2 -1756.5 -624.8 -1746.5 C -649.5 -1736.4 -676.7 -1706.2 -684.2 -1680.7 C -691.7 -1655.2 -685.1 -1615.0 -669.8 -1593.3 C -654.5 -1571.5 -619.1 -1551.6 -592.5 -1550.0 C -565.9 -1548.4 -528.3 -1563.7 -510.4 -1583.5 C -492.6 -1603.2 -481.2 -1642.2 -485.5 -1668.5 C -489.8 -1694.8 -508.3 -1702.7 -536.4 -1741.0 C -564.5 -1779.4 -634.6 -1872.5 -654.2 -1898.8" stroke="#8FD11E" stroke-width="41" stroke-linecap="round" stroke-linejoin="round" opacity="0.7974946887232364"></path><path d="M 1675.6 1305.9 C 1657.2 1286.0 1581.7 1219.9 1565.3 1186.7 C 1549.0 1153.6 1563.8 1127.0 1577.5 1107.0 C 1591.1 1087.0 1623.2 1068.6 1647.3 1066.8 C 1671.5 1065.0 1705.9 1078.6 1722.4 1096.3 C 1738.8 1114.1 1749.7 1149.5 1746.1 1173.4 C 1742.4 1197.4 1721.5 1227.9 1700.5 1240.0 C 1679.6 1252.1 1642.7 1254.8 1620.1 1245.9 C 1597.6 1237.1 1587.1 1221.4 1565.3 1186.7 C 1543.6 1152.1 1512.2 1096.0 1489.7 1037.9 C 1467.2 979.9 1445.1 905.7 1430.6 838.6 C 1416.0 771.6 1410.7 712.9 1402.5 635.5 C 1394.4 558.2 1384.9 443.5 1381.8 374.7 C 1378.8 305.9 1380.9 275.7 1384.1 222.8 C 1387.2 169.9 1385.2 126.0 1400.8 57.3 C 1416.3 -11.4 1453.4 -118.6 1477.5 -189.4 C 1501.5 -260.2 1520.6 -302.2 1545.1 -367.6 C 1569.6 -432.9 1593.3 -519.4 1624.4 -581.5 C 1655.5 -643.6 1681.6 -687.9 1732.0 -740.1 C 1782.4 -792.2 1894.3 -855.2 1926.8 -894.4 C 1959.3 -933.5 1937.5 -953.2 1927.0 -975.0 C 1916.6 -996.9 1887.7 -1020.0 1864.2 -1025.5 C 1840.6 -1031.0 1804.5 -1022.9 1785.5 -1007.8 C 1766.5 -992.8 1750.3 -959.5 1750.3 -935.3 C 1750.2 -911.1 1766.1 -877.7 1785.0 -862.5 C 1803.9 -847.3 1839.9 -839.0 1863.6 -844.3 C 1887.2 -849.6 1895.3 -878.0 1926.8 -894.4 C 1958.3 -910.8 2008.8 -923.7 2052.5 -942.6 C 2096.3 -961.6 2136.8 -987.6 2189.1 -1008.1 C 2241.5 -1028.5 2337.1 -1055.8 2366.7 -1065.4" stroke="#1F8A5B" stroke-width="56" stroke-linecap="round" stroke-linejoin="round" opacity="0.5831228019669652"></path><path d="M -269.9 746.8 C -234.3 727.9 -111.0 670.4 -56.3 633.4 C -1.5 596.4 8.3 568.7 58.4 524.8 C 108.6 480.9 192.8 416.4 244.6 369.8 C 296.4 323.3 334.2 264.4 369.1 245.3 C 403.9 226.1 432.1 241.2 453.8 254.8 C 475.5 268.4 496.3 301.5 499.2 326.9 C 502.1 352.4 489.2 389.3 471.1 407.4 C 453.0 425.5 416.0 438.5 390.6 435.6 C 365.2 432.8 332.0 412.0 318.4 390.3 C 304.8 368.6 300.4 329.8 308.8 305.6 C 317.2 281.4 343.7 273.9 369.1 245.3 C 394.4 216.7 414.4 173.8 460.7 133.9 C 506.9 94.1 580.1 55.2 646.4 6.0 C 712.7 -43.2 806.1 -111.0 858.4 -161.3 C 910.7 -211.6 923.0 -232.6 960.2 -296.1 C 997.5 -359.6 1050.7 -478.8 1081.9 -542.4 C 1113.0 -606.0 1114.9 -626.5 1147.1 -677.7 C 1179.2 -728.8 1237.4 -801.0 1274.8 -849.2 C 1312.1 -897.3 1338.7 -920.7 1371.2 -966.5 C 1403.7 -1012.3 1421.9 -1062.3 1469.8 -1123.8 C 1517.7 -1185.3 1590.6 -1277.0 1658.7 -1335.4 C 1726.8 -1393.9 1809.0 -1427.7 1878.2 -1474.5 C 1947.4 -1521.2 2011.0 -1577.1 2073.8 -1616.1 C 2136.7 -1655.0 2190.8 -1673.4 2255.2 -1708.2 C 2319.6 -1743.0 2405.8 -1783.2 2460.3 -1824.8 C 2514.8 -1866.3 2562.0 -1935.4 2582.3 -1957.5" stroke="#FFFFFF" stroke-width="31" stroke-linecap="round" stroke-linejoin="round" opacity="0.9388952132081614"></path></svg>