<svg xmlns="http://www.w3.org/2000/svg" viewBox="0 0 1920 1080" width="1920" height="1080" fill="none"><path d="M 2179.9 986.8 C 2151.1 954.9 2049.2 858.4 2007.1 795.3 C 1965.0 732.1 1953.0 642.7 1927.1 608.0 C 1901.2 573.3 1874.9 583.0 1851.8 587.2 C 1828.7 591.4 1799.7 612.4 1788.6 633.1 C 1777.5 653.8 1775.8 689.6 1785.1 711.1 C 1794.3 732.7 1821.3 756.3 1843.9 762.5 C 1866.5 768.8 1901.8 762.4 1920.7 748.6 C 1939.7 734.8 1956.7 703.3 1957.8 679.8 C 1958.8 656.4 1941.1 641.3 1927.1 608.0 C 1913.1 574.6 1902.4 525.1 1873.8 479.6 C 1845.2 434.2 1791.9 387.4 1755.6 335.2 C 1719.3 283.0 1688.6 217.3 1655.8 166.5 C 1623.0 115.7 1588.5 71.1 1558.7 30.4 C 1528.9 -10.2 1508.2 -44.9 1477.0 -77.2 C 1445.8 -109.6 1406.3 -135.1 1371.3 -163.8 C 1336.3 -192.5 1309.3 -213.5 1267.2 -249.4 C 1225.0 -285.3 1164.7 -334.7 1118.4 -379.3 C 1072.1 -423.8 1028.9 -480.2 989.1 -516.8 C 949.3 -553.3 919.9 -568.5 879.5 -598.5 C 839.1 -628.4 791.1 -655.7 746.4 -696.5 C 701.8 -737.4 650.1 -785.4 611.5 -843.6 C 572.9 -901.7 531.0 -1011.7 514.9 -1045.3" stroke="#8FD11E" stroke-width="50" stroke-linecap="round" stroke-linejoin="round" opacity="0.7489991174545139"></path><path d="M -263.9 577.1 C -228.6 559.0 -120.7 496.6 -52.2 468.5 C 16.2 440.4 79.8 438.7 146.8 408.5 C 213.8 378.4 273.0 326.0 349.7 287.5 C 426.4 248.9 541.2 212.0 607.2 177.0 C 673.2 142.0 694.9 125.1 745.9 77.4 C 796.9 29.7 863.9 -40.9 913.0 -109.3 C 962.1 -177.6 987.0 -265.6 1040.5 -332.5 C 1094.0 -399.4 1169.6 -468.1 1233.9 -510.5 C 1298.2 -552.8 1361.2 -573.2 1426.5 -586.7 C 1491.9 -600.2 1552.7 -601.5 1626.1 -591.5 C 1699.5 -581.5 1792.2 -557.0 1866.8 -526.6 C 1941.5 -496.2 2016.6 -442.8 2074.0 -409.1 C 2131.4 -375.5 2162.6 -371.9 2211.2 -324.5 C 2259.8 -277.1 2329.7 -183.2 2365.5 -124.7 C 2401.4 -66.2 2409.4 -31.3 2426.4 26.3 C 2443.3 84.0 2437.2 152.6 2467.4 221.2 C 2497.6 289.9 2551.9 376.1 2607.4 438.3 C 2663.0 500.4 2768.7 567.9 2800.9 593.9" stroke="#A3E635" stroke-width="49" stroke-linecap="round" stroke-linejoin="round" opacity="0.7370332628022879"></path><path d="M -162.9 550.6 C -134.2 535.6 -55.1 480.5 9.5 460.2 C 74.0 440.0 141.6 435.1 224.2 429.1 C 306.9 423.2 417.8 429.7 505.4 424.5 C 593.1 419.4 698.2 391.4 750.1 398.3 C 802.1 405.2 807.9 439.0 817.2 466.1 C 826.5 493.2 821.3 536.6 806.0 560.8 C 790.6 584.9 753.4 608.0 725.0 611.1 C 696.5 614.1 655.3 599.4 635.2 579.1 C 615.0 558.7 600.8 517.4 604.2 488.9 C 607.5 460.5 631.0 423.6 655.3 408.5 C 679.6 393.4 693.1 401.4 750.1 398.3 C 807.2 395.2 922.1 392.8 997.6 389.7 C 1073.2 386.6 1136.8 378.3 1203.5 379.8 C 1270.3 381.3 1314.1 401.0 1398.0 398.7 C 1481.9 396.4 1608.6 391.3 1706.9 365.8 C 1805.3 340.4 1916.2 284.6 1988.3 246.0 C 2060.4 207.4 2088.7 163.3 2139.4 134.3 C 2190.1 105.4 2217.2 83.7 2292.5 72.3 C 2367.7 60.9 2496.2 69.5 2591.1 65.8 C 2685.9 62.1 2782.8 66.3 2861.4 49.9 C 2940.1 33.6 2986.9 -14.6 3063.0 -32.2 C 3139.1 -49.9 3264.5 -63.6 3318.0 -56.1 C 3371.5 -48.6 3375.2 -14.6 3384.1 12.6 C 3393.1 39.8 3387.4 83.1 3371.7 107.1 C 3356.0 131.0 3318.5 153.6 3290.0 156.3 C 3261.5 159.0 3220.5 143.7 3200.6 123.1 C 3180.8 102.5 3167.1 60.9 3170.9 32.5 C 3174.6 4.1 3198.6 -32.4 3223.1 -47.2 C 3247.6 -62.0 3255.4 -46.0 3318.0 -56.1 C 3380.6 -66.2 3508.2 -98.8 3598.8 -107.8 C 3689.4 -116.8 3783.9 -114.4 3861.4 -110.3 C 3938.9 -106.3 3998.6 -89.0 4063.8 -83.4 C 4129.1 -77.7 4221.2 -77.4 4252.7 -76.2" stroke="#C6F66E" stroke-width="48" stroke-linecap="round" stroke-linejoin="round" opacity="0.8005316497059538"></path><path d="M 476.2 1173.7 C 493.7 1141.1 552.0 1043.0 581.1 978.1 C 610.1 913.3 634.8 844.5 650.4 784.7 C 666.0 725.0 673.6 686.0 674.6 619.5 C 675.6 553.0 661.5 455.8 656.3 385.9 C 651.1 316.0 660.8 269.9 643.6 200.1 C 626.5 130.2 574.3 28.2 553.4 -33.3 C 532.6 -94.7 525.0 -124.1 518.4 -168.6 C 511.7 -213.2 523.4 -257.5 513.6 -300.5 C 503.8 -343.5 480.4 -400.8 459.7 -426.5 C 439.0 -452.2 412.8 -454.9 389.5 -454.7 C 366.3 -454.4 336.3 -441.6 320.0 -424.9 C 303.8 -408.3 291.6 -378.1 291.9 -354.8 C 292.2 -331.5 305.0 -301.5 321.6 -285.3 C 338.3 -269.0 368.5 -256.9 391.8 -257.1 C 415.1 -257.4 445.0 -270.2 461.3 -286.8 C 477.6 -303.5 489.7 -333.7 489.4 -357.0 C 489.2 -380.3 479.9 -398.9 459.7 -426.5 C 439.6 -454.1 397.5 -482.8 368.5 -522.7 C 339.5 -562.7 317.3 -627.4 285.5 -666.1 C 253.8 -704.9 215.6 -728.5 178.2 -755.1 C 140.8 -781.7 92.8 -817.0 61.1 -825.8 C 29.3 -834.5 6.4 -821.4 -12.3 -807.6 C -31.1 -793.8 -47.9 -765.9 -51.4 -742.9 C -54.9 -719.9 -47.1 -688.3 -33.3 -669.5 C -19.4 -650.8 8.4 -633.9 31.5 -630.4 C 54.5 -626.9 86.1 -634.8 104.9 -648.6 C 123.6 -662.4 140.4 -690.3 143.9 -713.3 C 147.4 -736.3 139.6 -767.9 125.8 -786.7 C 112.0 -805.4 102.6 -807.4 61.1 -825.8 C 19.6 -844.1 -62.6 -859.9 -123.4 -896.8 C -184.1 -933.7 -252.8 -998.8 -303.4 -1047.3 C -354.0 -1095.9 -386.2 -1147.8 -426.9 -1188.1 C -467.6 -1228.5 -504.0 -1250.8 -547.5 -1289.4 C -591.0 -1327.9 -664.5 -1397.7 -687.9 -1419.3" stroke="#8FD11E" stroke-width="45" stroke-linecap="round" stroke-linejoin="round" opacity="0.9602074274560436"></path><path d="M -197.2 693.7 C -173.0 691.2 -100.3 682.9 -51.6 678.6 C -2.8 674.3 63.0 678.8 95.2 668.1 C 127.5 657.4 134.8 635.2 141.7 614.5 C 148.6 593.7 146.5 563.2 136.7 543.7 C 126.9 524.1 103.8 504.1 83.0 497.2 C 62.3 490.3 31.8 492.5 12.2 502.2 C -7.3 512.0 -27.4 535.1 -34.3 555.9 C -41.2 576.6 -39.0 607.1 -29.2 626.7 C -19.4 646.2 3.7 666.3 24.4 673.2 C 45.2 680.1 53.1 672.1 95.2 668.1 C 137.3 664.1 225.3 655.6 277.0 649.1 C 328.7 642.5 353.7 629.0 405.5 628.8 C 457.3 628.5 533.7 633.4 587.7 647.5 C 641.7 661.6 678.1 677.3 729.7 713.6 C 781.4 749.8 851.5 825.8 897.9 865.1 C 944.3 904.3 968.1 919.0 1008.2 949.0 C 1048.2 979.1 1091.6 1017.5 1138.4 1045.3 C 1185.1 1073.0 1235.7 1089.9 1288.6 1115.5 C 1341.4 1141.1 1403.3 1158.0 1455.4 1199.1 C 1507.5 1240.1 1546.5 1312.2 1601.0 1361.7 C 1655.4 1411.2 1733.4 1465.5 1782.2 1495.9 C 1831.1 1526.4 1871.0 1525.5 1893.9 1544.6 C 1916.9 1563.8 1920.3 1588.9 1919.9 1610.7 C 1919.5 1632.6 1907.2 1660.6 1891.5 1675.8 C 1875.8 1690.9 1847.3 1702.1 1825.4 1701.7 C 1803.6 1701.3 1775.5 1689.1 1760.4 1673.4 C 1745.2 1657.6 1734.0 1629.1 1734.4 1607.3 C 1734.8 1585.4 1747.1 1557.4 1762.8 1542.2 C 1778.5 1527.1 1807.0 1515.9 1828.9 1516.3 C 1850.7 1516.7 1849.7 1526.0 1893.9 1544.6 C 1938.1 1563.3 2032.1 1603.6 2094.1 1628.0 C 2156.0 1652.5 2198.4 1681.3 2265.6 1691.1 C 2332.9 1700.9 2458.8 1687.6 2497.5 1686.9" stroke="#A3E635" stroke-width="41" stroke-linecap="round" stroke-linejoin="round" opacity="0.7000169585458934"></path></svg>