<svg xmlns="http://www.w3.org/2000/svg" viewBox="0 0 1920 1080" width="1920" height="1080" fill="none"><path d="M -180.0 -120.0 C -159.9 -103.0 -109.9 -50.8 -59.2 -18.2 C -8.4 14.3 56.8 42.0 124.5 75.5 C 192.1 108.9 278.8 143.4 346.8 182.5 C 414.8 221.7 471.7 278.6 532.5 310.3 C 593.3 342.0 658.2 347.8 711.7 372.8 C 765.2 397.8 808.9 428.9 853.6 460.5 C 898.4 492.0 946.5 548.0 980.2 562.1 C 1014.0 576.2 1037.7 559.5 1056.0 545.0 C 1074.3 530.5 1089.9 498.4 1090.0 475.1 C 1090.0 451.8 1074.7 419.6 1056.5 405.0 C 1038.3 390.4 1003.5 382.4 980.8 387.5 C 958.0 392.6 930.1 414.7 919.9 435.7 C 909.7 456.7 909.6 492.4 919.6 513.4 C 929.7 534.5 946.2 540.4 980.2 562.1 C 1014.2 583.7 1099.7 629.8 1123.6 643.4" stroke="#A3E635" stroke-width="46" stroke-linecap="round" stroke-linejoin="round" opacity="0.95"></path><path d="M -220.0 120.0 C -180.5 133.8 -61.0 183.9 17.0 202.5 C 95.0 221.1 168.0 223.5 248.1 231.7 C 328.2 239.8 430.4 247.6 497.5 251.5 C 564.6 255.4 586.2 249.1 650.8 254.9 C 715.5 260.7 813.1 271.4 885.5 286.4 C 957.8 301.5 1020.5 323.8 1084.8 345.1 C 1149.1 366.3 1240.2 402.5 1271.3 414.0" stroke="#2E9C82" stroke-width="40" stroke-linecap="round" stroke-linejoin="round" opacity="0.6"></path><path d="M 2120.0 1180.0 C 2093.6 1157.4 2000.9 1064.5 1961.8 1044.3 C 1922.7 1024.1 1904.2 1045.0 1885.5 1058.9 C 1866.7 1072.8 1850.1 1104.3 1849.3 1127.6 C 1848.5 1151.0 1862.8 1183.6 1880.5 1198.8 C 1898.2 1214.0 1932.6 1223.2 1955.6 1218.8 C 1978.5 1214.4 2007.1 1193.2 2018.0 1172.5 C 2028.9 1151.9 2030.1 1116.3 2020.8 1094.9 C 2011.4 1073.5 1995.4 1069.5 1961.8 1044.3 C 1928.1 1019.1 1865.4 971.7 1818.9 943.6 C 1772.4 915.5 1746.2 900.9 1682.7 875.6 C 1619.2 850.2 1483.1 817.8 1438.0 791.6 C 1392.8 765.4 1409.4 741.6 1411.9 718.4 C 1414.4 695.2 1433.1 664.9 1452.8 652.3 C 1472.5 639.8 1507.9 635.6 1530.0 643.2 C 1552.1 650.8 1577.4 675.8 1585.3 697.8 C 1593.1 719.8 1589.3 755.2 1577.0 775.1 C 1564.7 794.9 1534.6 814.0 1511.5 816.8 C 1488.3 819.5 1475.3 809.0 1438.0 791.6 C 1400.6 774.1 1335.2 730.7 1287.5 712.1 C 1239.7 693.5 1200.3 691.9 1151.4 680.0 C 1102.4 668.0 1057.6 646.0 994.0 640.3 C 930.3 634.6 839.5 639.7 769.4 645.6 C 699.2 651.5 605.8 670.7 573.1 675.8" stroke="#8FD11E" stroke-width="44" stroke-linecap="round" stroke-linejoin="round" opacity="0.9"></path><path d="M 2160.0 900.0 C 2137.3 875.9 2066.0 805.0 2023.6 755.2 C 1981.1 705.4 1947.2 650.3 1905.4 601.3 C 1863.6 552.3 1823.7 508.2 1773.0 461.3 C 1722.3 414.3 1654.5 356.1 1601.2 319.7 C 1547.8 283.2 1502.9 270.9 1452.9 242.6 C 1402.9 214.2 1363.6 182.7 1301.2 149.4 C 1238.9 116.1 1115.9 60.7 1078.8 43.0" stroke="#2E9C82" stroke-width="38" stroke-linecap="round" stroke-linejoin="round" opacity="0.55"></path></svg>