<svg xmlns="http://www.w3.org/2000/svg" viewBox="0 0 1920 1080" width="1920" height="1080" fill="none"><path d="M 1500.0 -140.0 C 1480.4 -108.8 1415.5 14.5 1382.4 47.3 C 1349.2 80.0 1324.2 64.6 1301.0 56.4 C 1277.8 48.3 1251.2 21.7 1243.1 -1.5 C 1234.9 -24.7 1239.1 -62.0 1252.2 -82.9 C 1265.3 -103.7 1297.1 -123.7 1321.6 -126.4 C 1346.0 -129.2 1381.5 -116.8 1398.9 -99.4 C 1416.3 -82.0 1428.7 -46.5 1425.9 -22.1 C 1423.2 2.3 1409.0 14.4 1382.4 47.3 C 1355.8 80.2 1320.5 126.1 1266.3 175.3 C 1212.1 224.5 1116.4 301.3 1057.1 342.7 C 997.8 384.1 970.3 399.0 910.6 423.8 C 850.9 448.6 755.6 468.1 698.9 491.5 C 642.2 514.9 618.4 543.0 570.5 564.2 C 522.6 585.3 471.9 599.1 411.5 618.4 C 351.1 637.7 279.9 665.5 208.2 680.0 C 136.5 694.5 61.9 700.7 -18.7 705.4 C -99.2 710.1 -189.2 703.9 -274.9 708.2 C -360.6 712.5 -489.8 727.5 -532.8 731.3" stroke="#1F8A5B" stroke-width="44" stroke-linecap="round" stroke-linejoin="round" opacity="0.1"></path><path d="M 1750.0 200.0 C 1726.2 225.4 1648.7 306.3 1607.1 352.5 C 1565.6 398.7 1538.0 440.1 1500.6 477.3 C 1463.1 514.5 1439.4 538.8 1382.5 575.5 C 1325.7 612.2 1225.9 667.8 1159.4 697.4 C 1092.9 727.0 1039.4 728.8 983.5 752.9 C 927.7 777.1 880.9 813.3 824.5 842.5 C 768.0 871.8 709.8 895.6 644.8 928.3 C 579.8 961.0 506.6 1009.2 434.4 1039.0 C 362.3 1068.8 292.8 1090.0 211.9 1107.1 C 130.9 1124.3 -7.5 1136.1 -51.4 1141.9" stroke="#84CC16" stroke-width="40" stroke-linecap="round" stroke-linejoin="round" opacity="0.16"></path></svg>