<svg xmlns="http://www.w3.org/2000/svg" viewBox="0 0 1920 1080" width="1920" height="1080" fill="none"><path d="M 651.9 1300.5 C 651.1 1256.6 636.6 1090.4 647.5 1036.9 C 658.4 983.4 690.8 985.9 717.2 979.5 C 743.5 973.0 784.1 981.6 805.5 998.1 C 827.0 1014.7 845.6 1051.7 846.1 1078.8 C 846.5 1105.9 829.1 1143.5 808.2 1160.8 C 787.3 1178.1 747.1 1187.9 720.5 1182.3 C 694.0 1176.8 661.2 1151.5 649.0 1127.2 C 636.8 1103.0 651.6 1094.6 647.5 1036.9 C 643.4 979.2 640.7 831.9 624.2 781.0 C 607.8 730.1 575.7 734.9 548.8 731.3 C 521.9 727.7 482.5 740.6 463.0 759.3 C 443.4 778.1 428.9 816.9 431.3 843.9 C 433.8 870.9 455.1 906.4 477.7 921.4 C 500.4 936.3 541.4 941.8 567.2 933.4 C 593.0 925.0 622.9 896.3 632.4 870.9 C 641.9 845.5 642.9 839.1 624.2 781.0 C 605.5 722.8 530.2 578.2 520.3 522.0 C 510.4 465.7 542.6 458.9 564.9 443.4 C 587.1 428.0 628.1 421.5 654.0 429.3 C 680.0 437.1 710.6 465.1 720.7 490.2 C 730.8 515.4 728.0 556.7 714.6 580.3 C 701.3 603.9 667.2 627.5 640.4 631.8 C 613.6 636.0 573.9 624.1 553.9 605.8 C 533.9 587.5 545.2 567.7 520.3 522.0 C 495.4 476.3 428.5 388.6 404.8 331.5 C 381.0 274.3 391.0 237.7 377.7 179.2 C 364.4 120.7 326.9 58.8 324.9 -19.4 C 322.9 -97.6 369.2 -233.9 365.8 -290.0 C 362.4 -346.2 329.7 -346.3 304.5 -356.3 C 279.2 -366.2 237.9 -363.1 214.4 -349.6 C 190.9 -336.0 167.6 -301.8 163.5 -275.0 C 159.4 -248.2 171.6 -208.6 190.1 -188.7 C 208.5 -168.8 247.1 -153.6 274.1 -155.7 C 301.1 -157.7 337.0 -178.4 352.3 -200.8 C 367.6 -223.2 368.6 -229.1 365.8 -290.0 C 363.0 -350.9 353.3 -512.0 335.6 -566.1 C 317.8 -620.2 286.2 -611.3 259.3 -614.4 C 232.3 -617.5 193.2 -603.9 173.9 -584.8 C 154.7 -565.7 140.9 -526.6 143.9 -499.7 C 146.8 -472.7 168.8 -437.5 191.7 -423.1 C 214.6 -408.6 255.7 -403.8 281.4 -412.7 C 307.0 -421.6 336.4 -450.8 345.4 -476.3 C 354.4 -501.9 332.4 -517.0 335.6 -566.1 C 338.8 -615.2 357.3 -700.4 364.6 -770.7 C 371.9 -841.0 357.5 -913.8 379.2 -988.0 C 400.8 -1062.2 456.2 -1160.9 494.5 -1215.7 C 532.7 -1270.6 574.8 -1302.8 608.7 -1317.2 C 642.5 -1331.5 675.6 -1317.6 697.6 -1301.8 C 719.7 -1286.1 739.6 -1249.7 741.1 -1222.7 C 742.5 -1195.6 726.6 -1157.3 706.3 -1139.3 C 686.0 -1121.3 646.2 -1110.0 619.5 -1114.6 C 592.7 -1119.2 559.0 -1143.3 546.0 -1167.0 C 532.9 -1190.8 530.7 -1232.2 541.2 -1257.2 C 551.6 -1282.2 556.8 -1289.7 608.7 -1317.2 C 660.5 -1344.6 774.5 -1401.7 852.0 -1421.9 C 929.5 -1442.1 1010.0 -1440.4 1073.6 -1438.2 C 1137.2 -1436.0 1181.2 -1419.5 1233.7 -1408.9 C 1286.2 -1398.2 1351.0 -1370.5 1388.5 -1374.1 C 1426.1 -1377.8 1447.2 -1406.2 1458.9 -1430.7 C 1470.6 -1455.2 1470.4 -1496.6 1458.6 -1521.0 C 1446.7 -1545.4 1414.2 -1571.1 1387.8 -1577.0 C 1361.3 -1583.0 1320.9 -1573.6 1299.8 -1556.6 C 1278.7 -1539.6 1260.8 -1502.2 1260.9 -1475.1 C 1261.0 -1448.0 1279.2 -1410.7 1300.4 -1393.9 C 1321.7 -1377.1 1337.8 -1391.7 1388.5 -1374.1 C 1439.3 -1356.5 1544.3 -1321.1 1604.9 -1288.3 C 1665.6 -1255.6 1705.6 -1213.8 1752.3 -1177.7 C 1799.0 -1141.5 1842.7 -1109.7 1885.2 -1071.4 C 1927.7 -1033.2 1946.0 -996.7 2007.5 -948.4 C 2068.9 -900.0 2211.7 -824.2 2254.0 -781.3 C 2296.2 -738.5 2270.8 -716.6 2261.0 -691.3 C 2251.1 -666.0 2220.8 -637.8 2194.9 -629.7 C 2169.0 -621.6 2128.1 -627.7 2105.6 -642.9 C 2083.2 -658.1 2062.3 -693.9 2060.2 -721.0 C 2058.1 -748.0 2073.2 -786.6 2093.0 -805.1 C 2112.8 -823.6 2152.4 -836.0 2179.2 -832.0 C 2206.0 -828.0 2198.7 -797.3 2254.0 -781.3 C 2309.2 -765.4 2437.3 -758.0 2510.8 -736.2 C 2584.2 -714.5 2663.9 -664.9 2694.5 -650.7" stroke="#07231A" stroke-width="70" stroke-linecap="round" stroke-linejoin="round"></path><path d="M 651.9 1300.5 C 651.1 1256.6 636.6 1090.4 647.5 1036.9 C 658.4 983.4 690.8 985.9 717.2 979.5 C 743.5 973.0 784.1 981.6 805.5 998.1 C 827.0 1014.7 845.6 1051.7 846.1 1078.8 C 846.5 1105.9 829.1 1143.5 808.2 1160.8 C 787.3 1178.1 747.1 1187.9 720.5 1182.3 C 694.0 1176.8 661.2 1151.5 649.0 1127.2 C 636.8 1103.0 651.6 1094.6 647.5 1036.9 C 643.4 979.2 640.7 831.9 624.2 781.0 C 607.8 730.1 575.7 734.9 548.8 731.3 C 521.9 727.7 482.5 740.6 463.0 759.3 C 443.4 778.1 428.9 816.9 431.3 843.9 C 433.8 870.9 455.1 906.4 477.7 921.4 C 500.4 936.3 541.4 941.8 567.2 933.4 C 593.0 925.0 622.9 896.3 632.4 870.9 C 641.9 845.5 642.9 839.1 624.2 781.0 C 605.5 722.8 530.2 578.2 520.3 522.0 C 510.4 465.7 542.6 458.9 564.9 443.4 C 587.1 428.0 628.1 421.5 654.0 429.3 C 680.0 437.1 710.6 465.1 720.7 490.2 C 730.8 515.4 728.0 556.7 714.6 580.3 C 701.3 603.9 667.2 627.5 640.4 631.8 C 613.6 636.0 573.9 624.1 553.9 605.8 C 533.9 587.5 545.2 567.7 520.3 522.0 C 495.4 476.3 428.5 388.6 404.8 331.5 C 381.0 274.3 391.0 237.7 377.7 179.2 C 364.4 120.7 326.9 58.8 324.9 -19.4 C 322.9 -97.6 369.2 -233.9 365.8 -290.0 C 362.4 -346.2 329.7 -346.3 304.5 -356.3 C 279.2 -366.2 237.9 -363.1 214.4 -349.6 C 190.9 -336.0 167.6 -301.8 163.5 -275.0 C 159.4 -248.2 171.6 -208.6 190.1 -188.7 C 208.5 -168.8 247.1 -153.6 274.1 -155.7 C 301.1 -157.7 337.0 -178.4 352.3 -200.8 C 367.6 -223.2 368.6 -229.1 365.8 -290.0 C 363.0 -350.9 353.3 -512.0 335.6 -566.1 C 317.8 -620.2 286.2 -611.3 259.3 -614.4 C 232.3 -617.5 193.2 -603.9 173.9 -584.8 C 154.7 -565.7 140.9 -526.6 143.9 -499.7 C 146.8 -472.7 168.8 -437.5 191.7 -423.1 C 214.6 -408.6 255.7 -403.8 281.4 -412.7 C 307.0 -421.6 336.4 -450.8 345.4 -476.3 C 354.4 -501.9 332.4 -517.0 335.6 -566.1 C 338.8 -615.2 357.3 -700.4 364.6 -770.7 C 371.9 -841.0 357.5 -913.8 379.2 -988.0 C 400.8 -1062.2 456.2 -1160.9 494.5 -1215.7 C 532.7 -1270.6 574.8 -1302.8 608.7 -1317.2 C 642.5 -1331.5 675.6 -1317.6 697.6 -1301.8 C 719.7 -1286.1 739.6 -1249.7 741.1 -1222.7 C 742.5 -1195.6 726.6 -1157.3 706.3 -1139.3 C 686.0 -1121.3 646.2 -1110.0 619.5 -1114.6 C 592.7 -1119.2 559.0 -1143.3 546.0 -1167.0 C 532.9 -1190.8 530.7 -1232.2 541.2 -1257.2 C 551.6 -1282.2 556.8 -1289.7 608.7 -1317.2 C 660.5 -1344.6 774.5 -1401.7 852.0 -1421.9 C 929.5 -1442.1 1010.0 -1440.4 1073.6 -1438.2 C 1137.2 -1436.0 1181.2 -1419.5 1233.7 -1408.9 C 1286.2 -1398.2 1351.0 -1370.5 1388.5 -1374.1 C 1426.1 -1377.8 1447.2 -1406.2 1458.9 -1430.7 C 1470.6 -1455.2 1470.4 -1496.6 1458.6 -1521.0 C 1446.7 -1545.4 1414.2 -1571.1 1387.8 -1577.0 C 1361.3 -1583.0 1320.9 -1573.6 1299.8 -1556.6 C 1278.7 -1539.6 1260.8 -1502.2 1260.9 -1475.1 C 1261.0 -1448.0 1279.2 -1410.7 1300.4 -1393.9 C 1321.7 -1377.1 1337.8 -1391.7 1388.5 -1374.1 C 1439.3 -1356.5 1544.3 -1321.1 1604.9 -1288.3 C 1665.6 -1255.6 1705.6 -1213.8 1752.3 -1177.7 C 1799.0 -1141.5 1842.7 -1109.7 1885.2 -1071.4 C 1927.7 -1033.2 1946.0 -996.7 2007.5 -948.4 C 2068.9 -900.0 2211.7 -824.2 2254.0 -781.3 C 2296.2 -738.5 2270.8 -716.6 2261.0 -691.3 C 2251.1 -666.0 2220.8 -637.8 2194.9 -629.7 C 2169.0 -621.6 2128.1 -627.7 2105.6 -642.9 C 2083.2 -658.1 2062.3 -693.9 2060.2 -721.0 C 2058.1 -748.0 2073.2 -786.6 2093.0 -805.1 C 2112.8 -823.6 2152.4 -836.0 2179.2 -832.0 C 2206.0 -828.0 2198.7 -797.3 2254.0 -781.3 C 2309.2 -765.4 2437.3 -758.0 2510.8 -736.2 C 2584.2 -714.5 2663.9 -664.9 2694.5 -650.7" stroke="#A3E635" stroke-width="56" stroke-linecap="round" stroke-linejoin="round" opacity="0.9968301610555499"></path><path d="M 1630.1 1338.6 C 1609.5 1307.4 1536.9 1219.7 1506.7 1151.9 C 1476.5 1084.0 1461.9 998.9 1448.8 931.6 C 1435.7 864.2 1442.0 805.6 1428.3 747.6 C 1414.6 689.6 1380.7 646.1 1366.6 583.6 C 1352.6 521.2 1340.7 430.1 1344.0 373.0 C 1347.2 315.8 1384.8 273.9 1386.0 240.8 C 1387.3 207.6 1369.2 188.9 1351.5 174.0 C 1333.8 159.1 1302.9 149.3 1279.8 151.2 C 1256.8 153.2 1228.0 168.0 1213.1 185.7 C 1198.1 203.4 1188.3 234.3 1190.3 257.4 C 1192.2 280.5 1207.1 309.2 1224.8 324.2 C 1242.5 339.1 1273.4 348.9 1296.4 347.0 C 1319.5 345.0 1348.3 330.1 1363.2 312.4 C 1378.1 294.7 1366.3 283.9 1386.0 240.8 C 1405.7 197.7 1463.5 108.4 1481.4 53.7 C 1499.2 -0.9 1498.2 -40.4 1493.1 -87.1 C 1487.9 -133.8 1472.3 -172.4 1450.4 -226.4 C 1428.5 -280.5 1388.2 -376.4 1361.6 -411.4 C 1335.0 -446.3 1313.8 -437.5 1290.6 -436.3 C 1267.5 -435.0 1238.3 -421.0 1222.9 -403.7 C 1207.4 -386.5 1196.7 -355.9 1198.0 -332.8 C 1199.2 -309.7 1213.3 -280.5 1230.5 -265.0 C 1247.8 -249.6 1278.3 -238.8 1301.4 -240.1 C 1324.6 -241.4 1353.8 -255.4 1369.2 -272.7 C 1384.7 -289.9 1395.4 -320.5 1394.1 -343.6 C 1392.8 -366.7 1375.1 -374.6 1361.6 -411.4 C 1348.0 -448.1 1315.3 -527.4 1312.9 -563.9 C 1310.5 -600.5 1329.7 -615.8 1347.4 -630.7 C 1365.1 -645.7 1395.9 -655.5 1419.0 -653.6 C 1442.1 -651.6 1470.9 -636.8 1485.8 -619.1 C 1500.7 -601.4 1510.6 -570.5 1508.7 -547.5 C 1506.7 -524.4 1491.9 -495.6 1474.2 -480.7 C 1456.5 -465.7 1425.6 -455.9 1402.6 -457.8 C 1379.5 -459.7 1350.7 -474.6 1335.8 -492.3 C 1320.8 -510.0 1331.2 -526.1 1312.9 -563.9 C 1294.6 -601.7 1251.8 -656.4 1225.7 -719.1 C 1199.6 -781.7 1167.3 -881.9 1156.2 -940.0 C 1145.1 -998.1 1173.1 -1008.6 1159.3 -1067.6 C 1145.5 -1126.5 1082.8 -1244.5 1073.7 -1293.6 C 1064.5 -1342.7 1087.7 -1346.3 1104.5 -1362.1 C 1121.4 -1378.0 1151.7 -1389.5 1174.8 -1388.8 C 1198.0 -1388.1 1227.5 -1374.8 1243.4 -1357.9 C 1259.3 -1341.0 1270.7 -1310.7 1270.0 -1287.6 C 1269.3 -1264.5 1256.0 -1234.9 1239.2 -1219.1 C 1222.3 -1203.2 1192.0 -1191.7 1168.8 -1192.4 C 1145.7 -1193.1 1116.2 -1206.4 1100.3 -1223.3 C 1084.4 -1240.2 1103.3 -1255.2 1073.7 -1293.6 C 1044.0 -1332.0 947.4 -1414.6 922.6 -1453.9 C 897.8 -1493.1 915.3 -1507.9 924.8 -1529.0 C 934.3 -1550.1 957.8 -1572.4 979.5 -1580.6 C 1001.1 -1588.8 1033.5 -1587.9 1054.6 -1578.4 C 1075.7 -1568.9 1098.0 -1545.3 1106.2 -1523.7 C 1114.4 -1502.0 1113.5 -1469.6 1104.0 -1448.5 C 1094.5 -1427.4 1070.9 -1405.2 1049.3 -1396.9 C 1027.6 -1388.7 995.3 -1389.7 974.1 -1399.2 C 953.0 -1408.6 948.8 -1432.2 922.6 -1453.9 C 896.3 -1475.5 852.3 -1495.2 816.8 -1529.2 C 781.2 -1563.1 746.0 -1614.8 709.3 -1657.6 C 672.6 -1700.3 640.2 -1751.3 596.5 -1785.5 C 552.8 -1819.8 488.7 -1832.4 447.0 -1863.2 C 405.3 -1894.0 363.2 -1952.7 346.4 -1970.6" stroke="#07231A" stroke-width="70" stroke-linecap="round" stroke-linejoin="round"></path><path d="M 1630.1 1338.6 C 1609.5 1307.4 1536.9 1219.7 1506.7 1151.9 C 1476.5 1084.0 1461.9 998.9 1448.8 931.6 C 1435.7 864.2 1442.0 805.6 1428.3 747.6 C 1414.6 689.6 1380.7 646.1 1366.6 583.6 C 1352.6 521.2 1340.7 430.1 1344.0 373.0 C 1347.2 315.8 1384.8 273.9 1386.0 240.8 C 1387.3 207.6 1369.2 188.9 1351.5 174.0 C 1333.8 159.1 1302.9 149.3 1279.8 151.2 C 1256.8 153.2 1228.0 168.0 1213.1 185.7 C 1198.1 203.4 1188.3 234.3 1190.3 257.4 C 1192.2 280.5 1207.1 309.2 1224.8 324.2 C 1242.5 339.1 1273.4 348.9 1296.4 347.0 C 1319.5 345.0 1348.3 330.1 1363.2 312.4 C 1378.1 294.7 1366.3 283.9 1386.0 240.8 C 1405.7 197.7 1463.5 108.4 1481.4 53.7 C 1499.2 -0.9 1498.2 -40.4 1493.1 -87.1 C 1487.9 -133.8 1472.3 -172.4 1450.4 -226.4 C 1428.5 -280.5 1388.2 -376.4 1361.6 -411.4 C 1335.0 -446.3 1313.8 -437.5 1290.6 -436.3 C 1267.5 -435.0 1238.3 -421.0 1222.9 -403.7 C 1207.4 -386.5 1196.7 -355.9 1198.0 -332.8 C 1199.2 -309.7 1213.3 -280.5 1230.5 -265.0 C 1247.8 -249.6 1278.3 -238.8 1301.4 -240.1 C 1324.6 -241.4 1353.8 -255.4 1369.2 -272.7 C 1384.7 -289.9 1395.4 -320.5 1394.1 -343.6 C 1392.8 -366.7 1375.1 -374.6 1361.6 -411.4 C 1348.0 -448.1 1315.3 -527.4 1312.9 -563.9 C 1310.5 -600.5 1329.7 -615.8 1347.4 -630.7 C 1365.1 -645.7 1395.9 -655.5 1419.0 -653.6 C 1442.1 -651.6 1470.9 -636.8 1485.8 -619.1 C 1500.7 -601.4 1510.6 -570.5 1508.7 -547.5 C 1506.7 -524.4 1491.9 -495.6 1474.2 -480.7 C 1456.5 -465.7 1425.6 -455.9 1402.6 -457.8 C 1379.5 -459.7 1350.7 -474.6 1335.8 -492.3 C 1320.8 -510.0 1331.2 -526.1 1312.9 -563.9 C 1294.6 -601.7 1251.8 -656.4 1225.7 -719.1 C 1199.6 -781.7 1167.3 -881.9 1156.2 -940.0 C 1145.1 -998.1 1173.1 -1008.6 1159.3 -1067.6 C 1145.5 -1126.5 1082.8 -1244.5 1073.7 -1293.6 C 1064.5 -1342.7 1087.7 -1346.3 1104.5 -1362.1 C 1121.4 -1378.0 1151.7 -1389.5 1174.8 -1388.8 C 1198.0 -1388.1 1227.5 -1374.8 1243.4 -1357.9 C 1259.3 -1341.0 1270.7 -1310.7 1270.0 -1287.6 C 1269.3 -1264.5 1256.0 -1234.9 1239.2 -1219.1 C 1222.3 -1203.2 1192.0 -1191.7 1168.8 -1192.4 C 1145.7 -1193.1 1116.2 -1206.4 1100.3 -1223.3 C 1084.4 -1240.2 1103.3 -1255.2 1073.7 -1293.6 C 1044.0 -1332.0 947.4 -1414.6 922.6 -1453.9 C 897.8 -1493.1 915.3 -1507.9 924.8 -1529.0 C 934.3 -1550.1 957.8 -1572.4 979.5 -1580.6 C 1001.1 -1588.8 1033.5 -1587.9 1054.6 -1578.4 C 1075.7 -1568.9 1098.0 -1545.3 1106.2 -1523.7 C 1114.4 -1502.0 1113.5 -1469.6 1104.0 -1448.5 C 1094.5 -1427.4 1070.9 -1405.2 1049.3 -1396.9 C 1027.6 -1388.7 995.3 -1389.7 974.1 -1399.2 C 953.0 -1408.6 948.8 -1432.2 922.6 -1453.9 C 896.3 -1475.5 852.3 -1495.2 816.8 -1529.2 C 781.2 -1563.1 746.0 -1614.8 709.3 -1657.6 C 672.6 -1700.3 640.2 -1751.3 596.5 -1785.5 C 552.8 -1819.8 488.7 -1832.4 447.0 -1863.2 C 405.3 -1894.0 363.2 -1952.7 346.4 -1970.6" stroke="#8FD11E" stroke-width="56" stroke-linecap="round" stroke-linejoin="round" opacity="0.9084907219512388"></path><path d="M -138.3 350.7 C -129.6 362.9 -90.8 397.4 -86.3 424.0 C -81.8 450.6 -93.2 490.3 -111.2 510.4 C -129.2 530.5 -167.3 546.3 -194.2 544.8 C -221.2 543.3 -257.3 523.3 -272.9 501.3 C -288.5 479.3 -295.4 438.6 -287.9 412.7 C -280.5 386.8 -253.0 356.0 -228.1 345.7 C -203.1 335.4 -202.5 354.3 -138.3 350.7 C -74.1 347.1 64.7 343.4 157.0 324.0 C 249.4 304.7 367.8 263.6 415.9 234.5 C 464.0 205.5 448.8 176.6 445.9 149.8 C 443.0 123.0 421.2 88.0 398.4 73.5 C 375.6 59.1 334.6 54.3 309.1 63.1 C 283.6 71.9 254.3 101.0 245.3 126.4 C 236.3 151.9 240.8 192.9 255.0 215.8 C 269.3 238.7 304.1 260.8 331.0 263.9 C 357.8 267.0 360.8 255.8 415.9 234.5 C 471.0 213.2 616.5 167.0 661.8 136.2 C 707.1 105.5 692.0 76.9 687.8 50.2 C 683.6 23.5 660.2 -10.4 636.7 -23.8 C 613.2 -37.1 572.1 -39.9 547.0 -29.9 C 522.0 -19.9 494.1 10.5 486.3 36.3 C 478.5 62.2 484.9 102.9 500.3 125.1 C 515.6 147.3 551.4 167.7 578.4 169.6 C 605.3 171.4 618.2 144.5 661.8 136.2 C 705.4 128.0 800.0 112.1 840.0 120.3 C 880.1 128.4 893.8 159.6 902.1 185.2 C 910.5 210.9 904.9 251.8 890.0 274.3 C 875.1 296.8 839.7 318.0 812.9 320.4 C 786.0 322.8 747.4 308.3 728.7 288.8 C 710.1 269.3 697.3 230.0 701.0 203.3 C 704.6 176.5 727.3 142.1 750.5 128.3 C 773.7 114.4 783.0 140.1 840.0 120.3 C 897.1 100.4 1047.0 42.3 1093.0 9.3 C 1139.0 -23.7 1121.1 -51.0 1116.0 -77.6 C 1111.0 -104.1 1086.4 -137.2 1062.5 -149.8 C 1038.6 -162.3 997.4 -163.8 972.7 -153.0 C 948.0 -142.1 921.1 -110.8 914.2 -84.7 C 907.3 -58.6 915.0 -18.1 931.1 3.6 C 947.2 25.3 983.7 44.5 1010.6 45.4 C 1037.6 46.4 1060.3 35.2 1093.0 9.3 C 1125.6 -16.6 1172.8 -91.5 1206.7 -110.0 C 1240.5 -128.6 1273.0 -115.9 1296.2 -102.1 C 1319.4 -88.3 1342.2 -53.9 1345.8 -27.2 C 1349.5 -0.5 1336.8 38.8 1318.2 58.3 C 1299.6 77.9 1261.0 92.4 1234.1 90.1 C 1207.2 87.7 1171.8 66.6 1156.9 44.1 C 1142.0 21.6 1136.4 -19.3 1144.7 -45.0 C 1153.0 -70.6 1166.9 -80.9 1206.7 -110.0 C 1246.4 -139.2 1351.8 -186.5 1383.0 -219.7 C 1414.1 -252.8 1402.3 -283.4 1393.5 -309.0 C 1384.7 -334.5 1355.6 -363.8 1330.2 -372.8 C 1304.8 -381.8 1263.8 -377.4 1240.8 -363.1 C 1217.9 -348.9 1195.8 -314.1 1192.7 -287.3 C 1189.5 -260.5 1203.0 -221.5 1222.0 -202.3 C 1241.0 -183.1 1279.8 -169.3 1306.7 -172.2 C 1333.5 -175.1 1340.1 -180.9 1383.0 -219.7 C 1425.9 -258.4 1509.3 -330.9 1564.0 -404.7 C 1618.7 -478.6 1678.3 -575.1 1711.1 -662.8 C 1743.9 -750.5 1758.2 -840.2 1760.7 -931.2 C 1763.3 -1022.2 1741.5 -1122.4 1726.4 -1209.0 C 1711.2 -1295.5 1683.3 -1375.7 1669.7 -1450.5 C 1656.1 -1525.3 1638.3 -1612.4 1644.6 -1657.6 C 1650.9 -1702.8 1682.2 -1712.6 1707.6 -1721.7 C 1733.0 -1730.9 1774.1 -1726.6 1797.0 -1712.4 C 1820.0 -1698.2 1842.2 -1663.5 1845.5 -1636.7 C 1848.7 -1609.9 1835.4 -1570.9 1816.5 -1551.6 C 1797.6 -1532.4 1758.8 -1518.4 1731.9 -1521.2 C 1705.1 -1524.0 1670.0 -1545.7 1655.4 -1568.4 C 1640.9 -1591.2 1654.7 -1601.2 1644.6 -1657.6 C 1634.5 -1714.1 1593.5 -1854.1 1594.9 -1907.1 C 1596.3 -1960.2 1628.2 -1964.8 1652.9 -1975.8 C 1677.5 -1986.9 1718.7 -1985.7 1742.7 -1973.3 C 1766.7 -1961.0 1791.5 -1928.0 1796.8 -1901.6 C 1802.0 -1875.1 1791.8 -1835.1 1774.4 -1814.5 C 1756.9 -1793.9 1719.3 -1777.0 1692.3 -1777.8 C 1665.3 -1778.5 1628.7 -1797.4 1612.5 -1819.0 C 1596.2 -1840.6 1619.9 -1853.1 1594.9 -1907.1 C 1569.9 -1961.2 1511.5 -2075.3 1462.6 -2143.5 C 1413.7 -2211.7 1343.3 -2288.6 1301.6 -2316.3 C 1259.8 -2343.9 1235.3 -2322.9 1211.9 -2309.4 C 1188.6 -2295.8 1165.4 -2261.7 1161.5 -2235.0 C 1157.5 -2208.3 1169.7 -2168.9 1188.1 -2149.2 C 1206.5 -2129.4 1245.0 -2114.4 1271.9 -2116.5 C 1298.8 -2118.6 1334.5 -2139.3 1349.6 -2161.6 C 1364.8 -2184.0 1370.8 -2224.7 1362.8 -2250.5 C 1354.8 -2276.3 1325.4 -2279.3 1301.6 -2316.3 C 1277.7 -2353.3 1254.1 -2419.6 1219.6 -2472.4 C 1185.0 -2525.3 1122.1 -2578.3 1094.3 -2633.6 C 1066.4 -2688.8 1075.1 -2738.5 1052.4 -2803.9 C 1029.6 -2869.3 996.9 -2957.9 957.7 -3026.1 C 918.6 -3094.3 840.7 -3181.8 817.3 -3212.9" stroke="#07231A" stroke-width="75" stroke-linecap="round" stroke-linejoin="round"></path><path d="M -138.3 350.7 C -129.6 362.9 -90.8 397.4 -86.3 424.0 C -81.8 450.6 -93.2 490.3 -111.2 510.4 C -129.2 530.5 -167.3 546.3 -194.2 544.8 C -221.2 543.3 -257.3 523.3 -272.9 501.3 C -288.5 479.3 -295.4 438.6 -287.9 412.7 C -280.5 386.8 -253.0 356.0 -228.1 345.7 C -203.1 335.4 -202.5 354.3 -138.3 350.7 C -74.1 347.1 64.7 343.4 157.0 324.0 C 249.4 304.7 367.8 263.6 415.9 234.5 C 464.0 205.5 448.8 176.6 445.9 149.8 C 443.0 123.0 421.2 88.0 398.4 73.5 C 375.6 59.1 334.6 54.3 309.1 63.1 C 283.6 71.9 254.3 101.0 245.3 126.4 C 236.3 151.9 240.8 192.9 255.0 215.8 C 269.3 238.7 304.1 260.8 331.0 263.9 C 357.8 267.0 360.8 255.8 415.9 234.5 C 471.0 213.2 616.5 167.0 661.8 136.2 C 707.1 105.5 692.0 76.9 687.8 50.2 C 683.6 23.5 660.2 -10.4 636.7 -23.8 C 613.2 -37.1 572.1 -39.9 547.0 -29.9 C 522.0 -19.9 494.1 10.5 486.3 36.3 C 478.5 62.2 484.9 102.9 500.3 125.1 C 515.6 147.3 551.4 167.7 578.4 169.6 C 605.3 171.4 618.2 144.5 661.8 136.2 C 705.4 128.0 800.0 112.1 840.0 120.3 C 880.1 128.4 893.8 159.6 902.1 185.2 C 910.5 210.9 904.9 251.8 890.0 274.3 C 875.1 296.8 839.7 318.0 812.9 320.4 C 786.0 322.8 747.4 308.3 728.7 288.8 C 710.1 269.3 697.3 230.0 701.0 203.3 C 704.6 176.5 727.3 142.1 750.5 128.3 C 773.7 114.4 783.0 140.1 840.0 120.3 C 897.1 100.4 1047.0 42.3 1093.0 9.3 C 1139.0 -23.7 1121.1 -51.0 1116.0 -77.6 C 1111.0 -104.1 1086.4 -137.2 1062.5 -149.8 C 1038.6 -162.3 997.4 -163.8 972.7 -153.0 C 948.0 -142.1 921.1 -110.8 914.2 -84.7 C 907.3 -58.6 915.0 -18.1 931.1 3.6 C 947.2 25.3 983.7 44.5 1010.6 45.4 C 1037.6 46.4 1060.3 35.2 1093.0 9.3 C 1125.6 -16.6 1172.8 -91.5 1206.7 -110.0 C 1240.5 -128.6 1273.0 -115.9 1296.2 -102.1 C 1319.4 -88.3 1342.2 -53.9 1345.8 -27.2 C 1349.5 -0.5 1336.8 38.8 1318.2 58.3 C 1299.6 77.9 1261.0 92.4 1234.1 90.1 C 1207.2 87.7 1171.8 66.6 1156.9 44.1 C 1142.0 21.6 1136.4 -19.3 1144.7 -45.0 C 1153.0 -70.6 1166.9 -80.9 1206.7 -110.0 C 1246.4 -139.2 1351.8 -186.5 1383.0 -219.7 C 1414.1 -252.8 1402.3 -283.4 1393.5 -309.0 C 1384.7 -334.5 1355.6 -363.8 1330.2 -372.8 C 1304.8 -381.8 1263.8 -377.4 1240.8 -363.1 C 1217.9 -348.9 1195.8 -314.1 1192.7 -287.3 C 1189.5 -260.5 1203.0 -221.5 1222.0 -202.3 C 1241.0 -183.1 1279.8 -169.3 1306.7 -172.2 C 1333.5 -175.1 1340.1 -180.9 1383.0 -219.7 C 1425.9 -258.4 1509.3 -330.9 1564.0 -404.7 C 1618.7 -478.6 1678.3 -575.1 1711.1 -662.8 C 1743.9 -750.5 1758.2 -840.2 1760.7 -931.2 C 1763.3 -1022.2 1741.5 -1122.4 1726.4 -1209.0 C 1711.2 -1295.5 1683.3 -1375.7 1669.7 -1450.5 C 1656.1 -1525.3 1638.3 -1612.4 1644.6 -1657.6 C 1650.9 -1702.8 1682.2 -1712.6 1707.6 -1721.7 C 1733.0 -1730.9 1774.1 -1726.6 1797.0 -1712.4 C 1820.0 -1698.2 1842.2 -1663.5 1845.5 -1636.7 C 1848.7 -1609.9 1835.4 -1570.9 1816.5 -1551.6 C 1797.6 -1532.4 1758.8 -1518.4 1731.9 -1521.2 C 1705.1 -1524.0 1670.0 -1545.7 1655.4 -1568.4 C 1640.9 -1591.2 1654.7 -1601.2 1644.6 -1657.6 C 1634.5 -1714.1 1593.5 -1854.1 1594.9 -1907.1 C 1596.3 -1960.2 1628.2 -1964.8 1652.9 -1975.8 C 1677.5 -1986.9 1718.7 -1985.7 1742.7 -1973.3 C 1766.7 -1961.0 1791.5 -1928.0 1796.8 -1901.6 C 1802.0 -1875.1 1791.8 -1835.1 1774.4 -1814.5 C 1756.9 -1793.9 1719.3 -1777.0 1692.3 -1777.8 C 1665.3 -1778.5 1628.7 -1797.4 1612.5 -1819.0 C 1596.2 -1840.6 1619.9 -1853.1 1594.9 -1907.1 C 1569.9 -1961.2 1511.5 -2075.3 1462.6 -2143.5 C 1413.7 -2211.7 1343.3 -2288.6 1301.6 -2316.3 C 1259.8 -2343.9 1235.3 -2322.9 1211.9 -2309.4 C 1188.6 -2295.8 1165.4 -2261.7 1161.5 -2235.0 C 1157.5 -2208.3 1169.7 -2168.9 1188.1 -2149.2 C 1206.5 -2129.4 1245.0 -2114.4 1271.9 -2116.5 C 1298.8 -2118.6 1334.5 -2139.3 1349.6 -2161.6 C 1364.8 -2184.0 1370.8 -2224.7 1362.8 -2250.5 C 1354.8 -2276.3 1325.4 -2279.3 1301.6 -2316.3 C 1277.7 -2353.3 1254.1 -2419.6 1219.6 -2472.4 C 1185.0 -2525.3 1122.1 -2578.3 1094.3 -2633.6 C 1066.4 -2688.8 1075.1 -2738.5 1052.4 -2803.9 C 1029.6 -2869.3 996.9 -2957.9 957.7 -3026.1 C 918.6 -3094.3 840.7 -3181.8 817.3 -3212.9" stroke="#2E9C82" stroke-width="61" stroke-linecap="round" stroke-linejoin="round" opacity="0.9862535206601023"></path><path d="M -162.1 -150.2 C -137.5 -111.9 -57.9 22.4 -14.3 79.9 C 29.3 137.5 67.1 153.0 99.4 195.1 C 131.6 237.2 156.0 268.0 179.1 332.5 C 202.2 397.0 226.7 514.1 238.1 582.4 C 249.4 650.6 256.1 671.8 247.0 742.0 C 238.0 812.1 206.7 930.3 183.5 1003.2 C 160.4 1076.2 138.6 1109.6 108.1 1179.8 C 77.6 1249.9 31.7 1378.3 0.5 1424.2 C -30.8 1470.1 -53.0 1455.9 -79.4 1455.3 C -105.7 1454.7 -139.5 1439.8 -157.8 1420.8 C -176.0 1401.7 -189.4 1367.3 -188.8 1340.9 C -188.2 1314.5 -173.4 1280.7 -154.3 1262.5 C -135.2 1244.2 -100.8 1230.9 -74.4 1231.4 C -48.1 1232.0 -14.3 1246.9 4.0 1266.0 C 22.2 1285.0 35.6 1319.4 35.0 1345.8 C 34.4 1372.2 20.1 1373.3 0.5 1424.2 C -19.1 1475.1 -48.5 1585.1 -82.5 1651.1 C -116.5 1717.2 -164.6 1754.7 -203.3 1820.6 C -242.1 1886.4 -276.6 1991.3 -315.0 2046.2 C -353.3 2101.0 -378.1 2102.5 -433.6 2149.5 C -489.1 2196.5 -610.9 2284.2 -647.9 2328.2 C -685.0 2372.3 -663.5 2388.4 -655.7 2413.6 C -647.8 2438.8 -624.2 2467.1 -600.8 2479.4 C -577.4 2491.6 -540.7 2495.0 -515.5 2487.1 C -490.3 2479.3 -461.9 2455.6 -449.7 2432.2 C -437.4 2408.9 -434.1 2372.1 -441.9 2346.9 C -449.8 2321.7 -473.4 2293.4 -496.8 2281.1 C -520.2 2268.9 -556.9 2265.5 -582.1 2273.4 C -607.3 2281.2 -623.7 2292.7 -647.9 2328.2 C -672.2 2363.8 -700.7 2455.6 -727.5 2486.4 C -754.3 2517.2 -782.5 2515.2 -808.8 2513.3 C -835.2 2511.4 -868.2 2494.8 -885.4 2474.8 C -902.6 2454.8 -914.2 2419.8 -912.3 2393.4 C -910.4 2367.1 -893.8 2334.1 -873.8 2316.9 C -853.8 2299.7 -818.8 2288.1 -792.4 2290.0 C -766.1 2291.9 -733.1 2308.5 -715.9 2328.5 C -698.7 2348.5 -687.1 2383.5 -689.0 2409.9 C -690.9 2436.2 -703.8 2440.2 -727.5 2486.4 C -751.2 2532.6 -818.2 2639.9 -831.1 2687.0 C -844.0 2734.0 -822.1 2748.4 -805.1 2768.6 C -788.1 2788.8 -755.3 2805.7 -729.0 2807.9 C -702.7 2810.1 -667.5 2798.9 -647.3 2781.9 C -627.2 2764.9 -610.2 2732.1 -608.0 2705.8 C -605.8 2679.5 -617.0 2644.3 -634.0 2624.2 C -651.1 2604.0 -683.9 2587.0 -710.2 2584.8 C -736.4 2582.6 -771.6 2593.8 -791.8 2610.8 C -811.9 2627.9 -814.5 2650.3 -831.1 2687.0 C -847.7 2723.7 -877.4 2762.7 -891.2 2831.0 C -904.9 2899.2 -895.2 3025.2 -913.4 3096.3 C -931.7 3167.4 -990.2 3217.1 -1000.6 3257.6 C -1011.1 3298.2 -992.8 3319.3 -976.2 3339.8 C -959.5 3360.2 -927.0 3377.8 -900.8 3380.5 C -874.5 3383.2 -839.1 3372.6 -818.7 3356.0 C -798.2 3339.4 -780.6 3306.9 -777.9 3280.6 C -775.2 3254.4 -785.8 3219.0 -802.4 3198.5 C -819.1 3178.1 -851.5 3160.5 -877.8 3157.8 C -904.0 3155.1 -939.4 3165.6 -959.9 3182.3 C -980.4 3198.9 -973.1 3227.9 -1000.6 3257.6 C -1028.2 3287.3 -1076.5 3330.8 -1125.3 3360.5 C -1174.0 3390.2 -1240.9 3405.4 -1293.1 3435.8 C -1345.3 3466.1 -1379.8 3509.7 -1438.6 3542.5 C -1497.4 3575.4 -1584.8 3613.0 -1645.6 3633.1 C -1706.5 3653.2 -1777.4 3658.2 -1803.7 3663.2" stroke="#07231A" stroke-width="44" stroke-linecap="round" stroke-linejoin="round"></path><path d="M -162.1 -150.2 C -137.5 -111.9 -57.9 22.4 -14.3 79.9 C 29.3 137.5 67.1 153.0 99.4 195.1 C 131.6 237.2 156.0 268.0 179.1 332.5 C 202.2 397.0 226.7 514.1 238.1 582.4 C 249.4 650.6 256.1 671.8 247.0 742.0 C 238.0 812.1 206.7 930.3 183.5 1003.2 C 160.4 1076.2 138.6 1109.6 108.1 1179.8 C 77.6 1249.9 31.7 1378.3 0.5 1424.2 C -30.8 1470.1 -53.0 1455.9 -79.4 1455.3 C -105.7 1454.7 -139.5 1439.8 -157.8 1420.8 C -176.0 1401.7 -189.4 1367.3 -188.8 1340.9 C -188.2 1314.5 -173.4 1280.7 -154.3 1262.5 C -135.2 1244.2 -100.8 1230.9 -74.4 1231.4 C -48.1 1232.0 -14.3 1246.9 4.0 1266.0 C 22.2 1285.0 35.6 1319.4 35.0 1345.8 C 34.4 1372.2 20.1 1373.3 0.5 1424.2 C -19.1 1475.1 -48.5 1585.1 -82.5 1651.1 C -116.5 1717.2 -164.6 1754.7 -203.3 1820.6 C -242.1 1886.4 -276.6 1991.3 -315.0 2046.2 C -353.3 2101.0 -378.1 2102.5 -433.6 2149.5 C -489.1 2196.5 -610.9 2284.2 -647.9 2328.2 C -685.0 2372.3 -663.5 2388.4 -655.7 2413.6 C -647.8 2438.8 -624.2 2467.1 -600.8 2479.4 C -577.4 2491.6 -540.7 2495.0 -515.5 2487.1 C -490.3 2479.3 -461.9 2455.6 -449.7 2432.2 C -437.4 2408.9 -434.1 2372.1 -441.9 2346.9 C -449.8 2321.7 -473.4 2293.4 -496.8 2281.1 C -520.2 2268.9 -556.9 2265.5 -582.1 2273.4 C -607.3 2281.2 -623.7 2292.7 -647.9 2328.2 C -672.2 2363.8 -700.7 2455.6 -727.5 2486.4 C -754.3 2517.2 -782.5 2515.2 -808.8 2513.3 C -835.2 2511.4 -868.2 2494.8 -885.4 2474.8 C -902.6 2454.8 -914.2 2419.8 -912.3 2393.4 C -910.4 2367.1 -893.8 2334.1 -873.8 2316.9 C -853.8 2299.7 -818.8 2288.1 -792.4 2290.0 C -766.1 2291.9 -733.1 2308.5 -715.9 2328.5 C -698.7 2348.5 -687.1 2383.5 -689.0 2409.9 C -690.9 2436.2 -703.8 2440.2 -727.5 2486.4 C -751.2 2532.6 -818.2 2639.9 -831.1 2687.0 C -844.0 2734.0 -822.1 2748.4 -805.1 2768.6 C -788.1 2788.8 -755.3 2805.7 -729.0 2807.9 C -702.7 2810.1 -667.5 2798.9 -647.3 2781.9 C -627.2 2764.9 -610.2 2732.1 -608.0 2705.8 C -605.8 2679.5 -617.0 2644.3 -634.0 2624.2 C -651.1 2604.0 -683.9 2587.0 -710.2 2584.8 C -736.4 2582.6 -771.6 2593.8 -791.8 2610.8 C -811.9 2627.9 -814.5 2650.3 -831.1 2687.0 C -847.7 2723.7 -877.4 2762.7 -891.2 2831.0 C -904.9 2899.2 -895.2 3025.2 -913.4 3096.3 C -931.7 3167.4 -990.2 3217.1 -1000.6 3257.6 C -1011.1 3298.2 -992.8 3319.3 -976.2 3339.8 C -959.5 3360.2 -927.0 3377.8 -900.8 3380.5 C -874.5 3383.2 -839.1 3372.6 -818.7 3356.0 C -798.2 3339.4 -780.6 3306.9 -777.9 3280.6 C -775.2 3254.4 -785.8 3219.0 -802.4 3198.5 C -819.1 3178.1 -851.5 3160.5 -877.8 3157.8 C -904.0 3155.1 -939.4 3165.6 -959.9 3182.3 C -980.4 3198.9 -973.1 3227.9 -1000.6 3257.6 C -1028.2 3287.3 -1076.5 3330.8 -1125.3 3360.5 C -1174.0 3390.2 -1240.9 3405.4 -1293.1 3435.8 C -1345.3 3466.1 -1379.8 3509.7 -1438.6 3542.5 C -1497.4 3575.4 -1584.8 3613.0 -1645.6 3633.1 C -1706.5 3653.2 -1777.4 3658.2 -1803.7 3663.2" stroke="#FFFFFF" stroke-width="30" stroke-linecap="round" stroke-linejoin="round" opacity="0.8477086676284671"></path><path d="M -248.4 217.7 C -201.3 201.2 -48.2 167.0 34.3 118.4 C 116.7 69.9 179.9 -23.1 246.4 -73.6 C 312.9 -124.1 387.7 -171.6 433.2 -184.7 C 478.7 -197.8 500.5 -172.2 519.6 -152.1 C 538.8 -132.0 551.8 -91.6 548.0 -64.2 C 544.3 -36.7 520.8 -1.3 497.0 12.9 C 473.1 27.1 430.9 30.8 404.9 21.0 C 379.0 11.2 349.7 -19.5 341.2 -45.9 C 332.7 -72.3 338.5 -114.3 353.8 -137.5 C 369.1 -160.6 383.2 -171.9 433.2 -184.7 C 483.3 -197.5 609.4 -196.1 654.1 -214.3 C 698.8 -232.4 699.1 -265.9 701.6 -293.5 C 704.1 -321.2 689.3 -360.9 669.3 -380.1 C 649.2 -399.3 608.9 -412.5 581.4 -408.8 C 553.9 -405.1 518.5 -381.8 504.2 -358.0 C 490.0 -334.2 486.1 -292.0 495.8 -266.0 C 505.5 -240.0 536.1 -210.6 562.5 -202.0 C 588.9 -193.4 611.8 -211.1 654.1 -214.3 C 696.4 -217.4 757.4 -225.0 816.4 -220.9 C 875.4 -216.8 950.2 -194.7 1008.1 -189.7 C 1066.1 -184.7 1111.8 -185.7 1164.0 -190.6 C 1216.2 -195.5 1263.8 -199.7 1321.2 -219.1 C 1378.7 -238.5 1445.7 -261.7 1508.7 -306.9 C 1571.7 -352.1 1627.6 -439.7 1699.3 -490.3 C 1771.0 -540.8 1854.6 -570.7 1938.8 -610.1 C 2023.0 -649.5 2116.8 -681.2 2204.5 -726.5 C 2292.1 -771.8 2393.8 -840.4 2464.6 -881.9 C 2535.5 -923.3 2554.4 -952.6 2629.6 -975.2 C 2704.8 -997.7 2830.3 -1003.2 2915.8 -1017.2 C 3001.2 -1031.3 3097.4 -1039.0 3142.3 -1059.7 C 3187.3 -1080.4 3184.6 -1113.6 3185.7 -1141.3 C 3186.8 -1169.0 3169.9 -1207.9 3148.9 -1226.1 C 3127.9 -1244.2 3086.9 -1255.2 3059.7 -1250.1 C 3032.4 -1245.0 2998.2 -1219.9 2985.2 -1195.4 C 2972.2 -1170.9 2970.5 -1128.5 2981.6 -1103.1 C 2992.6 -1077.6 3024.7 -1049.9 3051.5 -1042.7 C 3078.3 -1035.4 3088.5 -1041.7 3142.3 -1059.7 C 3196.2 -1077.7 3307.8 -1107.4 3374.6 -1150.8 C 3441.4 -1194.1 3483.5 -1272.8 3543.2 -1319.9 C 3602.8 -1366.9 3657.5 -1402.1 3732.4 -1433.1 C 3807.4 -1464.2 3949.5 -1494.0 3992.9 -1506.2" stroke="#07231A" stroke-width="75" stroke-linecap="round" stroke-linejoin="round"></path><path d="M -248.4 217.7 C -201.3 201.2 -48.2 167.0 34.3 118.4 C 116.7 69.9 179.9 -23.1 246.4 -73.6 C 312.9 -124.1 387.7 -171.6 433.2 -184.7 C 478.7 -197.8 500.5 -172.2 519.6 -152.1 C 538.8 -132.0 551.8 -91.6 548.0 -64.2 C 544.3 -36.7 520.8 -1.3 497.0 12.9 C 473.1 27.1 430.9 30.8 404.9 21.0 C 379.0 11.2 349.7 -19.5 341.2 -45.9 C 332.7 -72.3 338.5 -114.3 353.8 -137.5 C 369.1 -160.6 383.2 -171.9 433.2 -184.7 C 483.3 -197.5 609.4 -196.1 654.1 -214.3 C 698.8 -232.4 699.1 -265.9 701.6 -293.5 C 704.1 -321.2 689.3 -360.9 669.3 -380.1 C 649.2 -399.3 608.9 -412.5 581.4 -408.8 C 553.9 -405.1 518.5 -381.8 504.2 -358.0 C 490.0 -334.2 486.1 -292.0 495.8 -266.0 C 505.5 -240.0 536.1 -210.6 562.5 -202.0 C 588.9 -193.4 611.8 -211.1 654.1 -214.3 C 696.4 -217.4 757.4 -225.0 816.4 -220.9 C 875.4 -216.8 950.2 -194.7 1008.1 -189.7 C 1066.1 -184.7 1111.8 -185.7 1164.0 -190.6 C 1216.2 -195.5 1263.8 -199.7 1321.2 -219.1 C 1378.7 -238.5 1445.7 -261.7 1508.7 -306.9 C 1571.7 -352.1 1627.6 -439.7 1699.3 -490.3 C 1771.0 -540.8 1854.6 -570.7 1938.8 -610.1 C 2023.0 -649.5 2116.8 -681.2 2204.5 -726.5 C 2292.1 -771.8 2393.8 -840.4 2464.6 -881.9 C 2535.5 -923.3 2554.4 -952.6 2629.6 -975.2 C 2704.8 -997.7 2830.3 -1003.2 2915.8 -1017.2 C 3001.2 -1031.3 3097.4 -1039.0 3142.3 -1059.7 C 3187.3 -1080.4 3184.6 -1113.6 3185.7 -1141.3 C 3186.8 -1169.0 3169.9 -1207.9 3148.9 -1226.1 C 3127.9 -1244.2 3086.9 -1255.2 3059.7 -1250.1 C 3032.4 -1245.0 2998.2 -1219.9 2985.2 -1195.4 C 2972.2 -1170.9 2970.5 -1128.5 2981.6 -1103.1 C 2992.6 -1077.6 3024.7 -1049.9 3051.5 -1042.7 C 3078.3 -1035.4 3088.5 -1041.7 3142.3 -1059.7 C 3196.2 -1077.7 3307.8 -1107.4 3374.6 -1150.8 C 3441.4 -1194.1 3483.5 -1272.8 3543.2 -1319.9 C 3602.8 -1366.9 3657.5 -1402.1 3732.4 -1433.1 C 3807.4 -1464.2 3949.5 -1494.0 3992.9 -1506.2" stroke="#A3E635" stroke-width="61" stroke-linecap="round" stroke-linejoin="round" opacity="0.9720668239053338"></path><path d="M 2222.7 407.3 C 2191.4 416.7 2102.2 449.5 2035.0 463.3 C 1967.8 477.0 1882.2 472.8 1819.5 489.9 C 1756.7 507.0 1732.2 545.3 1658.3 565.7 C 1584.5 586.1 1471.9 602.0 1376.3 612.2 C 1280.8 622.4 1176.7 608.6 1084.9 626.9 C 993.1 645.2 906.2 705.9 825.6 721.9 C 744.9 737.9 685.4 718.2 601.2 723.0 C 517.1 727.9 404.6 747.1 320.5 751.1 C 236.3 755.0 180.0 743.3 96.3 746.6 C 12.6 749.9 -101.1 750.2 -181.6 770.9 C -262.1 791.6 -324.3 820.6 -386.6 871.0 C -448.8 921.4 -511.8 1001.9 -555.0 1073.2 C -598.3 1144.5 -607.0 1218.4 -646.1 1298.6 C -685.1 1378.7 -755.1 1488.2 -789.4 1554.1 C -823.7 1620.0 -834.4 1637.8 -852.0 1694.0 C -869.7 1750.2 -867.3 1826.3 -895.4 1891.2 C -923.5 1956.0 -989.8 2021.9 -1020.6 2083.3 C -1051.5 2144.8 -1053.2 2193.7 -1080.5 2259.9 C -1107.8 2326.1 -1146.5 2401.8 -1184.4 2480.4 C -1222.3 2559.0 -1260.7 2664.2 -1307.8 2731.6 C -1354.9 2799.0 -1402.3 2829.5 -1467.0 2884.9 C -1531.8 2940.3 -1658.1 3034.3 -1696.3 3064.2" stroke="#07231A" stroke-width="56" stroke-linecap="round" stroke-linejoin="round"></path><path d="M 2222.7 407.3 C 2191.4 416.7 2102.2 449.5 2035.0 463.3 C 1967.8 477.0 1882.2 472.8 1819.5 489.9 C 1756.7 507.0 1732.2 545.3 1658.3 565.7 C 1584.5 586.1 1471.9 602.0 1376.3 612.2 C 1280.8 622.4 1176.7 608.6 1084.9 626.9 C 993.1 645.2 906.2 705.9 825.6 721.9 C 744.9 737.9 685.4 718.2 601.2 723.0 C 517.1 727.9 404.6 747.1 320.5 751.1 C 236.3 755.0 180.0 743.3 96.3 746.6 C 12.6 749.9 -101.1 750.2 -181.6 770.9 C -262.1 791.6 -324.3 820.6 -386.6 871.0 C -448.8 921.4 -511.8 1001.9 -555.0 1073.2 C -598.3 1144.5 -607.0 1218.4 -646.1 1298.6 C -685.1 1378.7 -755.1 1488.2 -789.4 1554.1 C -823.7 1620.0 -834.4 1637.8 -852.0 1694.0 C -869.7 1750.2 -867.3 1826.3 -895.4 1891.2 C -923.5 1956.0 -989.8 2021.9 -1020.6 2083.3 C -1051.5 2144.8 -1053.2 2193.7 -1080.5 2259.9 C -1107.8 2326.1 -1146.5 2401.8 -1184.4 2480.4 C -1222.3 2559.0 -1260.7 2664.2 -1307.8 2731.6 C -1354.9 2799.0 -1402.3 2829.5 -1467.0 2884.9 C -1531.8 2940.3 -1658.1 3034.3 -1696.3 3064.2" stroke="#8FD11E" stroke-width="42" stroke-linecap="round" stroke-linejoin="round" opacity="0.7318819393636659"></path></svg>