<svg xmlns="http://www.w3.org/2000/svg" viewBox="0 0 1920 1080" width="1920" height="1080" fill="none"><path d="M 388.6 1289.4 C 398.2 1263.9 431.1 1204.0 446.0 1136.4 C 460.9 1068.8 458.3 952.8 478.2 883.9 C 498.1 815.0 537.4 752.3 565.4 723.1 C 593.4 693.9 622.3 702.1 646.0 708.7 C 669.7 715.3 697.9 740.1 707.5 762.8 C 717.1 785.4 715.3 823.0 703.6 844.6 C 691.9 866.2 661.4 888.2 637.2 892.5 C 613.0 896.8 576.8 886.7 558.3 870.5 C 539.8 854.2 525.2 819.6 526.4 795.1 C 527.5 770.5 554.8 773.9 565.4 723.1 C 576.0 672.3 590.2 565.1 589.7 490.3 C 589.3 415.4 583.1 343.4 562.7 273.9 C 542.4 204.4 485.3 130.0 467.6 73.3 C 449.9 16.6 456.6 -9.1 456.7 -66.3 C 456.8 -123.4 450.8 -200.1 468.1 -269.8 C 485.4 -339.4 539.1 -424.8 560.4 -484.4 C 581.8 -544.0 581.5 -572.8 596.1 -627.1 C 610.7 -681.3 636.1 -755.6 648.2 -810.1 C 660.2 -864.5 668.8 -903.8 668.3 -953.7 C 667.7 -1003.6 641.9 -1040.0 644.9 -1109.7 C 647.8 -1179.3 676.5 -1298.5 686.0 -1371.7 C 695.5 -1445.0 702.4 -1478.7 701.8 -1549.0 C 701.3 -1619.3 699.8 -1721.8 682.5 -1793.6 C 665.2 -1865.3 632.5 -1928.3 598.2 -1979.6 C 563.9 -2030.9 496.9 -2081.1 476.6 -2101.4" stroke="#07231A" stroke-width="55" stroke-linecap="round" stroke-linejoin="round"></path><path d="M 388.6 1289.4 C 398.2 1263.9 431.1 1204.0 446.0 1136.4 C 460.9 1068.8 458.3 952.8 478.2 883.9 C 498.1 815.0 537.4 752.3 565.4 723.1 C 593.4 693.9 622.3 702.1 646.0 708.7 C 669.7 715.3 697.9 740.1 707.5 762.8 C 717.1 785.4 715.3 823.0 703.6 844.6 C 691.9 866.2 661.4 888.2 637.2 892.5 C 613.0 896.8 576.8 886.7 558.3 870.5 C 539.8 854.2 525.2 819.6 526.4 795.1 C 527.5 770.5 554.8 773.9 565.4 723.1 C 576.0 672.3 590.2 565.1 589.7 490.3 C 589.3 415.4 583.1 343.4 562.7 273.9 C 542.4 204.4 485.3 130.0 467.6 73.3 C 449.9 16.6 456.6 -9.1 456.7 -66.3 C 456.8 -123.4 450.8 -200.1 468.1 -269.8 C 485.4 -339.4 539.1 -424.8 560.4 -484.4 C 581.8 -544.0 581.5 -572.8 596.1 -627.1 C 610.7 -681.3 636.1 -755.6 648.2 -810.1 C 660.2 -864.5 668.8 -903.8 668.3 -953.7 C 667.7 -1003.6 641.9 -1040.0 644.9 -1109.7 C 647.8 -1179.3 676.5 -1298.5 686.0 -1371.7 C 695.5 -1445.0 702.4 -1478.7 701.8 -1549.0 C 701.3 -1619.3 699.8 -1721.8 682.5 -1793.6 C 665.2 -1865.3 632.5 -1928.3 598.2 -1979.6 C 563.9 -2030.9 496.9 -2081.1 476.6 -2101.4" stroke="#1F8A5B" stroke-width="41" stroke-linecap="round" stroke-linejoin="round" opacity="0.7589867162518202"></path><path d="M -202.2 -181.7 C -162.8 -181.6 -14.9 -169.0 34.2 -180.9 C 83.2 -192.8 85.8 -225.9 92.0 -253.0 C 98.3 -280.0 89.0 -321.4 71.8 -343.1 C 54.6 -364.9 16.4 -383.4 -11.3 -383.5 C -39.1 -383.6 -77.3 -365.3 -94.7 -343.7 C -112.1 -322.0 -121.7 -280.7 -115.6 -253.7 C -109.5 -226.6 -83.2 -193.4 -58.2 -181.2 C -33.2 -169.1 -20.7 -183.8 34.2 -180.9 C 89.1 -178.1 222.9 -179.6 271.1 -164.1 C 319.3 -148.6 319.2 -115.4 323.5 -88.0 C 327.7 -60.5 315.4 -20.0 296.6 0.4 C 277.8 20.9 238.4 36.5 210.7 34.5 C 183.0 32.6 146.2 11.5 130.5 -11.3 C 114.8 -34.2 108.3 -76.1 116.4 -102.7 C 124.5 -129.2 153.2 -160.4 179.0 -170.6 C 204.8 -180.9 227.3 -172.3 271.1 -164.1 C 314.9 -155.9 401.2 -119.1 441.9 -121.3 C 482.6 -123.5 502.7 -152.7 515.3 -177.4 C 527.9 -202.1 528.8 -244.5 517.3 -269.8 C 505.7 -295.0 473.2 -322.2 446.2 -328.9 C 419.3 -335.6 377.8 -327.1 355.8 -310.2 C 333.7 -293.4 314.5 -255.6 313.9 -227.9 C 313.3 -200.1 330.9 -161.5 352.2 -143.8 C 373.6 -126.0 378.7 -122.8 441.9 -121.3 C 505.0 -119.9 658.1 -124.5 731.1 -135.1 C 804.2 -145.7 819.9 -161.7 880.1 -185.1 C 940.2 -208.5 1043.1 -267.8 1092.0 -275.6 C 1140.9 -283.4 1157.1 -254.3 1173.4 -231.8 C 1189.7 -209.3 1197.2 -167.6 1189.8 -140.9 C 1182.5 -114.1 1154.6 -82.2 1129.0 -71.3 C 1103.5 -60.4 1061.2 -62.3 1036.7 -75.5 C 1012.3 -88.6 987.4 -123.0 982.4 -150.3 C 977.5 -177.6 988.8 -218.4 1007.1 -239.3 C 1025.3 -260.2 1048.2 -265.1 1092.0 -275.6 C 1135.9 -286.1 1215.8 -287.3 1270.3 -302.3 C 1324.7 -317.3 1364.0 -352.2 1418.6 -365.8 C 1473.2 -379.5 1529.5 -377.6 1597.9 -384.2 C 1666.4 -390.7 1746.9 -406.1 1829.1 -405.1 C 1911.2 -404.2 2020.4 -393.5 2090.8 -378.4 C 2161.2 -363.2 2185.6 -329.5 2251.4 -314.2 C 2317.1 -299.0 2403.8 -291.4 2485.2 -287.0 C 2566.5 -282.7 2669.7 -283.1 2739.6 -288.2 C 2809.5 -293.3 2844.2 -295.6 2904.4 -317.7 C 2964.5 -339.9 3047.6 -380.8 3100.6 -421.0 C 3153.5 -461.2 3190.3 -506.5 3221.9 -559.1 C 3253.5 -611.6 3255.8 -678.4 3290.1 -736.4 C 3324.4 -794.4 3404.6 -878.7 3427.5 -907.2" stroke="#07231A" stroke-width="63" stroke-linecap="round" stroke-linejoin="round"></path><path d="M -202.2 -181.7 C -162.8 -181.6 -14.9 -169.0 34.2 -180.9 C 83.2 -192.8 85.8 -225.9 92.0 -253.0 C 98.3 -280.0 89.0 -321.4 71.8 -343.1 C 54.6 -364.9 16.4 -383.4 -11.3 -383.5 C -39.1 -383.6 -77.3 -365.3 -94.7 -343.7 C -112.1 -322.0 -121.7 -280.7 -115.6 -253.7 C -109.5 -226.6 -83.2 -193.4 -58.2 -181.2 C -33.2 -169.1 -20.7 -183.8 34.2 -180.9 C 89.1 -178.1 222.9 -179.6 271.1 -164.1 C 319.3 -148.6 319.2 -115.4 323.5 -88.0 C 327.7 -60.5 315.4 -20.0 296.6 0.4 C 277.8 20.9 238.4 36.5 210.7 34.5 C 183.0 32.6 146.2 11.5 130.5 -11.3 C 114.8 -34.2 108.3 -76.1 116.4 -102.7 C 124.5 -129.2 153.2 -160.4 179.0 -170.6 C 204.8 -180.9 227.3 -172.3 271.1 -164.1 C 314.9 -155.9 401.2 -119.1 441.9 -121.3 C 482.6 -123.5 502.7 -152.7 515.3 -177.4 C 527.9 -202.1 528.8 -244.5 517.3 -269.8 C 505.7 -295.0 473.2 -322.2 446.2 -328.9 C 419.3 -335.6 377.8 -327.1 355.8 -310.2 C 333.7 -293.4 314.5 -255.6 313.9 -227.9 C 313.3 -200.1 330.9 -161.5 352.2 -143.8 C 373.6 -126.0 378.7 -122.8 441.9 -121.3 C 505.0 -119.9 658.1 -124.5 731.1 -135.1 C 804.2 -145.7 819.9 -161.7 880.1 -185.1 C 940.2 -208.5 1043.1 -267.8 1092.0 -275.6 C 1140.9 -283.4 1157.1 -254.3 1173.4 -231.8 C 1189.7 -209.3 1197.2 -167.6 1189.8 -140.9 C 1182.5 -114.1 1154.6 -82.2 1129.0 -71.3 C 1103.5 -60.4 1061.2 -62.3 1036.7 -75.5 C 1012.3 -88.6 987.4 -123.0 982.4 -150.3 C 977.5 -177.6 988.8 -218.4 1007.1 -239.3 C 1025.3 -260.2 1048.2 -265.1 1092.0 -275.6 C 1135.9 -286.1 1215.8 -287.3 1270.3 -302.3 C 1324.7 -317.3 1364.0 -352.2 1418.6 -365.8 C 1473.2 -379.5 1529.5 -377.6 1597.9 -384.2 C 1666.4 -390.7 1746.9 -406.1 1829.1 -405.1 C 1911.2 -404.2 2020.4 -393.5 2090.8 -378.4 C 2161.2 -363.2 2185.6 -329.5 2251.4 -314.2 C 2317.1 -299.0 2403.8 -291.4 2485.2 -287.0 C 2566.5 -282.7 2669.7 -283.1 2739.6 -288.2 C 2809.5 -293.3 2844.2 -295.6 2904.4 -317.7 C 2964.5 -339.9 3047.6 -380.8 3100.6 -421.0 C 3153.5 -461.2 3190.3 -506.5 3221.9 -559.1 C 3253.5 -611.6 3255.8 -678.4 3290.1 -736.4 C 3324.4 -794.4 3404.6 -878.7 3427.5 -907.2" stroke="#3FB89A" stroke-width="49" stroke-linecap="round" stroke-linejoin="round" opacity="0.7384613843867555"></path><path d="M 2034.0 594.1 C 1997.6 593.4 1893.7 602.8 1815.6 589.8 C 1737.4 576.8 1641.8 536.1 1565.0 516.2 C 1488.3 496.3 1416.0 476.7 1355.1 470.5 C 1294.3 464.3 1263.9 471.3 1199.9 479.1 C 1135.9 486.8 1038.8 506.3 971.1 517.0 C 903.3 527.6 846.6 529.1 793.5 542.7 C 740.5 556.3 681.9 576.3 652.9 598.4 C 623.9 620.6 620.0 649.7 619.6 675.5 C 619.2 701.4 632.5 735.0 650.5 753.6 C 668.5 772.2 701.7 786.6 727.6 787.0 C 753.5 787.4 787.1 774.0 805.7 756.0 C 824.3 738.0 838.6 704.8 839.0 678.9 C 839.4 653.1 826.1 619.4 808.1 600.8 C 790.1 582.3 756.9 567.9 731.0 567.5 C 705.1 567.1 708.6 590.2 652.9 598.4 C 597.2 606.7 475.2 609.2 396.9 617.0 C 318.5 624.8 260.9 643.8 182.9 645.2 C 104.9 646.7 -1.4 640.8 -71.1 625.8 C -140.7 610.9 -172.5 574.7 -235.0 555.5 C -297.5 536.4 -376.5 529.0 -446.0 510.9 C -515.5 492.8 -571.1 460.2 -651.8 447.0 C -732.5 433.9 -874.5 445.0 -930.3 432.1 C -986.0 419.2 -977.8 394.0 -986.4 369.6 C -995.0 345.2 -993.1 309.0 -981.9 285.7 C -970.7 262.4 -943.8 238.2 -919.4 229.6 C -895.0 221.0 -858.8 222.9 -835.5 234.1 C -812.2 245.2 -788.0 272.2 -779.4 296.6 C -770.8 321.0 -772.7 357.1 -783.9 380.5 C -795.1 403.8 -822.0 428.0 -846.4 436.6 C -870.8 445.2 -875.3 434.9 -930.3 432.1 C -985.2 429.3 -1092.4 407.4 -1176.1 419.7 C -1259.7 432.1 -1389.6 491.8 -1432.3 506.2" stroke="#07231A" stroke-width="74" stroke-linecap="round" stroke-linejoin="round"></path><path d="M 2034.0 594.1 C 1997.6 593.4 1893.7 602.8 1815.6 589.8 C 1737.4 576.8 1641.8 536.1 1565.0 516.2 C 1488.3 496.3 1416.0 476.7 1355.1 470.5 C 1294.3 464.3 1263.9 471.3 1199.9 479.1 C 1135.9 486.8 1038.8 506.3 971.1 517.0 C 903.3 527.6 846.6 529.1 793.5 542.7 C 740.5 556.3 681.9 576.3 652.9 598.4 C 623.9 620.6 620.0 649.7 619.6 675.5 C 619.2 701.4 632.5 735.0 650.5 753.6 C 668.5 772.2 701.7 786.6 727.6 787.0 C 753.5 787.4 787.1 774.0 805.7 756.0 C 824.3 738.0 838.6 704.8 839.0 678.9 C 839.4 653.1 826.1 619.4 808.1 600.8 C 790.1 582.3 756.9 567.9 731.0 567.5 C 705.1 567.1 708.6 590.2 652.9 598.4 C 597.2 606.7 475.2 609.2 396.9 617.0 C 318.5 624.8 260.9 643.8 182.9 645.2 C 104.9 646.7 -1.4 640.8 -71.1 625.8 C -140.7 610.9 -172.5 574.7 -235.0 555.5 C -297.5 536.4 -376.5 529.0 -446.0 510.9 C -515.5 492.8 -571.1 460.2 -651.8 447.0 C -732.5 433.9 -874.5 445.0 -930.3 432.1 C -986.0 419.2 -977.8 394.0 -986.4 369.6 C -995.0 345.2 -993.1 309.0 -981.9 285.7 C -970.7 262.4 -943.8 238.2 -919.4 229.6 C -895.0 221.0 -858.8 222.9 -835.5 234.1 C -812.2 245.2 -788.0 272.2 -779.4 296.6 C -770.8 321.0 -772.7 357.1 -783.9 380.5 C -795.1 403.8 -822.0 428.0 -846.4 436.6 C -870.8 445.2 -875.3 434.9 -930.3 432.1 C -985.2 429.3 -1092.4 407.4 -1176.1 419.7 C -1259.7 432.1 -1389.6 491.8 -1432.3 506.2" stroke="#A3E635" stroke-width="60" stroke-linecap="round" stroke-linejoin="round" opacity="0.9195378695148975"></path><path d="M 2024.3 896.3 C 2007.0 860.3 1950.8 757.9 1920.6 680.4 C 1890.5 603.0 1858.8 497.4 1843.4 431.6 C 1827.9 365.8 1836.5 341.6 1827.9 285.9 C 1819.4 230.2 1810.0 173.4 1792.3 97.2 C 1774.6 21.0 1749.2 -98.5 1721.7 -171.0 C 1694.3 -243.5 1667.4 -275.2 1627.5 -337.8 C 1587.6 -400.5 1525.5 -481.2 1482.3 -546.8 C 1439.1 -612.4 1404.7 -682.9 1368.3 -731.3 C 1332.0 -779.8 1302.3 -790.7 1264.0 -837.5 C 1225.8 -884.2 1178.6 -966.0 1138.8 -1011.7 C 1099.1 -1057.3 1081.2 -1071.4 1025.3 -1111.2 C 969.5 -1151.0 870.7 -1221.7 803.7 -1250.6 C 736.7 -1279.5 696.8 -1272.4 623.3 -1284.7 C 549.8 -1297.0 436.4 -1308.3 362.6 -1324.6 C 288.9 -1341.0 245.9 -1367.2 180.7 -1383.0 C 115.5 -1398.8 38.3 -1404.0 -28.4 -1419.5 C -95.1 -1435.0 -150.6 -1455.7 -219.5 -1476.0 C -288.4 -1496.3 -378.3 -1510.5 -442.0 -1541.5 C -505.7 -1572.4 -538.5 -1619.0 -601.7 -1661.8 C -664.9 -1704.6 -770.6 -1778.8 -821.3 -1798.2 C -872.0 -1817.6 -884.2 -1794.0 -906.0 -1778.4 C -927.7 -1762.8 -947.5 -1731.0 -951.8 -1704.5 C -956.2 -1678.1 -947.6 -1641.6 -932.0 -1619.9 C -916.4 -1598.1 -884.6 -1578.4 -858.2 -1574.0 C -831.8 -1569.7 -795.3 -1578.2 -773.5 -1593.8 C -751.8 -1609.4 -732.0 -1641.3 -727.7 -1667.7 C -723.3 -1694.1 -731.8 -1730.6 -747.5 -1752.3 C -763.1 -1774.1 -775.4 -1784.8 -821.3 -1798.2 C -867.2 -1811.6 -963.3 -1829.6 -1022.8 -1832.8 C -1082.4 -1836.0 -1114.4 -1818.5 -1178.5 -1817.4 C -1242.6 -1816.2 -1369.3 -1824.6 -1407.4 -1826.0" stroke="#07231A" stroke-width="62" stroke-linecap="round" stroke-linejoin="round"></path><path d="M 2024.3 896.3 C 2007.0 860.3 1950.8 757.9 1920.6 680.4 C 1890.5 603.0 1858.8 497.4 1843.4 431.6 C 1827.9 365.8 1836.5 341.6 1827.9 285.9 C 1819.4 230.2 1810.0 173.4 1792.3 97.2 C 1774.6 21.0 1749.2 -98.5 1721.7 -171.0 C 1694.3 -243.5 1667.4 -275.2 1627.5 -337.8 C 1587.6 -400.5 1525.5 -481.2 1482.3 -546.8 C 1439.1 -612.4 1404.7 -682.9 1368.3 -731.3 C 1332.0 -779.8 1302.3 -790.7 1264.0 -837.5 C 1225.8 -884.2 1178.6 -966.0 1138.8 -1011.7 C 1099.1 -1057.3 1081.2 -1071.4 1025.3 -1111.2 C 969.5 -1151.0 870.7 -1221.7 803.7 -1250.6 C 736.7 -1279.5 696.8 -1272.4 623.3 -1284.7 C 549.8 -1297.0 436.4 -1308.3 362.6 -1324.6 C 288.9 -1341.0 245.9 -1367.2 180.7 -1383.0 C 115.5 -1398.8 38.3 -1404.0 -28.4 -1419.5 C -95.1 -1435.0 -150.6 -1455.7 -219.5 -1476.0 C -288.4 -1496.3 -378.3 -1510.5 -442.0 -1541.5 C -505.7 -1572.4 -538.5 -1619.0 -601.7 -1661.8 C -664.9 -1704.6 -770.6 -1778.8 -821.3 -1798.2 C -872.0 -1817.6 -884.2 -1794.0 -906.0 -1778.4 C -927.7 -1762.8 -947.5 -1731.0 -951.8 -1704.5 C -956.2 -1678.1 -947.6 -1641.6 -932.0 -1619.9 C -916.4 -1598.1 -884.6 -1578.4 -858.2 -1574.0 C -831.8 -1569.7 -795.3 -1578.2 -773.5 -1593.8 C -751.8 -1609.4 -732.0 -1641.3 -727.7 -1667.7 C -723.3 -1694.1 -731.8 -1730.6 -747.5 -1752.3 C -763.1 -1774.1 -775.4 -1784.8 -821.3 -1798.2 C -867.2 -1811.6 -963.3 -1829.6 -1022.8 -1832.8 C -1082.4 -1836.0 -1114.4 -1818.5 -1178.5 -1817.4 C -1242.6 -1816.2 -1369.3 -1824.6 -1407.4 -1826.0" stroke="#1F8A5B" stroke-width="48" stroke-linecap="round" stroke-linejoin="round" opacity="0.9565844698110595"></path><path d="M 2212.1 400.0 C 2184.9 403.8 2118.1 408.2 2048.7 422.8 C 1979.4 437.3 1875.5 472.4 1796.0 487.3 C 1716.4 502.1 1653.8 500.9 1571.6 512.0 C 1489.4 523.1 1388.4 540.1 1302.8 553.9 C 1217.2 567.7 1128.2 586.8 1057.9 594.8 C 987.6 602.9 942.7 590.6 880.9 602.2 C 819.0 613.8 724.3 640.5 686.8 664.3 C 649.4 688.1 653.9 719.3 656.1 745.2 C 658.3 771.1 678.5 805.2 700.1 819.6 C 721.7 834.0 761.1 839.5 785.8 831.6 C 810.6 823.7 839.4 796.4 848.6 772.1 C 857.8 747.8 854.5 708.3 841.2 685.9 C 828.0 663.5 795.0 641.5 769.2 637.9 C 743.5 634.3 724.2 639.7 686.8 664.3 C 649.4 688.9 588.4 750.8 544.7 785.3 C 501.0 819.9 458.6 861.1 424.7 871.5 C 390.8 882.0 360.9 865.3 341.4 848.1 C 322.0 830.9 306.5 794.3 307.9 768.3 C 309.2 742.4 328.2 707.5 349.3 692.4 C 370.4 677.2 409.5 670.3 434.5 677.4 C 459.5 684.4 489.2 710.7 499.3 734.6 C 509.4 758.6 507.4 798.2 495.0 821.0 C 482.5 843.9 467.2 840.1 424.7 871.5 C 382.3 902.9 303.4 976.3 240.3 1009.5 C 177.2 1042.8 105.9 1044.2 46.3 1071.1 C -13.3 1098.0 -51.0 1131.5 -117.3 1171.2 C -183.6 1210.9 -298.8 1291.5 -351.3 1309.4 C -403.7 1327.3 -414.2 1297.5 -432.1 1278.6 C -450.0 1259.7 -462.1 1221.9 -458.4 1196.2 C -454.8 1170.5 -432.8 1137.4 -410.4 1124.2 C -388.1 1111.0 -348.5 1107.6 -324.2 1116.9 C -299.9 1126.1 -272.6 1155.0 -264.7 1179.7 C -256.8 1204.5 -262.3 1243.8 -276.8 1265.4 C -291.2 1287.0 -306.0 1290.0 -351.3 1309.4 C -396.5 1328.9 -511.1 1356.3 -548.5 1382.1 C -585.9 1407.9 -579.1 1438.5 -575.7 1464.3 C -572.4 1490.0 -550.7 1523.3 -528.5 1536.7 C -506.3 1550.2 -466.8 1554.0 -442.4 1545.0 C -418.0 1536.0 -390.4 1507.5 -382.2 1482.8 C -374.1 1458.2 -379.2 1418.8 -393.3 1397.0 C -407.5 1375.2 -441.5 1354.7 -467.3 1352.2 C -493.2 1349.7 -512.2 1364.1 -548.5 1382.1 C -584.9 1400.1 -638.4 1443.6 -685.4 1460.2 C -732.5 1476.9 -806.5 1478.3 -830.7 1481.9" stroke="#07231A" stroke-width="69" stroke-linecap="round" stroke-linejoin="round"></path><path d="M 2212.1 400.0 C 2184.9 403.8 2118.1 408.2 2048.7 422.8 C 1979.4 437.3 1875.5 472.4 1796.0 487.3 C 1716.4 502.1 1653.8 500.9 1571.6 512.0 C 1489.4 523.1 1388.4 540.1 1302.8 553.9 C 1217.2 567.7 1128.2 586.8 1057.9 594.8 C 987.6 602.9 942.7 590.6 880.9 602.2 C 819.0 613.8 724.3 640.5 686.8 664.3 C 649.4 688.1 653.9 719.3 656.1 745.2 C 658.3 771.1 678.5 805.2 700.1 819.6 C 721.7 834.0 761.1 839.5 785.8 831.6 C 810.6 823.7 839.4 796.4 848.6 772.1 C 857.8 747.8 854.5 708.3 841.2 685.9 C 828.0 663.5 795.0 641.5 769.2 637.9 C 743.5 634.3 724.2 639.7 686.8 664.3 C 649.4 688.9 588.4 750.8 544.7 785.3 C 501.0 819.9 458.6 861.1 424.7 871.5 C 390.8 882.0 360.9 865.3 341.4 848.1 C 322.0 830.9 306.5 794.3 307.9 768.3 C 309.2 742.4 328.2 707.5 349.3 692.4 C 370.4 677.2 409.5 670.3 434.5 677.4 C 459.5 684.4 489.2 710.7 499.3 734.6 C 509.4 758.6 507.4 798.2 495.0 821.0 C 482.5 843.9 467.2 840.1 424.7 871.5 C 382.3 902.9 303.4 976.3 240.3 1009.5 C 177.2 1042.8 105.9 1044.2 46.3 1071.1 C -13.3 1098.0 -51.0 1131.5 -117.3 1171.2 C -183.6 1210.9 -298.8 1291.5 -351.3 1309.4 C -403.7 1327.3 -414.2 1297.5 -432.1 1278.6 C -450.0 1259.7 -462.1 1221.9 -458.4 1196.2 C -454.8 1170.5 -432.8 1137.4 -410.4 1124.2 C -388.1 1111.0 -348.5 1107.6 -324.2 1116.9 C -299.9 1126.1 -272.6 1155.0 -264.7 1179.7 C -256.8 1204.5 -262.3 1243.8 -276.8 1265.4 C -291.2 1287.0 -306.0 1290.0 -351.3 1309.4 C -396.5 1328.9 -511.1 1356.3 -548.5 1382.1 C -585.9 1407.9 -579.1 1438.5 -575.7 1464.3 C -572.4 1490.0 -550.7 1523.3 -528.5 1536.7 C -506.3 1550.2 -466.8 1554.0 -442.4 1545.0 C -418.0 1536.0 -390.4 1507.5 -382.2 1482.8 C -374.1 1458.2 -379.2 1418.8 -393.3 1397.0 C -407.5 1375.2 -441.5 1354.7 -467.3 1352.2 C -493.2 1349.7 -512.2 1364.1 -548.5 1382.1 C -584.9 1400.1 -638.4 1443.6 -685.4 1460.2 C -732.5 1476.9 -806.5 1478.3 -830.7 1481.9" stroke="#3FB89A" stroke-width="55" stroke-linecap="round" stroke-linejoin="round" opacity="0.8615668938728049"></path><path d="M -218.8 530.8 C -190.9 533.7 -102.7 543.9 -51.1 548.1 C 0.4 552.4 30.4 552.8 90.2 556.3 C 150.1 559.8 261.6 576.2 308.0 569.4 C 354.4 562.6 357.7 538.0 368.7 515.6 C 379.6 493.1 381.7 458.3 373.5 434.7 C 365.4 411.1 342.2 384.9 319.7 374.0 C 297.3 363.1 262.4 361.0 238.8 369.2 C 215.2 377.3 189.1 400.5 178.2 423.0 C 167.3 445.4 165.2 480.3 173.3 503.9 C 181.5 527.5 204.6 553.6 227.1 564.5 C 249.5 575.4 256.4 552.7 308.0 569.4 C 359.6 586.0 477.0 627.2 536.8 664.4 C 596.7 701.5 620.3 743.6 667.4 792.3 C 714.4 841.1 768.7 908.8 819.4 956.8 C 870.0 1004.7 913.9 1047.0 971.2 1080.2 C 1028.4 1113.3 1103.6 1132.0 1162.8 1155.6 C 1222.0 1179.1 1277.2 1198.9 1326.5 1221.4 C 1375.7 1243.9 1399.7 1272.4 1458.3 1290.6 C 1517.0 1308.8 1614.0 1322.6 1678.3 1330.6 C 1742.6 1338.7 1777.9 1339.7 1844.1 1338.8 C 1910.3 1337.9 2003.6 1330.2 2075.6 1325.3 C 2147.6 1320.4 2211.5 1304.3 2275.9 1309.2 C 2340.3 1314.2 2407.3 1344.9 2461.9 1355.1 C 2516.5 1365.3 2554.7 1372.8 2603.5 1370.5 C 2652.4 1368.3 2694.4 1363.2 2755.0 1341.6 C 2815.5 1320.0 2905.5 1278.2 2966.6 1240.8 C 3027.8 1203.5 3082.4 1136.6 3121.7 1117.6 C 3160.9 1098.5 3180.4 1114.6 3202.2 1126.8 C 3224.1 1138.9 3245.8 1166.2 3252.7 1190.2 C 3259.5 1214.2 3255.6 1248.9 3243.5 1270.7 C 3231.4 1292.6 3204.0 1314.3 3180.0 1321.2 C 3156.0 1328.1 3121.3 1324.1 3099.5 1312.0 C 3077.7 1299.9 3055.9 1272.5 3049.0 1248.5 C 3042.2 1224.5 3046.1 1189.8 3058.2 1168.0 C 3070.3 1146.2 3084.8 1144.8 3121.7 1117.6 C 3158.5 1090.3 3216.6 1042.7 3279.3 1004.3 C 3342.0 965.8 3444.9 925.5 3497.8 886.8 C 3550.7 848.1 3580.2 791.1 3596.7 772.0" stroke="#07231A" stroke-width="58" stroke-linecap="round" stroke-linejoin="round"></path><path d="M -218.8 530.8 C -190.9 533.7 -102.7 543.9 -51.1 548.1 C 0.4 552.4 30.4 552.8 90.2 556.3 C 150.1 559.8 261.6 576.2 308.0 569.4 C 354.4 562.6 357.7 538.0 368.7 515.6 C 379.6 493.1 381.7 458.3 373.5 434.7 C 365.4 411.1 342.2 384.9 319.7 374.0 C 297.3 363.1 262.4 361.0 238.8 369.2 C 215.2 377.3 189.1 400.5 178.2 423.0 C 167.3 445.4 165.2 480.3 173.3 503.9 C 181.5 527.5 204.6 553.6 227.1 564.5 C 249.5 575.4 256.4 552.7 308.0 569.4 C 359.6 586.0 477.0 627.2 536.8 664.4 C 596.7 701.5 620.3 743.6 667.4 792.3 C 714.4 841.1 768.7 908.8 819.4 956.8 C 870.0 1004.7 913.9 1047.0 971.2 1080.2 C 1028.4 1113.3 1103.6 1132.0 1162.8 1155.6 C 1222.0 1179.1 1277.2 1198.9 1326.5 1221.4 C 1375.7 1243.9 1399.7 1272.4 1458.3 1290.6 C 1517.0 1308.8 1614.0 1322.6 1678.3 1330.6 C 1742.6 1338.7 1777.9 1339.7 1844.1 1338.8 C 1910.3 1337.9 2003.6 1330.2 2075.6 1325.3 C 2147.6 1320.4 2211.5 1304.3 2275.9 1309.2 C 2340.3 1314.2 2407.3 1344.9 2461.9 1355.1 C 2516.5 1365.3 2554.7 1372.8 2603.5 1370.5 C 2652.4 1368.3 2694.4 1363.2 2755.0 1341.6 C 2815.5 1320.0 2905.5 1278.2 2966.6 1240.8 C 3027.8 1203.5 3082.4 1136.6 3121.7 1117.6 C 3160.9 1098.5 3180.4 1114.6 3202.2 1126.8 C 3224.1 1138.9 3245.8 1166.2 3252.7 1190.2 C 3259.5 1214.2 3255.6 1248.9 3243.5 1270.7 C 3231.4 1292.6 3204.0 1314.3 3180.0 1321.2 C 3156.0 1328.1 3121.3 1324.1 3099.5 1312.0 C 3077.7 1299.9 3055.9 1272.5 3049.0 1248.5 C 3042.2 1224.5 3046.1 1189.8 3058.2 1168.0 C 3070.3 1146.2 3084.8 1144.8 3121.7 1117.6 C 3158.5 1090.3 3216.6 1042.7 3279.3 1004.3 C 3342.0 965.8 3444.9 925.5 3497.8 886.8 C 3550.7 848.1 3580.2 791.1 3596.7 772.0" stroke="#A3E635" stroke-width="44" stroke-linecap="round" stroke-linejoin="round" opacity="0.9043494089040904"></path></svg>