<svg xmlns="http://www.w3.org/2000/svg" viewBox="0 0 1920 1080" width="1920" height="1080" fill="none"><path d="M -100.0 340.0 C -90.2 350.0 -49.4 376.2 -41.3 400.1 C -33.3 424.0 -38.1 462.3 -51.8 483.5 C -65.4 504.7 -98.3 524.8 -123.4 527.3 C -148.5 529.8 -184.7 516.6 -202.4 498.6 C -220.0 480.5 -232.3 444.0 -229.1 419.0 C -226.0 393.9 -205.1 361.5 -183.6 348.4 C -162.1 335.2 -153.2 335.9 -100.0 340.0 C -46.8 344.1 62.3 364.2 135.6 372.8 C 208.9 381.4 265.9 383.7 340.0 391.5 C 414.2 399.4 499.3 417.5 580.5 420.0 C 661.7 422.5 754.8 415.4 827.1 406.6 C 899.5 397.9 953.6 379.7 1014.6 367.5 C 1075.6 355.4 1121.5 352.8 1192.9 333.6 C 1264.3 314.4 1377.5 278.6 1442.9 252.3 C 1508.3 226.0 1524.9 207.1 1585.3 175.8 C 1645.7 144.5 1733.7 92.4 1805.4 64.4 C 1877.1 36.4 1935.2 25.3 2015.5 8.0 C 2095.7 -9.2 2198.8 -32.9 2286.6 -39.1 C 2374.4 -45.3 2491.4 -42.2 2542.3 -29.3 C 2593.2 -16.4 2587.4 13.6 2592.1 38.4 C 2596.8 63.2 2586.8 100.4 2570.3 119.5 C 2553.8 138.6 2518.5 154.0 2493.3 153.0 C 2468.1 152.0 2434.0 134.0 2419.0 113.7 C 2404.1 93.3 2397.0 55.5 2403.5 31.1 C 2410.1 6.7 2435.2 -22.4 2458.4 -32.5 C 2481.5 -42.6 2495.1 -28.7 2542.3 -29.3 C 2589.5 -29.8 2708.5 -34.8 2741.7 -35.9" stroke="#2E9C82" stroke-width="48" stroke-linecap="round" stroke-linejoin="round" opacity="0.55"></path><path d="M -150.0 560.0 C -140.8 571.5 -100.9 603.1 -95.0 629.0 C -89.1 654.8 -98.1 694.2 -114.6 714.9 C -131.1 735.7 -167.6 753.2 -194.1 753.2 C -220.6 753.2 -257.1 735.7 -273.6 714.9 C -290.1 694.2 -299.1 654.8 -293.2 629.0 C -287.3 603.1 -262.1 571.5 -238.2 560.0 C -214.3 548.5 -197.9 555.1 -150.0 560.0 C -102.1 564.9 -31.4 578.4 49.1 589.6 C 129.5 600.7 253.7 613.0 332.7 626.7 C 411.7 640.4 463.6 663.5 523.0 672.0 C 582.5 680.5 632.7 678.7 689.5 677.8 C 746.4 677.0 809.8 672.6 864.2 666.9 C 918.5 661.2 952.7 644.5 1015.8 643.6 C 1078.9 642.7 1158.4 650.9 1242.6 661.7 C 1326.8 672.4 1434.9 692.9 1521.0 707.9 C 1607.2 722.9 1678.9 725.4 1759.5 751.6 C 1840.1 777.9 1926.5 815.7 2004.5 865.4 C 2082.6 915.0 2174.5 1000.0 2227.7 1049.4 C 2280.8 1098.8 2277.3 1113.7 2323.6 1161.9 C 2369.9 1210.1 2445.5 1270.7 2505.5 1338.4 C 2565.5 1406.1 2654.0 1529.7 2683.7 1568.0" stroke="#A3E635" stroke-width="54" stroke-linecap="round" stroke-linejoin="round" opacity="1"></path><path d="M 300.0 1180.0 C 320.6 1153.7 376.7 1073.7 423.5 1022.4 C 470.2 971.1 540.1 916.1 580.5 872.3 C 620.9 828.5 655.2 792.1 666.0 759.8 C 676.8 727.5 661.6 697.7 645.4 678.4 C 629.2 659.0 594.1 643.1 568.9 643.7 C 543.7 644.3 509.4 661.8 494.1 681.9 C 478.8 702.0 471.1 739.7 477.3 764.2 C 483.5 788.6 508.2 818.2 531.2 828.6 C 554.2 839.0 592.7 838.1 615.2 826.7 C 637.6 815.2 629.0 796.1 666.0 759.8 C 703.1 723.5 809.6 648.2 837.5 609.1 C 865.4 570.0 845.5 547.4 833.5 525.2 C 821.5 503.0 790.2 480.5 765.4 476.0 C 740.6 471.6 703.5 482.0 684.5 498.6 C 665.5 515.3 650.5 550.7 651.7 575.9 C 652.9 601.1 671.3 635.0 691.7 649.8 C 712.2 664.6 750.1 671.3 774.4 664.6 C 798.7 657.8 795.4 643.1 837.5 609.1 C 879.6 575.2 962.9 518.9 1026.8 461.0 C 1090.7 403.2 1157.8 317.1 1221.1 262.1 C 1284.5 207.1 1344.6 187.2 1407.0 131.0 C 1469.3 74.8 1544.8 -21.5 1595.2 -75.1 C 1645.7 -128.7 1666.4 -136.6 1709.6 -190.6 C 1752.8 -244.7 1803.9 -336.1 1854.3 -399.2 C 1904.8 -462.4 1985.9 -541.0 2012.3 -569.4" stroke="#8FD11E" stroke-width="40" stroke-linecap="round" stroke-linejoin="round" opacity="0.9"></path></svg>