<svg xmlns="http://www.w3.org/2000/svg" viewBox="0 0 1920 1080" width="1920" height="1080" fill="none"><path d="M 1629.8 1311.4 C 1636.9 1299.5 1651.4 1253.7 1672.1 1239.8 C 1692.9 1226.0 1730.7 1220.7 1754.5 1228.3 C 1778.3 1235.9 1806.0 1262.1 1814.9 1285.5 C 1823.7 1308.8 1820.5 1346.8 1807.8 1368.3 C 1795.1 1389.8 1763.3 1411.0 1738.6 1414.5 C 1713.9 1417.9 1677.5 1406.3 1659.4 1389.1 C 1641.3 1372.0 1650.0 1364.4 1629.8 1311.4 C 1609.6 1258.4 1566.8 1115.3 1538.4 1071.0 C 1509.9 1026.7 1483.9 1042.2 1459.1 1045.7 C 1434.4 1049.1 1402.7 1070.3 1390.0 1091.8 C 1377.2 1113.3 1374.0 1151.3 1382.9 1174.6 C 1391.7 1198.0 1419.4 1224.2 1443.2 1231.8 C 1467.0 1239.4 1504.8 1234.2 1525.6 1220.3 C 1546.4 1206.5 1565.8 1173.6 1567.9 1148.7 C 1570.0 1123.8 1556.5 1103.6 1538.4 1071.0 C 1520.2 1038.4 1490.5 988.3 1459.2 953.4 C 1427.8 918.5 1389.0 891.3 1350.1 861.6 C 1311.2 832.0 1268.7 815.8 1225.9 775.3 C 1183.1 734.8 1153.4 668.5 1093.1 618.6 C 1032.7 568.6 930.2 535.4 863.7 475.5 C 797.1 415.6 736.1 295.2 693.9 259.1 C 651.8 222.9 633.4 247.7 610.8 258.4 C 588.2 269.0 564.2 298.7 558.4 323.0 C 552.6 347.3 560.8 384.5 576.2 404.2 C 591.7 423.8 625.9 440.7 650.9 440.9 C 675.8 441.1 710.4 424.8 726.1 405.4 C 741.8 386.0 750.6 348.9 745.3 324.5 C 739.9 300.1 716.8 289.1 693.9 259.1 C 671.1 229.0 656.9 192.3 608.0 144.0 C 559.2 95.7 458.1 33.5 400.8 -30.9 C 343.4 -95.2 304.4 -172.2 263.8 -241.9 C 223.2 -311.7 191.1 -398.0 157.1 -449.2 C 123.0 -500.4 99.1 -502.4 59.4 -549.3 C 19.7 -596.2 -37.8 -668.6 -81.2 -730.8 C -124.6 -793.0 -170.2 -859.7 -201.1 -922.3 C -231.9 -984.8 -242.4 -1037.0 -266.2 -1106.1 C -289.9 -1175.2 -322.0 -1259.7 -343.6 -1336.9 C -365.2 -1414.2 -370.6 -1503.3 -395.8 -1569.8 C -421.0 -1636.3 -451.6 -1685.9 -495.0 -1735.8 C -538.4 -1785.7 -594.1 -1829.2 -656.2 -1869.2 C -718.3 -1909.2 -788.9 -1951.9 -867.5 -1975.8 C -946.1 -1999.7 -1084.4 -2006.5 -1127.8 -2012.6" stroke="#C6F66E" stroke-width="45" stroke-linecap="round" stroke-linejoin="round" opacity="0.9628165447385981"></path><path d="M 1680.0 1132.0 C 1650.4 1091.9 1569.8 961.1 1502.5 891.5 C 1435.1 821.8 1338.1 769.0 1276.1 714.0 C 1214.0 659.0 1175.5 618.2 1130.3 561.4 C 1085.1 504.7 1040.7 434.8 1005.0 373.5 C 969.2 312.2 955.6 260.5 915.7 193.7 C 875.8 127.0 827.9 37.0 765.5 -27.1 C 703.1 -91.2 613.9 -128.1 541.3 -190.8 C 468.8 -253.6 393.0 -337.4 330.2 -403.6 C 267.4 -469.7 228.0 -523.1 164.5 -587.7 C 101.1 -652.4 -14.3 -742.6 -50.5 -791.7 C -86.8 -840.9 -62.9 -856.3 -52.9 -882.4 C -42.9 -908.5 -16.0 -936.9 9.5 -948.3 C 35.0 -959.6 74.1 -960.7 100.2 -950.6 C 126.3 -940.6 154.6 -913.7 166.0 -888.2 C 177.4 -862.7 178.4 -823.6 168.4 -797.5 C 158.4 -771.4 131.5 -743.1 106.0 -731.7 C 80.4 -720.3 41.4 -719.3 15.3 -729.3 C -10.8 -739.3 -10.5 -761.9 -50.5 -791.7 C -90.6 -821.5 -168.9 -871.9 -224.8 -908.1 C -280.7 -944.2 -319.6 -977.2 -385.8 -1008.7 C -452.0 -1040.2 -547.6 -1071.6 -621.9 -1097.1 C -696.3 -1122.7 -796.7 -1151.2 -831.7 -1162.1" stroke="#1F8A5B" stroke-width="58" stroke-linecap="round" stroke-linejoin="round" opacity="0.8499066594056784"></path><path d="M 1448.2 -222.6 C 1432.4 -221.1 1380.4 -203.9 1353.7 -213.9 C 1326.9 -223.8 1296.8 -255.2 1287.9 -282.3 C 1279.0 -309.4 1284.8 -352.6 1300.4 -376.4 C 1316.0 -400.2 1353.4 -422.7 1381.8 -425.3 C 1410.1 -427.9 1451.0 -412.7 1470.7 -392.2 C 1490.5 -371.6 1504.0 -330.2 1500.3 -302.0 C 1496.5 -273.7 1472.8 -259.0 1448.2 -222.6 C 1423.6 -186.2 1384.3 -108.0 1352.6 -83.8 C 1320.8 -59.6 1284.4 -66.6 1257.9 -77.2 C 1231.4 -87.7 1201.9 -119.8 1193.6 -147.0 C 1185.4 -174.3 1192.1 -217.4 1208.2 -240.8 C 1224.4 -264.3 1262.2 -285.9 1290.7 -287.9 C 1319.1 -289.9 1359.6 -273.8 1378.9 -252.8 C 1398.1 -231.8 1410.8 -190.1 1406.4 -162.0 C 1402.0 -133.8 1387.1 -115.6 1352.6 -83.8 C 1318.0 -51.9 1242.1 -11.9 1199.1 29.2 C 1156.1 70.2 1130.3 106.1 1094.7 162.5 C 1059.0 218.9 1019.1 310.4 985.1 367.5 C 951.1 424.6 927.3 463.5 890.8 505.2 C 854.2 546.8 816.5 556.9 765.9 617.5 C 715.4 678.2 633.1 826.1 587.5 868.9 C 542.0 911.7 519.1 885.1 492.8 874.2 C 466.4 863.3 437.4 830.8 429.5 803.5 C 421.6 776.1 428.9 733.1 445.4 709.9 C 461.9 686.6 500.0 665.6 528.5 664.0 C 557.0 662.4 597.2 679.0 616.2 700.3 C 635.2 721.6 647.2 763.4 642.5 791.5 C 637.7 819.6 623.6 825.0 587.5 868.9 C 551.5 912.8 493.6 997.7 426.4 1055.0 C 359.1 1112.4 260.2 1171.6 184.2 1213.0 C 108.2 1254.4 53.7 1282.3 -29.6 1303.4 C -112.9 1324.5 -232.8 1328.5 -315.6 1339.7 C -398.4 1350.9 -464.2 1361.3 -526.3 1370.7 C -588.4 1380.2 -622.9 1397.6 -688.1 1396.3 C -753.2 1395.1 -847.1 1370.7 -917.1 1363.4 C -987.2 1356.1 -1049.9 1351.8 -1108.4 1352.6 C -1166.9 1353.3 -1198.9 1363.5 -1268.3 1367.8 C -1337.7 1372.1 -1442.7 1370.0 -1524.8 1378.2 C -1607.0 1386.4 -1690.8 1408.1 -1761.1 1417.1 C -1831.5 1426.0 -1875.7 1431.7 -1946.8 1431.9 C -2018.0 1432.0 -2147.9 1420.4 -2188.1 1418.1" stroke="#3FB89A" stroke-width="42" stroke-linecap="round" stroke-linejoin="round" opacity="0.9945009848801418"></path><path d="M 1472.5 -76.7 C 1449.1 -50.2 1373.9 31.9 1331.9 82.3 C 1289.8 132.8 1250.2 172.2 1220.3 225.9 C 1190.4 279.6 1167.7 332.1 1152.4 404.6 C 1137.2 477.0 1124.0 578.3 1128.9 660.7 C 1133.7 743.2 1171.1 816.4 1181.7 899.3 C 1192.3 982.3 1189.5 1081.9 1192.5 1158.6 C 1195.5 1235.3 1203.2 1286.0 1199.5 1359.5 C 1195.8 1433.0 1175.3 1532.3 1170.4 1599.4 C 1165.5 1666.5 1161.5 1697.9 1170.0 1762.1 C 1178.6 1826.3 1199.4 1913.3 1221.8 1984.6 C 1244.1 2055.9 1279.9 2116.8 1304.2 2189.9 C 1328.5 2263.0 1358.3 2340.3 1367.5 2423.1 C 1376.7 2506.0 1363.1 2611.3 1359.4 2686.8 C 1355.7 2762.3 1357.0 2814.4 1345.4 2876.0 C 1333.8 2937.6 1299.2 3026.5 1289.9 3056.6" stroke="#C6F66E" stroke-width="61" stroke-linecap="round" stroke-linejoin="round" opacity="0.7615811844123527"></path><path d="M 2183.0 549.7 C 2152.9 549.9 2040.1 540.9 2002.6 550.5 C 1965.0 560.2 1962.3 586.3 1957.5 607.5 C 1952.7 628.8 1960.3 661.3 1974.0 678.3 C 1987.7 695.3 2017.8 709.6 2039.6 709.5 C 2061.4 709.4 2091.4 694.8 2104.9 677.7 C 2118.4 660.6 2125.7 628.1 2120.8 606.8 C 2115.8 585.6 2094.9 559.6 2075.2 550.2 C 2055.5 540.8 2040.4 550.4 2002.6 550.5 C 1964.7 550.7 1908.2 538.1 1848.1 551.1 C 1787.9 564.0 1694.8 602.7 1641.6 628.1 C 1588.5 653.5 1576.7 677.3 1529.1 703.6 C 1481.6 729.9 1404.8 755.0 1356.4 785.8 C 1308.0 816.6 1293.1 852.4 1238.7 888.4 C 1184.3 924.4 1079.8 966.3 1029.9 1001.9 C 980.0 1037.5 966.3 1086.1 939.1 1102.0 C 911.9 1117.9 885.6 1108.1 866.6 1097.4 C 847.6 1086.7 828.5 1059.4 825.0 1037.8 C 821.5 1016.3 830.9 984.3 845.6 968.2 C 860.3 952.0 891.1 939.5 912.9 940.9 C 934.7 942.2 963.8 958.6 976.3 976.5 C 988.8 994.4 994.1 1027.3 987.9 1048.2 C 981.7 1069.1 966.9 1070.5 939.1 1102.0 C 911.3 1133.5 850.6 1190.5 821.2 1237.3 C 791.7 1284.1 792.3 1335.5 762.5 1382.7 C 732.6 1429.9 695.5 1476.3 642.2 1520.5 C 588.9 1564.7 497.0 1608.9 442.7 1647.9 C 388.5 1686.9 349.6 1739.3 316.7 1754.8 C 283.8 1770.2 262.8 1753.8 245.4 1740.7 C 227.9 1727.6 212.6 1698.0 211.9 1676.2 C 211.3 1654.4 224.8 1624.0 241.5 1609.9 C 258.1 1595.7 290.4 1587.4 311.8 1591.6 C 333.2 1595.8 359.9 1615.8 369.9 1635.2 C 380.0 1654.5 381.0 1687.9 372.1 1707.8 C 363.2 1727.7 354.9 1735.2 316.7 1754.8 C 278.4 1774.4 175.0 1802.1 142.6 1825.4 C 110.1 1848.8 118.5 1873.6 122.0 1895.1 C 125.5 1916.7 144.6 1944.0 163.6 1954.7 C 182.6 1965.4 215.9 1967.5 236.1 1959.3 C 256.4 1951.0 278.7 1926.3 284.9 1905.4 C 291.1 1884.5 285.8 1851.6 273.3 1833.7 C 260.8 1815.8 231.7 1799.5 209.9 1798.1 C 188.1 1796.7 186.5 1800.9 142.6 1825.4 C 98.7 1850.0 14.3 1917.3 -53.3 1945.4 C -121.0 1973.6 -191.7 1985.2 -263.1 1994.4 C -334.5 2003.7 -407.9 1998.4 -481.7 2000.9 C -555.5 2003.5 -660.6 2017.5 -705.9 2009.8 C -751.2 2002.1 -747.7 1975.9 -753.4 1954.8 C -759.1 1933.8 -753.0 1901.0 -740.0 1883.4 C -727.1 1865.8 -697.7 1850.2 -675.9 1849.3 C -654.1 1848.5 -623.5 1861.7 -609.2 1878.2 C -594.9 1894.7 -586.2 1926.9 -590.3 1948.4 C -594.3 1969.8 -614.0 1996.7 -633.3 2006.9 C -652.6 2017.2 -670.5 2013.9 -705.9 2009.8 C -741.3 2005.7 -822.4 1986.9 -845.7 1982.3" stroke="#1F8A5B" stroke-width="56" stroke-linecap="round" stroke-linejoin="round" opacity="0.7273415057919919"></path></svg>