<svg xmlns="http://www.w3.org/2000/svg" viewBox="0 0 1920 1080" width="1920" height="1080" fill="none"><path d="M 1759.5 1282.3 C 1768.1 1275.2 1791.8 1244.4 1811.4 1239.6 C 1831.0 1234.8 1861.1 1241.2 1877.1 1253.5 C 1893.1 1265.9 1906.9 1293.4 1907.2 1313.6 C 1907.5 1333.8 1894.6 1361.8 1879.0 1374.6 C 1863.4 1387.4 1833.5 1394.8 1813.7 1390.6 C 1794.0 1386.4 1769.6 1367.6 1760.5 1349.5 C 1751.5 1331.5 1774.3 1325.9 1759.5 1282.3 C 1744.6 1238.8 1686.0 1143.6 1671.3 1088.2 C 1656.7 1032.8 1671.0 997.9 1671.7 949.9 C 1672.4 901.9 1667.6 845.5 1675.7 800.0 C 1683.7 754.5 1688.4 725.6 1719.9 677.1 C 1751.4 628.5 1824.2 549.0 1864.9 508.9 C 1905.6 468.7 1936.4 465.5 1964.1 436.3 C 1991.8 407.1 2008.9 351.7 2031.2 333.5 C 2053.6 315.4 2079.2 320.2 2098.1 327.2 C 2117.0 334.2 2138.5 356.4 2144.8 375.5 C 2151.1 394.7 2147.1 425.3 2136.1 442.2 C 2125.1 459.1 2098.7 475.0 2078.6 476.9 C 2058.5 478.8 2029.6 468.1 2015.6 453.6 C 2001.5 439.1 1991.9 409.8 1994.5 389.8 C 1997.1 369.8 2000.3 359.7 2031.2 333.5 C 2062.1 307.4 2135.1 277.5 2179.8 232.7 C 2224.4 188.0 2273.4 118.8 2299.0 65.1 C 2324.5 11.4 2317.4 -58.8 2333.1 -89.5 C 2348.8 -120.3 2373.2 -119.0 2393.4 -119.1 C 2413.6 -119.3 2441.5 -106.1 2454.2 -90.4 C 2466.9 -74.7 2474.0 -44.7 2469.6 -25.0 C 2465.3 -5.3 2446.2 18.9 2428.1 27.8 C 2410.0 36.7 2379.1 36.9 2360.9 28.3 C 2342.7 19.7 2323.3 -4.3 2318.6 -23.9 C 2314.0 -43.6 2331.0 -44.3 2333.1 -89.5 C 2335.2 -134.8 2327.5 -231.0 2331.0 -295.3 C 2334.4 -359.6 2332.9 -412.8 2353.8 -475.3 C 2374.6 -537.9 2420.1 -607.4 2456.0 -670.8 C 2491.9 -734.1 2522.1 -806.1 2569.1 -855.4 C 2616.1 -904.7 2688.9 -941.6 2737.9 -966.5 C 2786.9 -991.5 2810.2 -982.8 2863.2 -1005.1 C 2916.2 -1027.3 3003.3 -1062.1 3055.9 -1100.1 C 3108.5 -1138.1 3144.8 -1189.4 3179.0 -1233.0 C 3213.2 -1276.6 3236.2 -1308.9 3261.0 -1361.7 C 3285.8 -1414.5 3302.7 -1504.7 3327.7 -1549.8 C 3352.7 -1594.9 3375.2 -1608.8 3410.9 -1632.5 C 3446.7 -1656.3 3505.6 -1670.2 3542.3 -1692.4 C 3579.1 -1714.5 3585.1 -1745.7 3631.4 -1765.6 C 3677.7 -1785.4 3788.7 -1803.9 3820.1 -1811.6" stroke="#07231A" stroke-width="61" stroke-linecap="round" stroke-linejoin="round"></path><path d="M 1759.5 1282.3 C 1768.1 1275.2 1791.8 1244.4 1811.4 1239.6 C 1831.0 1234.8 1861.1 1241.2 1877.1 1253.5 C 1893.1 1265.9 1906.9 1293.4 1907.2 1313.6 C 1907.5 1333.8 1894.6 1361.8 1879.0 1374.6 C 1863.4 1387.4 1833.5 1394.8 1813.7 1390.6 C 1794.0 1386.4 1769.6 1367.6 1760.5 1349.5 C 1751.5 1331.5 1774.3 1325.9 1759.5 1282.3 C 1744.6 1238.8 1686.0 1143.6 1671.3 1088.2 C 1656.7 1032.8 1671.0 997.9 1671.7 949.9 C 1672.4 901.9 1667.6 845.5 1675.7 800.0 C 1683.7 754.5 1688.4 725.6 1719.9 677.1 C 1751.4 628.5 1824.2 549.0 1864.9 508.9 C 1905.6 468.7 1936.4 465.5 1964.1 436.3 C 1991.8 407.1 2008.9 351.7 2031.2 333.5 C 2053.6 315.4 2079.2 320.2 2098.1 327.2 C 2117.0 334.2 2138.5 356.4 2144.8 375.5 C 2151.1 394.7 2147.1 425.3 2136.1 442.2 C 2125.1 459.1 2098.7 475.0 2078.6 476.9 C 2058.5 478.8 2029.6 468.1 2015.6 453.6 C 2001.5 439.1 1991.9 409.8 1994.5 389.8 C 1997.1 369.8 2000.3 359.7 2031.2 333.5 C 2062.1 307.4 2135.1 277.5 2179.8 232.7 C 2224.4 188.0 2273.4 118.8 2299.0 65.1 C 2324.5 11.4 2317.4 -58.8 2333.1 -89.5 C 2348.8 -120.3 2373.2 -119.0 2393.4 -119.1 C 2413.6 -119.3 2441.5 -106.1 2454.2 -90.4 C 2466.9 -74.7 2474.0 -44.7 2469.6 -25.0 C 2465.3 -5.3 2446.2 18.9 2428.1 27.8 C 2410.0 36.7 2379.1 36.9 2360.9 28.3 C 2342.7 19.7 2323.3 -4.3 2318.6 -23.9 C 2314.0 -43.6 2331.0 -44.3 2333.1 -89.5 C 2335.2 -134.8 2327.5 -231.0 2331.0 -295.3 C 2334.4 -359.6 2332.9 -412.8 2353.8 -475.3 C 2374.6 -537.9 2420.1 -607.4 2456.0 -670.8 C 2491.9 -734.1 2522.1 -806.1 2569.1 -855.4 C 2616.1 -904.7 2688.9 -941.6 2737.9 -966.5 C 2786.9 -991.5 2810.2 -982.8 2863.2 -1005.1 C 2916.2 -1027.3 3003.3 -1062.1 3055.9 -1100.1 C 3108.5 -1138.1 3144.8 -1189.4 3179.0 -1233.0 C 3213.2 -1276.6 3236.2 -1308.9 3261.0 -1361.7 C 3285.8 -1414.5 3302.7 -1504.7 3327.7 -1549.8 C 3352.7 -1594.9 3375.2 -1608.8 3410.9 -1632.5 C 3446.7 -1656.3 3505.6 -1670.2 3542.3 -1692.4 C 3579.1 -1714.5 3585.1 -1745.7 3631.4 -1765.6 C 3677.7 -1785.4 3788.7 -1803.9 3820.1 -1811.6" stroke="#1F8A5B" stroke-width="47" stroke-linecap="round" stroke-linejoin="round" opacity="0.8057212312938645"></path><path d="M 434.4 1226.6 C 469.2 1192.0 587.3 1088.0 643.2 1018.9 C 699.1 949.7 731.6 870.1 769.8 811.9 C 808.0 753.7 848.7 727.0 872.3 669.7 C 895.9 612.4 882.1 540.5 911.3 468.1 C 940.5 395.6 1002.5 301.5 1047.5 235.0 C 1092.4 168.5 1152.6 123.4 1181.1 69.2 C 1209.7 14.9 1192.1 -20.1 1218.7 -90.7 C 1245.3 -161.3 1305.4 -266.0 1340.7 -354.4 C 1376.0 -442.8 1414.1 -542.9 1430.5 -621.1 C 1447.0 -699.3 1441.5 -757.2 1439.2 -823.7 C 1436.9 -890.1 1421.7 -947.5 1416.8 -1019.9 C 1411.9 -1092.2 1416.3 -1193.6 1409.8 -1257.8 C 1403.2 -1322.0 1383.6 -1353.6 1377.3 -1405.0 C 1371.1 -1456.4 1363.6 -1514.8 1372.3 -1566.1 C 1381.0 -1617.4 1427.4 -1675.4 1429.3 -1712.8 C 1431.3 -1750.2 1406.5 -1775.4 1384.1 -1790.5 C 1361.8 -1805.7 1321.0 -1811.7 1295.2 -1803.6 C 1269.5 -1795.6 1239.3 -1767.4 1229.5 -1742.3 C 1219.8 -1717.1 1223.0 -1676.0 1236.5 -1652.7 C 1250.1 -1629.3 1284.3 -1606.2 1311.0 -1602.3 C 1337.7 -1598.4 1377.0 -1610.6 1396.8 -1629.1 C 1416.5 -1647.5 1410.4 -1671.0 1429.3 -1712.8 C 1448.3 -1754.6 1481.4 -1811.0 1510.5 -1879.8 C 1539.5 -1948.7 1587.4 -2057.6 1603.6 -2125.9 C 1619.9 -2194.2 1625.4 -2219.4 1607.8 -2289.5 C 1590.3 -2359.7 1534.5 -2485.0 1498.1 -2546.7 C 1461.7 -2608.3 1424.4 -2613.4 1389.5 -2659.5 C 1354.6 -2705.6 1305.4 -2796.0 1288.6 -2823.2" stroke="#07231A" stroke-width="60" stroke-linecap="round" stroke-linejoin="round"></path><path d="M 434.4 1226.6 C 469.2 1192.0 587.3 1088.0 643.2 1018.9 C 699.1 949.7 731.6 870.1 769.8 811.9 C 808.0 753.7 848.7 727.0 872.3 669.7 C 895.9 612.4 882.1 540.5 911.3 468.1 C 940.5 395.6 1002.5 301.5 1047.5 235.0 C 1092.4 168.5 1152.6 123.4 1181.1 69.2 C 1209.7 14.9 1192.1 -20.1 1218.7 -90.7 C 1245.3 -161.3 1305.4 -266.0 1340.7 -354.4 C 1376.0 -442.8 1414.1 -542.9 1430.5 -621.1 C 1447.0 -699.3 1441.5 -757.2 1439.2 -823.7 C 1436.9 -890.1 1421.7 -947.5 1416.8 -1019.9 C 1411.9 -1092.2 1416.3 -1193.6 1409.8 -1257.8 C 1403.2 -1322.0 1383.6 -1353.6 1377.3 -1405.0 C 1371.1 -1456.4 1363.6 -1514.8 1372.3 -1566.1 C 1381.0 -1617.4 1427.4 -1675.4 1429.3 -1712.8 C 1431.3 -1750.2 1406.5 -1775.4 1384.1 -1790.5 C 1361.8 -1805.7 1321.0 -1811.7 1295.2 -1803.6 C 1269.5 -1795.6 1239.3 -1767.4 1229.5 -1742.3 C 1219.8 -1717.1 1223.0 -1676.0 1236.5 -1652.7 C 1250.1 -1629.3 1284.3 -1606.2 1311.0 -1602.3 C 1337.7 -1598.4 1377.0 -1610.6 1396.8 -1629.1 C 1416.5 -1647.5 1410.4 -1671.0 1429.3 -1712.8 C 1448.3 -1754.6 1481.4 -1811.0 1510.5 -1879.8 C 1539.5 -1948.7 1587.4 -2057.6 1603.6 -2125.9 C 1619.9 -2194.2 1625.4 -2219.4 1607.8 -2289.5 C 1590.3 -2359.7 1534.5 -2485.0 1498.1 -2546.7 C 1461.7 -2608.3 1424.4 -2613.4 1389.5 -2659.5 C 1354.6 -2705.6 1305.4 -2796.0 1288.6 -2823.2" stroke="#C6F66E" stroke-width="46" stroke-linecap="round" stroke-linejoin="round" opacity="0.8531862551812082"></path><path d="M 2033.9 425.1 C 1988.9 445.4 1847.2 508.7 1764.0 546.9 C 1680.9 585.1 1611.9 614.9 1534.9 654.3 C 1457.8 693.6 1377.5 734.3 1301.7 783.1 C 1225.9 831.8 1144.2 896.0 1080.0 946.6 C 1015.7 997.1 958.0 1065.9 916.0 1086.4 C 874.1 1106.9 849.8 1085.4 828.2 1069.4 C 806.7 1053.3 787.6 1017.0 786.8 990.1 C 785.9 963.3 802.4 925.7 822.9 908.3 C 843.3 890.8 883.0 880.4 909.4 885.5 C 935.8 890.6 968.7 915.1 981.1 938.9 C 993.6 962.8 994.9 1003.8 984.1 1028.4 C 973.2 1052.9 951.8 1034.9 916.0 1086.4 C 880.2 1137.9 810.4 1265.3 769.3 1337.2 C 728.2 1409.2 701.0 1485.3 669.7 1518.0 C 638.4 1550.6 607.4 1540.5 581.5 1533.1 C 555.7 1525.7 525.1 1498.4 514.8 1473.6 C 504.4 1448.8 506.7 1407.8 519.7 1384.2 C 532.6 1360.7 566.1 1336.9 592.5 1332.4 C 619.0 1327.8 658.5 1339.2 678.5 1357.0 C 698.6 1374.9 714.4 1412.8 712.9 1439.6 C 711.4 1466.5 706.7 1467.1 669.7 1518.0 C 632.7 1568.8 532.9 1679.8 490.8 1744.7 C 448.8 1809.6 438.5 1832.3 417.4 1907.4 C 396.3 1982.6 381.1 2117.6 364.3 2195.5 C 347.6 2273.4 342.6 2304.2 316.9 2374.8 C 291.2 2445.5 242.4 2574.7 210.3 2619.3 C 178.1 2663.9 150.3 2647.4 123.9 2642.4 C 97.5 2637.4 64.4 2613.1 51.9 2589.3 C 39.3 2565.5 37.8 2524.5 48.5 2499.9 C 59.3 2475.3 90.4 2448.5 116.3 2441.5 C 142.3 2434.6 182.6 2442.2 204.2 2458.2 C 225.9 2474.1 245.0 2510.4 246.0 2537.3 C 247.0 2564.1 219.0 2567.5 210.3 2619.3 C 201.5 2671.0 187.7 2776.0 193.5 2847.5 C 199.4 2919.0 223.3 3008.6 245.6 3048.1 C 267.9 3087.6 300.4 3085.3 327.3 3084.5 C 354.1 3083.7 390.6 3064.8 406.7 3043.3 C 422.8 3021.8 430.8 2981.6 424.0 2955.6 C 417.3 2929.6 390.8 2898.2 366.2 2887.3 C 341.7 2876.4 300.7 2877.6 276.8 2889.9 C 253.0 2902.3 228.3 2935.1 223.1 2961.5 C 217.9 2987.8 234.4 3002.1 245.6 3048.1 C 256.7 3094.1 279.6 3178.1 290.1 3237.6 C 300.7 3297.1 292.8 3344.3 308.9 3405.1 C 325.0 3466.0 381.3 3556.9 386.9 3602.7 C 392.5 3648.6 364.5 3665.1 342.3 3680.3 C 320.1 3695.5 279.6 3701.7 253.9 3693.8 C 228.2 3685.9 198.0 3658.1 188.2 3633.1 C 178.3 3608.1 181.3 3567.1 194.7 3543.8 C 208.1 3520.5 242.0 3497.4 268.5 3493.3 C 295.1 3489.3 334.3 3501.3 354.0 3519.5 C 373.8 3537.8 357.4 3563.9 386.9 3602.7 C 416.4 3641.6 483.3 3704.7 531.1 3752.4 C 578.9 3800.2 651.2 3851.6 673.6 3889.3 C 695.9 3927.0 679.2 3955.4 665.3 3978.4 C 651.5 4001.4 617.2 4023.9 590.5 4027.5 C 563.9 4031.0 524.9 4018.2 505.5 3999.6 C 486.2 3981.0 471.8 3942.5 474.3 3915.8 C 476.8 3889.0 497.9 3853.9 520.4 3839.1 C 542.8 3824.4 583.5 3819.0 609.1 3827.3 C 634.6 3835.7 640.3 3849.6 673.6 3889.3 C 706.8 3929.0 769.2 4015.7 808.5 4065.5 C 847.7 4115.4 892.3 4167.9 909.1 4188.4" stroke="#07231A" stroke-width="62" stroke-linecap="round" stroke-linejoin="round"></path><path d="M 2033.9 425.1 C 1988.9 445.4 1847.2 508.7 1764.0 546.9 C 1680.9 585.1 1611.9 614.9 1534.9 654.3 C 1457.8 693.6 1377.5 734.3 1301.7 783.1 C 1225.9 831.8 1144.2 896.0 1080.0 946.6 C 1015.7 997.1 958.0 1065.9 916.0 1086.4 C 874.1 1106.9 849.8 1085.4 828.2 1069.4 C 806.7 1053.3 787.6 1017.0 786.8 990.1 C 785.9 963.3 802.4 925.7 822.9 908.3 C 843.3 890.8 883.0 880.4 909.4 885.5 C 935.8 890.6 968.7 915.1 981.1 938.9 C 993.6 962.8 994.9 1003.8 984.1 1028.4 C 973.2 1052.9 951.8 1034.9 916.0 1086.4 C 880.2 1137.9 810.4 1265.3 769.3 1337.2 C 728.2 1409.2 701.0 1485.3 669.7 1518.0 C 638.4 1550.6 607.4 1540.5 581.5 1533.1 C 555.7 1525.7 525.1 1498.4 514.8 1473.6 C 504.4 1448.8 506.7 1407.8 519.7 1384.2 C 532.6 1360.7 566.1 1336.9 592.5 1332.4 C 619.0 1327.8 658.5 1339.2 678.5 1357.0 C 698.6 1374.9 714.4 1412.8 712.9 1439.6 C 711.4 1466.5 706.7 1467.1 669.7 1518.0 C 632.7 1568.8 532.9 1679.8 490.8 1744.7 C 448.8 1809.6 438.5 1832.3 417.4 1907.4 C 396.3 1982.6 381.1 2117.6 364.3 2195.5 C 347.6 2273.4 342.6 2304.2 316.9 2374.8 C 291.2 2445.5 242.4 2574.7 210.3 2619.3 C 178.1 2663.9 150.3 2647.4 123.9 2642.4 C 97.5 2637.4 64.4 2613.1 51.9 2589.3 C 39.3 2565.5 37.8 2524.5 48.5 2499.9 C 59.3 2475.3 90.4 2448.5 116.3 2441.5 C 142.3 2434.6 182.6 2442.2 204.2 2458.2 C 225.9 2474.1 245.0 2510.4 246.0 2537.3 C 247.0 2564.1 219.0 2567.5 210.3 2619.3 C 201.5 2671.0 187.7 2776.0 193.5 2847.5 C 199.4 2919.0 223.3 3008.6 245.6 3048.1 C 267.9 3087.6 300.4 3085.3 327.3 3084.5 C 354.1 3083.7 390.6 3064.8 406.7 3043.3 C 422.8 3021.8 430.8 2981.6 424.0 2955.6 C 417.3 2929.6 390.8 2898.2 366.2 2887.3 C 341.7 2876.4 300.7 2877.6 276.8 2889.9 C 253.0 2902.3 228.3 2935.1 223.1 2961.5 C 217.9 2987.8 234.4 3002.1 245.6 3048.1 C 256.7 3094.1 279.6 3178.1 290.1 3237.6 C 300.7 3297.1 292.8 3344.3 308.9 3405.1 C 325.0 3466.0 381.3 3556.9 386.9 3602.7 C 392.5 3648.6 364.5 3665.1 342.3 3680.3 C 320.1 3695.5 279.6 3701.7 253.9 3693.8 C 228.2 3685.9 198.0 3658.1 188.2 3633.1 C 178.3 3608.1 181.3 3567.1 194.7 3543.8 C 208.1 3520.5 242.0 3497.4 268.5 3493.3 C 295.1 3489.3 334.3 3501.3 354.0 3519.5 C 373.8 3537.8 357.4 3563.9 386.9 3602.7 C 416.4 3641.6 483.3 3704.7 531.1 3752.4 C 578.9 3800.2 651.2 3851.6 673.6 3889.3 C 695.9 3927.0 679.2 3955.4 665.3 3978.4 C 651.5 4001.4 617.2 4023.9 590.5 4027.5 C 563.9 4031.0 524.9 4018.2 505.5 3999.6 C 486.2 3981.0 471.8 3942.5 474.3 3915.8 C 476.8 3889.0 497.9 3853.9 520.4 3839.1 C 542.8 3824.4 583.5 3819.0 609.1 3827.3 C 634.6 3835.7 640.3 3849.6 673.6 3889.3 C 706.8 3929.0 769.2 4015.7 808.5 4065.5 C 847.7 4115.4 892.3 4167.9 909.1 4188.4" stroke="#3FB89A" stroke-width="48" stroke-linecap="round" stroke-linejoin="round" opacity="0.8505293934606015"></path><path d="M 2012.0 420.1 C 2000.9 411.7 1956.5 392.0 1945.0 369.6 C 1933.4 347.1 1932.4 308.6 1942.7 285.6 C 1953.0 262.6 1982.5 237.7 2006.9 231.5 C 2031.4 225.2 2069.2 232.8 2089.3 247.9 C 2109.4 263.1 2127.1 297.4 2127.8 322.6 C 2128.5 347.8 2112.7 383.0 2093.4 399.3 C 2074.1 415.5 2048.8 402.5 2012.0 420.1 C 1975.3 437.8 1921.0 481.5 1873.0 505.0 C 1825.0 528.4 1785.3 526.1 1723.9 560.7 C 1662.6 595.3 1574.0 677.3 1505.1 712.6 C 1436.3 748.0 1363.4 744.6 1310.9 772.8 C 1258.5 801.0 1224.2 865.9 1190.2 881.8 C 1156.3 897.7 1128.0 882.7 1107.3 868.2 C 1086.7 853.7 1067.9 820.1 1066.3 794.9 C 1064.8 769.7 1079.3 734.0 1098.0 717.1 C 1116.8 700.2 1153.7 689.3 1178.6 693.4 C 1203.5 697.5 1235.1 719.7 1247.4 741.7 C 1259.7 763.7 1262.1 802.2 1252.6 825.5 C 1243.0 848.9 1226.4 857.2 1190.2 881.8 C 1154.0 906.5 1103.5 938.8 1035.4 973.5 C 967.3 1008.3 850.2 1045.5 781.7 1090.3 C 713.1 1135.1 664.2 1218.8 624.1 1242.3 C 583.9 1265.9 561.9 1245.2 540.8 1231.4 C 519.7 1217.6 499.8 1184.6 497.4 1159.5 C 495.0 1134.4 508.4 1098.3 526.6 1080.7 C 544.7 1063.2 581.3 1051.2 606.3 1054.4 C 631.3 1057.7 663.6 1078.8 676.6 1100.4 C 689.7 1122.0 693.3 1160.4 684.5 1184.0 C 675.8 1207.7 656.1 1199.7 624.1 1242.3 C 592.1 1285.0 510.3 1393.5 492.7 1439.8 C 475.1 1486.0 501.0 1501.5 518.4 1519.8 C 535.7 1538.1 571.8 1551.7 596.9 1549.6 C 622.0 1547.4 655.2 1527.8 669.2 1506.8 C 683.1 1485.8 688.4 1447.6 680.7 1423.6 C 673.0 1399.5 646.5 1371.6 622.9 1362.6 C 599.3 1353.7 560.9 1357.0 539.2 1369.9 C 517.5 1382.7 513.8 1393.3 492.7 1439.8 C 471.6 1486.3 434.7 1584.4 412.6 1649.0 C 390.5 1713.7 377.3 1771.2 360.0 1827.8 C 342.7 1884.5 335.5 1933.1 308.8 1989.0 C 282.1 2044.8 243.1 2107.4 199.5 2163.0 C 155.9 2218.5 90.4 2274.2 47.3 2322.0 C 4.1 2369.8 -28.3 2402.0 -59.3 2449.7 C -90.2 2497.4 -131.3 2569.1 -138.6 2608.2 C -146.0 2647.3 -122.8 2668.4 -103.3 2684.4 C -83.9 2700.5 -46.4 2709.6 -21.7 2704.4 C 2.9 2699.2 33.4 2675.6 44.7 2653.0 C 56.0 2630.5 56.6 2591.9 46.0 2569.0 C 35.4 2546.1 5.7 2521.7 -18.8 2515.7 C -43.3 2509.7 -81.0 2517.7 -101.0 2533.1 C -121.0 2548.5 -127.9 2560.7 -138.6 2608.2 C -149.3 2655.7 -170.5 2773.0 -165.1 2818.0 C -159.8 2863.0 -130.3 2869.6 -106.6 2878.2 C -82.9 2886.9 -44.5 2883.1 -23.0 2870.0 C -1.4 2856.8 19.5 2824.5 22.7 2799.5 C 25.8 2774.4 13.6 2737.9 -4.0 2719.8 C -21.6 2701.7 -57.8 2688.5 -82.9 2691.0 C -108.0 2693.5 -140.9 2713.5 -154.6 2734.7 C -168.3 2755.9 -152.4 2761.0 -165.1 2818.0 C -177.9 2875.1 -216.1 3005.4 -231.1 3077.2 C -246.1 3148.9 -261.6 3184.1 -255.1 3248.8 C -248.6 3313.5 -203.7 3394.0 -192.1 3465.3 C -180.5 3536.7 -186.5 3641.6 -185.4 3676.9" stroke="#07231A" stroke-width="55" stroke-linecap="round" stroke-linejoin="round"></path><path d="M 2012.0 420.1 C 2000.9 411.7 1956.5 392.0 1945.0 369.6 C 1933.4 347.1 1932.4 308.6 1942.7 285.6 C 1953.0 262.6 1982.5 237.7 2006.9 231.5 C 2031.4 225.2 2069.2 232.8 2089.3 247.9 C 2109.4 263.1 2127.1 297.4 2127.8 322.6 C 2128.5 347.8 2112.7 383.0 2093.4 399.3 C 2074.1 415.5 2048.8 402.5 2012.0 420.1 C 1975.3 437.8 1921.0 481.5 1873.0 505.0 C 1825.0 528.4 1785.3 526.1 1723.9 560.7 C 1662.6 595.3 1574.0 677.3 1505.1 712.6 C 1436.3 748.0 1363.4 744.6 1310.9 772.8 C 1258.5 801.0 1224.2 865.9 1190.2 881.8 C 1156.3 897.7 1128.0 882.7 1107.3 868.2 C 1086.7 853.7 1067.9 820.1 1066.3 794.9 C 1064.8 769.7 1079.3 734.0 1098.0 717.1 C 1116.8 700.2 1153.7 689.3 1178.6 693.4 C 1203.5 697.5 1235.1 719.7 1247.4 741.7 C 1259.7 763.7 1262.1 802.2 1252.6 825.5 C 1243.0 848.9 1226.4 857.2 1190.2 881.8 C 1154.0 906.5 1103.5 938.8 1035.4 973.5 C 967.3 1008.3 850.2 1045.5 781.7 1090.3 C 713.1 1135.1 664.2 1218.8 624.1 1242.3 C 583.9 1265.9 561.9 1245.2 540.8 1231.4 C 519.7 1217.6 499.8 1184.6 497.4 1159.5 C 495.0 1134.4 508.4 1098.3 526.6 1080.7 C 544.7 1063.2 581.3 1051.2 606.3 1054.4 C 631.3 1057.7 663.6 1078.8 676.6 1100.4 C 689.7 1122.0 693.3 1160.4 684.5 1184.0 C 675.8 1207.7 656.1 1199.7 624.1 1242.3 C 592.1 1285.0 510.3 1393.5 492.7 1439.8 C 475.1 1486.0 501.0 1501.5 518.4 1519.8 C 535.7 1538.1 571.8 1551.7 596.9 1549.6 C 622.0 1547.4 655.2 1527.8 669.2 1506.8 C 683.1 1485.8 688.4 1447.6 680.7 1423.6 C 673.0 1399.5 646.5 1371.6 622.9 1362.6 C 599.3 1353.7 560.9 1357.0 539.2 1369.9 C 517.5 1382.7 513.8 1393.3 492.7 1439.8 C 471.6 1486.3 434.7 1584.4 412.6 1649.0 C 390.5 1713.7 377.3 1771.2 360.0 1827.8 C 342.7 1884.5 335.5 1933.1 308.8 1989.0 C 282.1 2044.8 243.1 2107.4 199.5 2163.0 C 155.9 2218.5 90.4 2274.2 47.3 2322.0 C 4.1 2369.8 -28.3 2402.0 -59.3 2449.7 C -90.2 2497.4 -131.3 2569.1 -138.6 2608.2 C -146.0 2647.3 -122.8 2668.4 -103.3 2684.4 C -83.9 2700.5 -46.4 2709.6 -21.7 2704.4 C 2.9 2699.2 33.4 2675.6 44.7 2653.0 C 56.0 2630.5 56.6 2591.9 46.0 2569.0 C 35.4 2546.1 5.7 2521.7 -18.8 2515.7 C -43.3 2509.7 -81.0 2517.7 -101.0 2533.1 C -121.0 2548.5 -127.9 2560.7 -138.6 2608.2 C -149.3 2655.7 -170.5 2773.0 -165.1 2818.0 C -159.8 2863.0 -130.3 2869.6 -106.6 2878.2 C -82.9 2886.9 -44.5 2883.1 -23.0 2870.0 C -1.4 2856.8 19.5 2824.5 22.7 2799.5 C 25.8 2774.4 13.6 2737.9 -4.0 2719.8 C -21.6 2701.7 -57.8 2688.5 -82.9 2691.0 C -108.0 2693.5 -140.9 2713.5 -154.6 2734.7 C -168.3 2755.9 -152.4 2761.0 -165.1 2818.0 C -177.9 2875.1 -216.1 3005.4 -231.1 3077.2 C -246.1 3148.9 -261.6 3184.1 -255.1 3248.8 C -248.6 3313.5 -203.7 3394.0 -192.1 3465.3 C -180.5 3536.7 -186.5 3641.6 -185.4 3676.9" stroke="#A3E635" stroke-width="41" stroke-linecap="round" stroke-linejoin="round" opacity="0.71468251273036"></path><path d="M 375.8 1349.9 C 386.5 1328.5 427.0 1288.0 440.0 1221.3 C 453.0 1154.7 452.4 1038.4 453.9 950.0 C 455.4 861.7 443.5 777.2 448.9 691.3 C 454.2 605.3 467.5 507.7 486.2 434.2 C 504.8 360.6 530.1 317.0 560.6 249.9 C 591.1 182.7 645.3 107.3 669.0 31.3 C 692.6 -44.6 685.6 -125.4 702.5 -205.8 C 719.4 -286.2 739.4 -384.4 770.6 -451.1 C 801.7 -517.7 846.5 -554.6 889.4 -605.6 C 932.3 -656.7 1005.3 -718.1 1027.7 -757.5 C 1050.1 -796.9 1034.8 -818.3 1023.8 -841.8 C 1012.7 -865.4 985.8 -889.8 961.4 -898.7 C 936.9 -907.5 900.6 -905.8 877.0 -894.7 C 853.5 -883.7 829.0 -856.8 820.2 -832.3 C 811.4 -807.9 813.1 -771.5 824.1 -748.0 C 835.2 -724.5 862.1 -700.0 886.5 -691.1 C 911.0 -682.3 947.3 -684.0 970.9 -695.1 C 994.4 -706.1 981.3 -728.7 1027.7 -757.5 C 1074.1 -786.3 1189.7 -836.9 1249.1 -867.7 C 1308.6 -898.5 1348.4 -933.9 1384.4 -942.4 C 1420.5 -951.0 1445.2 -935.3 1465.6 -919.1 C 1485.9 -902.9 1503.5 -871.0 1506.4 -845.2 C 1509.3 -819.3 1499.2 -784.4 1483.0 -764.1 C 1466.8 -743.7 1435.0 -726.1 1409.1 -723.2 C 1383.3 -720.3 1348.3 -730.4 1328.0 -746.6 C 1307.7 -762.8 1290.1 -794.7 1287.2 -820.5 C 1284.3 -846.3 1294.3 -881.3 1310.6 -901.6 C 1326.8 -921.9 1347.3 -928.4 1384.4 -942.4 C 1421.6 -956.5 1471.1 -976.1 1533.3 -986.1 C 1595.6 -996.1 1675.0 -991.2 1757.9 -1002.6 C 1840.8 -1014.0 1945.8 -1029.0 2030.6 -1054.4 C 2115.4 -1079.9 2195.2 -1135.2 2266.6 -1155.1 C 2338.0 -1175.0 2404.2 -1177.2 2459.1 -1173.8 C 2514.1 -1170.3 2573.4 -1140.9 2596.2 -1134.3" stroke="#07231A" stroke-width="62" stroke-linecap="round" stroke-linejoin="round"></path><path d="M 375.8 1349.9 C 386.5 1328.5 427.0 1288.0 440.0 1221.3 C 453.0 1154.7 452.4 1038.4 453.9 950.0 C 455.4 861.7 443.5 777.2 448.9 691.3 C 454.2 605.3 467.5 507.7 486.2 434.2 C 504.8 360.6 530.1 317.0 560.6 249.9 C 591.1 182.7 645.3 107.3 669.0 31.3 C 692.6 -44.6 685.6 -125.4 702.5 -205.8 C 719.4 -286.2 739.4 -384.4 770.6 -451.1 C 801.7 -517.7 846.5 -554.6 889.4 -605.6 C 932.3 -656.7 1005.3 -718.1 1027.7 -757.5 C 1050.1 -796.9 1034.8 -818.3 1023.8 -841.8 C 1012.7 -865.4 985.8 -889.8 961.4 -898.7 C 936.9 -907.5 900.6 -905.8 877.0 -894.7 C 853.5 -883.7 829.0 -856.8 820.2 -832.3 C 811.4 -807.9 813.1 -771.5 824.1 -748.0 C 835.2 -724.5 862.1 -700.0 886.5 -691.1 C 911.0 -682.3 947.3 -684.0 970.9 -695.1 C 994.4 -706.1 981.3 -728.7 1027.7 -757.5 C 1074.1 -786.3 1189.7 -836.9 1249.1 -867.7 C 1308.6 -898.5 1348.4 -933.9 1384.4 -942.4 C 1420.5 -951.0 1445.2 -935.3 1465.6 -919.1 C 1485.9 -902.9 1503.5 -871.0 1506.4 -845.2 C 1509.3 -819.3 1499.2 -784.4 1483.0 -764.1 C 1466.8 -743.7 1435.0 -726.1 1409.1 -723.2 C 1383.3 -720.3 1348.3 -730.4 1328.0 -746.6 C 1307.7 -762.8 1290.1 -794.7 1287.2 -820.5 C 1284.3 -846.3 1294.3 -881.3 1310.6 -901.6 C 1326.8 -921.9 1347.3 -928.4 1384.4 -942.4 C 1421.6 -956.5 1471.1 -976.1 1533.3 -986.1 C 1595.6 -996.1 1675.0 -991.2 1757.9 -1002.6 C 1840.8 -1014.0 1945.8 -1029.0 2030.6 -1054.4 C 2115.4 -1079.9 2195.2 -1135.2 2266.6 -1155.1 C 2338.0 -1175.0 2404.2 -1177.2 2459.1 -1173.8 C 2514.1 -1170.3 2573.4 -1140.9 2596.2 -1134.3" stroke="#1F8A5B" stroke-width="48" stroke-linecap="round" stroke-linejoin="round" opacity="0.951816017879173"></path><path d="M 1598.7 1172.5 C 1576.1 1145.6 1518.9 1060.8 1463.4 1011.3 C 1408.0 961.7 1316.2 912.0 1266.0 875.2 C 1215.8 838.5 1215.3 821.5 1162.1 791.0 C 1109.0 760.5 1011.4 732.4 947.1 692.2 C 882.8 652.0 839.5 587.6 776.1 549.9 C 712.8 512.1 626.5 496.5 566.8 465.5 C 507.1 434.5 466.7 389.7 418.2 363.7 C 369.6 337.8 319.1 333.0 275.7 309.6 C 232.3 286.3 196.5 261.9 157.8 223.7 C 119.0 185.4 96.5 125.9 43.0 80.3 C -10.4 34.7 -105.6 -16.1 -162.9 -50.2 C -220.2 -84.3 -238.0 -109.3 -300.7 -124.1 C -363.4 -138.9 -467.9 -128.9 -539.3 -138.9 C -610.6 -148.9 -662.3 -165.1 -728.8 -184.2 C -795.2 -203.3 -881.4 -229.6 -938.0 -253.7 C -994.5 -277.7 -1017.8 -307.2 -1068.2 -328.4 C -1118.5 -349.6 -1200.9 -377.8 -1240.4 -380.8 C -1279.9 -383.7 -1290.8 -363.6 -1305.2 -346.1 C -1319.6 -328.6 -1328.8 -298.3 -1326.6 -275.8 C -1324.4 -253.3 -1309.4 -225.3 -1292.0 -211.0 C -1274.5 -196.6 -1244.2 -187.4 -1221.6 -189.6 C -1199.1 -191.8 -1171.2 -206.7 -1156.8 -224.2 C -1142.4 -241.7 -1133.2 -272.0 -1135.4 -294.5 C -1137.6 -317.1 -1152.5 -345.0 -1170.0 -359.4 C -1187.5 -373.8 -1204.4 -358.2 -1240.4 -380.8 C -1276.4 -403.3 -1333.6 -446.6 -1386.1 -494.6 C -1438.5 -542.6 -1491.1 -621.1 -1555.2 -668.9 C -1619.2 -716.8 -1715.5 -737.6 -1770.1 -781.5 C -1824.7 -825.4 -1865.8 -895.0 -1882.9 -932.2 C -1899.9 -969.5 -1884.0 -985.5 -1872.4 -1005.0 C -1860.9 -1024.5 -1835.5 -1043.4 -1813.6 -1049.0 C -1791.6 -1054.6 -1760.3 -1050.1 -1740.8 -1038.6 C -1721.4 -1027.0 -1702.4 -1001.6 -1696.8 -979.7 C -1691.2 -957.8 -1695.7 -926.4 -1707.3 -906.9 C -1718.8 -887.5 -1744.2 -868.5 -1766.1 -862.9 C -1788.0 -857.3 -1819.4 -861.8 -1838.9 -873.4 C -1858.3 -885.0 -1850.5 -907.1 -1882.9 -932.2 C -1915.3 -957.4 -1990.3 -987.9 -2033.2 -1024.2 C -2076.1 -1060.6 -2122.5 -1129.4 -2140.3 -1150.5" stroke="#07231A" stroke-width="56" stroke-linecap="round" stroke-linejoin="round"></path><path d="M 1598.7 1172.5 C 1576.1 1145.6 1518.9 1060.8 1463.4 1011.3 C 1408.0 961.7 1316.2 912.0 1266.0 875.2 C 1215.8 838.5 1215.3 821.5 1162.1 791.0 C 1109.0 760.5 1011.4 732.4 947.1 692.2 C 882.8 652.0 839.5 587.6 776.1 549.9 C 712.8 512.1 626.5 496.5 566.8 465.5 C 507.1 434.5 466.7 389.7 418.2 363.7 C 369.6 337.8 319.1 333.0 275.7 309.6 C 232.3 286.3 196.5 261.9 157.8 223.7 C 119.0 185.4 96.5 125.9 43.0 80.3 C -10.4 34.7 -105.6 -16.1 -162.9 -50.2 C -220.2 -84.3 -238.0 -109.3 -300.7 -124.1 C -363.4 -138.9 -467.9 -128.9 -539.3 -138.9 C -610.6 -148.9 -662.3 -165.1 -728.8 -184.2 C -795.2 -203.3 -881.4 -229.6 -938.0 -253.7 C -994.5 -277.7 -1017.8 -307.2 -1068.2 -328.4 C -1118.5 -349.6 -1200.9 -377.8 -1240.4 -380.8 C -1279.9 -383.7 -1290.8 -363.6 -1305.2 -346.1 C -1319.6 -328.6 -1328.8 -298.3 -1326.6 -275.8 C -1324.4 -253.3 -1309.4 -225.3 -1292.0 -211.0 C -1274.5 -196.6 -1244.2 -187.4 -1221.6 -189.6 C -1199.1 -191.8 -1171.2 -206.7 -1156.8 -224.2 C -1142.4 -241.7 -1133.2 -272.0 -1135.4 -294.5 C -1137.6 -317.1 -1152.5 -345.0 -1170.0 -359.4 C -1187.5 -373.8 -1204.4 -358.2 -1240.4 -380.8 C -1276.4 -403.3 -1333.6 -446.6 -1386.1 -494.6 C -1438.5 -542.6 -1491.1 -621.1 -1555.2 -668.9 C -1619.2 -716.8 -1715.5 -737.6 -1770.1 -781.5 C -1824.7 -825.4 -1865.8 -895.0 -1882.9 -932.2 C -1899.9 -969.5 -1884.0 -985.5 -1872.4 -1005.0 C -1860.9 -1024.5 -1835.5 -1043.4 -1813.6 -1049.0 C -1791.6 -1054.6 -1760.3 -1050.1 -1740.8 -1038.6 C -1721.4 -1027.0 -1702.4 -1001.6 -1696.8 -979.7 C -1691.2 -957.8 -1695.7 -926.4 -1707.3 -906.9 C -1718.8 -887.5 -1744.2 -868.5 -1766.1 -862.9 C -1788.0 -857.3 -1819.4 -861.8 -1838.9 -873.4 C -1858.3 -885.0 -1850.5 -907.1 -1882.9 -932.2 C -1915.3 -957.4 -1990.3 -987.9 -2033.2 -1024.2 C -2076.1 -1060.6 -2122.5 -1129.4 -2140.3 -1150.5" stroke="#C6F66E" stroke-width="42" stroke-linecap="round" stroke-linejoin="round" opacity="0.7851109651150181"></path></svg>