<svg xmlns="http://www.w3.org/2000/svg" viewBox="0 0 1920 1080" width="1920" height="1080" fill="none"><path d="M 2205.8 811.1 C 2178.2 803.9 2108.7 771.0 2040.1 767.9 C 1971.6 764.8 1842.9 776.8 1794.5 792.4 C 1746.1 808.0 1752.9 837.0 1749.8 861.6 C 1746.7 886.1 1758.7 921.9 1776.0 939.6 C 1793.3 957.3 1828.7 970.2 1853.3 967.8 C 1877.9 965.3 1910.2 945.7 1923.6 924.9 C 1937.0 904.1 1941.7 866.6 1933.9 843.2 C 1926.0 819.8 1899.6 792.7 1876.4 784.3 C 1853.2 775.8 1830.2 781.0 1794.5 792.4 C 1758.8 803.9 1719.5 814.4 1662.2 853.1 C 1604.9 891.8 1515.2 970.5 1450.8 1024.8 C 1386.3 1079.0 1304.0 1139.3 1275.5 1178.7 C 1246.9 1218.1 1267.6 1239.2 1279.3 1260.9 C 1291.1 1282.7 1321.7 1304.8 1346.1 1309.2 C 1370.4 1313.5 1406.8 1303.4 1425.4 1287.1 C 1443.9 1270.8 1458.7 1236.0 1457.5 1211.3 C 1456.4 1186.6 1438.4 1153.4 1418.4 1138.9 C 1398.3 1124.4 1361.1 1117.8 1337.3 1124.4 C 1313.5 1131.0 1315.7 1148.9 1275.5 1178.7 C 1235.2 1208.5 1155.4 1254.7 1095.7 1303.1 C 1036.1 1351.6 975.5 1416.6 917.3 1469.4 C 859.2 1522.2 788.8 1597.2 746.9 1620.0 C 705.0 1642.7 685.9 1620.1 665.9 1605.7 C 645.8 1591.3 627.7 1558.1 626.4 1533.4 C 625.2 1508.7 639.9 1473.9 658.4 1457.6 C 676.9 1441.2 713.3 1430.9 737.6 1435.2 C 762.0 1439.5 792.6 1461.5 804.5 1483.2 C 816.3 1504.9 818.2 1542.7 808.6 1565.5 C 799.0 1588.2 787.8 1596.4 746.9 1620.0 C 706.1 1643.5 613.0 1675.3 563.6 1707.0 C 514.3 1738.6 493.6 1781.0 450.9 1810.0 C 408.1 1839.0 352.7 1855.0 307.2 1881.0 C 261.7 1907.0 229.1 1934.7 177.8 1966.1 C 126.6 1997.5 69.6 2042.3 -0.2 2069.5 C -70.1 2096.7 -165.8 2097.7 -241.4 2129.2 C -316.9 2160.8 -397.5 2227.3 -453.6 2258.9 C -509.7 2290.4 -513.9 2293.9 -577.9 2318.4 C -641.8 2342.9 -774.5 2374.2 -837.5 2406.0 C -900.6 2437.9 -911.1 2466.0 -956.2 2509.7 C -1001.3 2553.5 -1063.8 2619.6 -1108.2 2668.3 C -1152.6 2717.0 -1170.6 2761.4 -1222.7 2801.9 C -1274.7 2842.5 -1366.3 2875.3 -1420.5 2911.6 C -1474.7 2947.8 -1526.6 3001.5 -1547.8 3019.5" stroke="#07231A" stroke-width="58" stroke-linecap="round" stroke-linejoin="round"></path><path d="M 2205.8 811.1 C 2178.2 803.9 2108.7 771.0 2040.1 767.9 C 1971.6 764.8 1842.9 776.8 1794.5 792.4 C 1746.1 808.0 1752.9 837.0 1749.8 861.6 C 1746.7 886.1 1758.7 921.9 1776.0 939.6 C 1793.3 957.3 1828.7 970.2 1853.3 967.8 C 1877.9 965.3 1910.2 945.7 1923.6 924.9 C 1937.0 904.1 1941.7 866.6 1933.9 843.2 C 1926.0 819.8 1899.6 792.7 1876.4 784.3 C 1853.2 775.8 1830.2 781.0 1794.5 792.4 C 1758.8 803.9 1719.5 814.4 1662.2 853.1 C 1604.9 891.8 1515.2 970.5 1450.8 1024.8 C 1386.3 1079.0 1304.0 1139.3 1275.5 1178.7 C 1246.9 1218.1 1267.6 1239.2 1279.3 1260.9 C 1291.1 1282.7 1321.7 1304.8 1346.1 1309.2 C 1370.4 1313.5 1406.8 1303.4 1425.4 1287.1 C 1443.9 1270.8 1458.7 1236.0 1457.5 1211.3 C 1456.4 1186.6 1438.4 1153.4 1418.4 1138.9 C 1398.3 1124.4 1361.1 1117.8 1337.3 1124.4 C 1313.5 1131.0 1315.7 1148.9 1275.5 1178.7 C 1235.2 1208.5 1155.4 1254.7 1095.7 1303.1 C 1036.1 1351.6 975.5 1416.6 917.3 1469.4 C 859.2 1522.2 788.8 1597.2 746.9 1620.0 C 705.0 1642.7 685.9 1620.1 665.9 1605.7 C 645.8 1591.3 627.7 1558.1 626.4 1533.4 C 625.2 1508.7 639.9 1473.9 658.4 1457.6 C 676.9 1441.2 713.3 1430.9 737.6 1435.2 C 762.0 1439.5 792.6 1461.5 804.5 1483.2 C 816.3 1504.9 818.2 1542.7 808.6 1565.5 C 799.0 1588.2 787.8 1596.4 746.9 1620.0 C 706.1 1643.5 613.0 1675.3 563.6 1707.0 C 514.3 1738.6 493.6 1781.0 450.9 1810.0 C 408.1 1839.0 352.7 1855.0 307.2 1881.0 C 261.7 1907.0 229.1 1934.7 177.8 1966.1 C 126.6 1997.5 69.6 2042.3 -0.2 2069.5 C -70.1 2096.7 -165.8 2097.7 -241.4 2129.2 C -316.9 2160.8 -397.5 2227.3 -453.6 2258.9 C -509.7 2290.4 -513.9 2293.9 -577.9 2318.4 C -641.8 2342.9 -774.5 2374.2 -837.5 2406.0 C -900.6 2437.9 -911.1 2466.0 -956.2 2509.7 C -1001.3 2553.5 -1063.8 2619.6 -1108.2 2668.3 C -1152.6 2717.0 -1170.6 2761.4 -1222.7 2801.9 C -1274.7 2842.5 -1366.3 2875.3 -1420.5 2911.6 C -1474.7 2947.8 -1526.6 3001.5 -1547.8 3019.5" stroke="#A3E635" stroke-width="44" stroke-linecap="round" stroke-linejoin="round" opacity="0.7727738780668005"></path><path d="M 769.3 1152.3 C 752.2 1125.2 698.3 1019.9 667.0 989.5 C 635.6 959.1 607.8 965.3 581.0 969.9 C 554.2 974.4 522.0 994.7 506.3 1016.8 C 490.6 1039.0 482.1 1076.0 486.7 1102.8 C 491.2 1129.6 511.4 1161.8 533.6 1177.5 C 555.7 1193.2 592.8 1201.7 619.6 1197.1 C 646.4 1192.6 678.5 1172.3 694.3 1150.2 C 710.0 1128.0 718.4 1091.0 713.9 1064.2 C 709.3 1037.4 698.1 1040.4 667.0 989.5 C 635.9 938.6 569.0 838.1 527.3 758.8 C 485.5 679.4 438.1 602.9 416.5 513.2 C 394.8 423.5 403.6 294.1 397.5 220.8 C 391.4 147.4 377.4 136.6 379.9 73.2 C 382.3 9.8 401.7 -74.9 412.2 -159.6 C 422.7 -244.2 421.2 -356.2 443.0 -434.6 C 464.8 -513.0 519.0 -569.5 542.9 -630.0 C 566.8 -690.5 574.4 -733.9 586.3 -797.5 C 598.1 -861.2 591.7 -933.3 614.0 -1011.9 C 636.3 -1090.4 708.2 -1212.4 720.2 -1268.8 C 732.3 -1325.2 705.7 -1331.1 686.4 -1350.3 C 667.2 -1369.5 632.1 -1384.0 604.9 -1384.0 C 577.8 -1384.0 542.7 -1369.4 523.5 -1350.2 C 504.3 -1331.0 489.8 -1295.9 489.8 -1268.7 C 489.8 -1241.5 504.4 -1206.4 523.6 -1187.2 C 542.8 -1168.0 577.9 -1153.5 605.1 -1153.5 C 632.2 -1153.5 667.3 -1168.1 686.5 -1187.3 C 705.7 -1206.5 704.4 -1220.4 720.2 -1268.8 C 736.1 -1317.3 774.6 -1406.7 781.6 -1478.0 C 788.6 -1549.3 781.5 -1621.8 762.4 -1696.9 C 743.4 -1771.9 696.8 -1883.9 667.4 -1928.2 C 638.1 -1972.4 613.2 -1962.1 586.1 -1962.2 C 558.9 -1962.2 523.7 -1947.8 504.5 -1928.6 C 485.2 -1909.5 470.6 -1874.4 470.5 -1847.3 C 470.4 -1820.1 484.8 -1784.9 504.0 -1765.7 C 523.1 -1746.4 558.2 -1731.8 585.4 -1731.7 C 612.5 -1731.6 647.7 -1746.0 667.0 -1765.2 C 686.2 -1784.3 700.9 -1819.4 701.0 -1846.6 C 701.0 -1873.7 683.5 -1884.3 667.4 -1928.2 C 651.4 -1972.0 624.0 -2049.0 604.9 -2109.7 C 585.7 -2170.4 575.5 -2220.9 552.6 -2292.3 C 529.6 -2363.7 484.4 -2450.1 467.2 -2538.1 C 450.0 -2626.1 462.1 -2746.1 449.4 -2820.3 C 436.6 -2894.6 411.5 -2929.1 390.7 -2983.5 C 370.0 -3038.0 353.4 -3087.9 324.6 -3146.8 C 295.9 -3205.7 236.0 -3305.2 218.3 -3336.8" stroke="#07231A" stroke-width="61" stroke-linecap="round" stroke-linejoin="round"></path><path d="M 769.3 1152.3 C 752.2 1125.2 698.3 1019.9 667.0 989.5 C 635.6 959.1 607.8 965.3 581.0 969.9 C 554.2 974.4 522.0 994.7 506.3 1016.8 C 490.6 1039.0 482.1 1076.0 486.7 1102.8 C 491.2 1129.6 511.4 1161.8 533.6 1177.5 C 555.7 1193.2 592.8 1201.7 619.6 1197.1 C 646.4 1192.6 678.5 1172.3 694.3 1150.2 C 710.0 1128.0 718.4 1091.0 713.9 1064.2 C 709.3 1037.4 698.1 1040.4 667.0 989.5 C 635.9 938.6 569.0 838.1 527.3 758.8 C 485.5 679.4 438.1 602.9 416.5 513.2 C 394.8 423.5 403.6 294.1 397.5 220.8 C 391.4 147.4 377.4 136.6 379.9 73.2 C 382.3 9.8 401.7 -74.9 412.2 -159.6 C 422.7 -244.2 421.2 -356.2 443.0 -434.6 C 464.8 -513.0 519.0 -569.5 542.9 -630.0 C 566.8 -690.5 574.4 -733.9 586.3 -797.5 C 598.1 -861.2 591.7 -933.3 614.0 -1011.9 C 636.3 -1090.4 708.2 -1212.4 720.2 -1268.8 C 732.3 -1325.2 705.7 -1331.1 686.4 -1350.3 C 667.2 -1369.5 632.1 -1384.0 604.9 -1384.0 C 577.8 -1384.0 542.7 -1369.4 523.5 -1350.2 C 504.3 -1331.0 489.8 -1295.9 489.8 -1268.7 C 489.8 -1241.5 504.4 -1206.4 523.6 -1187.2 C 542.8 -1168.0 577.9 -1153.5 605.1 -1153.5 C 632.2 -1153.5 667.3 -1168.1 686.5 -1187.3 C 705.7 -1206.5 704.4 -1220.4 720.2 -1268.8 C 736.1 -1317.3 774.6 -1406.7 781.6 -1478.0 C 788.6 -1549.3 781.5 -1621.8 762.4 -1696.9 C 743.4 -1771.9 696.8 -1883.9 667.4 -1928.2 C 638.1 -1972.4 613.2 -1962.1 586.1 -1962.2 C 558.9 -1962.2 523.7 -1947.8 504.5 -1928.6 C 485.2 -1909.5 470.6 -1874.4 470.5 -1847.3 C 470.4 -1820.1 484.8 -1784.9 504.0 -1765.7 C 523.1 -1746.4 558.2 -1731.8 585.4 -1731.7 C 612.5 -1731.6 647.7 -1746.0 667.0 -1765.2 C 686.2 -1784.3 700.9 -1819.4 701.0 -1846.6 C 701.0 -1873.7 683.5 -1884.3 667.4 -1928.2 C 651.4 -1972.0 624.0 -2049.0 604.9 -2109.7 C 585.7 -2170.4 575.5 -2220.9 552.6 -2292.3 C 529.6 -2363.7 484.4 -2450.1 467.2 -2538.1 C 450.0 -2626.1 462.1 -2746.1 449.4 -2820.3 C 436.6 -2894.6 411.5 -2929.1 390.7 -2983.5 C 370.0 -3038.0 353.4 -3087.9 324.6 -3146.8 C 295.9 -3205.7 236.0 -3305.2 218.3 -3336.8" stroke="#2E9C82" stroke-width="47" stroke-linecap="round" stroke-linejoin="round" opacity="0.8655109272338449"></path><path d="M -99.9 -97.8 C -65.5 -80.9 67.8 -25.9 106.5 3.8 C 145.2 33.5 134.0 55.4 132.4 80.2 C 130.8 104.9 115.5 136.1 96.8 152.5 C 78.1 168.9 45.2 180.1 20.5 178.5 C -4.3 176.8 -35.5 161.5 -51.9 142.8 C -68.3 124.2 -79.5 91.3 -77.8 66.5 C -76.2 41.7 -60.9 10.5 -42.2 -5.9 C -23.6 -22.2 9.3 -33.4 34.1 -31.8 C 58.9 -30.2 74.8 -19.6 106.5 3.8 C 138.2 27.2 191.3 91.8 224.4 108.5 C 257.5 125.1 282.6 114.6 304.9 103.7 C 327.2 92.9 350.3 66.9 358.4 43.4 C 366.6 19.9 364.5 -14.8 353.6 -37.1 C 342.8 -59.4 316.8 -82.5 293.3 -90.6 C 269.9 -98.8 235.2 -96.7 212.8 -85.8 C 190.5 -75.0 167.4 -49.0 159.3 -25.5 C 151.2 -2.1 153.2 32.6 164.1 55.0 C 174.9 77.3 187.7 85.9 224.4 108.5 C 261.1 131.1 337.9 155.5 384.2 190.3 C 430.6 225.1 447.7 269.3 502.5 317.1 C 557.3 364.9 676.1 437.1 712.9 477.1 C 749.8 517.1 730.1 533.0 723.8 557.0 C 717.5 581.0 696.5 608.7 675.0 621.2 C 653.6 633.7 619.1 638.4 595.1 632.1 C 571.1 625.8 543.4 604.7 530.9 583.3 C 518.4 561.8 513.7 527.4 520.0 503.4 C 526.4 479.4 547.4 451.7 568.8 439.2 C 590.3 426.7 624.7 422.0 648.7 428.3 C 672.8 434.6 679.7 436.4 712.9 477.1 C 746.2 517.8 827.9 626.5 848.0 672.3 C 868.1 718.0 847.0 730.7 833.6 751.6 C 820.1 772.5 791.5 792.3 767.3 797.5 C 743.0 802.7 708.8 796.5 687.9 783.1 C 667.1 769.6 647.3 741.0 642.0 716.8 C 636.8 692.5 643.0 658.3 656.5 637.4 C 669.9 616.5 698.5 596.8 722.8 591.5 C 747.1 586.3 781.3 592.5 802.1 606.0 C 823.0 619.4 820.0 646.7 848.0 672.3 C 876.1 697.8 915.6 719.0 970.3 759.4 C 1025.1 799.8 1116.7 878.6 1176.3 914.5 C 1235.9 950.5 1297.5 952.6 1328.1 975.0 C 1358.7 997.4 1359.6 1024.2 1359.9 1049.1 C 1360.2 1073.9 1347.4 1106.2 1330.1 1124.0 C 1312.7 1141.8 1280.8 1155.5 1256.0 1155.8 C 1231.1 1156.2 1198.9 1143.3 1181.1 1126.0 C 1163.3 1108.7 1149.5 1076.7 1149.2 1051.9 C 1148.9 1027.1 1161.7 994.8 1179.1 977.0 C 1196.4 959.2 1228.3 945.5 1253.1 945.1 C 1278.0 944.8 1283.9 941.1 1328.1 975.0 C 1372.2 1008.9 1485.7 1106.0 1518.0 1148.4 C 1550.2 1190.7 1530.1 1205.6 1521.7 1228.9 C 1513.2 1252.3 1489.8 1277.9 1467.3 1288.5 C 1444.8 1299.0 1410.1 1300.6 1386.7 1292.2 C 1363.4 1283.7 1337.7 1260.3 1327.2 1237.8 C 1316.6 1215.3 1315.1 1180.6 1323.5 1157.2 C 1331.9 1133.9 1355.4 1108.2 1377.9 1097.7 C 1400.4 1087.1 1435.1 1085.5 1458.4 1094.0 C 1481.8 1102.4 1483.9 1127.2 1518.0 1148.4 C 1552.1 1169.5 1599.9 1190.7 1662.9 1221.1 C 1725.9 1251.4 1816.3 1299.8 1896.1 1330.2 C 1975.8 1360.5 2062.7 1392.4 2141.5 1403.1 C 2220.4 1413.9 2321.3 1386.9 2369.1 1394.7 C 2416.8 1402.4 2417.8 1427.0 2428.2 1449.5 C 2438.5 1472.1 2439.8 1506.8 2431.2 1530.1 C 2422.5 1553.4 2398.9 1578.9 2376.3 1589.2 C 2353.7 1599.6 2319.0 1600.9 2295.7 1592.2 C 2272.4 1583.6 2247.0 1559.9 2236.6 1537.3 C 2226.3 1514.8 2225.0 1480.0 2233.6 1456.8 C 2242.3 1433.5 2265.9 1408.0 2288.5 1397.7 C 2311.1 1387.3 2321.2 1391.3 2369.1 1394.7 C 2416.9 1398.1 2515.3 1416.8 2575.5 1418.1 C 2635.7 1419.5 2664.3 1412.1 2730.2 1402.8 C 2796.0 1393.5 2893.2 1379.9 2970.7 1362.1 C 3048.1 1344.3 3129.5 1327.2 3194.8 1295.9 C 3260.1 1264.6 3313.6 1223.1 3362.5 1174.3 C 3411.3 1125.4 3453.7 1033.5 3487.8 1002.8 C 3522.0 972.2 3543.4 984.6 3567.5 990.4 C 3591.7 996.3 3619.7 1016.8 3632.6 1038.0 C 3645.5 1059.3 3650.9 1093.6 3645.0 1117.7 C 3639.1 1141.9 3618.6 1169.9 3597.4 1182.8 C 3576.2 1195.7 3541.9 1201.1 3517.7 1195.2 C 3493.6 1189.3 3465.5 1168.8 3452.6 1147.6 C 3439.7 1126.4 3434.4 1092.1 3440.3 1067.9 C 3446.1 1043.8 3467.5 1034.4 3487.8 1002.8 C 3508.2 971.2 3553.2 912.0 3562.3 878.2 C 3571.4 844.4 3557.4 819.9 3542.6 800.0 C 3527.8 780.1 3497.9 762.3 3473.3 758.7 C 3448.8 755.0 3415.1 763.5 3395.2 778.4 C 3375.2 793.2 3357.4 823.0 3353.8 847.6 C 3350.2 872.2 3358.7 905.9 3373.5 925.8 C 3388.3 945.7 3418.2 963.5 3442.7 967.1 C 3467.3 970.7 3501.0 962.3 3520.9 947.4 C 3540.9 932.6 3542.5 913.3 3562.3 878.2 C 3582.1 843.1 3614.4 790.5 3639.9 736.7 C 3665.4 682.9 3691.3 620.1 3715.3 555.4 C 3739.3 490.7 3774.8 412.7 3784.1 348.2 C 3793.4 283.8 3773.1 198.7 3770.8 168.8" stroke="#07231A" stroke-width="65" stroke-linecap="round" stroke-linejoin="round"></path><path d="M -99.9 -97.8 C -65.5 -80.9 67.8 -25.9 106.5 3.8 C 145.2 33.5 134.0 55.4 132.4 80.2 C 130.8 104.9 115.5 136.1 96.8 152.5 C 78.1 168.9 45.2 180.1 20.5 178.5 C -4.3 176.8 -35.5 161.5 -51.9 142.8 C -68.3 124.2 -79.5 91.3 -77.8 66.5 C -76.2 41.7 -60.9 10.5 -42.2 -5.9 C -23.6 -22.2 9.3 -33.4 34.1 -31.8 C 58.9 -30.2 74.8 -19.6 106.5 3.8 C 138.2 27.2 191.3 91.8 224.4 108.5 C 257.5 125.1 282.6 114.6 304.9 103.7 C 327.2 92.9 350.3 66.9 358.4 43.4 C 366.6 19.9 364.5 -14.8 353.6 -37.1 C 342.8 -59.4 316.8 -82.5 293.3 -90.6 C 269.9 -98.8 235.2 -96.7 212.8 -85.8 C 190.5 -75.0 167.4 -49.0 159.3 -25.5 C 151.2 -2.1 153.2 32.6 164.1 55.0 C 174.9 77.3 187.7 85.9 224.4 108.5 C 261.1 131.1 337.9 155.5 384.2 190.3 C 430.6 225.1 447.7 269.3 502.5 317.1 C 557.3 364.9 676.1 437.1 712.9 477.1 C 749.8 517.1 730.1 533.0 723.8 557.0 C 717.5 581.0 696.5 608.7 675.0 621.2 C 653.6 633.7 619.1 638.4 595.1 632.1 C 571.1 625.8 543.4 604.7 530.9 583.3 C 518.4 561.8 513.7 527.4 520.0 503.4 C 526.4 479.4 547.4 451.7 568.8 439.2 C 590.3 426.7 624.7 422.0 648.7 428.3 C 672.8 434.6 679.7 436.4 712.9 477.1 C 746.2 517.8 827.9 626.5 848.0 672.3 C 868.1 718.0 847.0 730.7 833.6 751.6 C 820.1 772.5 791.5 792.3 767.3 797.5 C 743.0 802.7 708.8 796.5 687.9 783.1 C 667.1 769.6 647.3 741.0 642.0 716.8 C 636.8 692.5 643.0 658.3 656.5 637.4 C 669.9 616.5 698.5 596.8 722.8 591.5 C 747.1 586.3 781.3 592.5 802.1 606.0 C 823.0 619.4 820.0 646.7 848.0 672.3 C 876.1 697.8 915.6 719.0 970.3 759.4 C 1025.1 799.8 1116.7 878.6 1176.3 914.5 C 1235.9 950.5 1297.5 952.6 1328.1 975.0 C 1358.7 997.4 1359.6 1024.2 1359.9 1049.1 C 1360.2 1073.9 1347.4 1106.2 1330.1 1124.0 C 1312.7 1141.8 1280.8 1155.5 1256.0 1155.8 C 1231.1 1156.2 1198.9 1143.3 1181.1 1126.0 C 1163.3 1108.7 1149.5 1076.7 1149.2 1051.9 C 1148.9 1027.1 1161.7 994.8 1179.1 977.0 C 1196.4 959.2 1228.3 945.5 1253.1 945.1 C 1278.0 944.8 1283.9 941.1 1328.1 975.0 C 1372.2 1008.9 1485.7 1106.0 1518.0 1148.4 C 1550.2 1190.7 1530.1 1205.6 1521.7 1228.9 C 1513.2 1252.3 1489.8 1277.9 1467.3 1288.5 C 1444.8 1299.0 1410.1 1300.6 1386.7 1292.2 C 1363.4 1283.7 1337.7 1260.3 1327.2 1237.8 C 1316.6 1215.3 1315.1 1180.6 1323.5 1157.2 C 1331.9 1133.9 1355.4 1108.2 1377.9 1097.7 C 1400.4 1087.1 1435.1 1085.5 1458.4 1094.0 C 1481.8 1102.4 1483.9 1127.2 1518.0 1148.4 C 1552.1 1169.5 1599.9 1190.7 1662.9 1221.1 C 1725.9 1251.4 1816.3 1299.8 1896.1 1330.2 C 1975.8 1360.5 2062.7 1392.4 2141.5 1403.1 C 2220.4 1413.9 2321.3 1386.9 2369.1 1394.7 C 2416.8 1402.4 2417.8 1427.0 2428.2 1449.5 C 2438.5 1472.1 2439.8 1506.8 2431.2 1530.1 C 2422.5 1553.4 2398.9 1578.9 2376.3 1589.2 C 2353.7 1599.6 2319.0 1600.9 2295.7 1592.2 C 2272.4 1583.6 2247.0 1559.9 2236.6 1537.3 C 2226.3 1514.8 2225.0 1480.0 2233.6 1456.8 C 2242.3 1433.5 2265.9 1408.0 2288.5 1397.7 C 2311.1 1387.3 2321.2 1391.3 2369.1 1394.7 C 2416.9 1398.1 2515.3 1416.8 2575.5 1418.1 C 2635.7 1419.5 2664.3 1412.1 2730.2 1402.8 C 2796.0 1393.5 2893.2 1379.9 2970.7 1362.1 C 3048.1 1344.3 3129.5 1327.2 3194.8 1295.9 C 3260.1 1264.6 3313.6 1223.1 3362.5 1174.3 C 3411.3 1125.4 3453.7 1033.5 3487.8 1002.8 C 3522.0 972.2 3543.4 984.6 3567.5 990.4 C 3591.7 996.3 3619.7 1016.8 3632.6 1038.0 C 3645.5 1059.3 3650.9 1093.6 3645.0 1117.7 C 3639.1 1141.9 3618.6 1169.9 3597.4 1182.8 C 3576.2 1195.7 3541.9 1201.1 3517.7 1195.2 C 3493.6 1189.3 3465.5 1168.8 3452.6 1147.6 C 3439.7 1126.4 3434.4 1092.1 3440.3 1067.9 C 3446.1 1043.8 3467.5 1034.4 3487.8 1002.8 C 3508.2 971.2 3553.2 912.0 3562.3 878.2 C 3571.4 844.4 3557.4 819.9 3542.6 800.0 C 3527.8 780.1 3497.9 762.3 3473.3 758.7 C 3448.8 755.0 3415.1 763.5 3395.2 778.4 C 3375.2 793.2 3357.4 823.0 3353.8 847.6 C 3350.2 872.2 3358.7 905.9 3373.5 925.8 C 3388.3 945.7 3418.2 963.5 3442.7 967.1 C 3467.3 970.7 3501.0 962.3 3520.9 947.4 C 3540.9 932.6 3542.5 913.3 3562.3 878.2 C 3582.1 843.1 3614.4 790.5 3639.9 736.7 C 3665.4 682.9 3691.3 620.1 3715.3 555.4 C 3739.3 490.7 3774.8 412.7 3784.1 348.2 C 3793.4 283.8 3773.1 198.7 3770.8 168.8" stroke="#3FB89A" stroke-width="51" stroke-linecap="round" stroke-linejoin="round" opacity="0.8609556063544005"></path><path d="M 1691.1 1183.7 C 1678.8 1184.2 1636.9 1176.2 1617.3 1186.6 C 1597.7 1197.0 1577.6 1224.3 1573.5 1246.1 C 1569.4 1267.9 1578.2 1300.7 1592.7 1317.5 C 1607.2 1334.3 1638.3 1347.8 1660.5 1346.9 C 1682.7 1346.1 1712.7 1330.2 1725.8 1312.3 C 1739.0 1294.4 1745.2 1261.1 1739.4 1239.7 C 1733.7 1218.2 1723.4 1212.9 1691.1 1183.7 C 1658.8 1154.5 1603.7 1103.3 1545.7 1064.3 C 1487.6 1025.2 1397.8 972.2 1342.7 949.3 C 1287.6 926.3 1265.2 936.1 1215.1 926.6 C 1165.0 917.1 1104.5 891.3 1042.1 892.2 C 979.7 893.2 907.0 917.2 840.9 932.2 C 774.8 947.3 696.5 964.9 645.3 982.5 C 594.2 1000.0 578.9 1014.1 534.1 1037.5 C 489.3 1060.9 428.7 1104.7 376.5 1122.7 C 324.4 1140.8 283.2 1130.6 221.3 1145.6 C 159.4 1160.6 68.4 1188.8 5.4 1212.8 C -57.6 1236.8 -97.4 1268.2 -156.7 1289.6 C -216.1 1310.9 -283.9 1320.6 -350.8 1341.1 C -417.7 1361.6 -486.5 1392.5 -558.3 1412.7 C -630.2 1432.8 -739.4 1442.8 -782.1 1462.1 C -824.8 1481.3 -814.5 1506.2 -814.6 1528.4 C -814.8 1550.6 -800.3 1581.3 -783.0 1595.2 C -765.8 1609.2 -732.8 1617.0 -711.1 1612.2 C -689.4 1607.4 -662.7 1586.5 -653.0 1566.5 C -643.2 1546.6 -642.9 1512.7 -652.4 1492.6 C -661.9 1472.5 -688.3 1451.2 -709.9 1446.1 C -731.5 1441.0 -751.8 1446.6 -782.1 1462.1 C -812.4 1477.5 -872.8 1513.6 -891.9 1538.7 C -910.9 1563.7 -904.9 1591.9 -896.6 1612.4 C -888.2 1633.0 -863.1 1655.8 -841.8 1662.1 C -820.6 1668.4 -787.1 1663.0 -768.9 1650.3 C -750.7 1637.6 -734.0 1608.0 -732.6 1585.9 C -731.2 1563.7 -743.9 1532.3 -760.4 1517.4 C -776.8 1502.5 -809.3 1492.8 -831.2 1496.4 C -853.2 1499.9 -862.5 1504.2 -891.9 1538.7 C -921.3 1573.2 -968.2 1658.0 -1007.7 1703.3 C -1047.2 1748.6 -1077.5 1780.6 -1128.9 1810.4 C -1180.4 1840.1 -1258.1 1855.6 -1316.5 1881.9 C -1374.8 1908.2 -1431.0 1939.6 -1479.3 1968.3 C -1527.5 1997.0 -1573.1 2043.4 -1605.9 2054.0 C -1638.8 2064.6 -1660.3 2047.1 -1676.5 2032.0 C -1692.7 2016.8 -1705.0 1985.2 -1703.2 1963.1 C -1701.5 1940.9 -1684.4 1911.6 -1666.0 1899.2 C -1647.7 1886.7 -1614.1 1881.8 -1592.9 1888.4 C -1571.7 1895.1 -1546.9 1918.2 -1538.9 1938.9 C -1530.9 1959.6 -1533.5 1993.4 -1544.7 2012.6 C -1555.9 2031.8 -1559.4 2036.6 -1605.9 2054.0 C -1652.5 2071.4 -1756.4 2100.1 -1823.9 2117.1 C -1891.3 2134.1 -1979.4 2149.6 -2010.5 2156.1" stroke="#07231A" stroke-width="75" stroke-linecap="round" stroke-linejoin="round"></path><path d="M 1691.1 1183.7 C 1678.8 1184.2 1636.9 1176.2 1617.3 1186.6 C 1597.7 1197.0 1577.6 1224.3 1573.5 1246.1 C 1569.4 1267.9 1578.2 1300.7 1592.7 1317.5 C 1607.2 1334.3 1638.3 1347.8 1660.5 1346.9 C 1682.7 1346.1 1712.7 1330.2 1725.8 1312.3 C 1739.0 1294.4 1745.2 1261.1 1739.4 1239.7 C 1733.7 1218.2 1723.4 1212.9 1691.1 1183.7 C 1658.8 1154.5 1603.7 1103.3 1545.7 1064.3 C 1487.6 1025.2 1397.8 972.2 1342.7 949.3 C 1287.6 926.3 1265.2 936.1 1215.1 926.6 C 1165.0 917.1 1104.5 891.3 1042.1 892.2 C 979.7 893.2 907.0 917.2 840.9 932.2 C 774.8 947.3 696.5 964.9 645.3 982.5 C 594.2 1000.0 578.9 1014.1 534.1 1037.5 C 489.3 1060.9 428.7 1104.7 376.5 1122.7 C 324.4 1140.8 283.2 1130.6 221.3 1145.6 C 159.4 1160.6 68.4 1188.8 5.4 1212.8 C -57.6 1236.8 -97.4 1268.2 -156.7 1289.6 C -216.1 1310.9 -283.9 1320.6 -350.8 1341.1 C -417.7 1361.6 -486.5 1392.5 -558.3 1412.7 C -630.2 1432.8 -739.4 1442.8 -782.1 1462.1 C -824.8 1481.3 -814.5 1506.2 -814.6 1528.4 C -814.8 1550.6 -800.3 1581.3 -783.0 1595.2 C -765.8 1609.2 -732.8 1617.0 -711.1 1612.2 C -689.4 1607.4 -662.7 1586.5 -653.0 1566.5 C -643.2 1546.6 -642.9 1512.7 -652.4 1492.6 C -661.9 1472.5 -688.3 1451.2 -709.9 1446.1 C -731.5 1441.0 -751.8 1446.6 -782.1 1462.1 C -812.4 1477.5 -872.8 1513.6 -891.9 1538.7 C -910.9 1563.7 -904.9 1591.9 -896.6 1612.4 C -888.2 1633.0 -863.1 1655.8 -841.8 1662.1 C -820.6 1668.4 -787.1 1663.0 -768.9 1650.3 C -750.7 1637.6 -734.0 1608.0 -732.6 1585.9 C -731.2 1563.7 -743.9 1532.3 -760.4 1517.4 C -776.8 1502.5 -809.3 1492.8 -831.2 1496.4 C -853.2 1499.9 -862.5 1504.2 -891.9 1538.7 C -921.3 1573.2 -968.2 1658.0 -1007.7 1703.3 C -1047.2 1748.6 -1077.5 1780.6 -1128.9 1810.4 C -1180.4 1840.1 -1258.1 1855.6 -1316.5 1881.9 C -1374.8 1908.2 -1431.0 1939.6 -1479.3 1968.3 C -1527.5 1997.0 -1573.1 2043.4 -1605.9 2054.0 C -1638.8 2064.6 -1660.3 2047.1 -1676.5 2032.0 C -1692.7 2016.8 -1705.0 1985.2 -1703.2 1963.1 C -1701.5 1940.9 -1684.4 1911.6 -1666.0 1899.2 C -1647.7 1886.7 -1614.1 1881.8 -1592.9 1888.4 C -1571.7 1895.1 -1546.9 1918.2 -1538.9 1938.9 C -1530.9 1959.6 -1533.5 1993.4 -1544.7 2012.6 C -1555.9 2031.8 -1559.4 2036.6 -1605.9 2054.0 C -1652.5 2071.4 -1756.4 2100.1 -1823.9 2117.1 C -1891.3 2134.1 -1979.4 2149.6 -2010.5 2156.1" stroke="#A3E635" stroke-width="61" stroke-linecap="round" stroke-linejoin="round" opacity="0.7022128509357571"></path><path d="M 609.8 1357.3 C 618.7 1348.1 641.2 1311.6 662.8 1302.2 C 684.3 1292.7 717.3 1292.0 739.2 1300.6 C 761.1 1309.2 784.9 1332.0 794.3 1353.6 C 803.8 1375.1 804.4 1408.1 795.9 1430.0 C 787.3 1451.9 764.5 1475.7 742.9 1485.1 C 721.4 1494.6 688.4 1495.2 666.5 1486.7 C 644.6 1478.1 620.8 1455.3 611.4 1433.7 C 601.9 1412.2 617.7 1405.6 609.8 1357.3 C 602.0 1309.0 569.6 1205.3 564.3 1144.0 C 558.9 1082.8 579.4 1051.8 577.7 990.1 C 576.1 928.4 568.1 817.9 554.2 773.9 C 540.4 729.9 517.2 732.6 494.6 726.0 C 472.0 719.4 439.3 723.0 418.6 734.3 C 398.0 745.6 377.3 771.2 370.7 793.8 C 364.1 816.4 367.7 849.2 379.0 869.8 C 390.3 890.5 416.0 911.1 438.6 917.7 C 461.2 924.3 493.9 920.8 514.6 909.5 C 535.2 898.1 555.9 872.5 562.5 849.9 C 569.1 827.3 565.7 827.2 554.2 773.9 C 542.7 720.6 524.9 602.4 493.7 529.9 C 462.4 457.4 385.5 383.1 366.9 338.8 C 348.3 294.5 369.0 283.4 382.1 263.9 C 395.3 244.3 422.7 226.1 445.8 221.6 C 468.9 217.1 501.2 223.7 520.7 236.8 C 540.3 250.0 558.5 277.4 563.0 300.5 C 567.5 323.6 560.9 355.9 547.8 375.4 C 534.7 395.0 507.2 413.2 484.1 417.7 C 461.0 422.2 428.7 415.6 409.2 402.5 C 389.6 389.4 382.0 375.3 366.9 338.8 C 351.9 302.3 338.1 215.4 318.8 183.6 C 299.5 151.8 274.6 150.2 251.1 148.0 C 227.7 145.9 196.2 155.6 178.1 170.7 C 160.0 185.7 144.7 214.9 142.5 238.3 C 140.4 261.8 150.1 293.2 165.2 311.3 C 180.2 329.4 209.4 344.8 232.8 346.9 C 256.3 349.1 287.7 339.3 305.8 324.3 C 323.9 309.2 339.3 280.1 341.4 256.6 C 343.6 233.2 340.3 228.2 318.8 183.6 C 297.2 139.0 226.4 33.6 212.3 -11.0 C 198.1 -55.7 219.0 -66.0 233.7 -84.4 C 248.5 -102.7 277.4 -118.5 300.8 -121.1 C 324.2 -123.6 355.8 -114.4 374.1 -99.6 C 392.5 -84.9 408.3 -56.0 410.8 -32.6 C 413.4 -9.2 404.1 22.5 389.4 40.8 C 374.6 59.2 345.7 75.0 322.3 77.5 C 298.9 80.0 267.3 70.8 248.9 56.0 C 230.6 41.3 230.1 17.9 212.3 -11.0 C 194.4 -39.9 162.1 -61.9 141.8 -117.5 C 121.4 -173.0 98.7 -271.9 90.3 -344.3 C 81.8 -416.6 99.1 -493.8 90.8 -551.6 C 82.6 -609.3 43.6 -655.9 40.6 -690.6 C 37.7 -725.2 55.7 -743.9 73.1 -759.7 C 90.5 -775.6 121.5 -786.8 145.0 -785.7 C 168.5 -784.6 198.4 -770.6 214.2 -753.2 C 230.1 -735.8 241.3 -704.8 240.2 -681.3 C 239.1 -657.8 225.1 -628.0 207.7 -612.1 C 190.3 -596.3 159.3 -585.1 135.8 -586.2 C 112.3 -587.3 82.5 -601.3 66.6 -618.7 C 50.7 -636.0 45.4 -652.7 40.6 -690.6 C 35.9 -728.4 50.4 -779.8 37.9 -845.9 C 25.5 -912.0 -7.2 -1023.9 -33.8 -1087.2 C -60.4 -1150.4 -94.6 -1199.5 -121.7 -1225.3 C -148.7 -1251.0 -173.1 -1245.9 -196.3 -1241.9 C -219.5 -1237.8 -247.3 -1220.1 -260.8 -1200.8 C -274.3 -1181.6 -281.4 -1149.4 -277.4 -1126.2 C -273.3 -1103.0 -255.6 -1075.2 -236.3 -1061.7 C -217.1 -1048.2 -184.9 -1041.0 -161.7 -1045.1 C -138.5 -1049.2 -110.7 -1066.9 -97.2 -1086.2 C -83.7 -1105.4 -76.6 -1137.6 -80.6 -1160.8 C -84.7 -1184.0 -84.3 -1187.8 -121.7 -1225.3 C -159.0 -1262.8 -259.1 -1339.0 -304.6 -1385.7 C -350.1 -1432.4 -357.8 -1465.1 -394.4 -1505.6 C -431.1 -1546.1 -482.1 -1573.3 -524.5 -1628.8 C -566.9 -1684.3 -617.0 -1778.5 -648.8 -1838.7 C -680.6 -1899.0 -685.3 -1933.4 -715.5 -1990.4 C -745.6 -2047.3 -785.0 -2126.3 -829.6 -2180.4 C -874.2 -2234.4 -927.0 -2276.1 -983.3 -2314.9 C -1039.7 -2353.7 -1105.5 -2386.2 -1167.7 -2413.2 C -1229.8 -2440.1 -1313.5 -2471.6 -1356.4 -2476.5 C -1399.3 -2481.3 -1409.4 -2460.2 -1424.8 -2442.4 C -1440.3 -2424.7 -1450.8 -2393.4 -1449.1 -2369.9 C -1447.5 -2346.5 -1432.8 -2317.0 -1415.1 -2301.5 C -1397.3 -2286.1 -1366.1 -2275.6 -1342.6 -2277.2 C -1319.1 -2278.8 -1289.6 -2293.5 -1274.2 -2311.3 C -1258.7 -2329.0 -1248.3 -2360.2 -1249.9 -2383.7 C -1251.5 -2407.2 -1266.2 -2436.7 -1283.9 -2452.2 C -1301.7 -2467.6 -1311.3 -2452.4 -1356.4 -2476.5 C -1401.5 -2500.6 -1521.3 -2576.8 -1554.3 -2596.9" stroke="#07231A" stroke-width="70" stroke-linecap="round" stroke-linejoin="round"></path><path d="M 609.8 1357.3 C 618.7 1348.1 641.2 1311.6 662.8 1302.2 C 684.3 1292.7 717.3 1292.0 739.2 1300.6 C 761.1 1309.2 784.9 1332.0 794.3 1353.6 C 803.8 1375.1 804.4 1408.1 795.9 1430.0 C 787.3 1451.9 764.5 1475.7 742.9 1485.1 C 721.4 1494.6 688.4 1495.2 666.5 1486.7 C 644.6 1478.1 620.8 1455.3 611.4 1433.7 C 601.9 1412.2 617.7 1405.6 609.8 1357.3 C 602.0 1309.0 569.6 1205.3 564.3 1144.0 C 558.9 1082.8 579.4 1051.8 577.7 990.1 C 576.1 928.4 568.1 817.9 554.2 773.9 C 540.4 729.9 517.2 732.6 494.6 726.0 C 472.0 719.4 439.3 723.0 418.6 734.3 C 398.0 745.6 377.3 771.2 370.7 793.8 C 364.1 816.4 367.7 849.2 379.0 869.8 C 390.3 890.5 416.0 911.1 438.6 917.7 C 461.2 924.3 493.9 920.8 514.6 909.5 C 535.2 898.1 555.9 872.5 562.5 849.9 C 569.1 827.3 565.7 827.2 554.2 773.9 C 542.7 720.6 524.9 602.4 493.7 529.9 C 462.4 457.4 385.5 383.1 366.9 338.8 C 348.3 294.5 369.0 283.4 382.1 263.9 C 395.3 244.3 422.7 226.1 445.8 221.6 C 468.9 217.1 501.2 223.7 520.7 236.8 C 540.3 250.0 558.5 277.4 563.0 300.5 C 567.5 323.6 560.9 355.9 547.8 375.4 C 534.7 395.0 507.2 413.2 484.1 417.7 C 461.0 422.2 428.7 415.6 409.2 402.5 C 389.6 389.4 382.0 375.3 366.9 338.8 C 351.9 302.3 338.1 215.4 318.8 183.6 C 299.5 151.8 274.6 150.2 251.1 148.0 C 227.7 145.9 196.2 155.6 178.1 170.7 C 160.0 185.7 144.7 214.9 142.5 238.3 C 140.4 261.8 150.1 293.2 165.2 311.3 C 180.2 329.4 209.4 344.8 232.8 346.9 C 256.3 349.1 287.7 339.3 305.8 324.3 C 323.9 309.2 339.3 280.1 341.4 256.6 C 343.6 233.2 340.3 228.2 318.8 183.6 C 297.2 139.0 226.4 33.6 212.3 -11.0 C 198.1 -55.7 219.0 -66.0 233.7 -84.4 C 248.5 -102.7 277.4 -118.5 300.8 -121.1 C 324.2 -123.6 355.8 -114.4 374.1 -99.6 C 392.5 -84.9 408.3 -56.0 410.8 -32.6 C 413.4 -9.2 404.1 22.5 389.4 40.8 C 374.6 59.2 345.7 75.0 322.3 77.5 C 298.9 80.0 267.3 70.8 248.9 56.0 C 230.6 41.3 230.1 17.9 212.3 -11.0 C 194.4 -39.9 162.1 -61.9 141.8 -117.5 C 121.4 -173.0 98.7 -271.9 90.3 -344.3 C 81.8 -416.6 99.1 -493.8 90.8 -551.6 C 82.6 -609.3 43.6 -655.9 40.6 -690.6 C 37.7 -725.2 55.7 -743.9 73.1 -759.7 C 90.5 -775.6 121.5 -786.8 145.0 -785.7 C 168.5 -784.6 198.4 -770.6 214.2 -753.2 C 230.1 -735.8 241.3 -704.8 240.2 -681.3 C 239.1 -657.8 225.1 -628.0 207.7 -612.1 C 190.3 -596.3 159.3 -585.1 135.8 -586.2 C 112.3 -587.3 82.5 -601.3 66.6 -618.7 C 50.7 -636.0 45.4 -652.7 40.6 -690.6 C 35.9 -728.4 50.4 -779.8 37.9 -845.9 C 25.5 -912.0 -7.2 -1023.9 -33.8 -1087.2 C -60.4 -1150.4 -94.6 -1199.5 -121.7 -1225.3 C -148.7 -1251.0 -173.1 -1245.9 -196.3 -1241.9 C -219.5 -1237.8 -247.3 -1220.1 -260.8 -1200.8 C -274.3 -1181.6 -281.4 -1149.4 -277.4 -1126.2 C -273.3 -1103.0 -255.6 -1075.2 -236.3 -1061.7 C -217.1 -1048.2 -184.9 -1041.0 -161.7 -1045.1 C -138.5 -1049.2 -110.7 -1066.9 -97.2 -1086.2 C -83.7 -1105.4 -76.6 -1137.6 -80.6 -1160.8 C -84.7 -1184.0 -84.3 -1187.8 -121.7 -1225.3 C -159.0 -1262.8 -259.1 -1339.0 -304.6 -1385.7 C -350.1 -1432.4 -357.8 -1465.1 -394.4 -1505.6 C -431.1 -1546.1 -482.1 -1573.3 -524.5 -1628.8 C -566.9 -1684.3 -617.0 -1778.5 -648.8 -1838.7 C -680.6 -1899.0 -685.3 -1933.4 -715.5 -1990.4 C -745.6 -2047.3 -785.0 -2126.3 -829.6 -2180.4 C -874.2 -2234.4 -927.0 -2276.1 -983.3 -2314.9 C -1039.7 -2353.7 -1105.5 -2386.2 -1167.7 -2413.2 C -1229.8 -2440.1 -1313.5 -2471.6 -1356.4 -2476.5 C -1399.3 -2481.3 -1409.4 -2460.2 -1424.8 -2442.4 C -1440.3 -2424.7 -1450.8 -2393.4 -1449.1 -2369.9 C -1447.5 -2346.5 -1432.8 -2317.0 -1415.1 -2301.5 C -1397.3 -2286.1 -1366.1 -2275.6 -1342.6 -2277.2 C -1319.1 -2278.8 -1289.6 -2293.5 -1274.2 -2311.3 C -1258.7 -2329.0 -1248.3 -2360.2 -1249.9 -2383.7 C -1251.5 -2407.2 -1266.2 -2436.7 -1283.9 -2452.2 C -1301.7 -2467.6 -1311.3 -2452.4 -1356.4 -2476.5 C -1401.5 -2500.6 -1521.3 -2576.8 -1554.3 -2596.9" stroke="#2E9C82" stroke-width="56" stroke-linecap="round" stroke-linejoin="round" opacity="0.8146580588538199"></path><path d="M 324.2 1147.0 C 316.9 1135.9 300.9 1092.6 280.4 1080.3 C 259.8 1068.0 223.3 1064.7 200.9 1073.1 C 178.4 1081.4 153.1 1107.9 145.7 1130.7 C 138.2 1153.4 143.1 1189.7 156.3 1209.7 C 169.4 1229.8 200.8 1248.6 224.7 1250.8 C 248.6 1253.0 282.9 1240.1 299.5 1222.8 C 316.0 1205.5 320.5 1194.8 324.2 1147.0 C 327.9 1099.2 306.9 1012.1 321.6 936.2 C 336.2 860.3 391.4 763.1 412.1 691.4 C 432.7 619.8 430.6 575.4 445.4 506.3 C 460.3 437.3 483.1 351.4 501.1 277.2 C 519.1 202.9 532.6 102.6 553.4 61.0 C 574.1 19.4 601.7 27.0 625.7 27.3 C 649.7 27.6 682.5 43.9 697.2 62.9 C 711.8 81.8 719.5 117.6 713.9 140.9 C 708.3 164.2 685.1 192.5 663.3 202.6 C 641.6 212.7 605.0 212.3 583.5 201.6 C 562.1 190.9 539.6 162.0 534.6 138.6 C 529.6 115.1 542.5 96.7 553.4 61.0 C 564.2 25.3 574.2 -16.6 599.7 -75.4 C 625.2 -134.2 676.0 -236.2 706.3 -292.0 C 736.6 -347.8 773.2 -377.8 781.4 -410.1 C 789.6 -442.4 772.3 -468.5 755.5 -485.6 C 738.6 -502.6 704.1 -514.9 680.3 -512.3 C 656.5 -509.8 625.4 -490.5 612.5 -470.3 C 599.6 -450.0 595.3 -413.7 603.1 -391.0 C 610.9 -368.3 636.7 -342.3 659.2 -334.3 C 681.8 -326.2 718.2 -330.1 738.6 -342.8 C 758.9 -355.4 752.8 -371.8 781.4 -410.1 C 810.0 -448.4 875.6 -518.0 910.1 -572.4 C 944.7 -626.8 981.3 -697.2 988.6 -736.6 C 995.9 -775.9 972.6 -793.5 953.8 -808.4 C 935.0 -823.3 899.3 -831.3 875.9 -825.9 C 852.6 -820.5 824.0 -797.6 813.7 -776.0 C 803.4 -754.4 803.5 -717.7 813.9 -696.2 C 824.4 -674.6 853.1 -651.9 876.4 -646.6 C 899.8 -641.3 935.5 -649.6 954.2 -664.6 C 972.9 -679.6 977.8 -702.8 988.6 -736.6 C 999.4 -770.3 997.2 -815.7 1019.0 -867.1 C 1040.9 -918.5 1078.7 -981.6 1119.9 -1045.1 C 1161.0 -1108.6 1234.2 -1193.3 1266.1 -1248.2 C 1298.0 -1303.1 1295.2 -1312.3 1311.1 -1374.5 C 1326.9 -1436.7 1341.1 -1574.2 1361.4 -1621.4 C 1381.6 -1668.6 1408.5 -1657.1 1432.4 -1657.7 C 1456.4 -1658.2 1489.7 -1643.1 1505.1 -1624.7 C 1520.5 -1606.4 1529.5 -1570.9 1524.7 -1547.4 C 1519.9 -1523.9 1497.7 -1494.7 1476.4 -1483.8 C 1455.1 -1472.9 1418.4 -1472.1 1396.6 -1482.0 C 1374.8 -1491.9 1351.3 -1520.0 1345.4 -1543.2 C 1339.5 -1566.4 1361.6 -1567.2 1361.4 -1621.4 C 1361.1 -1675.6 1343.5 -1790.0 1343.7 -1868.4 C 1343.9 -1946.9 1360.5 -2022.9 1362.5 -2092.0 C 1364.4 -2161.2 1357.7 -2228.2 1355.2 -2283.3 C 1352.7 -2338.5 1366.0 -2364.6 1347.3 -2422.7 C 1328.6 -2480.8 1273.4 -2594.1 1243.0 -2631.7 C 1212.6 -2669.4 1188.2 -2654.1 1165.0 -2648.4 C 1141.7 -2642.7 1113.4 -2619.5 1103.3 -2597.8 C 1093.2 -2576.1 1093.7 -2539.4 1104.4 -2518.0 C 1115.1 -2496.5 1144.0 -2474.1 1167.5 -2469.1 C 1190.9 -2464.1 1226.5 -2472.8 1245.0 -2488.0 C 1263.5 -2503.2 1278.9 -2536.4 1278.6 -2560.3 C 1278.3 -2584.3 1267.9 -2590.2 1243.0 -2631.7 C 1218.1 -2673.3 1158.0 -2745.9 1129.2 -2809.5 C 1100.3 -2873.0 1079.8 -2979.1 1070.0 -3013.0" stroke="#07231A" stroke-width="66" stroke-linecap="round" stroke-linejoin="round"></path><path d="M 324.2 1147.0 C 316.9 1135.9 300.9 1092.6 280.4 1080.3 C 259.8 1068.0 223.3 1064.7 200.9 1073.1 C 178.4 1081.4 153.1 1107.9 145.7 1130.7 C 138.2 1153.4 143.1 1189.7 156.3 1209.7 C 169.4 1229.8 200.8 1248.6 224.7 1250.8 C 248.6 1253.0 282.9 1240.1 299.5 1222.8 C 316.0 1205.5 320.5 1194.8 324.2 1147.0 C 327.9 1099.2 306.9 1012.1 321.6 936.2 C 336.2 860.3 391.4 763.1 412.1 691.4 C 432.7 619.8 430.6 575.4 445.4 506.3 C 460.3 437.3 483.1 351.4 501.1 277.2 C 519.1 202.9 532.6 102.6 553.4 61.0 C 574.1 19.4 601.7 27.0 625.7 27.3 C 649.7 27.6 682.5 43.9 697.2 62.9 C 711.8 81.8 719.5 117.6 713.9 140.9 C 708.3 164.2 685.1 192.5 663.3 202.6 C 641.6 212.7 605.0 212.3 583.5 201.6 C 562.1 190.9 539.6 162.0 534.6 138.6 C 529.6 115.1 542.5 96.7 553.4 61.0 C 564.2 25.3 574.2 -16.6 599.7 -75.4 C 625.2 -134.2 676.0 -236.2 706.3 -292.0 C 736.6 -347.8 773.2 -377.8 781.4 -410.1 C 789.6 -442.4 772.3 -468.5 755.5 -485.6 C 738.6 -502.6 704.1 -514.9 680.3 -512.3 C 656.5 -509.8 625.4 -490.5 612.5 -470.3 C 599.6 -450.0 595.3 -413.7 603.1 -391.0 C 610.9 -368.3 636.7 -342.3 659.2 -334.3 C 681.8 -326.2 718.2 -330.1 738.6 -342.8 C 758.9 -355.4 752.8 -371.8 781.4 -410.1 C 810.0 -448.4 875.6 -518.0 910.1 -572.4 C 944.7 -626.8 981.3 -697.2 988.6 -736.6 C 995.9 -775.9 972.6 -793.5 953.8 -808.4 C 935.0 -823.3 899.3 -831.3 875.9 -825.9 C 852.6 -820.5 824.0 -797.6 813.7 -776.0 C 803.4 -754.4 803.5 -717.7 813.9 -696.2 C 824.4 -674.6 853.1 -651.9 876.4 -646.6 C 899.8 -641.3 935.5 -649.6 954.2 -664.6 C 972.9 -679.6 977.8 -702.8 988.6 -736.6 C 999.4 -770.3 997.2 -815.7 1019.0 -867.1 C 1040.9 -918.5 1078.7 -981.6 1119.9 -1045.1 C 1161.0 -1108.6 1234.2 -1193.3 1266.1 -1248.2 C 1298.0 -1303.1 1295.2 -1312.3 1311.1 -1374.5 C 1326.9 -1436.7 1341.1 -1574.2 1361.4 -1621.4 C 1381.6 -1668.6 1408.5 -1657.1 1432.4 -1657.7 C 1456.4 -1658.2 1489.7 -1643.1 1505.1 -1624.7 C 1520.5 -1606.4 1529.5 -1570.9 1524.7 -1547.4 C 1519.9 -1523.9 1497.7 -1494.7 1476.4 -1483.8 C 1455.1 -1472.9 1418.4 -1472.1 1396.6 -1482.0 C 1374.8 -1491.9 1351.3 -1520.0 1345.4 -1543.2 C 1339.5 -1566.4 1361.6 -1567.2 1361.4 -1621.4 C 1361.1 -1675.6 1343.5 -1790.0 1343.7 -1868.4 C 1343.9 -1946.9 1360.5 -2022.9 1362.5 -2092.0 C 1364.4 -2161.2 1357.7 -2228.2 1355.2 -2283.3 C 1352.7 -2338.5 1366.0 -2364.6 1347.3 -2422.7 C 1328.6 -2480.8 1273.4 -2594.1 1243.0 -2631.7 C 1212.6 -2669.4 1188.2 -2654.1 1165.0 -2648.4 C 1141.7 -2642.7 1113.4 -2619.5 1103.3 -2597.8 C 1093.2 -2576.1 1093.7 -2539.4 1104.4 -2518.0 C 1115.1 -2496.5 1144.0 -2474.1 1167.5 -2469.1 C 1190.9 -2464.1 1226.5 -2472.8 1245.0 -2488.0 C 1263.5 -2503.2 1278.9 -2536.4 1278.6 -2560.3 C 1278.3 -2584.3 1267.9 -2590.2 1243.0 -2631.7 C 1218.1 -2673.3 1158.0 -2745.9 1129.2 -2809.5 C 1100.3 -2873.0 1079.8 -2979.1 1070.0 -3013.0" stroke="#3FB89A" stroke-width="52" stroke-linecap="round" stroke-linejoin="round" opacity="0.7492381777847186"></path></svg>