<svg xmlns="http://www.w3.org/2000/svg" viewBox="0 0 1920 1080" width="1920" height="1080" fill="none"><path d="M 2147.1 873.2 C 2117.9 856.8 2022.5 812.7 1971.9 774.8 C 1921.2 736.9 1888.7 680.5 1843.1 645.8 C 1797.5 611.1 1744.4 587.2 1698.5 566.5 C 1652.5 545.8 1624.4 544.9 1567.3 521.6 C 1510.1 498.3 1426.5 458.4 1355.5 426.4 C 1284.5 394.5 1181.8 358.5 1141.3 329.7 C 1100.8 300.9 1111.7 278.6 1112.5 253.5 C 1113.3 228.4 1127.7 196.4 1146.0 179.2 C 1164.3 162.1 1197.2 149.6 1222.2 150.4 C 1247.3 151.2 1279.3 165.7 1296.5 184.0 C 1313.7 202.3 1326.1 235.1 1325.3 260.2 C 1324.5 285.3 1310.1 317.3 1291.8 334.4 C 1273.5 351.6 1240.6 364.0 1215.6 363.2 C 1190.5 362.5 1189.5 360.2 1141.3 329.7 C 1093.0 299.2 992.0 219.3 926.0 180.1 C 860.0 140.8 779.9 121.3 745.3 94.2 C 710.6 67.1 716.7 42.5 718.0 17.4 C 719.2 -7.6 734.3 -39.4 752.9 -56.2 C 771.6 -73.0 804.7 -84.8 829.7 -83.5 C 854.8 -82.2 886.5 -67.1 903.3 -48.5 C 920.1 -29.9 931.9 3.2 930.6 28.3 C 929.3 53.3 914.3 85.0 895.6 101.9 C 877.0 118.7 843.9 130.4 818.9 129.2 C 793.8 127.9 791.8 108.7 745.3 94.2 C 698.7 79.6 605.3 55.8 539.5 41.8 C 473.7 27.9 415.3 23.0 350.5 10.6 C 285.6 -1.8 220.3 -8.3 150.5 -32.4 C 80.7 -56.5 -4.4 -103.3 -68.5 -133.8 C -132.6 -164.3 -181.2 -191.8 -234.1 -215.4 C -287.0 -239.0 -336.8 -248.5 -385.9 -275.5 C -434.9 -302.5 -477.9 -328.6 -528.5 -377.4 C -579.0 -426.3 -662.6 -536.8 -689.4 -568.6" stroke="#2E9C82" stroke-width="42" stroke-linecap="round" stroke-linejoin="round" opacity="0.5871679680538364"></path><path d="M 789.5 1235.1 C 801.2 1202.7 839.5 1096.3 859.7 1041.2 C 879.9 986.0 890.1 948.5 910.9 904.1 C 931.6 859.7 945.7 824.3 984.4 774.9 C 1023.0 725.5 1081.0 657.2 1143.0 607.6 C 1204.9 558.0 1300.4 509.6 1356.0 477.2 C 1411.7 444.9 1415.4 436.4 1477.0 413.3 C 1538.6 390.1 1672.7 344.6 1725.7 338.3 C 1778.7 332.0 1779.6 356.7 1794.9 375.5 C 1810.2 394.2 1820.0 426.6 1817.5 450.7 C 1815.1 474.7 1799.1 504.5 1780.4 519.9 C 1761.7 535.2 1729.3 544.9 1705.2 542.5 C 1681.1 540.1 1651.3 524.1 1636.0 505.4 C 1620.7 486.7 1610.9 454.2 1613.3 430.2 C 1615.7 406.1 1631.8 376.3 1650.5 361.0 C 1669.2 345.7 1674.9 342.1 1725.7 338.3 C 1776.4 334.5 1881.6 348.3 1954.9 338.3 C 2028.2 328.2 2108.3 298.7 2165.5 277.9 C 2222.8 257.2 2238.6 237.5 2298.2 213.9 C 2357.8 190.3 2446.6 160.5 2523.2 136.4 C 2599.9 112.3 2679.2 80.6 2758.1 69.3 C 2837.0 57.9 2928.7 64.8 2996.6 68.5 C 3064.5 72.2 3104.9 76.8 3165.5 91.6 C 3226.0 106.4 3327.4 146.2 3359.8 157.1" stroke="#A3E635" stroke-width="57" stroke-linecap="round" stroke-linejoin="round" opacity="0.7019738601054997"></path><path d="M 1595.6 -132.3 C 1575.4 -98.2 1512.2 -0.9 1474.5 72.1 C 1436.9 145.1 1404.8 242.4 1369.7 305.9 C 1334.7 369.4 1298.9 409.7 1264.1 453.3 C 1229.4 496.8 1205.4 521.2 1161.3 567.4 C 1117.2 613.5 1040.8 684.9 999.5 730.1 C 958.3 775.3 952.6 802.7 913.9 838.8 C 875.2 874.9 804.6 932.1 767.3 946.6 C 730.0 961.1 708.4 941.5 690.2 925.8 C 672.1 910.2 657.5 876.6 658.5 852.6 C 659.4 828.7 676.6 796.3 695.9 782.1 C 715.2 767.9 751.2 761.2 774.3 767.4 C 797.4 773.7 825.2 797.6 834.7 819.6 C 844.2 841.6 842.8 878.2 831.6 899.3 C 820.3 920.5 794.6 920.6 767.3 946.6 C 739.9 972.6 694.9 1015.8 667.5 1055.3 C 640.1 1094.9 624.8 1126.6 602.9 1184.1 C 581.1 1241.6 555.8 1338.7 536.5 1400.5 C 517.3 1462.4 488.3 1518.3 487.5 1555.2 C 486.8 1592.0 511.3 1609.3 532.0 1621.4 C 552.7 1633.6 589.1 1636.6 611.5 1628.0 C 633.9 1619.4 659.0 1592.8 666.2 1569.9 C 673.5 1547.1 668.3 1510.8 654.9 1490.9 C 641.6 1471.0 610.0 1452.5 586.1 1450.5 C 562.3 1448.5 528.1 1461.6 511.6 1479.1 C 495.2 1496.5 500.1 1521.6 487.5 1555.2 C 475.0 1588.7 444.8 1659.6 436.2 1680.5" stroke="#1F8A5B" stroke-width="52" stroke-linecap="round" stroke-linejoin="round" opacity="0.6489050026400947"></path></svg>