<svg xmlns="http://www.w3.org/2000/svg" viewBox="0 0 1920 1080" width="1920" height="1080" fill="none"><path d="M 413.2 1301.6 C 419.8 1274.4 442.6 1206.1 452.6 1138.2 C 462.6 1070.2 457.2 971.4 473.2 894.0 C 489.3 816.5 529.6 732.6 548.9 673.2 C 568.3 613.9 571.7 580.3 589.2 537.9 C 606.7 495.5 619.2 466.3 654.1 418.9 C 689.1 371.4 751.3 304.2 799.1 253.0 C 846.9 201.7 896.0 169.8 940.9 111.4 C 985.9 53.1 1028.9 -41.8 1068.8 -97.3 C 1108.7 -152.8 1131.1 -177.7 1180.3 -221.8 C 1229.5 -265.9 1310.9 -316.5 1364.0 -361.8 C 1417.2 -407.0 1456.2 -446.5 1499.4 -493.2 C 1542.6 -540.0 1585.5 -597.4 1623.3 -642.0 C 1661.0 -686.6 1688.2 -713.6 1725.8 -760.9 C 1763.4 -808.1 1819.0 -875.8 1848.9 -925.3 C 1878.7 -974.8 1889.6 -1008.2 1904.7 -1057.9 C 1919.9 -1107.5 1933.8 -1195.7 1939.7 -1223.3" stroke="#8FD11E" stroke-width="55" stroke-linecap="round" stroke-linejoin="round" opacity="0.6867254161508755"></path><path d="M 486.5 1297.2 C 505.3 1260.8 575.2 1136.6 599.2 1079.1 C 623.2 1021.7 618.8 995.2 630.5 952.3 C 642.2 909.3 652.9 862.4 669.5 821.6 C 686.0 780.8 703.5 756.7 729.5 707.2 C 755.5 657.8 794.4 584.5 825.3 525.0 C 856.3 465.5 885.1 409.3 915.3 350.5 C 945.4 291.7 972.0 225.9 1006.3 172.1 C 1040.5 118.3 1084.4 66.4 1120.6 27.6 C 1156.8 -11.2 1174.7 -24.7 1223.4 -60.4 C 1272.1 -96.2 1360.1 -142.1 1412.7 -186.9 C 1465.4 -231.7 1494.9 -290.0 1539.2 -329.5 C 1583.5 -368.9 1655.4 -407.9 1678.6 -423.6" stroke="#1F8A5B" stroke-width="54" stroke-linecap="round" stroke-linejoin="round" opacity="0.8560912470449694"></path><path d="M 391.7 1151.5 C 412.2 1119.3 477.7 1011.3 514.8 958.3 C 551.8 905.2 574.9 875.9 614.2 833.1 C 653.5 790.4 714.6 723.5 750.6 701.8 C 786.5 680.2 807.5 693.6 829.9 703.4 C 852.3 713.1 876.1 737.8 885.0 760.5 C 893.9 783.3 893.3 817.5 883.5 839.9 C 873.7 862.3 849.0 886.0 826.3 895.0 C 803.5 903.9 769.3 903.2 746.9 893.4 C 724.5 883.7 700.8 859.0 691.9 836.3 C 682.9 813.5 683.6 779.3 693.4 756.9 C 703.2 734.5 717.2 735.1 750.6 701.8 C 783.9 668.6 842.1 598.3 893.3 557.3 C 944.5 516.2 1009.2 479.3 1057.5 455.4 C 1105.9 431.6 1129.7 429.7 1183.3 414.2 C 1237.0 398.8 1318.6 374.8 1379.5 362.6 C 1440.3 350.4 1487.4 356.9 1548.4 340.9 C 1609.5 324.9 1674.3 289.5 1745.8 266.6 C 1817.2 243.7 1899.9 228.5 1977.1 203.6 C 2054.3 178.7 2130.3 138.3 2209.0 117.2 C 2287.6 96.0 2387.7 90.4 2449.0 76.7 C 2510.2 63.0 2534.5 52.8 2576.3 35.0 C 2618.1 17.3 2658.3 -9.9 2699.7 -29.9 C 2741.2 -49.9 2782.9 -67.7 2825.0 -84.9 C 2867.2 -102.0 2931.2 -125.0 2952.5 -133.0" stroke="#2E9C82" stroke-width="41" stroke-linecap="round" stroke-linejoin="round" opacity="0.8517153679393232"></path></svg>