<svg xmlns="http://www.w3.org/2000/svg" viewBox="0 0 1920 1080" width="1920" height="1080" fill="none"><path d="M -180.3 -62.1 C -157.0 -59.0 -85.2 -46.5 -40.6 -43.3 C 4.1 -40.1 39.4 -37.1 87.7 -42.9 C 135.9 -48.6 196.8 -69.2 249.1 -77.8 C 301.3 -86.4 345.7 -95.8 401.2 -94.5 C 456.8 -93.2 528.7 -71.6 582.4 -70.0 C 636.2 -68.3 670.4 -84.0 723.7 -84.4 C 776.9 -84.8 847.3 -70.6 902.0 -72.4 C 956.6 -74.2 995.7 -78.3 1051.4 -95.3 C 1107.2 -112.3 1185.4 -144.4 1236.5 -174.5 C 1287.7 -204.7 1318.7 -248.6 1358.2 -276.2 C 1397.8 -303.8 1425.9 -311.3 1473.6 -340.0 C 1521.4 -368.7 1616.4 -430.5 1645.0 -448.5" stroke="#8FD11E" stroke-width="47" stroke-linecap="round" stroke-linejoin="round" opacity="0.9628760555875489"></path><path d="M -249.4 568.6 C -215.7 573.9 -112.4 582.7 -47.1 600.8 C 18.3 618.9 85.9 650.8 142.5 677.1 C 199.2 703.3 226.3 730.4 292.9 758.4 C 359.6 786.3 460.9 809.4 542.7 844.7 C 624.6 879.9 700.9 929.1 784.0 969.8 C 867.1 1010.4 967.1 1064.2 1041.2 1088.5 C 1115.4 1112.8 1152.5 1101.8 1229.0 1115.3 C 1305.4 1128.9 1410.4 1164.6 1499.9 1169.9 C 1589.3 1175.1 1687.3 1155.2 1765.6 1146.7 C 1843.8 1138.2 1894.6 1138.5 1969.2 1118.8 C 2043.7 1099.0 2172.3 1043.4 2212.9 1028.3" stroke="#A3E635" stroke-width="46" stroke-linecap="round" stroke-linejoin="round" opacity="0.7621498290332966"></path><path d="M 1523.7 -136.9 C 1514.5 -112.9 1471.2 -27.4 1468.2 7.2 C 1465.1 41.8 1487.0 58.3 1505.3 70.6 C 1523.6 82.9 1557.0 87.8 1578.0 81.1 C 1599.1 74.5 1623.7 51.4 1631.6 30.8 C 1639.5 10.2 1636.8 -23.4 1625.7 -42.4 C 1614.5 -61.5 1586.6 -80.3 1564.7 -83.5 C 1542.9 -86.6 1510.7 -76.5 1494.6 -61.4 C 1478.5 -46.3 1490.8 -34.1 1468.2 7.2 C 1445.5 48.5 1396.9 130.5 1358.5 186.3 C 1320.2 242.1 1255.4 304.1 1238.2 342.0 C 1221.1 379.8 1241.6 396.3 1255.6 413.4 C 1269.6 430.4 1300.3 444.6 1322.3 444.3 C 1344.4 443.9 1374.6 428.9 1388.1 411.4 C 1401.6 393.9 1408.6 360.9 1403.3 339.5 C 1398.1 318.1 1376.7 292.0 1356.7 282.7 C 1336.6 273.4 1302.9 274.0 1283.2 283.8 C 1263.4 293.7 1262.8 306.1 1238.2 342.0 C 1213.6 377.9 1164.8 447.0 1135.4 499.2 C 1105.9 551.4 1089.3 604.8 1061.6 654.9 C 1033.9 705.0 1006.1 750.3 969.3 800.0 C 932.5 849.6 887.4 908.9 841.0 952.6 C 794.6 996.3 740.0 1035.3 690.9 1062.2 C 641.8 1089.0 605.4 1103.0 546.6 1113.8 C 487.8 1124.5 403.4 1131.2 338.1 1126.5 C 272.7 1121.7 210.8 1104.8 154.4 1085.5 C 98.0 1066.2 63.2 1034.5 -0.2 1010.4 C -63.6 986.4 -155.3 974.0 -226.1 941.2 C -297.0 908.3 -369.4 855.2 -425.1 813.3 C -480.8 771.4 -537.8 710.2 -560.4 689.6" stroke="#FFFFFF" stroke-width="35" stroke-linecap="round" stroke-linejoin="round" opacity="0.846217315341346"></path></svg>