<svg xmlns="http://www.w3.org/2000/svg" viewBox="0 0 1920 1080" width="1920" height="1080" fill="none"><path d="M -93.4 584.9 C -68.7 570.7 27.0 525.6 54.9 499.4 C 82.8 473.3 77.0 450.6 74.1 428.1 C 71.1 405.5 55.2 377.9 37.2 364.0 C 19.1 350.1 -11.6 341.9 -34.2 344.8 C -56.8 347.8 -84.4 363.7 -98.3 381.7 C -112.1 399.8 -120.4 430.5 -117.5 453.1 C -114.5 475.7 -98.6 503.3 -80.6 517.2 C -62.5 531.0 -31.7 539.3 -9.2 536.4 C 13.4 533.4 20.1 522.0 54.9 499.4 C 89.6 476.8 148.6 439.4 199.3 400.8 C 250.0 362.2 311.0 310.6 359.1 267.7 C 407.2 224.8 444.8 197.0 487.8 143.2 C 530.7 89.3 586.4 4.3 616.8 -55.4 C 647.3 -115.1 650.5 -183.2 670.4 -215.3 C 690.4 -247.5 713.9 -246.7 736.6 -248.3 C 759.3 -249.9 789.5 -239.7 806.7 -224.8 C 823.8 -209.8 838.0 -181.3 839.6 -158.6 C 841.2 -135.9 831.1 -105.7 816.1 -88.5 C 801.2 -71.4 772.7 -57.2 750.0 -55.6 C 727.3 -54.0 697.1 -64.1 679.9 -79.1 C 662.7 -94.0 648.5 -122.5 646.9 -145.2 C 645.3 -167.9 661.2 -166.2 670.4 -215.3 C 679.6 -264.4 693.4 -381.2 702.1 -439.8 C 710.8 -498.3 708.7 -519.0 722.5 -566.5 C 736.4 -614.0 756.6 -662.2 785.3 -724.8 C 814.1 -787.4 866.0 -877.6 895.1 -942.0 C 924.1 -1006.4 940.7 -1048.6 959.5 -1111.2 C 978.2 -1173.8 988.5 -1257.1 1007.7 -1317.7 C 1026.8 -1378.4 1043.4 -1425.6 1074.4 -1475.2 C 1105.3 -1524.8 1153.5 -1579.4 1193.2 -1615.5 C 1232.9 -1651.6 1272.2 -1657.7 1312.5 -1691.8 C 1352.7 -1725.9 1414.2 -1798.5 1434.6 -1819.9" stroke="#C6F66E" stroke-width="49" stroke-linecap="round" stroke-linejoin="round" opacity="0.706811177439522"></path><path d="M 1442.8 -154.0 C 1431.1 -153.0 1392.0 -140.4 1372.1 -148.0 C 1352.2 -155.6 1329.8 -179.3 1323.4 -199.6 C 1316.9 -219.9 1321.5 -252.2 1333.3 -269.9 C 1345.2 -287.6 1373.2 -304.2 1394.5 -306.0 C 1415.7 -307.7 1446.1 -296.1 1460.8 -280.6 C 1475.4 -265.1 1485.3 -234.1 1482.3 -213.0 C 1479.3 -191.9 1467.5 -195.2 1442.8 -154.0 C 1418.1 -112.8 1363.9 1.2 1334.1 34.3 C 1304.3 67.5 1284.3 51.2 1263.9 44.9 C 1243.5 38.6 1219.7 16.5 1211.9 -3.4 C 1204.1 -23.2 1206.5 -55.7 1217.2 -74.2 C 1227.9 -92.6 1254.8 -111.0 1275.8 -114.2 C 1296.9 -117.3 1328.0 -107.7 1343.7 -93.2 C 1359.3 -78.7 1371.2 -48.4 1369.6 -27.1 C 1368.0 -5.9 1352.5 3.6 1334.1 34.3 C 1315.7 65.0 1291.2 118.2 1259.0 157.0 C 1226.8 195.8 1183.9 236.6 1141.1 267.1 C 1098.4 297.5 1043.0 314.7 1002.5 339.5 C 962.0 364.2 939.4 391.5 898.2 415.5 C 857.0 439.6 796.7 463.3 755.3 483.8 C 713.9 504.2 678.1 534.0 649.7 538.2 C 621.3 542.5 598.6 525.5 584.9 509.2 C 571.2 492.9 563.0 461.3 567.2 440.4 C 571.4 419.5 591.0 393.5 610.0 383.8 C 628.9 374.0 661.5 373.1 680.9 381.8 C 700.4 390.6 721.3 415.5 726.7 436.1 C 732.0 456.8 725.6 488.7 712.7 505.7 C 699.9 522.7 684.0 525.7 649.7 538.2 C 615.3 550.8 561.5 560.0 506.5 581.2 C 451.5 602.3 375.0 645.2 319.6 665.1 C 264.3 685.0 225.0 680.6 174.4 700.6 C 123.9 720.6 65.7 760.1 16.3 785.0 C -33.0 809.9 -70.4 830.3 -121.6 849.9 C -172.9 869.5 -242.6 881.6 -291.3 902.7 C -340.0 923.9 -367.9 935.1 -413.7 976.8 C -459.6 1018.6 -543.2 1112.1 -566.5 1153.1 C -589.8 1194.1 -566.2 1205.7 -553.6 1222.9 C -541.0 1240.1 -512.2 1255.4 -490.9 1256.3 C -469.6 1257.2 -439.7 1244.2 -425.8 1228.1 C -411.8 1212.0 -403.3 1180.6 -407.2 1159.6 C -411.0 1138.7 -430.3 1112.4 -449.1 1102.4 C -467.9 1092.4 -500.5 1091.0 -520.0 1099.5 C -539.6 1107.9 -532.6 1122.3 -566.5 1153.1 C -600.4 1183.9 -671.7 1247.9 -723.5 1284.3 C -775.3 1320.7 -851.6 1357.2 -877.2 1371.7" stroke="#3FB89A" stroke-width="47" stroke-linecap="round" stroke-linejoin="round" opacity="0.7445534488768317"></path><path d="M 653.1 1369.3 C 647.4 1331.7 620.4 1207.7 618.8 1143.6 C 617.1 1079.6 624.3 1055.5 643.3 985.0 C 662.2 914.5 688.8 806.9 732.4 720.6 C 776.1 634.3 856.6 540.8 905.2 467.2 C 953.7 393.5 973.1 348.0 1023.9 278.8 C 1074.6 209.6 1163.8 126.5 1209.5 52.0 C 1255.1 -22.6 1264.6 -94.6 1297.7 -168.5 C 1330.8 -242.5 1365.1 -309.8 1408.2 -391.6 C 1451.2 -473.4 1517.1 -582.7 1555.8 -659.2 C 1594.6 -735.8 1609.5 -771.8 1640.7 -850.8 C 1672.0 -929.9 1718.1 -1044.6 1743.3 -1133.3 C 1768.5 -1221.9 1783.8 -1341.2 1791.9 -1382.7" stroke="#1F8A5B" stroke-width="55" stroke-linecap="round" stroke-linejoin="round" opacity="0.6496501290006563"></path><path d="M 889.7 -90.1 C 892.5 -50.9 892.7 72.2 906.3 145.2 C 919.9 218.2 946.2 292.1 971.4 347.9 C 996.7 403.7 1023.4 435.0 1057.9 479.7 C 1092.4 524.4 1132.0 558.6 1178.3 616.1 C 1224.7 673.6 1278.0 767.5 1335.9 824.6 C 1393.8 881.8 1470.1 916.7 1525.8 959.0 C 1581.5 1001.2 1624.5 1045.6 1670.0 1078.0 C 1715.5 1110.5 1738.2 1121.3 1798.6 1153.9 C 1859.0 1186.4 1971.4 1232.7 2032.4 1273.4 C 2093.4 1314.2 2143.8 1364.3 2164.8 1398.4 C 2185.7 1432.5 2170.3 1457.3 2158.1 1477.9 C 2145.9 1498.6 2115.5 1518.9 2091.8 1522.3 C 2068.0 1525.6 2033.1 1514.5 2015.7 1498.1 C 1998.3 1481.6 1985.2 1447.4 1987.2 1423.6 C 1989.2 1399.7 2007.8 1368.1 2027.7 1354.8 C 2047.6 1341.5 2083.9 1336.3 2106.7 1343.6 C 2129.6 1350.9 2125.6 1359.6 2164.8 1398.4 C 2203.9 1437.2 2289.5 1526.5 2341.6 1576.6 C 2393.8 1626.6 2434.7 1666.8 2477.6 1698.7 C 2520.5 1730.6 2546.3 1734.2 2598.9 1767.9 C 2651.5 1801.7 2726.3 1857.6 2793.3 1901.2 C 2860.2 1944.8 2966.1 2008.0 3000.7 2029.4" stroke="#2E9C82" stroke-width="58" stroke-linecap="round" stroke-linejoin="round" opacity="0.5966623901273125"></path></svg>