<svg xmlns="http://www.w3.org/2000/svg" viewBox="0 0 1920 1080" width="1920" height="1080" fill="none"><path d="M 1068.0 -87.6 C 1084.3 -43.0 1130.3 106.6 1165.8 180.4 C 1201.4 254.1 1236.7 301.0 1281.5 354.9 C 1326.2 408.8 1376.3 463.4 1434.3 503.8 C 1492.3 544.2 1575.1 565.0 1629.5 597.5 C 1683.9 630.1 1702.5 660.8 1760.6 699.2 C 1818.7 737.6 1917.9 781.7 1978.1 827.8 C 2038.4 874.0 2063.4 924.8 2122.1 976.3 C 2180.9 1027.7 2262.8 1087.2 2330.5 1136.7 C 2398.2 1186.3 2467.2 1243.1 2528.2 1273.7 C 2589.1 1304.2 2656.5 1320.7 2696.1 1319.9 C 2735.7 1319.2 2753.5 1292.1 2765.7 1269.3 C 2777.9 1246.5 2779.7 1207.1 2769.5 1183.3 C 2759.4 1159.5 2729.6 1133.5 2704.7 1126.7 C 2679.7 1119.8 2640.9 1126.9 2620.0 1142.1 C 2599.0 1157.3 2580.3 1192.1 2579.2 1217.9 C 2578.0 1243.7 2593.6 1280.1 2613.1 1297.1 C 2632.5 1314.1 2656.9 1304.0 2696.1 1319.9 C 2735.3 1335.8 2780.1 1373.2 2848.2 1392.5 C 2916.4 1411.8 3022.3 1427.8 3104.9 1435.8 C 3187.5 1443.8 3260.8 1454.3 3343.7 1440.4 C 3426.7 1426.6 3554.6 1380.6 3602.6 1352.4 C 3650.6 1324.3 3634.4 1297.1 3631.7 1271.4 C 3629.0 1245.7 3608.3 1212.1 3586.6 1198.1 C 3564.8 1184.2 3525.6 1179.4 3501.1 1187.7 C 3476.6 1196.0 3448.4 1223.7 3439.7 1248.1 C 3430.9 1272.4 3435.0 1311.7 3448.5 1333.7 C 3462.1 1355.7 3495.4 1377.0 3521.0 1380.2 C 3546.7 1383.3 3553.0 1376.0 3602.6 1352.4 C 3652.1 1328.8 3782.2 1257.6 3818.1 1238.6" stroke="#8FD11E" stroke-width="57" stroke-linecap="round" stroke-linejoin="round" opacity="0.7506061115767806"></path><path d="M 1726.8 1249.9 C 1726.9 1216.6 1735.1 1110.7 1727.1 1050.4 C 1719.2 990.0 1679.1 926.2 1679.1 887.7 C 1679.1 849.2 1705.2 831.5 1727.1 819.2 C 1749.0 806.9 1787.2 804.6 1810.5 814.0 C 1833.7 823.5 1859.5 851.9 1866.6 876.0 C 1873.7 900.1 1867.5 937.9 1853.1 958.5 C 1838.7 979.0 1805.2 997.8 1780.2 999.4 C 1755.1 1000.9 1719.6 986.5 1702.8 967.9 C 1685.9 949.3 1688.8 926.2 1679.1 887.7 C 1669.4 849.2 1651.1 807.9 1644.5 736.6 C 1637.9 665.4 1642.4 545.7 1639.5 460.2 C 1636.6 374.7 1627.4 288.8 1627.2 223.7 C 1626.9 158.6 1637.6 135.3 1637.9 69.6 C 1638.1 3.9 1627.8 -103.0 1628.8 -170.4 C 1629.8 -237.9 1632.4 -264.1 1643.8 -335.3 C 1655.2 -406.4 1676.0 -547.3 1697.3 -597.3 C 1718.7 -647.3 1746.7 -634.7 1771.8 -635.3 C 1796.9 -635.8 1831.8 -620.0 1847.9 -600.7 C 1864.0 -581.5 1873.4 -544.3 1868.4 -519.7 C 1863.3 -495.1 1840.1 -464.6 1817.8 -453.2 C 1795.4 -441.8 1757.1 -440.9 1734.2 -451.3 C 1711.3 -461.6 1686.8 -491.0 1680.6 -515.4 C 1674.5 -539.7 1685.1 -541.0 1697.3 -597.3 C 1709.6 -653.5 1735.5 -781.3 1754.3 -852.7 C 1773.2 -924.1 1788.1 -992.0 1810.5 -1025.8 C 1832.9 -1059.5 1863.7 -1057.4 1888.7 -1055.2 C 1913.7 -1053.0 1946.6 -1033.3 1960.5 -1012.4 C 1974.3 -991.4 1979.5 -953.4 1971.7 -929.5 C 1964.0 -905.7 1937.5 -877.9 1914.0 -869.1 C 1890.5 -860.3 1852.3 -863.7 1830.8 -876.6 C 1809.2 -889.4 1788.1 -921.4 1784.7 -946.3 C 1781.3 -971.2 1798.4 -983.2 1810.5 -1025.8 C 1822.6 -1068.3 1848.6 -1127.6 1857.2 -1201.6 C 1865.9 -1275.5 1846.3 -1384.9 1862.4 -1469.6 C 1878.6 -1554.2 1924.4 -1648.8 1954.3 -1709.6 C 1984.3 -1770.4 2009.4 -1789.0 2042.0 -1834.3 C 2074.7 -1879.7 2116.3 -1919.0 2150.3 -1981.7 C 2184.4 -2044.5 2223.0 -2140.8 2246.5 -2210.7 C 2270.0 -2280.7 2290.0 -2325.2 2291.3 -2401.3 C 2292.5 -2477.4 2260.0 -2622.9 2253.7 -2667.3" stroke="#3FB89A" stroke-width="46" stroke-linecap="round" stroke-linejoin="round" opacity="0.7895059565315022"></path><path d="M 2114.5 841.8 C 2110.3 828.7 2085.6 788.1 2088.9 763.5 C 2092.1 739.0 2112.8 707.5 2134.0 694.7 C 2155.2 682.0 2192.8 678.5 2216.0 687.1 C 2239.2 695.7 2265.4 723.0 2273.1 746.5 C 2280.8 770.0 2275.8 807.4 2262.2 828.1 C 2248.7 848.7 2216.3 868.2 2191.7 870.5 C 2167.1 872.8 2165.8 849.4 2114.5 841.8 C 2063.3 834.2 1950.0 830.7 1884.1 824.8 C 1818.2 818.9 1782.0 813.6 1719.0 806.2 C 1655.9 798.8 1579.9 799.7 1505.8 780.3 C 1431.7 760.8 1350.9 729.3 1274.5 689.3 C 1198.0 649.3 1111.3 572.4 1046.9 540.3 C 982.5 508.2 951.6 518.4 888.2 496.5 C 824.7 474.7 729.5 437.0 666.1 409.3 C 602.7 381.6 570.4 358.4 507.8 330.4 C 445.3 302.4 351.0 264.6 290.7 241.1 C 230.4 217.5 202.3 220.8 146.2 189.1 C 90.1 157.3 23.6 84.7 -45.8 50.7 C -115.2 16.8 -201.0 6.9 -270.1 -14.6 C -339.2 -36.1 -397.1 -49.8 -460.2 -78.3 C -523.3 -106.8 -597.0 -152.6 -648.8 -185.7 C -700.6 -218.7 -737.4 -265.0 -771.1 -276.6 C -804.7 -288.3 -831.9 -271.7 -850.7 -255.6 C -869.5 -239.5 -884.7 -205.0 -883.9 -180.3 C -883.0 -155.6 -865.5 -122.1 -845.7 -107.3 C -825.8 -92.6 -788.7 -85.4 -764.8 -91.8 C -740.9 -98.1 -712.2 -122.6 -702.2 -145.2 C -692.3 -167.9 -693.6 -205.6 -705.0 -227.5 C -716.5 -249.4 -742.0 -240.6 -771.1 -276.6 C -800.1 -312.7 -861.2 -415.9 -879.3 -443.7" stroke="#C6F66E" stroke-width="47" stroke-linecap="round" stroke-linejoin="round" opacity="0.8581144568277522"></path><path d="M 2022.2 988.0 C 1988.4 969.9 1872.2 919.9 1819.0 879.2 C 1765.8 838.6 1719.8 779.7 1702.9 744.0 C 1686.1 708.4 1703.6 684.6 1717.9 665.2 C 1732.2 645.9 1764.8 628.7 1788.9 627.8 C 1813.0 626.9 1846.7 641.7 1862.4 660.0 C 1878.1 678.3 1887.6 713.8 1883.1 737.5 C 1878.5 761.2 1856.7 790.7 1835.3 802.0 C 1814.0 813.2 1777.2 814.6 1755.2 804.9 C 1733.1 795.2 1728.3 793.0 1702.9 744.0 C 1677.5 695.0 1648.2 580.2 1602.7 510.8 C 1557.2 441.5 1473.5 380.2 1430.1 328.0 C 1386.7 275.8 1379.0 243.6 1342.3 197.6 C 1305.7 151.7 1255.1 92.2 1210.3 52.1 C 1165.5 12.1 1113.5 -6.4 1073.6 -42.5 C 1033.6 -78.5 1006.3 -125.4 970.8 -164.0 C 935.3 -202.5 897.5 -215.7 860.3 -273.7 C 823.2 -331.7 790.8 -435.7 747.9 -511.8 C 704.9 -587.9 635.2 -669.1 602.8 -730.3 C 570.4 -791.5 554.5 -843.0 553.6 -879.0 C 552.7 -915.0 576.8 -933.7 597.4 -946.2 C 618.1 -958.7 654.7 -962.2 677.3 -953.8 C 699.9 -945.5 725.5 -919.0 733.0 -896.2 C 740.6 -873.3 735.9 -836.8 722.7 -816.6 C 709.5 -796.4 678.0 -777.4 654.1 -775.1 C 630.1 -772.8 595.5 -785.5 578.8 -802.9 C 562.1 -820.2 573.8 -845.4 553.6 -879.0 C 533.5 -912.6 470.6 -970.6 457.9 -1004.4 C 445.2 -1038.3 462.0 -1063.7 477.4 -1082.2 C 492.8 -1100.7 526.3 -1116.0 550.4 -1115.5 C 574.5 -1115.0 607.3 -1098.3 621.9 -1079.2 C 636.5 -1060.0 644.0 -1024.0 638.1 -1000.6 C 632.2 -977.2 608.7 -948.9 586.8 -939.0 C 564.8 -929.0 528.0 -929.7 506.6 -940.7 C 485.1 -951.6 481.5 -954.4 457.9 -1004.4 C 434.3 -1054.4 395.3 -1184.8 364.9 -1240.8 C 334.6 -1296.9 312.1 -1301.9 275.8 -1340.9 C 239.5 -1380.0 168.6 -1452.8 147.2 -1475.2" stroke="#FFFFFF" stroke-width="31" stroke-linecap="round" stroke-linejoin="round" opacity="0.9623385199112817"></path><path d="M 2225.2 609.2 C 2185.9 616.1 2070.5 628.7 1989.5 650.7 C 1908.5 672.8 1809.5 707.7 1739.1 741.3 C 1668.6 774.9 1609.3 838.6 1566.8 852.5 C 1524.2 866.3 1502.7 842.9 1484.0 824.6 C 1465.2 806.2 1451.5 768.6 1454.1 742.5 C 1456.8 716.4 1477.7 682.2 1499.7 668.0 C 1521.8 653.7 1561.6 648.8 1586.4 657.1 C 1611.3 665.5 1640.0 693.5 1648.9 718.2 C 1657.9 742.8 1653.9 782.7 1640.2 805.1 C 1626.5 827.5 1602.7 814.0 1566.8 852.5 C 1530.8 890.9 1470.9 981.3 1424.3 1035.8 C 1377.6 1090.2 1329.4 1119.7 1286.7 1178.9 C 1243.9 1238.1 1215.9 1327.8 1167.6 1390.9 C 1119.3 1453.9 1054.9 1499.7 996.8 1557.1 C 938.8 1614.5 880.6 1690.3 819.2 1735.4 C 757.8 1780.4 697.8 1799.5 628.5 1827.5 C 559.2 1855.5 453.2 1898.6 403.4 1903.4 C 353.7 1908.1 343.7 1878.4 330.0 1856.1 C 316.3 1833.7 312.3 1793.8 321.2 1769.2 C 330.2 1744.5 358.8 1716.5 383.7 1708.1 C 408.5 1699.7 448.3 1704.6 470.4 1718.8 C 492.4 1733.1 513.4 1767.2 516.0 1793.3 C 518.7 1819.4 505.0 1857.1 486.2 1875.5 C 467.5 1893.8 447.1 1877.9 403.4 1903.4 C 359.8 1928.9 255.2 1993.2 224.5 2028.6 C 193.8 2064.0 209.2 2091.5 219.0 2115.8 C 228.9 2140.1 258.6 2167.0 283.8 2174.4 C 308.9 2181.8 348.5 2175.4 370.0 2160.3 C 391.5 2145.3 411.1 2110.3 412.8 2084.2 C 414.4 2058.0 399.3 2020.8 379.9 2003.2 C 360.4 1985.6 322.0 1974.3 296.1 1978.5 C 270.2 1982.7 262.7 1987.3 224.5 2028.6 C 186.3 2069.9 107.7 2193.3 66.9 2226.3 C 26.0 2259.2 3.2 2237.7 -20.5 2226.3 C -44.1 2214.9 -69.1 2183.6 -75.0 2158.0 C -80.8 2132.4 -71.9 2093.3 -55.5 2072.8 C -39.2 2052.3 -3.1 2034.9 23.2 2034.9 C 49.4 2034.9 85.5 2052.3 101.9 2072.8 C 118.3 2093.3 127.2 2132.4 121.3 2158.0 C 115.5 2183.5 96.8 2199.7 66.9 2226.3 C 36.9 2252.8 -12.5 2279.4 -58.4 2317.1 C -104.3 2354.9 -183.6 2430.0 -208.7 2452.6" stroke="#8FD11E" stroke-width="49" stroke-linecap="round" stroke-linejoin="round" opacity="0.8346477396786213"></path></svg>