<svg xmlns="http://www.w3.org/2000/svg" viewBox="0 0 1920 1080" width="1920" height="1080" fill="none"><path d="M -160.0 240.0 C -134.1 244.2 -68.9 255.6 -4.9 265.5 C 59.2 275.4 156.8 292.6 224.4 299.4 C 292.1 306.1 344.7 309.9 401.0 306.2 C 457.4 302.5 514.2 288.2 562.6 276.9 C 610.9 265.6 641.9 259.9 691.3 238.4 C 740.6 216.8 809.9 184.8 858.7 147.7 C 907.5 110.5 942.1 58.5 984.4 15.5 C 1026.7 -27.5 1091.1 -77.0 1112.5 -110.2 C 1134.0 -143.4 1121.7 -162.7 1113.3 -183.7 C 1104.8 -204.7 1082.6 -227.3 1061.8 -236.2 C 1041.0 -245.0 1009.3 -245.3 988.3 -236.9 C 967.3 -228.4 944.7 -206.2 935.8 -185.4 C 927.0 -164.6 926.7 -132.9 935.1 -111.9 C 943.6 -90.9 965.8 -68.3 986.6 -59.5 C 1007.4 -50.6 1039.1 -50.3 1060.1 -58.7 C 1081.1 -67.2 1071.0 -81.0 1112.5 -110.2 C 1154.1 -139.5 1255.3 -202.0 1309.3 -234.2 C 1363.2 -266.5 1392.9 -277.5 1436.5 -303.8 C 1480.0 -330.1 1525.4 -360.7 1570.6 -392.2 C 1615.8 -423.8 1654.7 -456.8 1707.5 -493.2 C 1760.3 -529.6 1820.2 -578.5 1887.4 -610.5 C 1954.6 -642.5 2051.0 -667.6 2110.6 -685.1 C 2170.3 -702.7 2203.5 -699.3 2245.3 -715.9 C 2287.2 -732.4 2342.2 -773.0 2361.6 -784.4" stroke="#07231A" stroke-width="60" stroke-linecap="round" stroke-linejoin="round"></path><path d="M -160.0 240.0 C -134.1 244.2 -68.9 255.6 -4.9 265.5 C 59.2 275.4 156.8 292.6 224.4 299.4 C 292.1 306.1 344.7 309.9 401.0 306.2 C 457.4 302.5 514.2 288.2 562.6 276.9 C 610.9 265.6 641.9 259.9 691.3 238.4 C 740.6 216.8 809.9 184.8 858.7 147.7 C 907.5 110.5 942.1 58.5 984.4 15.5 C 1026.7 -27.5 1091.1 -77.0 1112.5 -110.2 C 1134.0 -143.4 1121.7 -162.7 1113.3 -183.7 C 1104.8 -204.7 1082.6 -227.3 1061.8 -236.2 C 1041.0 -245.0 1009.3 -245.3 988.3 -236.9 C 967.3 -228.4 944.7 -206.2 935.8 -185.4 C 927.0 -164.6 926.7 -132.9 935.1 -111.9 C 943.6 -90.9 965.8 -68.3 986.6 -59.5 C 1007.4 -50.6 1039.1 -50.3 1060.1 -58.7 C 1081.1 -67.2 1071.0 -81.0 1112.5 -110.2 C 1154.1 -139.5 1255.3 -202.0 1309.3 -234.2 C 1363.2 -266.5 1392.9 -277.5 1436.5 -303.8 C 1480.0 -330.1 1525.4 -360.7 1570.6 -392.2 C 1615.8 -423.8 1654.7 -456.8 1707.5 -493.2 C 1760.3 -529.6 1820.2 -578.5 1887.4 -610.5 C 1954.6 -642.5 2051.0 -667.6 2110.6 -685.1 C 2170.3 -702.7 2203.5 -699.3 2245.3 -715.9 C 2287.2 -732.4 2342.2 -773.0 2361.6 -784.4" stroke="#2E9C82" stroke-width="46" stroke-linecap="round" stroke-linejoin="round"></path><path d="M -120.0 620.0 C -85.0 609.9 25.3 585.6 90.1 559.4 C 155.0 533.2 225.2 494.5 268.9 462.8 C 312.6 431.1 326.2 385.4 352.4 369.0 C 378.5 352.7 404.4 357.3 425.8 364.8 C 447.1 372.2 470.8 393.2 480.7 413.6 C 490.5 434.0 492.4 465.6 484.9 487.0 C 477.5 508.4 456.5 532.0 436.1 541.9 C 415.7 551.8 384.1 553.6 362.7 546.2 C 341.3 538.7 317.7 517.7 307.8 497.3 C 297.9 477.0 296.1 445.3 303.5 423.9 C 311.0 402.6 318.5 403.0 352.4 369.0 C 386.3 335.1 458.4 254.9 506.9 220.1 C 555.3 185.3 594.8 171.7 643.0 160.2 C 691.3 148.7 750.8 161.6 796.5 150.9 C 842.3 140.1 862.9 111.3 917.6 95.6 C 972.3 79.8 1066.6 70.8 1124.8 56.3 C 1183.1 41.7 1217.9 19.1 1267.0 8.3 C 1316.0 -2.5 1364.0 5.6 1419.1 -8.6 C 1474.2 -22.7 1543.4 -44.7 1597.4 -76.5 C 1651.5 -108.3 1699.0 -158.0 1743.4 -199.3 C 1787.7 -240.6 1828.9 -283.9 1863.6 -324.3 C 1898.3 -364.6 1911.8 -401.9 1951.6 -441.6 C 1991.4 -481.3 2060.9 -528.4 2102.3 -562.5 C 2143.7 -596.5 2167.6 -601.6 2200.2 -645.7 C 2232.8 -689.8 2281.4 -796.8 2297.7 -827.0" stroke="#07231A" stroke-width="66" stroke-linecap="round" stroke-linejoin="round"></path><path d="M -120.0 620.0 C -85.0 609.9 25.3 585.6 90.1 559.4 C 155.0 533.2 225.2 494.5 268.9 462.8 C 312.6 431.1 326.2 385.4 352.4 369.0 C 378.5 352.7 404.4 357.3 425.8 364.8 C 447.1 372.2 470.8 393.2 480.7 413.6 C 490.5 434.0 492.4 465.6 484.9 487.0 C 477.5 508.4 456.5 532.0 436.1 541.9 C 415.7 551.8 384.1 553.6 362.7 546.2 C 341.3 538.7 317.7 517.7 307.8 497.3 C 297.9 477.0 296.1 445.3 303.5 423.9 C 311.0 402.6 318.5 403.0 352.4 369.0 C 386.3 335.1 458.4 254.9 506.9 220.1 C 555.3 185.3 594.8 171.7 643.0 160.2 C 691.3 148.7 750.8 161.6 796.5 150.9 C 842.3 140.1 862.9 111.3 917.6 95.6 C 972.3 79.8 1066.6 70.8 1124.8 56.3 C 1183.1 41.7 1217.9 19.1 1267.0 8.3 C 1316.0 -2.5 1364.0 5.6 1419.1 -8.6 C 1474.2 -22.7 1543.4 -44.7 1597.4 -76.5 C 1651.5 -108.3 1699.0 -158.0 1743.4 -199.3 C 1787.7 -240.6 1828.9 -283.9 1863.6 -324.3 C 1898.3 -364.6 1911.8 -401.9 1951.6 -441.6 C 1991.4 -481.3 2060.9 -528.4 2102.3 -562.5 C 2143.7 -596.5 2167.6 -601.6 2200.2 -645.7 C 2232.8 -689.8 2281.4 -796.8 2297.7 -827.0" stroke="#A3E635" stroke-width="52" stroke-linecap="round" stroke-linejoin="round"></path><path d="M 520.0 1240.0 C 514.0 1229.7 501.9 1190.3 484.1 1178.3 C 466.3 1166.3 433.9 1161.5 413.5 1167.9 C 393.0 1174.3 369.1 1196.6 361.3 1216.6 C 353.5 1236.6 356.1 1269.2 366.8 1287.8 C 377.6 1306.3 404.8 1324.7 426.0 1327.8 C 447.2 1330.9 478.5 1321.2 494.1 1306.5 C 509.8 1291.9 503.9 1273.3 520.0 1240.0 C 536.1 1206.7 562.1 1146.6 590.8 1106.9 C 619.4 1067.3 655.8 1041.3 691.9 1002.0 C 728.0 962.7 770.6 903.0 807.4 871.1 C 844.1 839.3 866.2 840.4 912.4 811.1 C 958.5 781.8 1026.1 725.3 1084.2 695.3 C 1142.3 665.3 1202.6 644.1 1261.1 631.0 C 1319.7 618.0 1385.6 622.3 1435.4 616.8 C 1485.1 611.2 1530.3 592.6 1559.8 597.5 C 1589.2 602.3 1604.4 625.9 1612.3 645.9 C 1620.2 665.8 1617.9 698.5 1607.2 717.1 C 1596.6 735.7 1569.6 754.2 1548.4 757.5 C 1527.2 760.8 1495.9 751.3 1480.1 736.8 C 1464.3 722.2 1452.2 691.8 1453.7 670.4 C 1455.3 649.0 1471.5 620.6 1489.2 608.4 C 1506.9 596.3 1526.8 600.0 1559.8 597.5 C 1592.8 595.0 1627.2 598.3 1687.2 593.7 C 1747.2 589.0 1852.5 573.8 1919.5 569.3 C 1986.5 564.8 2053.3 557.8 2089.1 566.5 C 2125.0 575.2 2129.4 600.8 2134.6 621.6 C 2139.7 642.4 2132.9 674.5 2119.8 691.5 C 2106.7 708.5 2077.5 723.2 2056.0 723.5 C 2034.6 723.9 2004.8 710.1 1991.2 693.6 C 1977.5 677.1 1969.7 645.2 1974.2 624.3 C 1978.6 603.3 1998.6 577.3 2017.7 567.7 C 2036.9 558.1 2053.1 565.8 2089.1 566.5 C 2125.2 567.3 2187.5 578.3 2234.1 572.1 C 2280.6 565.9 2314.1 534.1 2368.5 529.3 C 2422.9 524.6 2498.1 540.3 2560.4 543.7 C 2622.6 547.1 2711.8 548.8 2742.1 549.8" stroke="#07231A" stroke-width="56" stroke-linecap="round" stroke-linejoin="round"></path><path d="M 520.0 1240.0 C 514.0 1229.7 501.9 1190.3 484.1 1178.3 C 466.3 1166.3 433.9 1161.5 413.5 1167.9 C 393.0 1174.3 369.1 1196.6 361.3 1216.6 C 353.5 1236.6 356.1 1269.2 366.8 1287.8 C 377.6 1306.3 404.8 1324.7 426.0 1327.8 C 447.2 1330.9 478.5 1321.2 494.1 1306.5 C 509.8 1291.9 503.9 1273.3 520.0 1240.0 C 536.1 1206.7 562.1 1146.6 590.8 1106.9 C 619.4 1067.3 655.8 1041.3 691.9 1002.0 C 728.0 962.7 770.6 903.0 807.4 871.1 C 844.1 839.3 866.2 840.4 912.4 811.1 C 958.5 781.8 1026.1 725.3 1084.2 695.3 C 1142.3 665.3 1202.6 644.1 1261.1 631.0 C 1319.7 618.0 1385.6 622.3 1435.4 616.8 C 1485.1 611.2 1530.3 592.6 1559.8 597.5 C 1589.2 602.3 1604.4 625.9 1612.3 645.9 C 1620.2 665.8 1617.9 698.5 1607.2 717.1 C 1596.6 735.7 1569.6 754.2 1548.4 757.5 C 1527.2 760.8 1495.9 751.3 1480.1 736.8 C 1464.3 722.2 1452.2 691.8 1453.7 670.4 C 1455.3 649.0 1471.5 620.6 1489.2 608.4 C 1506.9 596.3 1526.8 600.0 1559.8 597.5 C 1592.8 595.0 1627.2 598.3 1687.2 593.7 C 1747.2 589.0 1852.5 573.8 1919.5 569.3 C 1986.5 564.8 2053.3 557.8 2089.1 566.5 C 2125.0 575.2 2129.4 600.8 2134.6 621.6 C 2139.7 642.4 2132.9 674.5 2119.8 691.5 C 2106.7 708.5 2077.5 723.2 2056.0 723.5 C 2034.6 723.9 2004.8 710.1 1991.2 693.6 C 1977.5 677.1 1969.7 645.2 1974.2 624.3 C 1978.6 603.3 1998.6 577.3 2017.7 567.7 C 2036.9 558.1 2053.1 565.8 2089.1 566.5 C 2125.2 567.3 2187.5 578.3 2234.1 572.1 C 2280.6 565.9 2314.1 534.1 2368.5 529.3 C 2422.9 524.6 2498.1 540.3 2560.4 543.7 C 2622.6 547.1 2711.8 548.8 2742.1 549.8" stroke="#3FB89A" stroke-width="42" stroke-linecap="round" stroke-linejoin="round"></path><path d="M 1500.0 -120.0 C 1494.2 -97.3 1482.1 -34.6 1465.1 16.2 C 1448.2 67.0 1410.8 119.6 1398.4 184.8 C 1386.1 250.0 1391.5 332.9 1391.0 407.5 C 1390.6 482.0 1401.6 558.2 1395.7 631.8 C 1389.8 705.4 1364.5 781.7 1355.5 849.1 C 1346.6 916.6 1352.8 982.0 1341.8 1036.4 C 1330.8 1090.9 1315.3 1123.3 1289.4 1175.8 C 1263.6 1228.2 1216.8 1289.1 1186.8 1351.1 C 1156.8 1413.1 1127.1 1482.3 1109.4 1547.9 C 1091.6 1613.4 1095.6 1677.1 1080.2 1744.2 C 1064.8 1811.3 1046.6 1890.3 1017.0 1950.5 C 987.5 2010.6 920.1 2067.2 902.9 2105.0 C 885.7 2142.9 902.2 2158.3 913.9 2177.7 C 925.6 2197.1 951.1 2215.9 973.0 2221.4 C 995.0 2226.8 1026.3 2222.1 1045.7 2210.4 C 1065.1 2198.7 1083.9 2173.3 1089.4 2151.3 C 1094.8 2129.3 1090.1 2098.0 1078.4 2078.6 C 1066.7 2059.2 1041.2 2040.4 1019.3 2035.0 C 997.3 2029.5 966.0 2034.2 946.6 2045.9 C 927.2 2057.6 929.2 2080.4 902.9 2105.0 C 876.7 2129.7 828.1 2152.5 789.3 2193.7 C 750.5 2234.9 715.1 2306.1 670.2 2352.4 C 625.2 2398.8 544.8 2452.0 519.7 2471.9" stroke="#07231A" stroke-width="62" stroke-linecap="round" stroke-linejoin="round"></path><path d="M 1500.0 -120.0 C 1494.2 -97.3 1482.1 -34.6 1465.1 16.2 C 1448.2 67.0 1410.8 119.6 1398.4 184.8 C 1386.1 250.0 1391.5 332.9 1391.0 407.5 C 1390.6 482.0 1401.6 558.2 1395.7 631.8 C 1389.8 705.4 1364.5 781.7 1355.5 849.1 C 1346.6 916.6 1352.8 982.0 1341.8 1036.4 C 1330.8 1090.9 1315.3 1123.3 1289.4 1175.8 C 1263.6 1228.2 1216.8 1289.1 1186.8 1351.1 C 1156.8 1413.1 1127.1 1482.3 1109.4 1547.9 C 1091.6 1613.4 1095.6 1677.1 1080.2 1744.2 C 1064.8 1811.3 1046.6 1890.3 1017.0 1950.5 C 987.5 2010.6 920.1 2067.2 902.9 2105.0 C 885.7 2142.9 902.2 2158.3 913.9 2177.7 C 925.6 2197.1 951.1 2215.9 973.0 2221.4 C 995.0 2226.8 1026.3 2222.1 1045.7 2210.4 C 1065.1 2198.7 1083.9 2173.3 1089.4 2151.3 C 1094.8 2129.3 1090.1 2098.0 1078.4 2078.6 C 1066.7 2059.2 1041.2 2040.4 1019.3 2035.0 C 997.3 2029.5 966.0 2034.2 946.6 2045.9 C 927.2 2057.6 929.2 2080.4 902.9 2105.0 C 876.7 2129.7 828.1 2152.5 789.3 2193.7 C 750.5 2234.9 715.1 2306.1 670.2 2352.4 C 625.2 2398.8 544.8 2452.0 519.7 2471.9" stroke="#8FD11E" stroke-width="48" stroke-linecap="round" stroke-linejoin="round"></path><path d="M 980.0 560.0 C 1014.0 569.8 1115.0 598.3 1184.1 618.6 C 1253.3 639.0 1333.8 661.9 1394.9 682.1 C 1456.0 702.3 1505.4 720.0 1550.7 739.7 C 1596.1 759.4 1621.5 767.3 1667.1 800.1 C 1712.6 832.9 1780.0 888.5 1824.0 936.6 C 1868.1 984.6 1916.8 1051.8 1931.6 1088.2 C 1946.3 1124.5 1926.2 1139.2 1912.4 1154.8 C 1898.5 1170.3 1869.1 1182.4 1848.3 1181.3 C 1827.5 1180.1 1799.7 1164.7 1787.7 1147.7 C 1775.6 1130.7 1770.3 1099.4 1776.1 1079.4 C 1781.9 1059.4 1803.0 1035.7 1822.3 1027.7 C 1841.5 1019.8 1873.3 1021.6 1891.5 1031.6 C 1909.7 1041.7 1903.4 1061.4 1931.6 1088.2 C 1959.7 1114.9 2007.6 1159.6 2060.5 1192.0 C 2113.3 1224.4 2196.6 1255.9 2248.9 1282.6 C 2301.1 1309.2 2342.6 1344.8 2374.2 1352.0 C 2405.7 1359.1 2424.3 1341.0 2438.2 1325.5 C 2452.1 1310.0 2460.9 1279.4 2457.5 1258.9 C 2454.0 1238.4 2435.6 1212.4 2417.4 1202.4 C 2399.2 1192.3 2367.4 1190.5 2348.2 1198.4 C 2329.0 1206.4 2307.8 1230.1 2302.0 1250.1 C 2296.2 1270.1 2301.5 1301.4 2313.5 1318.4 C 2325.6 1335.4 2339.1 1329.0 2374.2 1352.0 C 2409.3 1374.9 2476.8 1423.9 2524.1 1456.1 C 2571.5 1488.3 2601.0 1521.9 2658.3 1545.1 C 2715.6 1568.4 2811.8 1582.9 2868.1 1595.8 C 2924.5 1608.6 2975.0 1617.9 2996.4 1622.4" stroke="#07231A" stroke-width="48" stroke-linecap="round" stroke-linejoin="round"></path><path d="M 980.0 560.0 C 1014.0 569.8 1115.0 598.3 1184.1 618.6 C 1253.3 639.0 1333.8 661.9 1394.9 682.1 C 1456.0 702.3 1505.4 720.0 1550.7 739.7 C 1596.1 759.4 1621.5 767.3 1667.1 800.1 C 1712.6 832.9 1780.0 888.5 1824.0 936.6 C 1868.1 984.6 1916.8 1051.8 1931.6 1088.2 C 1946.3 1124.5 1926.2 1139.2 1912.4 1154.8 C 1898.5 1170.3 1869.1 1182.4 1848.3 1181.3 C 1827.5 1180.1 1799.7 1164.7 1787.7 1147.7 C 1775.6 1130.7 1770.3 1099.4 1776.1 1079.4 C 1781.9 1059.4 1803.0 1035.7 1822.3 1027.7 C 1841.5 1019.8 1873.3 1021.6 1891.5 1031.6 C 1909.7 1041.7 1903.4 1061.4 1931.6 1088.2 C 1959.7 1114.9 2007.6 1159.6 2060.5 1192.0 C 2113.3 1224.4 2196.6 1255.9 2248.9 1282.6 C 2301.1 1309.2 2342.6 1344.8 2374.2 1352.0 C 2405.7 1359.1 2424.3 1341.0 2438.2 1325.5 C 2452.1 1310.0 2460.9 1279.4 2457.5 1258.9 C 2454.0 1238.4 2435.6 1212.4 2417.4 1202.4 C 2399.2 1192.3 2367.4 1190.5 2348.2 1198.4 C 2329.0 1206.4 2307.8 1230.1 2302.0 1250.1 C 2296.2 1270.1 2301.5 1301.4 2313.5 1318.4 C 2325.6 1335.4 2339.1 1329.0 2374.2 1352.0 C 2409.3 1374.9 2476.8 1423.9 2524.1 1456.1 C 2571.5 1488.3 2601.0 1521.9 2658.3 1545.1 C 2715.6 1568.4 2811.8 1582.9 2868.1 1595.8 C 2924.5 1608.6 2975.0 1617.9 2996.4 1622.4" stroke="#FFFFFF" stroke-width="34" stroke-linecap="round" stroke-linejoin="round"></path></svg>