<svg xmlns="http://www.w3.org/2000/svg" viewBox="0 0 1920 1080" width="1920" height="1080" fill="none"><path d="M 760.0 -120.0 C 786.1 -90.7 875.3 25.5 916.7 55.7 C 958.2 85.9 981.8 70.3 1008.6 60.9 C 1035.3 51.6 1064.9 25.2 1077.2 -0.3 C 1089.6 -25.8 1091.8 -65.4 1082.5 -92.1 C 1073.1 -118.9 1046.8 -148.5 1021.2 -160.8 C 995.7 -173.1 956.1 -175.4 929.4 -166.0 C 902.6 -156.7 873.1 -130.3 860.7 -104.8 C 848.4 -79.3 846.2 -39.7 855.5 -12.9 C 864.8 13.8 879.7 14.7 916.7 55.7 C 953.8 96.7 1020.0 176.0 1077.8 233.2 C 1135.6 290.3 1193.9 347.8 1263.6 398.6 C 1333.3 449.4 1419.0 484.2 1496.0 537.9 C 1573.1 591.7 1662.0 666.2 1726.0 721.0 C 1790.0 775.8 1820.0 809.1 1880.0 866.7 C 1940.1 924.4 2010.2 1007.8 2086.3 1066.7 C 2162.4 1125.6 2260.8 1163.0 2336.6 1220.2 C 2412.4 1277.3 2507.0 1377.9 2541.1 1409.4" stroke="#2E9C82" stroke-width="54" stroke-linecap="round" stroke-linejoin="round" opacity="0.6"></path><path d="M 980.0 -140.0 C 991.7 -109.2 1031.3 -14.2 1050.4 45.1 C 1069.5 104.4 1095.0 174.0 1094.4 216.0 C 1093.8 257.9 1069.8 279.5 1046.6 296.9 C 1023.5 314.3 984.3 324.4 955.6 320.3 C 926.9 316.3 892.0 295.7 874.6 272.6 C 857.2 249.4 847.1 210.2 851.2 181.5 C 855.3 152.9 875.8 118.0 899.0 100.6 C 922.1 83.2 961.4 73.1 990.0 77.1 C 1018.7 81.2 1053.6 101.8 1071.0 124.9 C 1088.4 148.1 1087.4 157.3 1094.4 216.0 C 1101.4 274.6 1112.9 390.1 1112.8 476.6 C 1112.8 563.0 1091.8 653.8 1094.1 734.5 C 1096.3 815.3 1122.1 884.2 1126.4 961.0 C 1130.8 1037.8 1122.2 1113.5 1120.0 1195.4 C 1117.9 1277.2 1123.6 1365.2 1113.4 1452.0 C 1103.2 1538.9 1081.4 1628.6 1058.9 1716.4 C 1036.4 1804.3 1017.3 1892.4 978.2 1979.2 C 939.1 2066.1 880.4 2152.4 824.4 2237.3 C 768.5 2322.3 672.8 2447.1 642.5 2489.1" stroke="#06170F" stroke-width="82" stroke-linecap="round" stroke-linejoin="round"></path><path d="M 980.0 -140.0 C 991.7 -109.2 1031.3 -14.2 1050.4 45.1 C 1069.5 104.4 1095.0 174.0 1094.4 216.0 C 1093.8 257.9 1069.8 279.5 1046.6 296.9 C 1023.5 314.3 984.3 324.4 955.6 320.3 C 926.9 316.3 892.0 295.7 874.6 272.6 C 857.2 249.4 847.1 210.2 851.2 181.5 C 855.3 152.9 875.8 118.0 899.0 100.6 C 922.1 83.2 961.4 73.1 990.0 77.1 C 1018.7 81.2 1053.6 101.8 1071.0 124.9 C 1088.4 148.1 1087.4 157.3 1094.4 216.0 C 1101.4 274.6 1112.9 390.1 1112.8 476.6 C 1112.8 563.0 1091.8 653.8 1094.1 734.5 C 1096.3 815.3 1122.1 884.2 1126.4 961.0 C 1130.8 1037.8 1122.2 1113.5 1120.0 1195.4 C 1117.9 1277.2 1123.6 1365.2 1113.4 1452.0 C 1103.2 1538.9 1081.4 1628.6 1058.9 1716.4 C 1036.4 1804.3 1017.3 1892.4 978.2 1979.2 C 939.1 2066.1 880.4 2152.4 824.4 2237.3 C 768.5 2322.3 672.8 2447.1 642.5 2489.1" stroke="#A3E635" stroke-width="66" stroke-linecap="round" stroke-linejoin="round"></path><path d="M 1500.0 120.0 C 1523.4 132.1 1591.7 161.0 1640.2 192.7 C 1688.7 224.4 1737.0 272.6 1791.3 310.2 C 1845.5 347.9 1909.6 382.3 1965.9 418.8 C 2022.1 455.3 2061.7 492.3 2128.9 529.2 C 2196.1 566.0 2294.7 600.0 2369.0 639.7 C 2443.3 679.5 2540.5 746.5 2574.8 767.9" stroke="#FFFFFF" stroke-width="30" stroke-linecap="round" stroke-linejoin="round"></path></svg>