<svg xmlns="http://www.w3.org/2000/svg" viewBox="0 0 1920 1080" width="1920" height="1080" fill="none"><path d="M 2010.1 875.0 C 1973.2 842.8 1855.0 735.6 1788.4 682.2 C 1721.9 628.9 1663.9 591.3 1611.1 555.1 C 1558.3 518.9 1530.1 508.8 1471.7 465.1 C 1413.2 421.5 1322.6 334.4 1260.4 293.1 C 1198.1 251.8 1172.6 240.7 1098.3 217.3 C 1024.0 193.9 907.2 179.9 814.6 152.7 C 722.0 125.6 627.9 92.5 542.7 54.4 C 457.5 16.3 357.4 -60.1 303.5 -75.9 C 249.6 -91.8 237.6 -61.1 219.5 -40.5 C 201.4 -20.0 190.1 20.2 194.8 47.2 C 199.6 74.1 224.0 108.1 248.0 121.2 C 272.0 134.3 313.8 136.4 339.0 125.8 C 364.2 115.1 391.9 83.8 399.3 57.4 C 406.8 31.1 399.5 -10.1 383.5 -32.3 C 367.6 -54.5 347.3 -55.9 303.5 -75.9 C 259.7 -95.9 186.2 -113.4 120.7 -152.4 C 55.2 -191.5 -54.5 -283.9 -89.5 -310.2" stroke="#A3E635" stroke-width="44" stroke-linecap="round" stroke-linejoin="round" opacity="0.5959178321645595"></path><path d="M 2079.0 431.7 C 2034.0 428.7 1903.9 416.1 1809.0 413.8 C 1714.1 411.4 1588.4 416.6 1509.6 417.7 C 1430.7 418.9 1397.9 424.3 1336.0 420.7 C 1274.1 417.2 1222.4 405.6 1138.2 396.2 C 1054.0 386.8 921.5 383.9 830.9 364.3 C 740.4 344.8 668.6 302.9 595.1 278.9 C 521.7 254.9 472.9 234.9 390.3 220.3 C 307.8 205.6 188.4 210.3 99.8 191.0 C 11.2 171.7 -70.4 125.3 -141.3 104.3 C -212.1 83.2 -258.9 81.8 -325.1 64.6 C -391.3 47.4 -473.6 22.5 -538.4 1.3 C -603.3 -20.0 -660.7 -41.1 -714.3 -63.0 C -767.8 -84.8 -813.5 -102.2 -859.8 -129.9 C -906.0 -157.6 -945.5 -185.1 -991.6 -229.2 C -1037.7 -273.3 -1090.4 -332.0 -1136.6 -394.6 C -1182.7 -457.1 -1229.7 -529.3 -1268.4 -604.7 C -1307.2 -680.1 -1352.4 -806.6 -1369.2 -846.9" stroke="#FFFFFF" stroke-width="32" stroke-linecap="round" stroke-linejoin="round" opacity="0.5969232651288622"></path><path d="M -279.8 -100.8 C -243.7 -90.7 -118.4 -56.3 -63.1 -39.9 C -7.9 -23.6 13.2 -13.4 51.7 -2.9 C 90.2 7.5 111.6 17.2 167.8 22.8 C 224.1 28.4 332.2 32.2 389.0 30.7 C 445.8 29.3 460.6 27.9 508.7 14.1 C 556.8 0.4 625.2 -24.5 677.7 -51.7 C 730.2 -79.0 788.4 -136.5 823.7 -149.4 C 858.9 -162.2 873.9 -142.7 888.9 -128.6 C 903.8 -114.5 915.1 -85.1 913.3 -64.6 C 911.6 -44.2 895.7 -17.1 878.6 -5.7 C 861.5 5.8 830.4 10.2 810.8 3.9 C 791.2 -2.3 768.4 -23.9 761.0 -43.1 C 753.7 -62.3 756.3 -93.6 766.7 -111.3 C 777.2 -129.0 789.6 -125.3 823.7 -149.4 C 857.7 -173.4 921.2 -210.4 971.1 -255.7 C 1021.0 -301.0 1076.0 -373.3 1122.9 -421.1 C 1169.7 -468.9 1209.5 -502.6 1252.2 -542.4 C 1295.0 -582.3 1326.8 -622.6 1379.2 -660.3 C 1431.6 -698.1 1535.5 -750.8 1566.7 -768.9" stroke="#C6F66E" stroke-width="46" stroke-linecap="round" stroke-linejoin="round" opacity="0.7631298081483693"></path></svg>